<?xml version="1.0" encoding="UTF-8"?>
<!DOCTYPE svg PUBLIC "-//W3C//DTD SVG 1.1//EN" "http://www.w3.org/Graphics/SVG/1.1/DTD/svg11.dtd">
<svg xmlns="http://www.w3.org/2000/svg" version="1.1" width="250px" height="250px" style="shape-rendering:geometricPrecision; text-rendering:geometricPrecision; image-rendering:optimizeQuality; fill-rule:evenodd; clip-rule:evenodd" xmlns:xlink="http://www.w3.org/1999/xlink">
<g><path style="opacity:0.981" fill="#5ed6fc" d="M 120.5,21.5 C 123.187,21.3359 125.854,21.5026 128.5,22C 146.671,32.5866 165.005,42.9199 183.5,53C 186,54.1667 187.833,56 189,58.5C 189.98,82.5878 189.646,106.588 188,130.5C 167.207,143.147 146.041,155.147 124.5,166.5C 103.878,155.856 83.5442,144.689 63.5,133C 61.1898,131.363 59.6898,129.196 59,126.5C 58.0313,103.437 58.3646,80.4366 60,57.5C 61.1667,56.3333 62.3333,55.1667 63.5,54C 82.888,43.6454 101.888,32.8121 120.5,21.5 Z"/></g>
<g><path style="opacity:1" fill="#fcfdfe" d="M 122.5,37.5 C 140.289,45.6453 157.456,54.9787 174,65.5C 174.667,84.1667 174.667,102.833 174,121.5C 157.802,131.601 141.136,140.934 124,149.5C 107.188,140.427 90.521,131.094 74,121.5C 73.3333,102.833 73.3333,84.1667 74,65.5C 90.3112,56.2661 106.478,46.9328 122.5,37.5 Z"/></g>
<g><path style="opacity:1" fill="#0478c3" d="M 122.5,52.5 C 123.873,52.3433 125.207,52.51 126.5,53C 137.369,59.2633 148.036,65.7633 158.5,72.5C 148.833,78.3333 139.167,84.1667 129.5,90C 127.35,91.5899 125.017,92.2566 122.5,92C 111.5,85.5 100.5,79 89.5,72.5C 100.54,65.7715 111.54,59.1048 122.5,52.5 Z"/></g>
<g><path style="opacity:1" fill="#1698d2" d="M 158.5,89.5 C 158.56,88.9569 158.893,88.6236 159.5,88.5C 160.821,97.3245 160.821,105.991 159.5,114.5C 159.826,105.983 159.493,97.6499 158.5,89.5 Z"/></g>
<g><path style="opacity:1" fill="#bde1f2" d="M 89.5,89.5 C 88.5073,97.6499 88.1739,105.983 88.5,114.5C 87.1786,105.991 87.1786,97.3245 88.5,88.5C 89.1067,88.6236 89.44,88.9569 89.5,89.5 Z"/></g>
<g><path style="opacity:1" fill="#0878c4" d="M 89.5,89.5 C 99.0382,94.2071 108.205,99.5404 117,105.5C 117.832,113.853 117.665,122.187 116.5,130.5C 107.139,125.155 97.806,119.821 88.5,114.5C 88.1739,105.983 88.5073,97.6499 89.5,89.5 Z"/></g>
<g><path style="opacity:1" fill="#0377c3" d="M 158.5,89.5 C 159.493,97.6499 159.826,105.983 159.5,114.5C 150.693,120.074 141.693,125.407 132.5,130.5C 131.167,121.833 131.167,113.167 132.5,104.5C 141.194,99.4883 149.861,94.4883 158.5,89.5 Z"/></g>
<g><path style="opacity:0.855" fill="#50cff6" d="M 249.5,215.5 C 249.5,217.833 249.5,220.167 249.5,222.5C 248.023,224.807 246.023,226.64 243.5,228C 238.5,228.667 233.5,228.667 228.5,228C 224.594,226.033 222.261,222.866 221.5,218.5C 225.96,215.191 229.293,216.024 231.5,221C 235.313,223.269 238.646,222.769 241.5,219.5C 241.023,218.522 240.357,217.689 239.5,217C 233.328,216.497 228.162,213.997 224,209.5C 221.842,203.644 223.675,199.478 229.5,197C 235.106,195.062 240.439,195.729 245.5,199C 247.497,201.492 248.497,204.325 248.5,207.5C 244.414,208.154 241.081,206.988 238.5,204C 235.621,203.126 232.955,203.46 230.5,205C 231.167,205.667 231.833,206.333 232.5,207C 236.984,207.871 241.317,209.204 245.5,211C 247.07,212.397 248.404,213.897 249.5,215.5 Z"/></g>
<g><path style="opacity:0.885" fill="#50cff6" d="M -0.5,196.5 C 5.84209,196.334 12.1754,196.5 18.5,197C 26.3354,199.82 28.002,204.653 23.5,211.5C 28.9912,217.262 28.6579,222.762 22.5,228C 14.8406,228.5 7.1739,228.666 -0.5,228.5C -0.5,217.833 -0.5,207.167 -0.5,196.5 Z M 7.5,203.5 C 10.5184,203.335 13.5184,203.502 16.5,204C 18.3348,204.928 18.6682,206.094 17.5,207.5C 14.2317,208.487 10.8984,208.82 7.5,208.5C 7.5,206.833 7.5,205.167 7.5,203.5 Z M 7.5,215.5 C 10.5184,215.335 13.5184,215.502 16.5,216C 20.5,218 20.5,220 16.5,222C 13.5184,222.498 10.5184,222.665 7.5,222.5C 7.5,220.167 7.5,217.833 7.5,215.5 Z"/></g>
<g><path style="opacity:0.872" fill="#50cff6" d="M 32.5,196.5 C 35.1667,196.5 37.8333,196.5 40.5,196.5C 40.3336,204.507 40.5003,212.507 41,220.5C 43.4973,222.478 46.3307,222.978 49.5,222C 50.2266,220.601 50.7266,219.101 51,217.5C 51.4996,210.508 51.6663,203.508 51.5,196.5C 54.1667,196.5 56.8333,196.5 59.5,196.5C 59.9137,205.582 59.4137,214.582 58,223.5C 55.2883,227.915 51.2883,229.582 46,228.5C 40.0966,229.713 35.7633,227.713 33,222.5C 32.5002,213.84 32.3336,205.173 32.5,196.5 Z"/></g>
<g><path style="opacity:0.864" fill="#50cff6" d="M 65.5,196.5 C 68.1873,196.336 70.854,196.503 73.5,197C 77,202.5 80.5,208 84,213.5C 84.3333,208.167 84.6667,202.833 85,197.5C 87.3806,196.565 89.8806,196.232 92.5,196.5C 92.5,207.167 92.5,217.833 92.5,228.5C 89.8127,228.664 87.146,228.497 84.5,228C 80.8751,222.585 77.3751,217.085 74,211.5C 73.5006,217.157 73.3339,222.824 73.5,228.5C 70.8333,228.5 68.1667,228.5 65.5,228.5C 65.5,217.833 65.5,207.167 65.5,196.5 Z"/></g>
<g><path style="opacity:0.87" fill="#50cff6" d="M 98.5,196.5 C 104.509,196.334 110.509,196.501 116.5,197C 123.843,199.655 127.51,204.988 127.5,213C 127.533,219.951 124.533,224.951 118.5,228C 111.842,228.5 105.175,228.666 98.5,228.5C 98.5,217.833 98.5,207.167 98.5,196.5 Z M 106.5,203.5 C 114.671,201.726 118.671,204.892 118.5,213C 118.671,221.108 114.671,224.274 106.5,222.5C 106.5,216.167 106.5,209.833 106.5,203.5 Z"/></g>
<g><path style="opacity:0.825" fill="#50cff6" d="M 131.5,196.5 C 134.5,196.5 137.5,196.5 140.5,196.5C 140.817,205.085 140.483,213.585 139.5,222C 145.157,222.499 150.824,222.666 156.5,222.5C 156.5,224.5 156.5,226.5 156.5,228.5C 148.167,228.5 139.833,228.5 131.5,228.5C 131.5,217.833 131.5,207.167 131.5,196.5 Z"/></g>
<g><path style="opacity:0.857" fill="#50cff6" d="M 159.5,196.5 C 168.167,196.5 176.833,196.5 185.5,196.5C 185.5,198.833 185.5,201.167 185.5,203.5C 179.5,203.5 173.5,203.5 167.5,203.5C 167.5,205.167 167.5,206.833 167.5,208.5C 172.833,208.5 178.167,208.5 183.5,208.5C 183.5,210.833 183.5,213.167 183.5,215.5C 178.167,215.5 172.833,215.5 167.5,215.5C 167.5,217.833 167.5,220.167 167.5,222.5C 173.5,222.5 179.5,222.5 185.5,222.5C 185.5,224.5 185.5,226.5 185.5,228.5C 176.833,228.5 168.167,228.5 159.5,228.5C 159.5,217.833 159.5,207.167 159.5,196.5 Z"/></g>
<g><path style="opacity:0.875" fill="#50cff6" d="M 190.5,196.5 C 197.175,196.334 203.842,196.5 210.5,197C 218.406,199.983 220.239,205.15 216,212.5C 214.581,213.46 213.081,214.293 211.5,215C 214.868,218.902 217.868,223.069 220.5,227.5C 217.554,228.655 214.554,228.821 211.5,228C 208.642,224.642 205.975,221.142 203.5,217.5C 201.929,216.691 200.262,216.357 198.5,216.5C 198.5,220.5 198.5,224.5 198.5,228.5C 195.833,228.5 193.167,228.5 190.5,228.5C 190.5,217.833 190.5,207.167 190.5,196.5 Z M 198.5,203.5 C 201.85,203.335 205.183,203.502 208.5,204C 209.833,205.667 209.833,207.333 208.5,209C 205.183,209.498 201.85,209.665 198.5,209.5C 198.5,207.5 198.5,205.5 198.5,203.5 Z"/></g>
</svg>
