<?xml version="1.0" encoding="UTF-8"?>
<!DOCTYPE svg PUBLIC "-//W3C//DTD SVG 1.1//EN" "http://www.w3.org/Graphics/SVG/1.1/DTD/svg11.dtd">
<svg xmlns="http://www.w3.org/2000/svg" version="1.1" width="250px" height="250px" style="shape-rendering:geometricPrecision; text-rendering:geometricPrecision; image-rendering:optimizeQuality; fill-rule:evenodd; clip-rule:evenodd" xmlns:xlink="http://www.w3.org/1999/xlink">
<g><path style="opacity:0.986" fill="#0079f7" d="M 191.5,15.5 C 191.5,46.8333 191.5,78.1667 191.5,109.5C 180.947,115.797 169.613,120.13 157.5,122.5C 156.833,97.1667 156.167,71.8333 155.5,46.5C 158.164,43.7337 160.997,41.0671 164,38.5C 169.376,30.247 174.876,22.0804 180.5,14C 183.833,13.3333 187.167,13.3333 190.5,14C 191.056,14.3826 191.389,14.8826 191.5,15.5 Z"/></g>
<g><path style="opacity:0.978" fill="#007ffd" d="M 191.5,15.5 C 207.43,24.9143 223.264,34.581 239,44.5C 239.667,48.1667 239.667,51.8333 239,55.5C 229.555,71.8698 218.055,86.7031 204.5,100C 200.137,103.176 195.804,106.343 191.5,109.5C 191.5,78.1667 191.5,46.8333 191.5,15.5 Z"/></g>
<g><path style="opacity:0.969" fill="#0055d5" d="M 43.5,21.5 C 45.4894,43.475 46.156,65.8083 45.5,88.5C 43.901,88.2322 42.5676,88.5655 41.5,89.5C 34.1684,86.751 27.3351,83.0844 21,78.5C 20.1131,73.9283 20.7798,69.595 23,65.5C 30.1388,50.8936 36.9722,36.2269 43.5,21.5 Z"/></g>
<g><path style="opacity:0.985" fill="#005edd" d="M 89.5,33.5 C 88.5096,59.4257 88.1763,85.4257 88.5,111.5C 72.7129,104.44 57.0462,97.1066 41.5,89.5C 42.5676,88.5655 43.901,88.2322 45.5,88.5C 46.156,65.8083 45.4894,43.475 43.5,21.5C 45.2032,16.8133 48.5366,14.9799 53.5,16C 65.6116,21.7506 77.6116,27.5839 89.5,33.5 Z"/></g>
<g><path style="opacity:0.982" fill="#0066e5" d="M 89.5,33.5 C 99.3535,37.5969 109.02,41.9302 118.5,46.5C 116.846,70.179 115.846,94.0124 115.5,118C 116.756,118.417 117.423,119.25 117.5,120.5C 107.641,118.102 97.9742,115.102 88.5,111.5C 88.1763,85.4257 88.5096,59.4257 89.5,33.5 Z"/></g>
<g><path style="opacity:0.983" fill="#006ceb" d="M 118.5,46.5 C 123.387,48.24 128.387,49.5733 133.5,50.5C 134.125,74.9936 133.458,99.3269 131.5,123.5C 126.798,122.685 122.131,121.685 117.5,120.5C 117.423,119.25 116.756,118.417 115.5,118C 115.846,94.0124 116.846,70.179 118.5,46.5 Z"/></g>
<g><path style="opacity:0.977" fill="#0072f0" d="M 155.5,46.5 C 156.167,71.8333 156.833,97.1667 157.5,122.5C 148.874,123.411 140.208,123.745 131.5,123.5C 133.458,99.3269 134.125,74.9936 133.5,50.5C 141.281,51.3424 148.614,50.0091 155.5,46.5 Z"/></g>
<g><path style="opacity:0.725" fill="#00a8dc" d="M -0.5,82.5 C 0.833333,83.5 0.833333,84.5 -0.5,85.5C -0.5,84.5 -0.5,83.5 -0.5,82.5 Z"/></g>
<g><path style="opacity:0.984" fill="#0072f0" d="M 98.5,127.5 C 106.684,127.174 114.684,127.508 122.5,128.5C 122.5,152.833 122.5,177.167 122.5,201.5C 115.158,198.926 107.824,198.926 100.5,201.5C 98.5246,177.062 97.8579,152.395 98.5,127.5 Z"/></g>
<g><path style="opacity:0.989" fill="#0079f7" d="M 98.5,127.5 C 97.8579,152.395 98.5246,177.062 100.5,201.5C 94.7097,203.822 89.8764,207.488 86,212.5C 80.8945,219.727 76.0612,227.061 71.5,234.5C 70.1672,218.514 69.5005,202.181 69.5,185.5C 69.5137,168.458 69.847,151.458 70.5,134.5C 79.4357,130.645 88.769,128.312 98.5,127.5 Z"/></g>
<g><path style="opacity:0.986" fill="#006bea" d="M 122.5,128.5 C 130.995,129.374 139.328,131.041 147.5,133.5C 147.5,159.167 147.5,184.833 147.5,210.5C 139.384,206.906 131.051,203.906 122.5,201.5C 122.5,177.167 122.5,152.833 122.5,128.5 Z"/></g>
<g><path style="opacity:0.982" fill="#0065e4" d="M 147.5,133.5 C 156.245,136.637 164.912,139.97 173.5,143.5C 173.577,144.75 174.244,145.583 175.5,146C 175.164,171.154 174.164,196.154 172.5,221C 173.756,221.417 174.423,222.25 174.5,223.5C 165.378,219.439 156.378,215.106 147.5,210.5C 147.5,184.833 147.5,159.167 147.5,133.5 Z"/></g>
<g><path style="opacity:0.981" fill="#007ffd" d="M 70.5,134.5 C 69.847,151.458 69.5137,168.458 69.5,185.5C 69.5005,202.181 70.1672,218.514 71.5,234.5C 71.3893,235.117 71.056,235.617 70.5,236C 65.5602,237.041 60.8935,236.374 56.5,234C 42.0975,224.603 27.4308,215.603 12.5,207C 10.9546,205.178 10.288,203.011 10.5,200.5C 19.9754,178.821 33.9754,160.321 52.5,145C 58.1281,140.874 64.1281,137.374 70.5,134.5 Z"/></g>
<g><path style="opacity:0.985" fill="#005cdb" d="M 173.5,143.5 C 183.68,148.756 194.014,153.756 204.5,158.5C 205.148,182.628 205.814,206.628 206.5,230.5C 204.098,234.078 200.765,235.245 196.5,234C 188.988,230.743 181.655,227.243 174.5,223.5C 174.423,222.25 173.756,221.417 172.5,221C 174.164,196.154 175.164,171.154 175.5,146C 174.244,145.583 173.577,144.75 173.5,143.5 Z"/></g>
<g><path style="opacity:0.965" fill="#0055d5" d="M 204.5,158.5 C 211.686,162.259 219.019,165.759 226.5,169C 229.428,172.257 230.262,176.091 229,180.5C 221.743,197.342 214.243,214.008 206.5,230.5C 205.814,206.628 205.148,182.628 204.5,158.5 Z"/></g>
<g><path style="opacity:0.604" fill="#00d6dd" d="M -0.5,162.5 C 0.833333,163.5 0.833333,164.5 -0.5,165.5C -0.5,164.5 -0.5,163.5 -0.5,162.5 Z"/></g>
</svg>
