<?xml version="1.0" encoding="UTF-8"?>
<!DOCTYPE svg PUBLIC "-//W3C//DTD SVG 1.1//EN" "http://www.w3.org/Graphics/SVG/1.1/DTD/svg11.dtd">
<svg xmlns="http://www.w3.org/2000/svg" version="1.1" width="250px" height="250px" style="shape-rendering:geometricPrecision; text-rendering:geometricPrecision; image-rendering:optimizeQuality; fill-rule:evenodd; clip-rule:evenodd" xmlns:xlink="http://www.w3.org/1999/xlink">
<g><path style="opacity:0.929" fill="#009bd9" d="M -0.5,118.5 C -0.5,109.5 -0.5,100.5 -0.5,91.5C 7.80605,64.0021 26.1394,53.5021 54.5,60C 68.0954,65.6582 76.0954,75.8248 78.5,90.5C 72.5847,92.125 66.5847,92.625 60.5,92C 55.5983,73.0436 44.5983,68.0436 27.5,77C 20.1472,88.4305 17.6472,100.93 20,114.5C 20.7304,122.795 24.2304,129.628 30.5,135C 41.2186,140.009 50.052,137.842 57,128.5C 58.6526,124.882 60.1526,121.215 61.5,117.5C 67.2156,118.172 72.8822,119.172 78.5,120.5C 71.6106,146.131 54.944,156.298 28.5,151C 12.6295,145.633 2.96283,134.8 -0.5,118.5 Z"/></g>
<g><path style="opacity:0.931" fill="#009bd9" d="M 111.5,58.5 C 127.506,55.8066 142.006,59.14 155,68.5C 157.324,71.4799 158.824,74.8133 159.5,78.5C 153.545,79.3904 147.712,80.7237 142,82.5C 140.098,77.5995 136.598,74.4329 131.5,73C 126.167,72.3333 120.833,72.3333 115.5,73C 108.384,75.0722 105.884,79.5722 108,86.5C 109.731,88.6166 111.898,90.1166 114.5,91C 125.92,93.6883 137.253,96.6883 148.5,100C 160.639,106.113 165.473,115.947 163,129.5C 158.392,142.249 149.225,149.416 135.5,151C 120.312,153.494 105.979,151.16 92.5,144C 86.6547,139.464 82.9881,133.63 81.5,126.5C 86.6937,126.107 91.8603,125.44 97,124.5C 100.306,125.053 102.306,127.053 103,130.5C 108.714,135.905 115.547,138.238 123.5,137.5C 129.23,138.055 134.563,136.888 139.5,134C 145.981,124.925 143.647,118.925 132.5,116C 119.979,114.431 107.979,111.098 96.5,106C 84.0091,93.5768 83.3424,80.5768 94.5,67C 99.7119,63.0607 105.379,60.2273 111.5,58.5 Z"/></g>
<g><path style="opacity:0.931" fill="#009bd9" d="M 249.5,116.5 C 249.5,120.833 249.5,125.167 249.5,129.5C 245.563,140.258 237.897,147.091 226.5,150C 216.552,151.531 206.552,151.865 196.5,151C 185.299,149.157 176.465,143.657 170,134.5C 168.864,131.904 168.031,129.237 167.5,126.5C 172.694,126.107 177.86,125.44 183,124.5C 186.306,125.053 188.306,127.053 189,130.5C 194.714,135.905 201.547,138.238 209.5,137.5C 215.23,138.055 220.563,136.888 225.5,134C 231.981,124.925 229.647,118.925 218.5,116C 205.979,114.431 193.979,111.098 182.5,106C 170.709,94.4709 169.543,81.9709 179,68.5C 184.253,63.6231 190.42,60.4565 197.5,59C 213.205,55.957 227.539,58.957 240.5,68C 243.115,71.0619 244.781,74.5619 245.5,78.5C 239.545,79.3904 233.712,80.7237 228,82.5C 226.098,77.5995 222.598,74.4329 217.5,73C 212.167,72.3333 206.833,72.3333 201.5,73C 194.384,75.0722 191.884,79.5722 194,86.5C 195.731,88.6166 197.898,90.1166 200.5,91C 208.74,93.3813 217.073,95.3813 225.5,97C 237.645,98.665 245.645,105.165 249.5,116.5 Z"/></g>
<g><path style="opacity:0.891" fill="#0ca7e5" d="M -0.5,170.5 C 3.84611,170.334 8.17944,170.501 12.5,171C 16.4875,174.62 16.4875,178.287 12.5,182C 9.51838,182.498 6.51838,182.665 3.5,182.5C 3.5,185.167 3.5,187.833 3.5,190.5C 2.16667,190.5 0.833333,190.5 -0.5,190.5C -0.5,183.833 -0.5,177.167 -0.5,170.5 Z M 3.5,173.5 C 6.64053,172.908 8.97387,173.908 10.5,176.5C 8.97387,179.092 6.64053,180.092 3.5,179.5C 3.5,177.5 3.5,175.5 3.5,173.5 Z"/></g>
<g><path style="opacity:0.85" fill="#0ca7e5" d="M 18.5,170.5 C 23.5111,170.334 28.5111,170.501 33.5,171C 37.7475,175.163 37.4141,178.829 32.5,182C 34.1048,184.543 35.4381,187.209 36.5,190C 31.1972,190.686 28.5306,188.186 28.5,182.5C 26.8333,182.5 25.1667,182.5 23.5,182.5C 23.5,185.167 23.5,187.833 23.5,190.5C 21.8333,190.5 20.1667,190.5 18.5,190.5C 18.5,183.833 18.5,177.167 18.5,170.5 Z M 23.5,173.5 C 25.5273,173.338 27.5273,173.505 29.5,174C 32.1667,175.667 32.1667,177.333 29.5,179C 27.5273,179.495 25.5273,179.662 23.5,179.5C 23.5,177.5 23.5,175.5 23.5,173.5 Z"/></g>
<g><path style="opacity:0.903" fill="#0ca7e5" d="M 39.5,170.5 C 44.5,170.5 49.5,170.5 54.5,170.5C 54.5,171.5 54.5,172.5 54.5,173.5C 51.1667,173.5 47.8333,173.5 44.5,173.5C 44.5,175.167 44.5,176.833 44.5,178.5C 47.1667,178.5 49.8333,178.5 52.5,178.5C 52.5,179.5 52.5,180.5 52.5,181.5C 49.8333,181.5 47.1667,181.5 44.5,181.5C 44.5,183.5 44.5,185.5 44.5,187.5C 47.8333,187.5 51.1667,187.5 54.5,187.5C 54.5,188.5 54.5,189.5 54.5,190.5C 49.5,190.5 44.5,190.5 39.5,190.5C 39.5,183.833 39.5,177.167 39.5,170.5 Z"/></g>
<g><path style="opacity:0.861" fill="#0ca7e5" d="M 56.5,170.5 C 61.1785,170.334 65.8452,170.501 70.5,171C 74.4875,174.62 74.4875,178.287 70.5,182C 67.5184,182.498 64.5184,182.665 61.5,182.5C 61.5,185.167 61.5,187.833 61.5,190.5C 59.8333,190.5 58.1667,190.5 56.5,190.5C 56.5,183.833 56.5,177.167 56.5,170.5 Z M 61.5,173.5 C 64.6405,172.908 66.9739,173.908 68.5,176.5C 66.9739,179.092 64.6405,180.092 61.5,179.5C 61.5,177.5 61.5,175.5 61.5,173.5 Z"/></g>
<g><path style="opacity:0.85" fill="#0ca7e5" d="M 76.5,170.5 C 81.5111,170.334 86.5111,170.501 91.5,171C 95.7475,175.163 95.4141,178.829 90.5,182C 92.1048,184.543 93.4381,187.209 94.5,190C 89.1972,190.686 86.5306,188.186 86.5,182.5C 84.8333,182.5 83.1667,182.5 81.5,182.5C 81.5,185.167 81.5,187.833 81.5,190.5C 79.8333,190.5 78.1667,190.5 76.5,190.5C 76.5,183.833 76.5,177.167 76.5,170.5 Z M 81.5,173.5 C 83.5273,173.338 85.5273,173.505 87.5,174C 90.1667,175.667 90.1667,177.333 87.5,179C 85.5273,179.495 83.5273,179.662 81.5,179.5C 81.5,177.5 81.5,175.5 81.5,173.5 Z"/></g>
<g><path style="opacity:0.813" fill="#0ca7e5" d="M 100.5,170.5 C 112.162,168.997 116.662,173.997 114,185.5C 112.2,189.235 109.2,190.902 105,190.5C 100.3,190.987 97.2998,188.987 96,184.5C 94.4533,178.75 95.9533,174.084 100.5,170.5 Z M 103.5,173.5 C 107.971,173.641 109.971,175.975 109.5,180.5C 109.823,184.009 108.323,186.343 105,187.5C 99.6104,183.472 99.1104,178.805 103.5,173.5 Z"/></g>
<g><path style="opacity:0.804" fill="#0ca7e5" d="M 121.5,170.5 C 127.537,169.101 131.871,171.101 134.5,176.5C 133.15,177.95 131.484,178.617 129.5,178.5C 128.169,173.247 125.669,172.58 122,176.5C 120.52,181.147 121.686,184.813 125.5,187.5C 127.83,186.317 129.997,184.983 132,183.5C 134.825,183.973 135.158,185.306 133,187.5C 128.863,190.829 124.363,191.329 119.5,189C 116.17,184.177 115.67,179.01 118,173.5C 119.145,172.364 120.312,171.364 121.5,170.5 Z"/></g>
<g><path style="opacity:0.903" fill="#0ca7e5" d="M 136.5,170.5 C 141.5,170.5 146.5,170.5 151.5,170.5C 151.5,171.5 151.5,172.5 151.5,173.5C 148.167,173.5 144.833,173.5 141.5,173.5C 141.5,175.167 141.5,176.833 141.5,178.5C 144.167,178.5 146.833,178.5 149.5,178.5C 149.5,179.5 149.5,180.5 149.5,181.5C 146.833,181.5 144.167,181.5 141.5,181.5C 141.5,183.5 141.5,185.5 141.5,187.5C 144.833,187.5 148.167,187.5 151.5,187.5C 151.5,188.5 151.5,189.5 151.5,190.5C 146.5,190.5 141.5,190.5 136.5,190.5C 136.5,183.833 136.5,177.167 136.5,170.5 Z"/></g>
<g><path style="opacity:0.82" fill="#0ca7e5" d="M 156.5,170.5 C 160.637,170.146 164.637,170.646 168.5,172C 169.833,173 169.833,174 168.5,175C 166.062,175.682 163.895,175.182 162,173.5C 160.605,173.78 159.438,174.447 158.5,175.5C 161.468,177.592 164.801,179.092 168.5,180C 171.592,184.118 170.925,187.451 166.5,190C 162.1,190.978 157.933,190.478 154,188.5C 151.842,186.306 152.175,184.973 155,184.5C 157.801,187.16 160.967,187.827 164.5,186.5C 165.429,185.311 165.762,183.978 165.5,182.5C 161.207,182.348 157.374,181.014 154,178.5C 153.018,175.225 153.851,172.559 156.5,170.5 Z"/></g>
<g><path style="opacity:0.82" fill="#0ca7e5" d="M 175.5,170.5 C 179.637,170.146 183.637,170.646 187.5,172C 188.833,173 188.833,174 187.5,175C 185.062,175.682 182.895,175.182 181,173.5C 179.605,173.78 178.438,174.447 177.5,175.5C 180.468,177.592 183.801,179.092 187.5,180C 190.592,184.118 189.925,187.451 185.5,190C 181.1,190.978 176.933,190.478 173,188.5C 170.842,186.306 171.175,184.973 174,184.5C 176.801,187.16 179.967,187.827 183.5,186.5C 184.429,185.311 184.762,183.978 184.5,182.5C 180.207,182.348 176.374,181.014 173,178.5C 172.018,175.225 172.851,172.559 175.5,170.5 Z"/></g>
<g><path style="opacity:0.813" fill="#0ca7e5" d="M 195.5,170.5 C 207.162,168.997 211.662,173.997 209,185.5C 207.2,189.235 204.2,190.902 200,190.5C 195.3,190.987 192.3,188.987 191,184.5C 189.453,178.75 190.953,174.084 195.5,170.5 Z M 198.5,173.5 C 202.971,173.641 204.971,175.975 204.5,180.5C 204.823,184.009 203.323,186.343 200,187.5C 194.61,183.472 194.11,178.805 198.5,173.5 Z"/></g>
<g><path style="opacity:0.85" fill="#0ca7e5" d="M 212.5,170.5 C 217.511,170.334 222.511,170.501 227.5,171C 231.747,175.163 231.414,178.829 226.5,182C 228.105,184.543 229.438,187.209 230.5,190C 225.197,190.686 222.531,188.186 222.5,182.5C 220.833,182.5 219.167,182.5 217.5,182.5C 217.5,185.167 217.5,187.833 217.5,190.5C 215.833,190.5 214.167,190.5 212.5,190.5C 212.5,183.833 212.5,177.167 212.5,170.5 Z M 217.5,173.5 C 219.527,173.338 221.527,173.505 223.5,174C 226.167,175.667 226.167,177.333 223.5,179C 221.527,179.495 219.527,179.662 217.5,179.5C 217.5,177.5 217.5,175.5 217.5,173.5 Z"/></g>
<g><path style="opacity:0.82" fill="#0ca7e5" d="M 249.5,181.5 C 249.5,183.5 249.5,185.5 249.5,187.5C 244.507,190.832 239.174,191.332 233.5,189C 231.051,186.803 231.217,185.303 234,184.5C 236.801,187.16 239.967,187.827 243.5,186.5C 244.429,185.311 244.762,183.978 244.5,182.5C 240.207,182.348 236.374,181.014 233,178.5C 231.959,175.364 232.793,172.864 235.5,171C 239.625,170.146 243.625,170.48 247.5,172C 248.833,173 248.833,174 247.5,175C 245.062,175.682 242.895,175.182 241,173.5C 239.605,173.78 238.438,174.447 237.5,175.5C 241.454,177.498 245.454,179.498 249.5,181.5 Z"/></g>
</svg>
