<?xml version="1.0" encoding="UTF-8"?>
<!DOCTYPE svg PUBLIC "-//W3C//DTD SVG 1.1//EN" "http://www.w3.org/Graphics/SVG/1.1/DTD/svg11.dtd">
<svg xmlns="http://www.w3.org/2000/svg" version="1.1" width="250px" height="250px" style="shape-rendering:geometricPrecision; text-rendering:geometricPrecision; image-rendering:optimizeQuality; fill-rule:evenodd; clip-rule:evenodd" xmlns:xlink="http://www.w3.org/1999/xlink">
<g><path style="opacity:0.958" fill="#0071c1" d="M 58.5,-0.5 C 102.5,-0.5 146.5,-0.5 190.5,-0.5C 187.54,44.564 183.706,89.564 179,134.5C 164.93,138.894 150.763,143.06 136.5,147C 125.698,148.106 115.031,147.439 104.5,145C 93.8333,142 83.1667,139 72.5,136C 70.9391,135.682 69.7724,134.849 69,133.5C 64.1747,88.9301 60.6747,44.2634 58.5,-0.5 Z"/></g>
<g><path style="opacity:1" fill="#05ade4" d="M 171.5,82.5 C 170.298,92.668 169.298,103.001 168.5,113.5C 168.793,117.437 168.46,121.27 167.5,125C 153.13,129.008 138.796,132.841 124.5,136.5C 124.5,131.167 124.5,125.833 124.5,120.5C 122.901,120.768 121.568,120.434 120.5,119.5C 121.833,119.5 123.167,119.5 124.5,119.5C 132.799,117.342 141.132,115.342 149.5,113.5C 152.152,113.59 154.485,112.924 156.5,111.5C 157.568,110.566 158.901,110.232 160.5,110.5C 162.231,102.401 162.898,94.0681 162.5,85.5C 163.268,77.1774 163.935,68.844 164.5,60.5C 153.167,59.8333 141.833,59.1667 130.5,58.5C 142.203,52.9875 154.203,47.9875 166.5,43.5C 166.215,38.1032 166.549,32.7698 167.5,27.5C 153.182,26.5007 138.849,26.1674 124.5,26.5C 109.5,26.5 94.5,26.5 79.5,26.5C 94.324,25.5039 109.324,25.1706 124.5,25.5C 124.5,20.5 124.5,15.5 124.5,10.5C 142.167,10.5 159.833,10.5 177.5,10.5C 175.719,34.5329 173.719,58.5329 171.5,82.5 Z"/></g>
<g><path style="opacity:1" fill="#e4d8d2" d="M 79.5,26.5 C 94.5,26.5 109.5,26.5 124.5,26.5C 124.5,27.1667 124.5,27.8333 124.5,28.5C 110.167,28.5 95.8333,28.5 81.5,28.5C 81.7845,30.4147 81.4511,32.0813 80.5,33.5C 80.0074,31.1944 79.6741,28.861 79.5,26.5 Z"/></g>
<g><path style="opacity:1" fill="#fcfefe" d="M 124.5,26.5 C 138.849,26.1674 153.182,26.5007 167.5,27.5C 166.549,32.7698 166.215,38.1032 166.5,43.5C 154.203,47.9875 142.203,52.9875 130.5,58.5C 129.957,58.56 129.624,58.8933 129.5,59.5C 141.148,60.4989 152.814,60.8322 164.5,60.5C 163.935,68.844 163.268,77.1774 162.5,85.5C 161.467,93.6552 160.8,101.988 160.5,110.5C 158.901,110.232 157.568,110.566 156.5,111.5C 153.848,111.41 151.515,112.076 149.5,113.5C 141.132,115.342 132.799,117.342 124.5,119.5C 124.5,114.167 124.5,108.833 124.5,103.5C 124.5,103.167 124.5,102.833 124.5,102.5C 131.245,101.147 137.911,99.4805 144.5,97.5C 144.5,93.1667 144.5,88.8333 144.5,84.5C 145.477,81.7131 145.81,78.7131 145.5,75.5C 138.5,75.5 131.5,75.5 124.5,75.5C 124.5,74.8333 124.5,74.1667 124.5,73.5C 124.5,58.5 124.5,43.5 124.5,28.5C 124.5,27.8333 124.5,27.1667 124.5,26.5 Z"/></g>
<g><path style="opacity:1" fill="#98c0ce" d="M 80.5,38.5 C 94.2552,40.4554 108.255,41.122 122.5,40.5C 122.715,42.1788 122.048,43.1788 120.5,43.5C 120.611,42.8826 120.944,42.3826 121.5,42C 108.171,41.5001 94.8375,41.3334 81.5,41.5C 80.596,40.791 80.2627,39.791 80.5,38.5 Z"/></g>
<g><path style="opacity:1" fill="#0083c4" d="M 81.5,41.5 C 94.8375,41.3334 108.171,41.5001 121.5,42C 120.944,42.3826 120.611,42.8826 120.5,43.5C 119.833,43.5 119.167,43.5 118.5,43.5C 106.167,42.8333 93.8333,42.1667 81.5,41.5 Z"/></g>
<g><path style="opacity:1" fill="#d0d0d1" d="M 124.5,28.5 C 124.5,43.5 124.5,58.5 124.5,73.5C 111.833,73.5 99.1667,73.5 86.5,73.5C 85.7705,68.8696 85.4372,64.2029 85.5,59.5C 89.1716,58.9553 88.8383,58.6219 84.5,58.5C 95.5299,52.9889 106.863,47.9889 118.5,43.5C 119.167,43.5 119.833,43.5 120.5,43.5C 122.048,43.1788 122.715,42.1788 122.5,40.5C 108.255,41.122 94.2552,40.4554 80.5,38.5C 80.5,36.8333 80.5,35.1667 80.5,33.5C 81.4511,32.0813 81.7845,30.4147 81.5,28.5C 95.8333,28.5 110.167,28.5 124.5,28.5 Z"/></g>
<g><path style="opacity:1" fill="#a6edf9" d="M 130.5,58.5 C 141.833,59.1667 153.167,59.8333 164.5,60.5C 152.814,60.8322 141.148,60.4989 129.5,59.5C 129.624,58.8933 129.957,58.56 130.5,58.5 Z"/></g>
<g><path style="opacity:1" fill="#4da8ca" d="M 84.5,58.5 C 83.6314,60.717 83.298,63.0504 83.5,65.5C 82.8476,64.5514 82.5143,63.3847 82.5,62C 82.6083,60.3189 83.2749,59.1522 84.5,58.5 Z"/></g>
<g><path style="opacity:1" fill="#d4d3d1" d="M 84.5,58.5 C 88.8383,58.6219 89.1716,58.9553 85.5,59.5C 85.4372,64.2029 85.7705,68.8696 86.5,73.5C 99.1667,73.5 111.833,73.5 124.5,73.5C 124.5,74.1667 124.5,74.8333 124.5,75.5C 111.167,75.5 97.8333,75.5 84.5,75.5C 83.5206,72.3752 83.1872,69.0419 83.5,65.5C 83.298,63.0504 83.6314,60.717 84.5,58.5 Z"/></g>
<g><path style="opacity:1" fill="#09b4df" d="M 84.5,75.5 C 97.8333,75.5 111.167,75.5 124.5,75.5C 131.5,75.5 138.5,75.5 145.5,75.5C 145.81,78.7131 145.477,81.7131 144.5,84.5C 144.5,81.8333 144.5,79.1667 144.5,76.5C 137.833,76.5 131.167,76.5 124.5,76.5C 110.99,76.8289 97.6562,76.4956 84.5,75.5 Z"/></g>
<g><path style="opacity:1" fill="#01ace4" d="M 124.5,76.5 C 131.167,76.5 137.833,76.5 144.5,76.5C 144.5,79.1667 144.5,81.8333 144.5,84.5C 144.5,88.8333 144.5,93.1667 144.5,97.5C 137.911,99.4805 131.245,101.147 124.5,102.5C 124.5,93.8333 124.5,85.1667 124.5,76.5 Z"/></g>
<g><path style="opacity:1" fill="#81b5cd" d="M 102.5,93.5 C 102.167,93.5 101.833,93.5 101.5,93.5C 101.5,91.1667 101.5,88.8333 101.5,86.5C 96.5,86.5 91.5,86.5 86.5,86.5C 86.5,89.5 86.5,92.5 86.5,95.5C 85.5206,92.3752 85.1872,89.0419 85.5,85.5C 91.1667,85.5 96.8333,85.5 102.5,85.5C 102.5,88.1667 102.5,90.8333 102.5,93.5 Z"/></g>
<g><path style="opacity:1" fill="#ced0d1" d="M 101.5,93.5 C 101.833,93.5 102.167,93.5 102.5,93.5C 102.083,96.0792 102.75,98.2458 104.5,100C 111.217,101.005 117.884,102.172 124.5,103.5C 124.5,108.833 124.5,114.167 124.5,119.5C 123.167,119.5 121.833,119.5 120.5,119.5C 119.391,119.443 118.391,119.11 117.5,118.5C 115.485,117.076 113.152,116.41 110.5,116.5C 103.481,115.162 96.4808,113.662 89.5,112C 87.8934,110.951 87.2267,109.451 87.5,107.5C 88.1577,108.398 88.8243,109.398 89.5,110.5C 89.8333,110.333 90.1667,110.167 90.5,110C 89.0092,102.605 88.0092,95.1048 87.5,87.5C 91.5,87.5 95.5,87.5 99.5,87.5C 99.6721,91.534 100.172,95.534 101,99.5C 101.495,97.5273 101.662,95.5273 101.5,93.5 Z"/></g>
<g><path style="opacity:1" fill="#e4d9d2" d="M 101.5,93.5 C 101.662,95.5273 101.495,97.5273 101,99.5C 100.172,95.534 99.6721,91.534 99.5,87.5C 95.5,87.5 91.5,87.5 87.5,87.5C 88.0092,95.1048 89.0092,102.605 90.5,110C 90.1667,110.167 89.8333,110.333 89.5,110.5C 88.8243,109.398 88.1577,108.398 87.5,107.5C 86.9791,103.519 86.6458,99.5191 86.5,95.5C 86.5,92.5 86.5,89.5 86.5,86.5C 91.5,86.5 96.5,86.5 101.5,86.5C 101.5,88.8333 101.5,91.1667 101.5,93.5 Z"/></g>
<g><path style="opacity:1" fill="#0283cd" d="M 171.5,82.5 C 172.008,93.1258 171.008,103.459 168.5,113.5C 169.298,103.001 170.298,92.668 171.5,82.5 Z"/></g>
<g><path style="opacity:1" fill="#56d1f0" d="M 162.5,85.5 C 162.898,94.0681 162.231,102.401 160.5,110.5C 160.8,101.988 161.467,93.6552 162.5,85.5 Z"/></g>
<g><path style="opacity:1" fill="#49d0f0" d="M 156.5,111.5 C 154.485,112.924 152.152,113.59 149.5,113.5C 151.515,112.076 153.848,111.41 156.5,111.5 Z"/></g>
<g><path style="opacity:1" fill="#85b7cd" d="M 110.5,116.5 C 113.152,116.41 115.485,117.076 117.5,118.5C 114.848,118.59 112.515,117.924 110.5,116.5 Z"/></g>
<g><path style="opacity:0.892" fill="#00ace4" d="M 81.5,177.5 C 93.4689,175.182 100.469,179.848 102.5,191.5C 100.266,191.38 98.0989,191.713 96,192.5C 93.8358,190.71 92.0025,188.544 90.5,186C 85.726,183.801 82.5593,185.301 81,190.5C 80.116,195.327 80.616,199.994 82.5,204.5C 87.9966,208.594 91.6633,207.26 93.5,200.5C 102.571,198.727 104.738,201.727 100,209.5C 94.3444,214.193 87.8444,215.693 80.5,214C 71.4882,208.325 68.3216,200.158 71,189.5C 72.9635,184.044 76.4635,180.044 81.5,177.5 Z"/></g>
<g><path style="opacity:0.9" fill="#00ace4" d="M 117.5,177.5 C 122.93,177.161 128.264,177.661 133.5,179C 140.987,183.234 140.82,186.067 133,187.5C 130.104,186.795 127.271,185.795 124.5,184.5C 122.337,184.745 120.67,185.745 119.5,187.5C 119.709,188.086 120.043,188.586 120.5,189C 126.043,190.051 131.376,191.718 136.5,194C 143,202.612 141.334,209.279 131.5,214C 124.946,215.081 118.612,214.414 112.5,212C 109.039,209.925 107.706,207.092 108.5,203.5C 109.939,202.937 111.439,202.603 113,202.5C 116.145,204.872 119.812,206.539 124,207.5C 126.151,207.227 128.151,206.561 130,205.5C 130.72,203.888 130.554,202.388 129.5,201C 124.548,199.542 119.548,198.209 114.5,197C 107.159,189.224 108.159,182.724 117.5,177.5 Z"/></g>
<g><path style="opacity:0.9" fill="#00ace4" d="M 156.5,177.5 C 161.93,177.161 167.264,177.661 172.5,179C 179.987,183.234 179.82,186.067 172,187.5C 169.104,186.795 166.271,185.795 163.5,184.5C 161.337,184.745 159.67,185.745 158.5,187.5C 158.709,188.086 159.043,188.586 159.5,189C 165.043,190.051 170.376,191.718 175.5,194C 182,202.612 180.334,209.279 170.5,214C 163.946,215.081 157.612,214.414 151.5,212C 148.039,209.925 146.706,207.092 147.5,203.5C 148.939,202.937 150.439,202.603 152,202.5C 155.145,204.872 158.812,206.539 163,207.5C 165.151,207.227 167.151,206.561 169,205.5C 169.72,203.888 169.554,202.388 168.5,201C 163.548,199.542 158.548,198.209 153.5,197C 146.159,189.224 147.159,182.724 156.5,177.5 Z"/></g>
<g><path style="opacity:0.86" fill="#00ade5" d="M 82.5,249.5 C 80.5,249.5 78.5,249.5 76.5,249.5C 76.5,243.833 76.5,238.167 76.5,232.5C 74.5,232.5 72.5,232.5 70.5,232.5C 70.5,230.833 70.5,229.167 70.5,227.5C 76.8333,227.5 83.1667,227.5 89.5,227.5C 89.5,229.167 89.5,230.833 89.5,232.5C 87.1667,232.5 84.8333,232.5 82.5,232.5C 82.5,238.167 82.5,243.833 82.5,249.5 Z"/></g>
<g><path style="opacity:0.882" fill="#00ade5" d="M 107.5,249.5 C 103.5,249.5 99.5,249.5 95.5,249.5C 90.8139,245.262 89.3139,239.928 91,233.5C 93.0711,229.047 96.5711,227.047 101.5,227.5C 106.429,227.047 109.929,229.047 112,233.5C 112.667,237.167 112.667,240.833 112,244.5C 110.975,246.687 109.475,248.354 107.5,249.5 Z M 99.5,232.5 C 105.867,232.872 108.034,236.206 106,242.5C 101.081,246.635 97.9147,245.468 96.5,239C 96.8402,236.489 97.8402,234.322 99.5,232.5 Z"/></g>
<g><path style="opacity:0.882" fill="#00ade5" d="M 132.5,249.5 C 128.5,249.5 124.5,249.5 120.5,249.5C 115.814,245.262 114.314,239.928 116,233.5C 118.071,229.047 121.571,227.047 126.5,227.5C 131.429,227.047 134.929,229.047 137,233.5C 137.667,237.167 137.667,240.833 137,244.5C 135.975,246.687 134.475,248.354 132.5,249.5 Z M 124.5,232.5 C 130.867,232.872 133.034,236.206 131,242.5C 126.081,246.635 122.915,245.468 121.5,239C 121.84,236.489 122.84,234.322 124.5,232.5 Z"/></g>
<g><path style="opacity:0.875" fill="#00ade5" d="M 157.5,249.5 C 151.833,249.5 146.167,249.5 140.5,249.5C 140.5,242.167 140.5,234.833 140.5,227.5C 142.5,227.5 144.5,227.5 146.5,227.5C 146.5,233.5 146.5,239.5 146.5,245.5C 150.167,245.5 153.833,245.5 157.5,245.5C 157.5,246.833 157.5,248.167 157.5,249.5 Z"/></g>
<g><path style="opacity:0.855" fill="#00ade5" d="M 175.5,249.5 C 171.167,249.5 166.833,249.5 162.5,249.5C 160.688,247.539 159.688,245.206 159.5,242.5C 163.306,242.02 166.639,243.02 169.5,245.5C 170.167,245.167 170.833,244.833 171.5,244.5C 172.833,243.833 172.833,243.167 171.5,242.5C 168.194,241.455 165.027,240.122 162,238.5C 159.636,234.526 160.136,231.026 163.5,228C 167.167,227.333 170.833,227.333 174.5,228C 176.432,229.352 177.766,231.185 178.5,233.5C 177.5,233.833 176.5,234.167 175.5,234.5C 172.715,232.911 169.715,232.411 166.5,233C 170.536,234.791 174.369,236.958 178,239.5C 179.137,243.463 178.303,246.796 175.5,249.5 Z"/></g>
</svg>
