<?xml version="1.0" encoding="UTF-8"?>
<!DOCTYPE svg PUBLIC "-//W3C//DTD SVG 1.1//EN" "http://www.w3.org/Graphics/SVG/1.1/DTD/svg11.dtd">
<svg xmlns="http://www.w3.org/2000/svg" version="1.1" width="250px" height="250px" style="shape-rendering:geometricPrecision; text-rendering:geometricPrecision; image-rendering:optimizeQuality; fill-rule:evenodd; clip-rule:evenodd" xmlns:xlink="http://www.w3.org/1999/xlink">
<g><path style="opacity:1" fill="#121616" d="M 22.5,-0.5 C 90.5,-0.5 158.5,-0.5 226.5,-0.5C 237.436,3.4366 245.103,10.7699 249.5,21.5C 249.5,90.5 249.5,159.5 249.5,228.5C 245.5,238.5 238.5,245.5 228.5,249.5C 159.167,249.5 89.8333,249.5 20.5,249.5C 10.3518,245.228 3.35178,237.895 -0.5,227.5C -0.5,159.167 -0.5,90.8333 -0.5,22.5C 3.5,11.1667 11.1667,3.5 22.5,-0.5 Z"/></g>
<g><path style="opacity:1" fill="#fe3a00" d="M 124.5,42.5 C 124.5,52.8333 124.5,63.1667 124.5,73.5C 107.97,72.97 91.6367,72.97 75.5,73.5C 73.9707,73.4712 72.804,72.8045 72,71.5C 71.7679,72.7375 71.2679,73.7375 70.5,74.5C 69.2555,58.9222 75.9222,48.4222 90.5,43C 101.828,42.5001 113.162,42.3335 124.5,42.5 Z"/></g>
<g><path style="opacity:1" fill="#fd6662" d="M 124.5,42.5 C 135.838,42.3335 147.172,42.5001 158.5,43C 167.249,45.5857 173.249,51.0857 176.5,59.5C 176.795,61.435 176.295,63.435 175,65.5C 174,64.1667 173,64.1667 172,65.5C 171.667,64.8333 171.333,64.1667 171,63.5C 169.364,67.0105 168.197,67.3438 167.5,64.5C 166.522,64.9767 165.689,65.6433 165,66.5C 164.692,65.6919 164.192,65.0253 163.5,64.5C 162.28,65.7111 161.113,65.7111 160,64.5C 159.667,65.1667 159.333,65.8333 159,66.5C 158.261,65.4258 157.261,64.7591 156,64.5C 154.85,65.4239 153.85,65.4239 153,64.5C 152.667,65.1667 152.333,65.8333 152,66.5C 149.541,63.8997 147.041,63.8997 144.5,66.5C 141.925,63.6809 140.092,64.0142 139,67.5C 138.333,66.1667 137.333,65.1667 136,64.5C 135.259,65.6405 134.425,65.6405 133.5,64.5C 132.808,65.0253 132.308,65.6919 132,66.5C 131.667,66.1667 131.333,65.8333 131,65.5C 130.851,68.2785 130.017,68.7785 128.5,67C 129.863,64.8707 129.529,64.3707 127.5,65.5C 126.812,76.2269 126.145,86.8936 125.5,97.5C 125.167,97.5 124.833,97.5 124.5,97.5C 113.833,97.5 103.167,97.5 92.5,97.5C 92.5,97.1667 92.5,96.8333 92.5,96.5C 103.167,96.5 113.833,96.5 124.5,96.5C 124.5,94.1667 124.5,91.8333 124.5,89.5C 124.5,84.1667 124.5,78.8333 124.5,73.5C 124.5,63.1667 124.5,52.8333 124.5,42.5 Z"/></g>
<g><path style="opacity:1" fill="#fc6d61" d="M 176.5,59.5 C 181.625,72.9768 178.291,84.1434 166.5,93C 163.107,94.62 159.774,96.12 156.5,97.5C 152.833,97.5 149.167,97.5 145.5,97.5C 138.833,97.5 132.167,97.5 125.5,97.5C 126.145,86.8936 126.812,76.2269 127.5,65.5C 129.529,64.3707 129.863,64.8707 128.5,67C 130.017,68.7785 130.851,68.2785 131,65.5C 131.333,65.8333 131.667,66.1667 132,66.5C 132.308,65.6919 132.808,65.0253 133.5,64.5C 134.425,65.6405 135.259,65.6405 136,64.5C 137.333,65.1667 138.333,66.1667 139,67.5C 140.092,64.0142 141.925,63.6809 144.5,66.5C 147.041,63.8997 149.541,63.8997 152,66.5C 152.333,65.8333 152.667,65.1667 153,64.5C 153.85,65.4239 154.85,65.4239 156,64.5C 157.261,64.7591 158.261,65.4258 159,66.5C 159.333,65.8333 159.667,65.1667 160,64.5C 161.113,65.7111 162.28,65.7111 163.5,64.5C 164.192,65.0253 164.692,65.6919 165,66.5C 165.689,65.6433 166.522,64.9767 167.5,64.5C 168.197,67.3438 169.364,67.0105 171,63.5C 171.333,64.1667 171.667,64.8333 172,65.5C 173,64.1667 174,64.1667 175,65.5C 176.295,63.435 176.795,61.435 176.5,59.5 Z"/></g>
<g><path style="opacity:1" fill="#fe5d00" d="M 124.5,73.5 C 124.5,78.8333 124.5,84.1667 124.5,89.5C 111.235,88.6966 97.2354,88.6966 82.5,89.5C 80.6171,89.1243 79.1171,88.1243 78,86.5C 77.6012,86.7284 77.4346,87.0618 77.5,87.5C 73.8774,83.9253 71.5441,79.592 70.5,74.5C 71.2679,73.7375 71.7679,72.7375 72,71.5C 72.804,72.8045 73.9707,73.4712 75.5,73.5C 91.6367,72.97 107.97,72.97 124.5,73.5 Z"/></g>
<g><path style="opacity:1" fill="#fe7300" d="M 124.5,89.5 C 124.5,91.8333 124.5,94.1667 124.5,96.5C 113.833,96.5 103.167,96.5 92.5,96.5C 86.2315,95.5552 81.2315,92.5552 77.5,87.5C 77.4346,87.0618 77.6012,86.7284 78,86.5C 79.1171,88.1243 80.6171,89.1243 82.5,89.5C 97.2354,88.6966 111.235,88.6966 124.5,89.5 Z"/></g>
<g><path style="opacity:1" fill="#01b1f7" d="M 145.5,97.5 C 149.167,97.5 152.833,97.5 156.5,97.5C 161.098,98.4654 165.098,100.465 168.5,103.5C 166.742,103.123 165.075,102.456 163.5,101.5C 155.833,102.833 148.167,102.833 140.5,101.5C 137.299,103.262 134.299,105.262 131.5,107.5C 131.511,105.983 132.177,104.816 133.5,104C 137.207,101.087 141.207,98.9206 145.5,97.5 Z"/></g>
<g><path style="opacity:1" fill="#1c2825" d="M 125.5,97.5 C 132.167,97.5 138.833,97.5 145.5,97.5C 141.207,98.9206 137.207,101.087 133.5,104C 132.177,104.816 131.511,105.983 131.5,107.5C 129.11,109.267 127.443,111.6 126.5,114.5C 126.5,114.833 126.5,115.167 126.5,115.5C 125.51,109.69 125.177,103.69 125.5,97.5 Z"/></g>
<g><path style="opacity:1" fill="#0198fe" d="M 168.5,103.5 C 172.3,105.963 174.967,109.296 176.5,113.5C 174.926,113.063 173.759,112.063 173,110.5C 158.483,111.669 144.316,111.669 130.5,110.5C 129.591,112.375 128.257,113.708 126.5,114.5C 127.443,111.6 129.11,109.267 131.5,107.5C 134.299,105.262 137.299,103.262 140.5,101.5C 148.167,102.833 155.833,102.833 163.5,101.5C 165.075,102.456 166.742,103.123 168.5,103.5 Z"/></g>
<g><path style="opacity:1" fill="#3c2455" d="M 124.5,97.5 C 124.833,97.5 125.167,97.5 125.5,97.5C 125.177,103.69 125.51,109.69 126.5,115.5C 126.167,116.833 125.833,118.167 125.5,119.5C 125.167,119.5 124.833,119.5 124.5,119.5C 124.5,118.833 124.5,118.167 124.5,117.5C 124.5,110.833 124.5,104.167 124.5,97.5 Z"/></g>
<g><path style="opacity:1" fill="#017dfc" d="M 176.5,113.5 C 179.134,118.648 179.8,123.981 178.5,129.5C 178.037,126.518 177.704,123.518 177.5,120.5C 160.095,119.856 142.929,120.522 126,122.5C 125.517,121.552 125.351,120.552 125.5,119.5C 125.833,118.167 126.167,116.833 126.5,115.5C 126.5,115.167 126.5,114.833 126.5,114.5C 128.257,113.708 129.591,112.375 130.5,110.5C 144.316,111.669 158.483,111.669 173,110.5C 173.759,112.063 174.926,113.063 176.5,113.5 Z"/></g>
<g><path style="opacity:1" fill="#af00fd" d="M 92.5,97.5 C 103.167,97.5 113.833,97.5 124.5,97.5C 124.5,104.167 124.5,110.833 124.5,117.5C 123.883,117.389 123.383,117.056 123,116.5C 122.503,119.146 122.336,121.813 122.5,124.5C 105.333,124.564 88.3334,124.564 71.5,124.5C 71.5,126.833 71.5,129.167 71.5,131.5C 68.4901,114.144 75.4901,102.811 92.5,97.5 Z"/></g>
<g><path style="opacity:1" fill="#035efd" d="M 124.5,119.5 C 124.833,119.5 125.167,119.5 125.5,119.5C 125.351,120.552 125.517,121.552 126,122.5C 142.929,120.522 160.095,119.856 177.5,120.5C 177.704,123.518 178.037,126.518 178.5,129.5C 178.737,130.791 178.404,131.791 177.5,132.5C 177.196,131.85 176.863,131.183 176.5,130.5C 167.608,129.82 158.774,129.154 150,128.5C 141.846,128.823 134.013,129.823 126.5,131.5C 125.833,131.167 125.167,130.833 124.5,130.5C 124.5,126.833 124.5,123.167 124.5,119.5 Z"/></g>
<g><path style="opacity:1" fill="#0044fe" d="M 177.5,132.5 C 177.204,134.403 176.537,136.07 175.5,137.5C 168.323,135.823 160.823,134.823 153,134.5C 144.986,135.188 136.486,135.521 127.5,135.5C 126.662,135.158 126.328,134.492 126.5,133.5C 126.5,132.833 126.5,132.167 126.5,131.5C 134.013,129.823 141.846,128.823 150,128.5C 158.774,129.154 167.608,129.82 176.5,130.5C 176.863,131.183 177.196,131.85 177.5,132.5 Z"/></g>
<g><path style="opacity:1" fill="#ce00fe" d="M 124.5,117.5 C 124.5,118.167 124.5,118.833 124.5,119.5C 124.5,123.167 124.5,126.833 124.5,130.5C 124.5,137.5 124.5,144.5 124.5,151.5C 112.829,151.667 101.162,151.5 89.5,151C 80.1489,147.486 74.1489,140.986 71.5,131.5C 71.5,129.167 71.5,126.833 71.5,124.5C 88.3334,124.564 105.333,124.564 122.5,124.5C 122.336,121.813 122.503,119.146 123,116.5C 123.383,117.056 123.883,117.389 124.5,117.5 Z"/></g>
<g><path style="opacity:1" fill="#40214d" d="M 124.5,130.5 C 125.167,130.833 125.833,131.167 126.5,131.5C 126.5,132.167 126.5,132.833 126.5,133.5C 125.833,139.5 125.167,145.5 124.5,151.5C 124.5,144.5 124.5,137.5 124.5,130.5 Z"/></g>
<g><path style="opacity:1" fill="#002efe" d="M 175.5,137.5 C 174.876,139.754 173.543,141.421 171.5,142.5C 158.979,142.28 146.979,141.946 135.5,141.5C 134.261,141.942 133.261,142.609 132.5,143.5C 130.05,141.371 128.383,138.704 127.5,135.5C 136.486,135.521 144.986,135.188 153,134.5C 160.823,134.823 168.323,135.823 175.5,137.5 Z"/></g>
<g><path style="opacity:1" fill="#0018fa" d="M 171.5,142.5 C 166.636,148.852 160.136,151.852 152,151.5C 144.115,151.968 137.615,149.301 132.5,143.5C 133.261,142.609 134.261,141.942 135.5,141.5C 146.979,141.946 158.979,142.28 171.5,142.5 Z"/></g>
<g><path style="opacity:1" fill="#01ea7d" d="M 124.5,172.5 C 123.71,171.391 123.21,170.058 123,168.5C 122.667,169.5 122.333,170.5 122,171.5C 115.685,170.87 109.185,170.87 102.5,171.5C 98.4856,169.696 94.319,169.696 90,171.5C 85.709,170.532 81.5423,170.199 77.5,170.5C 76.8333,171.167 76.1667,171.833 75.5,172.5C 74.5,171.167 73.5,171.167 72.5,172.5C 71.8243,173.602 71.1577,174.602 70.5,175.5C 72.1667,165.659 77.5001,158.492 86.5,154C 99.092,152.559 111.759,152.059 124.5,152.5C 124.5,159.167 124.5,165.833 124.5,172.5 Z"/></g>
<g><path style="opacity:1" fill="#00f06f" d="M 124.5,172.5 C 124.817,176.702 124.483,180.702 123.5,184.5C 123.664,181.813 123.497,179.146 123,176.5C 123.092,180.293 122.092,183.627 120,186.5C 113.387,185.675 106.387,185.675 99,186.5C 96,185.833 93,185.167 90,184.5C 87,185.167 84,185.833 81,186.5C 78.2809,185.556 75.4475,185.223 72.5,185.5C 72.5,186.833 72.5,188.167 72.5,189.5C 71.7321,188.737 71.2321,187.737 71,186.5C 70.5014,182.848 70.3347,179.182 70.5,175.5C 71.1577,174.602 71.8243,173.602 72.5,172.5C 73.5,171.167 74.5,171.167 75.5,172.5C 76.1667,171.833 76.8333,171.167 77.5,170.5C 81.5423,170.199 85.709,170.532 90,171.5C 94.319,169.696 98.4856,169.696 102.5,171.5C 109.185,170.87 115.685,170.87 122,171.5C 122.333,170.5 122.667,169.5 123,168.5C 123.21,170.058 123.71,171.391 124.5,172.5 Z"/></g>
<g><path style="opacity:1" fill="#00f662" d="M 123.5,184.5 C 121.667,195.508 115.333,202.674 104.5,206C 89.4535,208.645 78.7868,203.145 72.5,189.5C 72.5,188.167 72.5,186.833 72.5,185.5C 75.4475,185.223 78.2809,185.556 81,186.5C 84,185.833 87,185.167 90,184.5C 93,185.167 96,185.833 99,186.5C 106.387,185.675 113.387,185.675 120,186.5C 122.092,183.627 123.092,180.293 123,176.5C 123.497,179.146 123.664,181.813 123.5,184.5 Z"/></g>
</svg>
