<?xml version="1.0" encoding="UTF-8"?>
<!DOCTYPE svg PUBLIC "-//W3C//DTD SVG 1.1//EN" "http://www.w3.org/Graphics/SVG/1.1/DTD/svg11.dtd">
<svg xmlns="http://www.w3.org/2000/svg" version="1.1" width="250px" height="250px" style="shape-rendering:geometricPrecision; text-rendering:geometricPrecision; image-rendering:optimizeQuality; fill-rule:evenodd; clip-rule:evenodd" xmlns:xlink="http://www.w3.org/1999/xlink">
<g><path style="opacity:0.01" fill="#000000" d="M -0.5,-0.5 C 0.5,-0.5 1.5,-0.5 2.5,-0.5C 2.5,0.166667 2.83333,0.5 3.5,0.5C 2.93323,2.02951 2.26656,3.52951 1.5,5C 2.0442,5.71719 2.71087,6.21719 3.5,6.5C 3.73286,4.93819 4.39952,3.60486 5.5,2.5C 7.04814,2.17876 7.71481,1.17876 7.5,-0.5C 73.5,-0.5 139.5,-0.5 205.5,-0.5C 205.833,2.16667 206.167,2.16667 206.5,-0.5C 206.833,-0.5 207.167,-0.5 207.5,-0.5C 207.328,0.491622 207.662,1.15829 208.5,1.5C 207.729,3.11365 206.729,4.61365 205.5,6C 205.944,7.76176 206.444,7.5951 207,5.5C 208.707,6.13826 210.54,6.13826 212.5,5.5C 213.497,6.71251 214.497,6.54585 215.5,5C 215.347,3.79131 215.014,2.62464 214.5,1.5C 214.833,0.833333 215.167,0.166667 215.5,-0.5C 216.833,-0.5 218.167,-0.5 219.5,-0.5C 219.677,1.98055 218.677,3.81388 216.5,5C 217.5,5.5 218.5,6 219.5,6.5C 222.857,6.19148 226.191,5.85815 229.5,5.5C 230.497,6.71251 231.497,6.54585 232.5,5C 232.347,3.79131 232.014,2.62464 231.5,1.5C 231.833,0.833333 232.167,0.166667 232.5,-0.5C 233.833,-0.5 235.167,-0.5 236.5,-0.5C 236.677,1.98055 235.677,3.81388 233.5,5C 234.5,5.5 235.5,6 236.5,6.5C 239.857,6.19148 243.191,5.85815 246.5,5.5C 247.348,6.62495 248.348,6.62495 249.5,5.5C 249.5,6.16667 249.5,6.83333 249.5,7.5C 248.118,8.80053 246.452,9.63386 244.5,10C 245,10.5 245.5,11 246,11.5C 247.145,10.3157 248.312,10.3157 249.5,11.5C 249.5,12.1667 249.5,12.8333 249.5,13.5C 248.167,13.8333 248.167,14.1667 249.5,14.5C 249.5,16.1667 249.5,17.8333 249.5,19.5C 248.167,19.8333 248.167,20.1667 249.5,20.5C 249.5,21.8333 249.5,23.1667 249.5,24.5C 248.167,24.8333 248.167,25.1667 249.5,25.5C 249.5,27.1667 249.5,28.8333 249.5,30.5C 248.167,30.8333 248.167,31.1667 249.5,31.5C 249.5,33.1667 249.5,34.8333 249.5,36.5C 248.167,36.8333 248.167,37.1667 249.5,37.5C 249.5,58.8333 249.5,80.1667 249.5,101.5C 248.167,101.833 248.167,102.167 249.5,102.5C 249.5,104.167 249.5,105.833 249.5,107.5C 248.167,107.833 248.167,108.167 249.5,108.5C 249.5,111.833 249.5,115.167 249.5,118.5C 248.167,118.833 248.167,119.167 249.5,119.5C 249.5,121.167 249.5,122.833 249.5,124.5C 248.167,124.833 248.167,125.167 249.5,125.5C 249.5,128.833 249.5,132.167 249.5,135.5C 248.167,135.833 248.167,136.167 249.5,136.5C 249.5,138.167 249.5,139.833 249.5,141.5C 248.167,141.833 248.167,142.167 249.5,142.5C 249.5,145.833 249.5,149.167 249.5,152.5C 248.167,152.833 248.167,153.167 249.5,153.5C 249.5,155.167 249.5,156.833 249.5,158.5C 248.167,158.833 248.167,159.167 249.5,159.5C 249.5,162.833 249.5,166.167 249.5,169.5C 248.167,169.833 248.167,170.167 249.5,170.5C 249.5,172.167 249.5,173.833 249.5,175.5C 248.167,175.833 248.167,176.167 249.5,176.5C 249.5,181.833 249.5,187.167 249.5,192.5C 248.167,192.833 248.167,193.167 249.5,193.5C 249.5,197.833 249.5,202.167 249.5,206.5C 248.041,206.433 246.708,206.766 245.5,207.5C 242.898,206.031 240.731,206.698 239,209.5C 236.904,208.285 237.071,207.451 239.5,207C 237.191,206.244 235.191,206.744 233.5,208.5C 232.966,206.271 231.299,205.938 228.5,207.5C 225.898,206.031 223.731,206.698 222,209.5C 219.904,208.285 220.071,207.451 222.5,207C 220.191,206.244 218.191,206.744 216.5,208.5C 215.966,206.271 214.299,205.938 211.5,207.5C 208.324,205.727 206.657,206.727 206.5,210.5C 208.179,210.285 209.179,210.952 209.5,212.5C 205.5,213.728 205.5,215.228 209.5,217C 207.137,217.589 206.137,219.089 206.5,221.5C 210.3,221.819 210.466,222.819 207,224.5C 206.517,225.448 206.351,226.448 206.5,227.5C 208.179,227.285 209.179,227.952 209.5,229.5C 205.5,230.728 205.5,232.228 209.5,234C 207.137,234.589 206.137,236.089 206.5,238.5C 210.3,238.819 210.466,239.819 207,241.5C 206.517,242.448 206.351,243.448 206.5,244.5C 208.179,244.285 209.179,244.952 209.5,246.5C 207.5,246.5 206.5,247.5 206.5,249.5C 150.5,249.5 94.5,249.5 38.5,249.5C 37.8333,248.167 37.1667,248.167 36.5,249.5C 36.1667,249.5 35.8333,249.5 35.5,249.5C 35.1667,248.167 34.8333,248.167 34.5,249.5C 33.5,249.5 32.5,249.5 31.5,249.5C 30.5,248.167 29.5,248.167 28.5,249.5C 27.8333,249.5 27.1667,249.5 26.5,249.5C 26.1667,248.167 25.8333,248.167 25.5,249.5C 25.1667,249.5 24.8333,249.5 24.5,249.5C 24.1667,248.167 23.8333,248.167 23.5,249.5C 22.5,249.5 21.5,249.5 20.5,249.5C 20.1667,248.167 19.8333,248.167 19.5,249.5C 19.1667,249.5 18.8333,249.5 18.5,249.5C 18.1667,248.167 17.8333,248.167 17.5,249.5C 16.5,249.5 15.5,249.5 14.5,249.5C 13.8333,248.167 13.1667,248.167 12.5,249.5C 11.8333,249.5 11.1667,249.5 10.5,249.5C 10.4041,244.89 9.40415,244.556 7.5,248.5C 6.57451,247.359 5.74117,247.359 5,248.5C 4.75083,247.376 4.25083,246.376 3.5,245.5C 2.28882,246.274 2.28882,247.107 3.5,248C 2.20677,248.49 0.873441,248.657 -0.5,248.5C -0.5,246.833 -0.5,245.167 -0.5,243.5C 3.67347,243.496 7.67347,243.663 11.5,244C 10.9288,242.795 10.2621,241.628 9.5,240.5C 7.5,243.167 5.5,243.167 3.5,240.5C 2.30441,240.846 2.30441,241.346 3.5,242C 2.20677,242.49 0.873441,242.657 -0.5,242.5C -0.5,241.167 -0.5,239.833 -0.5,238.5C 5.28353,237.825 11.1169,238.158 17,239.5C 18.3988,238.773 19.8988,238.273 21.5,238C 17.8484,237.501 14.1817,237.335 10.5,237.5C 10.719,236.325 10.3857,235.325 9.5,234.5C 7.5,237.167 5.5,237.167 3.5,234.5C 2.30441,234.846 2.30441,235.346 3.5,236C 2.20677,236.49 0.873441,236.657 -0.5,236.5C -0.5,235.167 -0.5,233.833 -0.5,232.5C 3.329,232.927 6.99566,232.927 10.5,232.5C 10.4041,227.89 9.40415,227.556 7.5,231.5C 6.57451,230.359 5.74117,230.359 5,231.5C 4.75083,230.376 4.25083,229.376 3.5,228.5C 2.28882,229.274 2.28882,230.107 3.5,231C 2.20677,231.49 0.873441,231.657 -0.5,231.5C -0.5,229.833 -0.5,228.167 -0.5,226.5C 3.67347,226.496 7.67347,226.663 11.5,227C 10.9288,225.795 10.2621,224.628 9.5,223.5C 7.5,226.167 5.5,226.167 3.5,223.5C 2.30441,223.846 2.30441,224.346 3.5,225C 2.20677,225.49 0.873441,225.657 -0.5,225.5C -0.5,224.167 -0.5,222.833 -0.5,221.5C 5.28353,220.825 11.1169,221.158 17,222.5C 18.3988,221.773 19.8988,221.273 21.5,221C 17.8484,220.501 14.1817,220.335 10.5,220.5C 10.719,219.325 10.3857,218.325 9.5,217.5C 7.5,220.167 5.5,220.167 3.5,217.5C 2.30441,217.846 2.30441,218.346 3.5,219C 2.20677,219.49 0.873441,219.657 -0.5,219.5C -0.5,218.167 -0.5,216.833 -0.5,215.5C 3.329,215.927 6.99566,215.927 10.5,215.5C 10.4041,210.89 9.40415,210.556 7.5,214.5C 6.57451,213.359 5.74117,213.359 5,214.5C 4.75083,213.376 4.25083,212.376 3.5,211.5C 2.28882,212.274 2.28882,213.107 3.5,214C 2.20677,214.49 0.873441,214.657 -0.5,214.5C -0.5,212.833 -0.5,211.167 -0.5,209.5C 3.6271,209.451 7.6271,209.617 11.5,210C 10.9288,208.795 10.2621,207.628 9.5,206.5C 7.56234,209.079 5.72901,209.079 4,206.5C 2.95101,208.107 1.45101,208.773 -0.5,208.5C -0.5,204.833 -0.5,201.167 -0.5,197.5C 2.16667,197.167 2.16667,196.833 -0.5,196.5C -0.5,191.167 -0.5,185.833 -0.5,180.5C 2.16667,180.167 2.16667,179.833 -0.5,179.5C -0.5,174.167 -0.5,168.833 -0.5,163.5C 2.16667,163.167 2.16667,162.833 -0.5,162.5C -0.5,157.167 -0.5,151.833 -0.5,146.5C 2.16667,146.167 2.16667,145.833 -0.5,145.5C -0.5,140.167 -0.5,134.833 -0.5,129.5C 2.16667,129.167 2.16667,128.833 -0.5,128.5C -0.5,121.167 -0.5,113.833 -0.5,106.5C 2.16667,106.167 2.16667,105.833 -0.5,105.5C -0.5,82.1667 -0.5,58.8333 -0.5,35.5C 0.833333,34.8333 0.833333,34.1667 -0.5,33.5C -0.5,32.1667 -0.5,30.8333 -0.5,29.5C 0.833333,29.1667 0.833333,28.8333 -0.5,28.5C -0.5,26.8333 -0.5,25.1667 -0.5,23.5C 0.833333,23.1667 0.833333,22.8333 -0.5,22.5C -0.5,21.1667 -0.5,19.8333 -0.5,18.5C 0.833333,17.8333 0.833333,17.1667 -0.5,16.5C -0.5,15.1667 -0.5,13.8333 -0.5,12.5C 0.833333,11.8333 0.833333,11.1667 -0.5,10.5C -0.5,9.5 -0.5,8.5 -0.5,7.5C 0.833333,7.16667 0.833333,6.83333 -0.5,6.5C -0.5,5.16667 -0.5,3.83333 -0.5,2.5C 0.833333,2.16667 0.833333,1.83333 -0.5,1.5C -0.5,0.833333 -0.5,0.166667 -0.5,-0.5 Z M 3.5,0.5 C 4.16667,1.16667 4.83333,1.83333 5.5,2.5C 4.39952,3.60486 3.73286,4.93819 3.5,6.5C 2.71087,6.21719 2.0442,5.71719 1.5,5C 2.26656,3.52951 2.93323,2.02951 3.5,0.5 Z M 7.5,7.5 C 6.76109,7.63101 6.09442,7.46434 5.5,7C 6.19055,5.93257 6.69055,4.76591 7,3.5C 7.33333,3.83333 7.66667,4.16667 8,4.5C 8.49001,3.20677 8.65668,1.87344 8.5,0.5C 12.8383,0.621924 13.1716,0.955257 9.5,1.5C 9.38623,3.71791 8.71957,5.71791 7.5,7.5 Z M 208.5,1.5 C 209.774,2.18944 209.774,3.02278 208.5,4C 209.549,4.49224 210.549,4.32557 211.5,3.5C 212.298,3.95689 212.631,4.62356 212.5,5.5C 210.54,6.13826 208.707,6.13826 207,5.5C 206.444,7.5951 205.944,7.76176 205.5,6C 206.729,4.61365 207.729,3.11365 208.5,1.5 Z M 214.5,1.5 C 215.014,2.62464 215.347,3.79131 215.5,5C 214.497,6.54585 213.497,6.71251 212.5,5.5C 213.345,4.32855 214.011,2.99522 214.5,1.5 Z M 231.5,1.5 C 232.014,2.62464 232.347,3.79131 232.5,5C 231.497,6.54585 230.497,6.71251 229.5,5.5C 230.345,4.32855 231.011,2.99522 231.5,1.5 Z M 3.5,6.5 C 5.76523,7.94015 5.9319,9.60682 4,11.5C 1.11429,9.82982 0.947626,8.16315 3.5,6.5 Z M 10.5,6.5 C 9.40191,7.39695 9.40191,8.23029 10.5,9C 9.64767,10.7284 8.64767,10.895 7.5,9.5C 7.5,8.83333 7.5,8.16667 7.5,7.5C 8.39105,6.89022 9.39105,6.55688 10.5,6.5 Z M 221.5,10.5 C 221.167,11.5 220.5,12.1667 219.5,12.5C 219.631,11.7611 219.464,11.0944 219,10.5C 218.107,11.7112 217.274,11.7112 216.5,10.5C 217.76,9.6184 218.926,8.6184 220,7.5C 220.232,8.73747 220.732,9.73747 221.5,10.5 Z M 238.5,10.5 C 238.5,11.8333 237.833,12.5 236.5,12.5C 236.631,11.7611 236.464,11.0944 236,10.5C 235.107,11.7112 234.274,11.7112 233.5,10.5C 234.76,9.6184 235.926,8.6184 237,7.5C 237.232,8.73747 237.732,9.73747 238.5,10.5 Z M 208.5,8.5 C 208.5,9.16667 208.5,9.83333 208.5,10.5C 207.833,10.5 207.167,10.5 206.5,10.5C 206.833,9.5 207.5,8.83333 208.5,8.5 Z M 214.5,8.5 C 214.5,9.16667 214.5,9.83333 214.5,10.5C 212.897,11.6772 211.564,11.5106 210.5,10C 211.901,9.5899 213.234,9.0899 214.5,8.5 Z M 225.5,8.5 C 225.5,9.16667 225.5,9.83333 225.5,10.5C 224.167,11.8333 222.833,11.8333 221.5,10.5C 222.671,9.65536 224.005,8.98869 225.5,8.5 Z M 231.5,8.5 C 231.5,9.16667 231.5,9.83333 231.5,10.5C 229.897,11.6772 228.564,11.5106 227.5,10C 228.901,9.5899 230.234,9.0899 231.5,8.5 Z M 242.5,8.5 C 242.5,9.16667 242.5,9.83333 242.5,10.5C 241.167,11.8333 239.833,11.8333 238.5,10.5C 239.671,9.65536 241.005,8.98869 242.5,8.5 Z M 100.5,10.5 C 101.289,10.7828 101.956,11.2828 102.5,12C 101.184,12.5281 100.517,12.0281 100.5,10.5 Z M 117.5,10.5 C 118.289,10.7828 118.956,11.2828 119.5,12C 118.184,12.5281 117.517,12.0281 117.5,10.5 Z M 151.5,10.5 C 152.473,10.9867 153.473,11.4867 154.5,12C 152.843,12.7252 151.843,12.2252 151.5,10.5 Z M 168.5,10.5 C 169.289,10.7828 169.956,11.2828 170.5,12C 169.184,12.5281 168.517,12.0281 168.5,10.5 Z M 185.5,10.5 C 186.289,10.7828 186.956,11.2828 187.5,12C 186.184,12.5281 185.517,12.0281 185.5,10.5 Z M 202.5,10.5 C 204.337,10.6395 204.67,11.3061 203.5,12.5C 202.702,12.0431 202.369,11.3764 202.5,10.5 Z M 42.5,14.5 C 43.0431,14.56 43.3764,14.8933 43.5,15.5C 42.277,16.6139 40.9437,16.7805 39.5,16C 40.7375,15.7679 41.7375,15.2679 42.5,14.5 Z M 53.5,14.5 C 54.0431,14.56 54.3764,14.8933 54.5,15.5C 53.277,16.6139 51.9437,16.7805 50.5,16C 51.7375,15.7679 52.7375,15.2679 53.5,14.5 Z M 59.5,14.5 C 60.0431,14.56 60.3764,14.8933 60.5,15.5C 58.9255,16.6309 57.2588,16.7975 55.5,16C 57.0581,15.79 58.3915,15.29 59.5,14.5 Z M 70.5,14.5 C 71.0431,14.56 71.3764,14.8933 71.5,15.5C 70.277,16.6139 68.9437,16.7805 67.5,16C 68.7375,15.7679 69.7375,15.2679 70.5,14.5 Z M 76.5,14.5 C 77.0431,14.56 77.3764,14.8933 77.5,15.5C 75.9255,16.6309 74.2588,16.7975 72.5,16C 74.0581,15.79 75.3915,15.29 76.5,14.5 Z M 87.5,14.5 C 88.0431,14.56 88.3764,14.8933 88.5,15.5C 87.277,16.6139 85.9437,16.7805 84.5,16C 85.7375,15.7679 86.7375,15.2679 87.5,14.5 Z M 93.5,18.5 C 92.7703,16.955 91.437,16.1216 89.5,16C 92.8618,13.7517 94.8618,14.4184 95.5,18C 95.3166,19.6836 94.6499,19.8502 93.5,18.5 Z M 101.5,14.5 C 102.289,14.7828 102.956,15.2828 103.5,16C 102.184,16.5281 101.517,16.0281 101.5,14.5 Z M 118.5,14.5 C 119.289,14.7828 119.956,15.2828 120.5,16C 119.184,16.5281 118.517,16.0281 118.5,14.5 Z M 203.5,14.5 C 205.859,15.3887 206.025,16.722 204,18.5C 203.51,17.2068 203.343,15.8734 203.5,14.5 Z M 153.5,17.5 C 152.227,16.9232 152.227,16.2565 153.5,15.5C 154.463,15.9698 154.463,16.6365 153.5,17.5 Z M 169.5,15.5 C 172.001,15.5109 172.168,16.1776 170,17.5C 169.536,16.9056 169.369,16.2389 169.5,15.5 Z M 186.5,15.5 C 189.001,15.5109 189.168,16.1776 187,17.5C 186.536,16.9056 186.369,16.2389 186.5,15.5 Z M 4.5,17.5 C 5.07683,16.2267 5.7435,16.2267 6.5,17.5C 6.03017,18.463 5.3635,18.463 4.5,17.5 Z M 54.5,18.5 C 54.5,19.8333 54.5,21.1667 54.5,22.5C 51.2027,22.6713 50.8694,22.0046 53.5,20.5C 49.626,18.9975 49.9593,18.3309 54.5,18.5 Z M 71.5,18.5 C 71.5,19.8333 71.5,21.1667 71.5,22.5C 68.2027,22.6713 67.8694,22.0046 70.5,20.5C 66.626,18.9975 66.9593,18.3309 71.5,18.5 Z M 88.5,18.5 C 88.5,19.8333 88.5,21.1667 88.5,22.5C 85.2027,22.6713 84.8694,22.0046 87.5,20.5C 83.626,18.9975 83.9593,18.3309 88.5,18.5 Z M 42.5,19.5 C 43.404,20.209 43.7373,21.209 43.5,22.5C 42.1266,22.6567 40.7932,22.49 39.5,22C 41.1193,21.7645 42.1193,20.9311 42.5,19.5 Z M 59.5,19.5 C 60.404,20.209 60.7373,21.209 60.5,22.5C 58.8333,22.5 57.1667,22.5 55.5,22.5C 57.2191,21.9779 58.5525,20.9779 59.5,19.5 Z M 76.5,19.5 C 77.404,20.209 77.7373,21.209 77.5,22.5C 75.8333,22.5 74.1667,22.5 72.5,22.5C 74.2191,21.9779 75.5525,20.9779 76.5,19.5 Z M 89.5,22.5 C 90.8775,21.7656 92.3775,21.0989 94,20.5C 94.8808,22.2735 96.0475,22.9402 97.5,22.5C 94.911,23.205 92.2443,23.205 89.5,22.5 Z M 102.5,23.5 C 98.7566,23.5408 98.5899,22.8741 102,21.5C 102.464,22.0944 102.631,22.7611 102.5,23.5 Z M 107.5,21.5 C 108.043,21.56 108.376,21.8933 108.5,22.5C 107.635,23.5827 106.635,23.7494 105.5,23C 106.416,22.7216 107.082,22.2216 107.5,21.5 Z M 113.5,21.5 C 114.043,21.56 114.376,21.8933 114.5,22.5C 113.635,23.5827 112.635,23.7494 111.5,23C 112.416,22.7216 113.082,22.2216 113.5,21.5 Z M 119.5,23.5 C 115.757,23.5408 115.59,22.8741 119,21.5C 119.464,22.0944 119.631,22.7611 119.5,23.5 Z M 124.5,21.5 C 125.043,21.56 125.376,21.8933 125.5,22.5C 124.635,23.5827 123.635,23.7494 122.5,23C 123.416,22.7216 124.082,22.2216 124.5,21.5 Z M 130.5,21.5 C 131.043,21.56 131.376,21.8933 131.5,22.5C 130.635,23.5827 129.635,23.7494 128.5,23C 129.416,22.7216 130.082,22.2216 130.5,21.5 Z M 141.5,21.5 C 142.043,21.56 142.376,21.8933 142.5,22.5C 141.635,23.5827 140.635,23.7494 139.5,23C 140.416,22.7216 141.082,22.2216 141.5,21.5 Z M 147.5,21.5 C 148.043,21.56 148.376,21.8933 148.5,22.5C 147.635,23.5827 146.635,23.7494 145.5,23C 146.416,22.7216 147.082,22.2216 147.5,21.5 Z M 153.5,23.5 C 149.757,23.5408 149.59,22.8741 153,21.5C 153.464,22.0944 153.631,22.7611 153.5,23.5 Z M 158.5,21.5 C 159.043,21.56 159.376,21.8933 159.5,22.5C 158.635,23.5827 157.635,23.7494 156.5,23C 157.416,22.7216 158.082,22.2216 158.5,21.5 Z M 164.5,21.5 C 165.043,21.56 165.376,21.8933 165.5,22.5C 164.635,23.5827 163.635,23.7494 162.5,23C 163.416,22.7216 164.082,22.2216 164.5,21.5 Z M 169.5,21.5 C 170.289,21.7828 170.956,22.2828 171.5,23C 170.167,23.6667 168.833,23.6667 167.5,23C 168.416,22.7216 169.082,22.2216 169.5,21.5 Z M 175.5,21.5 C 176.043,21.56 176.376,21.8933 176.5,22.5C 175.635,23.5827 174.635,23.7494 173.5,23C 174.416,22.7216 175.082,22.2216 175.5,21.5 Z M 181.5,21.5 C 182.043,21.56 182.376,21.8933 182.5,22.5C 181.635,23.5827 180.635,23.7494 179.5,23C 180.416,22.7216 181.082,22.2216 181.5,21.5 Z M 186.5,21.5 C 187.289,21.7828 187.956,22.2828 188.5,23C 187.167,23.6667 185.833,23.6667 184.5,23C 185.416,22.7216 186.082,22.2216 186.5,21.5 Z M 192.5,21.5 C 193.043,21.56 193.376,21.8933 193.5,22.5C 192.635,23.5827 191.635,23.7494 190.5,23C 191.416,22.7216 192.082,22.2216 192.5,21.5 Z M 198.5,21.5 C 199.043,21.56 199.376,21.8933 199.5,22.5C 198.635,23.5827 197.635,23.7494 196.5,23C 197.416,22.7216 198.082,22.2216 198.5,21.5 Z M 203.5,21.5 C 204.376,21.3691 205.043,21.7025 205.5,22.5C 204.277,23.6139 202.944,23.7805 201.5,23C 202.416,22.7216 203.082,22.2216 203.5,21.5 Z M 42.5,28.5 C 38.5528,27.3702 38.7195,26.3702 43,25.5C 43.4696,26.5768 43.3029,27.5768 42.5,28.5 Z M 54.5,28.5 C 50.7002,28.1806 50.5335,27.1806 54,25.5C 54.4828,26.448 54.6495,27.448 54.5,28.5 Z M 59.5,28.5 C 55.5528,27.3702 55.7195,26.3702 60,25.5C 60.4696,26.5768 60.3029,27.5768 59.5,28.5 Z M 71.5,28.5 C 67.7002,28.1806 67.5335,27.1806 71,25.5C 71.4828,26.448 71.6495,27.448 71.5,28.5 Z M 76.5,28.5 C 72.5528,27.3702 72.7195,26.3702 77,25.5C 77.4696,26.5768 77.3029,27.5768 76.5,28.5 Z M 88.5,28.5 C 84.7002,28.1806 84.5335,27.1806 88,25.5C 88.4828,26.448 88.6495,27.448 88.5,28.5 Z M 94.5,25.5 C 94.5,26.5 94.5,27.5 94.5,28.5C 96.2367,30.1611 94.9033,29.6611 90.5,27C 91.9007,26.5899 93.234,26.0899 94.5,25.5 Z M 48.5,26.5 C 48.5,27.1667 48.5,27.8333 48.5,28.5C 44.7113,27.4039 44.7113,26.7373 48.5,26.5 Z M 65.5,26.5 C 65.5,27.1667 65.5,27.8333 65.5,28.5C 61.7113,27.4039 61.7113,26.7373 65.5,26.5 Z M 82.5,26.5 C 82.5,27.1667 82.5,27.8333 82.5,28.5C 78.7113,27.4039 78.7113,26.7373 82.5,26.5 Z M 101.5,26.5 C 104.377,28.8455 104.044,29.6789 100.5,29C 101.252,28.3292 101.586,27.4959 101.5,26.5 Z M 107.5,26.5 C 110.341,29.1873 109.675,30.0206 105.5,29C 106.756,28.5831 107.423,27.7498 107.5,26.5 Z M 118.5,26.5 C 121.377,28.8455 121.044,29.6789 117.5,29C 118.252,28.3292 118.586,27.4959 118.5,26.5 Z M 124.5,26.5 C 127.341,29.1873 126.675,30.0206 122.5,29C 123.756,28.5831 124.423,27.7498 124.5,26.5 Z M 141.5,26.5 C 144.341,29.1873 143.675,30.0206 139.5,29C 140.756,28.5831 141.423,27.7498 141.5,26.5 Z M 158.5,26.5 C 161.341,29.1873 160.675,30.0206 156.5,29C 157.756,28.5831 158.423,27.7498 158.5,26.5 Z M 175.5,26.5 C 178.341,29.1873 177.675,30.0206 173.5,29C 174.756,28.5831 175.423,27.7498 175.5,26.5 Z M 192.5,26.5 C 195.341,29.1873 194.675,30.0206 190.5,29C 191.756,28.5831 192.423,27.7498 192.5,26.5 Z M 203.5,26.5 C 206.377,28.8455 206.044,29.6789 202.5,29C 203.252,28.3292 203.586,27.4959 203.5,26.5 Z M 152.5,27.5 C 155.137,29.1538 154.803,29.6538 151.5,29C 152.056,28.6174 152.389,28.1174 152.5,27.5 Z M 164.5,27.5 C 165.043,27.56 165.376,27.8933 165.5,28.5C 164.635,29.5827 163.635,29.7494 162.5,29C 163.416,28.7216 164.082,28.2216 164.5,27.5 Z M 169.5,27.5 C 172.137,29.1538 171.803,29.6538 168.5,29C 169.056,28.6174 169.389,28.1174 169.5,27.5 Z M 181.5,27.5 C 182.043,27.56 182.376,27.8933 182.5,28.5C 181.635,29.5827 180.635,29.7494 179.5,29C 180.416,28.7216 181.082,28.2216 181.5,27.5 Z M 186.5,27.5 C 189.137,29.1538 188.803,29.6538 185.5,29C 186.056,28.6174 186.389,28.1174 186.5,27.5 Z M 198.5,27.5 C 199.043,27.56 199.376,27.8933 199.5,28.5C 198.635,29.5827 197.635,29.7494 196.5,29C 197.416,28.7216 198.082,28.2216 198.5,27.5 Z M 42.5,31.5 C 43.0431,31.56 43.3764,31.8933 43.5,32.5C 42.277,33.6139 40.9437,33.7805 39.5,33C 40.7375,32.7679 41.7375,32.2679 42.5,31.5 Z M 53.5,31.5 C 54.0431,31.56 54.3764,31.8933 54.5,32.5C 53.277,33.6139 51.9437,33.7805 50.5,33C 51.7375,32.7679 52.7375,32.2679 53.5,31.5 Z M 59.5,31.5 C 60.0431,31.56 60.3764,31.8933 60.5,32.5C 58.9255,33.6309 57.2588,33.7975 55.5,33C 57.0581,32.79 58.3915,32.29 59.5,31.5 Z M 70.5,31.5 C 71.0431,31.56 71.3764,31.8933 71.5,32.5C 70.277,33.6139 68.9437,33.7805 67.5,33C 68.7375,32.7679 69.7375,32.2679 70.5,31.5 Z M 76.5,31.5 C 77.0431,31.56 77.3764,31.8933 77.5,32.5C 75.9255,33.6309 74.2588,33.7975 72.5,33C 74.0581,32.79 75.3915,32.29 76.5,31.5 Z M 87.5,31.5 C 88.0431,31.56 88.3764,31.8933 88.5,32.5C 87.277,33.6139 85.9437,33.7805 84.5,33C 85.7375,32.7679 86.7375,32.2679 87.5,31.5 Z M 93.5,35.5 C 92.7703,33.955 91.437,33.1216 89.5,33C 92.8618,30.7517 94.8618,31.4184 95.5,35C 95.3166,36.6836 94.6499,36.8502 93.5,35.5 Z M 101.5,31.5 C 102.289,31.7828 102.956,32.2828 103.5,33C 102.184,33.5281 101.517,33.0281 101.5,31.5 Z M 118.5,31.5 C 119.289,31.7828 119.956,32.2828 120.5,33C 119.184,33.5281 118.517,33.0281 118.5,31.5 Z M 203.5,31.5 C 205.859,32.3887 206.025,33.722 204,35.5C 203.51,34.2068 203.343,32.8734 203.5,31.5 Z M 153.5,34.5 C 152.227,33.9232 152.227,33.2565 153.5,32.5C 154.463,32.9698 154.463,33.6365 153.5,34.5 Z M 169.5,32.5 C 172.001,32.5109 172.168,33.1776 170,34.5C 169.536,33.9056 169.369,33.2389 169.5,32.5 Z M 186.5,32.5 C 189.001,32.5109 189.168,33.1776 187,34.5C 186.536,33.9056 186.369,33.2389 186.5,32.5 Z M 4.5,34.5 C 5.07683,33.2267 5.7435,33.2267 6.5,34.5C 6.03017,35.463 5.3635,35.463 4.5,34.5 Z M 54.5,35.5 C 55.087,36.7666 55.087,37.7666 54.5,38.5C 53.4096,37.273 52.0762,36.4396 50.5,36C 51.7932,35.51 53.1266,35.3433 54.5,35.5 Z M 71.5,35.5 C 72.087,36.7666 72.087,37.7666 71.5,38.5C 70.4096,37.273 69.0762,36.4396 67.5,36C 68.7932,35.51 70.1266,35.3433 71.5,35.5 Z M 88.5,35.5 C 89.087,36.7666 89.087,37.7666 88.5,38.5C 87.4096,37.273 86.0762,36.4396 84.5,36C 85.7932,35.51 87.1266,35.3433 88.5,35.5 Z M 37.5,44.5 C 36.9569,44.44 36.6236,44.1067 36.5,43.5C 37.0983,42.2054 37.5983,40.8721 38,39.5C 38.6397,41.265 38.4731,42.9317 37.5,44.5 Z M 16.5,40.5 C 16.5,41.1667 16.5,41.8333 16.5,42.5C 14.0673,41.4523 14.0673,40.7856 16.5,40.5 Z M 33.5,42.5 C 32.7109,42.2172 32.0442,41.7172 31.5,41C 32.816,40.4719 33.4827,40.9719 33.5,42.5 Z M 37.5,44.5 C 38.7879,46.0348 38.7879,47.7015 37.5,49.5C 37.1928,48.1125 37.1928,46.4458 37.5,44.5 Z M 27.5,45.5 C 27.5106,47.0174 28.1772,48.1841 29.5,49C 28.4232,49.4696 27.4232,49.3029 26.5,48.5C 26.2627,47.209 26.596,46.209 27.5,45.5 Z M 16.5,48.5 C 15.7109,48.2172 15.0442,47.7172 14.5,47C 15.816,46.4719 16.4827,46.9719 16.5,48.5 Z M 33.5,48.5 C 32.7109,48.2172 32.0442,47.7172 31.5,47C 32.816,46.4719 33.4827,46.9719 33.5,48.5 Z M 16.5,48.5 C 18.9327,48.7856 18.9327,49.4523 16.5,50.5C 16.5,49.8333 16.5,49.1667 16.5,48.5 Z M 33.5,48.5 C 35.9327,48.7856 35.9327,49.4523 33.5,50.5C 33.5,49.8333 33.5,49.1667 33.5,48.5 Z M 16.5,53.5 C 18.7602,54.2376 18.9269,55.2376 17,56.5C 16.5172,55.552 16.3505,54.552 16.5,53.5 Z M 27.5,53.5 C 28.2891,53.7828 28.9558,54.2828 29.5,55C 28.184,55.5281 27.5173,55.0281 27.5,53.5 Z M 33.5,53.5 C 35.7602,54.2376 35.9269,55.2376 34,56.5C 33.5172,55.552 33.3505,54.552 33.5,53.5 Z M 37.5,55.5 C 38.7416,57.3888 38.7416,59.3888 37.5,61.5C 38.7416,59.3888 38.7416,57.3888 37.5,55.5 Z M 16.5,59.5 C 15.7109,59.2172 15.0442,58.7172 14.5,58C 15.816,57.4719 16.4827,57.9719 16.5,59.5 Z M 33.5,59.5 C 32.7109,59.2172 32.0442,58.7172 31.5,58C 32.816,57.4719 33.4827,57.9719 33.5,59.5 Z M 37.5,61.5 C 38.7879,63.0348 38.7879,64.7015 37.5,66.5C 37.1928,65.1125 37.1928,63.4458 37.5,61.5 Z M 27.5,62.5 C 27.5106,64.0174 28.1772,65.1841 29.5,66C 28.4232,66.4696 27.4232,66.3029 26.5,65.5C 26.2627,64.209 26.596,63.209 27.5,62.5 Z M 16.5,65.5 C 15.7109,65.2172 15.0442,64.7172 14.5,64C 15.816,63.4719 16.4827,63.9719 16.5,65.5 Z M 33.5,65.5 C 32.7109,65.2172 32.0442,64.7172 31.5,64C 32.816,63.4719 33.4827,63.9719 33.5,65.5 Z M 183.5,67.5 C 177.054,65.9653 170.72,66.2987 164.5,68.5C 167.228,66.3689 170.395,65.0356 174,64.5C 177.172,64.7897 180.339,65.7897 183.5,67.5 Z M 16.5,65.5 C 18.9327,65.7856 18.9327,66.4523 16.5,67.5C 16.5,66.8333 16.5,66.1667 16.5,65.5 Z M 33.5,65.5 C 35.9327,65.7856 35.9327,66.4523 33.5,67.5C 33.5,66.8333 33.5,66.1667 33.5,65.5 Z M 16.5,70.5 C 18.7602,71.2376 18.9269,72.2376 17,73.5C 16.5172,72.552 16.3505,71.552 16.5,70.5 Z M 27.5,70.5 C 28.2891,70.7828 28.9558,71.2828 29.5,72C 28.184,72.5281 27.5173,72.0281 27.5,70.5 Z M 33.5,70.5 C 35.7602,71.2376 35.9269,72.2376 34,73.5C 33.5172,72.552 33.3505,71.552 33.5,70.5 Z M 56.5,70.5 C 54.8185,72.0075 52.8185,73.0075 50.5,73.5C 51.911,71.461 53.911,70.461 56.5,70.5 Z M 37.5,72.5 C 38.7416,74.3888 38.7416,76.3888 37.5,78.5C 38.7416,76.3888 38.7416,74.3888 37.5,72.5 Z M 71.5,73.5 C 73.5,73.5 74.5,74.5 74.5,76.5C 73.1667,75.8333 72.1667,74.8333 71.5,73.5 Z M 213.5,75.5 C 206.833,74.1667 200.167,74.1667 193.5,75.5C 193.918,74.7784 194.584,74.2784 195.5,74C 200.833,73.3333 206.167,73.3333 211.5,74C 212.416,74.2784 213.082,74.7784 213.5,75.5 Z M 16.5,76.5 C 15.7109,76.2172 15.0442,75.7172 14.5,75C 15.816,74.4719 16.4827,74.9719 16.5,76.5 Z M 33.5,76.5 C 32.7109,76.2172 32.0442,75.7172 31.5,75C 32.816,74.4719 33.4827,74.9719 33.5,76.5 Z M 213.5,75.5 C 215.833,75.8333 217.167,77.1667 217.5,79.5C 215.833,78.5 214.5,77.1667 213.5,75.5 Z M 76.5,78.5 C 78.5,78.5 79.5,79.5 79.5,81.5C 78.1667,80.8333 77.1667,79.8333 76.5,78.5 Z M 27.5,79.5 C 27.5106,81.0174 28.1772,82.1841 29.5,83C 28.4232,83.4696 27.4232,83.3029 26.5,82.5C 26.2627,81.209 26.596,80.209 27.5,79.5 Z M 16.5,82.5 C 15.7109,82.2172 15.0442,81.7172 14.5,81C 15.816,80.4719 16.4827,80.9719 16.5,82.5 Z M 33.5,82.5 C 32.7109,82.2172 32.0442,81.7172 31.5,81C 32.816,80.4719 33.4827,80.9719 33.5,82.5 Z M 16.5,82.5 C 18.9327,82.7856 18.9327,83.4523 16.5,84.5C 16.5,83.8333 16.5,83.1667 16.5,82.5 Z M 33.5,82.5 C 34.8333,82.5 36.1667,82.5 37.5,82.5C 35.6216,83.5324 33.9549,84.8657 32.5,86.5C 32.8333,85.1667 33.1667,83.8333 33.5,82.5 Z M 219.5,82.5 C 220.434,83.5676 220.768,84.901 220.5,86.5C 221.791,86.2627 222.791,86.596 223.5,87.5C 222.167,87.5 220.833,87.5 219.5,87.5C 219.5,85.8333 219.5,84.1667 219.5,82.5 Z M 81.5,83.5 C 82.8333,83.5 83.5,84.1667 83.5,85.5C 82.5,85.1667 81.8333,84.5 81.5,83.5 Z M 84.5,86.5 C 86.8333,86.8333 88.1667,88.1667 88.5,90.5C 86.8333,89.5 85.5,88.1667 84.5,86.5 Z M 16.5,87.5 C 18.7602,88.2376 18.9269,89.2376 17,90.5C 16.5172,89.552 16.3505,88.552 16.5,87.5 Z M 27.5,87.5 C 28.2891,87.7828 28.9558,88.2828 29.5,89C 28.184,89.5281 27.5173,89.0281 27.5,87.5 Z M 155.5,88.5 C 151.702,89.4834 147.702,89.8168 143.5,89.5C 135.146,88.0264 126.812,88.6931 118.5,91.5C 121.422,89.4688 124.755,88.3022 128.5,88C 137.516,87.4009 146.516,87.5675 155.5,88.5 Z M 223.5,87.5 C 225.38,87.2291 226.713,87.8958 227.5,89.5C 225.847,89.3404 224.514,88.6737 223.5,87.5 Z M 228.5,90.5 C 229.833,90.5 230.5,91.1667 230.5,92.5C 229.5,92.1667 228.833,91.5 228.5,90.5 Z M 16.5,93.5 C 15.7109,93.2172 15.0442,92.7172 14.5,92C 15.816,91.4719 16.4827,91.9719 16.5,93.5 Z M 89.5,91.5 C 90.8333,91.5 91.5,92.1667 91.5,93.5C 90.5,93.1667 89.8333,92.5 89.5,91.5 Z M 116.5,92.5 C 116.027,93.9063 115.027,94.573 113.5,94.5C 113.973,93.0937 114.973,92.427 116.5,92.5 Z M 11.5,93.5 C 12.7733,94.0768 12.7733,94.7435 11.5,95.5C 10.537,95.0302 10.537,94.3635 11.5,93.5 Z M 22.5,93.5 C 23.7733,94.0768 23.7733,94.7435 22.5,95.5C 21.537,95.0302 21.537,94.3635 22.5,93.5 Z M 91.5,93.5 C 92.8333,93.5 93.5,94.1667 93.5,95.5C 92.5,95.1667 91.8333,94.5 91.5,93.5 Z M 93.5,95.5 C 95.8333,95.8333 97.1667,97.1667 97.5,99.5C 95.8333,98.5 94.5,97.1667 93.5,95.5 Z M 112.5,95.5 C 111.5,97.1667 110.167,98.5 108.5,99.5C 108.833,97.1667 110.167,95.8333 112.5,95.5 Z M 98.5,100.5 C 99.8333,100.5 100.5,101.167 100.5,102.5C 99.5,102.167 98.8333,101.5 98.5,100.5 Z M 16.5,170.5 C 17.7733,171.077 17.7733,171.743 16.5,172.5C 15.537,172.03 15.537,171.363 16.5,170.5 Z M 33.5,170.5 C 34.7733,171.077 34.7733,171.743 33.5,172.5C 32.537,172.03 32.537,171.363 33.5,170.5 Z M 16.5,187.5 C 17.7733,188.077 17.7733,188.743 16.5,189.5C 15.537,189.03 15.537,188.363 16.5,187.5 Z M 33.5,187.5 C 34.7733,188.077 34.7733,188.743 33.5,189.5C 32.537,189.03 32.537,188.363 33.5,187.5 Z M 28.5,221.5 C 31.6399,220.359 34.9733,220.192 38.5,221C 35.3154,222.401 31.9821,222.568 28.5,221.5 Z M 28.5,238.5 C 31.6399,237.359 34.9733,237.192 38.5,238C 35.3154,239.401 31.9821,239.568 28.5,238.5 Z"/></g>
<g><path style="opacity:0.004" fill="#000000" d="M 3.5,0.5 C 3.5,0.166667 3.5,-0.166667 3.5,-0.5C 4.5,-0.5 5.5,-0.5 6.5,-0.5C 6.44312,0.608953 6.10978,1.60895 5.5,2.5C 4.83333,1.83333 4.16667,1.16667 3.5,0.5 Z"/></g>
<g><path style="opacity:0.006" fill="#000000" d="M 209.5,-0.5 C 210.833,-0.5 212.167,-0.5 213.5,-0.5C 213.328,0.491622 213.662,1.15829 214.5,1.5C 214.011,2.99522 213.345,4.32855 212.5,5.5C 212.631,4.62356 212.298,3.95689 211.5,3.5C 210.549,4.32557 209.549,4.49224 208.5,4C 209.774,3.02278 209.774,2.18944 208.5,1.5C 208.833,0.833333 209.167,0.166667 209.5,-0.5 Z"/></g>
<g><path style="opacity:0.006" fill="#000000" d="M 220.5,-0.5 C 221.833,-0.5 223.167,-0.5 224.5,-0.5C 224.328,0.491622 224.662,1.15829 225.5,1.5C 225.013,2.47344 224.513,3.47344 224,4.5C 223.259,3.35945 222.425,3.35945 221.5,4.5C 220.548,2.95467 220.215,1.28801 220.5,-0.5 Z"/></g>
<g><path style="opacity:0.006" fill="#000000" d="M 226.5,-0.5 C 227.833,-0.5 229.167,-0.5 230.5,-0.5C 230.328,0.491622 230.662,1.15829 231.5,1.5C 231.011,2.99522 230.345,4.32855 229.5,5.5C 229.631,4.62356 229.298,3.95689 228.5,3.5C 227.549,4.32557 226.549,4.49224 225.5,4C 226.774,3.02278 226.774,2.18944 225.5,1.5C 225.833,0.833333 226.167,0.166667 226.5,-0.5 Z"/></g>
<g><path style="opacity:0.006" fill="#000000" d="M 237.5,-0.5 C 238.833,-0.5 240.167,-0.5 241.5,-0.5C 241.328,0.491622 241.662,1.15829 242.5,1.5C 242.013,2.47344 241.513,3.47344 241,4.5C 240.259,3.35945 239.425,3.35945 238.5,4.5C 237.548,2.95467 237.215,1.28801 237.5,-0.5 Z"/></g>
<g><path style="opacity:0.006" fill="#000000" d="M 243.5,-0.5 C 244.833,-0.5 246.167,-0.5 247.5,-0.5C 247.328,0.491622 247.662,1.15829 248.5,1.5C 248.011,2.99522 247.345,4.32855 246.5,5.5C 246.631,4.62356 246.298,3.95689 245.5,3.5C 244.549,4.32557 243.549,4.49224 242.5,4C 243.774,3.02278 243.774,2.18944 242.5,1.5C 242.833,0.833333 243.167,0.166667 243.5,-0.5 Z"/></g>
<g><path style="opacity:0.004" fill="#000000" d="M 249.5,0.5 C 249.5,0.833333 249.5,1.16667 249.5,1.5C 248.83,1.01865 248.83,0.68532 249.5,0.5 Z"/></g>
<g><path style="opacity:0.004" fill="#000000" d="M 249.5,3.5 C 249.5,3.83333 249.5,4.16667 249.5,4.5C 248.83,4.01865 248.83,3.68532 249.5,3.5 Z"/></g>
<g><path style="opacity:0.006" fill="#000000" d="M 54.5,18.5 C 54.8333,18.5 55.1667,18.5 55.5,18.5C 56.5676,19.4345 57.901,19.7678 59.5,19.5C 58.5525,20.9779 57.2191,21.9779 55.5,22.5C 55.1667,22.5 54.8333,22.5 54.5,22.5C 54.5,21.1667 54.5,19.8333 54.5,18.5 Z"/></g>
<g><path style="opacity:0.006" fill="#000000" d="M 71.5,18.5 C 71.8333,18.5 72.1667,18.5 72.5,18.5C 73.5676,19.4345 74.901,19.7678 76.5,19.5C 75.5525,20.9779 74.2191,21.9779 72.5,22.5C 72.1667,22.5 71.8333,22.5 71.5,22.5C 71.5,21.1667 71.5,19.8333 71.5,18.5 Z"/></g>
<g><path style="opacity:0.999" fill="#f8f7f6" d="M 183.5,67.5 C 183.842,68.3382 184.508,68.6716 185.5,68.5C 185.842,69.3382 186.508,69.6716 187.5,69.5C 187.5,70.1667 187.833,70.5 188.5,70.5C 188.5,71.1667 188.833,71.5 189.5,71.5C 189.5,72.1667 189.833,72.5 190.5,72.5C 190.5,73.1667 190.833,73.5 191.5,73.5C 191.328,74.4916 191.662,75.1583 192.5,75.5C 192.833,76.8333 193.167,76.8333 193.5,75.5C 200.167,74.1667 206.833,74.1667 213.5,75.5C 214.5,77.1667 215.833,78.5 217.5,79.5C 217.5,80.1667 217.833,80.5 218.5,80.5C 218.328,81.4916 218.662,82.1583 219.5,82.5C 219.5,84.1667 219.5,85.8333 219.5,87.5C 220.833,87.5 222.167,87.5 223.5,87.5C 224.514,88.6737 225.847,89.3404 227.5,89.5C 227.5,90.1667 227.833,90.5 228.5,90.5C 228.833,91.5 229.5,92.1667 230.5,92.5C 230.5,93.1667 230.833,93.5 231.5,93.5C 231.263,94.791 231.596,95.791 232.5,96.5C 232.5,101.167 232.5,105.833 232.5,110.5C 230.539,116.783 226.205,120.116 219.5,120.5C 219.5,121.5 219.5,122.5 219.5,123.5C 221.167,123.5 222.833,123.5 224.5,123.5C 225.209,124.404 226.209,124.737 227.5,124.5C 227.5,125.167 227.833,125.5 228.5,125.5C 228.5,126.167 228.833,126.5 229.5,126.5C 229.5,127.167 229.833,127.5 230.5,127.5C 230.328,128.492 230.662,129.158 231.5,129.5C 231.263,130.791 231.596,131.791 232.5,132.5C 232.263,133.791 232.596,134.791 233.5,135.5C 233.263,136.791 233.596,137.791 234.5,138.5C 235.65,145.701 232.983,150.868 226.5,154C 216.44,157.848 206.273,158.348 196,155.5C 194.775,155.862 193.609,156.362 192.5,157C 184.812,157.169 177.145,157.669 169.5,158.5C 167.061,166.773 161.728,172.273 153.5,175C 138.317,180.465 123.65,179.465 109.5,172C 102.942,165.963 100.276,158.463 101.5,149.5C 102.638,146.696 102.805,143.696 102,140.5C 91.8333,150.667 81.6667,160.833 71.5,171C 65.3688,175.225 59.0354,175.558 52.5,172C 39,158.5 25.5,145 12,131.5C 11.2432,129.685 10.4098,128.019 9.5,126.5C 9.5,123.833 9.5,121.167 9.5,118.5C 10.4345,117.432 10.7678,116.099 10.5,114.5C 11.3382,114.158 11.6716,113.492 11.5,112.5C 12.1667,112.5 12.5,112.167 12.5,111.5C 13.1667,111.5 13.5,111.167 13.5,110.5C 14.1667,110.5 14.5,110.167 14.5,109.5C 15.1667,109.5 15.5,109.167 15.5,108.5C 16.1667,108.5 16.5,108.167 16.5,107.5C 17.1667,107.5 17.5,107.167 17.5,106.5C 18.1667,106.5 18.5,106.167 18.5,105.5C 19.1667,105.5 19.5,105.167 19.5,104.5C 20.1667,104.5 20.5,104.167 20.5,103.5C 21.1667,103.5 21.5,103.167 21.5,102.5C 22.1667,102.5 22.5,102.167 22.5,101.5C 23.1667,101.5 23.5,101.167 23.5,100.5C 24.1667,100.5 24.5,100.167 24.5,99.5C 25.1667,99.5 25.5,99.1667 25.5,98.5C 26.1667,98.5 26.5,98.1667 26.5,97.5C 27.1667,97.5 27.5,97.1667 27.5,96.5C 28.1667,96.5 28.5,96.1667 28.5,95.5C 29.1667,95.5 29.5,95.1667 29.5,94.5C 30.1667,94.5 30.5,94.1667 30.5,93.5C 31.1667,93.5 31.5,93.1667 31.5,92.5C 32.1667,92.5 32.5,92.1667 32.5,91.5C 33.1667,91.5 33.5,91.1667 33.5,90.5C 34.1667,90.5 34.5,90.1667 34.5,89.5C 35.1667,89.5 35.5,89.1667 35.5,88.5C 36.1667,88.5 36.5,88.1667 36.5,87.5C 37.1667,87.5 37.5,87.1667 37.5,86.5C 38.1667,86.5 38.5,86.1667 38.5,85.5C 39.1667,85.5 39.5,85.1667 39.5,84.5C 40.1667,84.5 40.5,84.1667 40.5,83.5C 41.1667,83.5 41.5,83.1667 41.5,82.5C 42.1667,82.5 42.5,82.1667 42.5,81.5C 43.1667,81.5 43.5,81.1667 43.5,80.5C 44.1667,80.5 44.5,80.1667 44.5,79.5C 45.1667,79.5 45.5,79.1667 45.5,78.5C 46.1667,78.5 46.5,78.1667 46.5,77.5C 47.1667,77.5 47.5,77.1667 47.5,76.5C 48.1667,76.5 48.5,76.1667 48.5,75.5C 49.1667,75.5 49.5,75.1667 49.5,74.5C 50.1667,74.5 50.5,74.1667 50.5,73.5C 52.8185,73.0075 54.8185,72.0075 56.5,70.5C 59.5,70.5 62.5,70.5 65.5,70.5C 66.209,71.404 67.209,71.7373 68.5,71.5C 68.8417,72.3382 69.5084,72.6716 70.5,72.5C 70.5,73.1667 70.8333,73.5 71.5,73.5C 72.1667,74.8333 73.1667,75.8333 74.5,76.5C 74.5,77.1667 74.8333,77.5 75.5,77.5C 75.5,78.1667 75.8333,78.5 76.5,78.5C 77.1667,79.8333 78.1667,80.8333 79.5,81.5C 79.5,82.1667 79.8333,82.5 80.5,82.5C 80.5,83.1667 80.8333,83.5 81.5,83.5C 81.8333,84.5 82.5,85.1667 83.5,85.5C 83.5,86.1667 83.8333,86.5 84.5,86.5C 85.5,88.1667 86.8333,89.5 88.5,90.5C 88.5,91.1667 88.8333,91.5 89.5,91.5C 89.8333,92.5 90.5,93.1667 91.5,93.5C 91.8333,94.5 92.5,95.1667 93.5,95.5C 94.5,97.1667 95.8333,98.5 97.5,99.5C 97.5,100.167 97.8333,100.5 98.5,100.5C 98.8333,101.5 99.5,102.167 100.5,102.5C 100.5,103.167 100.833,103.5 101.5,103.5C 101.5,104.167 101.833,104.5 102.5,104.5C 102.5,105.167 102.833,105.5 103.5,105.5C 103.833,106.833 104.167,106.833 104.5,105.5C 105.167,105.5 105.5,105.167 105.5,104.5C 106.338,104.158 106.672,103.492 106.5,102.5C 107.338,102.158 107.672,101.492 107.5,100.5C 108.167,100.5 108.5,100.167 108.5,99.5C 110.167,98.5 111.5,97.1667 112.5,95.5C 113.167,95.5 113.5,95.1667 113.5,94.5C 115.027,94.573 116.027,93.9063 116.5,92.5C 117.492,92.6716 118.158,92.3382 118.5,91.5C 126.812,88.6931 135.146,88.0264 143.5,89.5C 147.634,90.4849 151.968,90.8182 156.5,90.5C 156.5,87.1667 156.5,83.8333 156.5,80.5C 156.5,79.5 156.5,78.5 156.5,77.5C 157.338,77.1583 157.672,76.4916 157.5,75.5C 158.338,75.1583 158.672,74.4916 158.5,73.5C 159.167,73.5 159.5,73.1667 159.5,72.5C 160.167,72.5 160.5,72.1667 160.5,71.5C 161.167,71.5 161.5,71.1667 161.5,70.5C 162.167,70.5 162.5,70.1667 162.5,69.5C 163.492,69.6716 164.158,69.3382 164.5,68.5C 170.72,66.2987 177.054,65.9653 183.5,67.5 Z M 71.5,73.5 C 73.5,73.5 74.5,74.5 74.5,76.5C 73.1667,75.8333 72.1667,74.8333 71.5,73.5 Z M 76.5,78.5 C 78.5,78.5 79.5,79.5 79.5,81.5C 78.1667,80.8333 77.1667,79.8333 76.5,78.5 Z M 81.5,83.5 C 82.8333,83.5 83.5,84.1667 83.5,85.5C 82.5,85.1667 81.8333,84.5 81.5,83.5 Z M 84.5,86.5 C 86.8333,86.8333 88.1667,88.1667 88.5,90.5C 86.8333,89.5 85.5,88.1667 84.5,86.5 Z M 155.5,88.5 C 151.702,89.4834 147.702,89.8168 143.5,89.5C 135.146,88.0264 126.812,88.6931 118.5,91.5C 121.422,89.4688 124.755,88.3022 128.5,88C 137.516,87.4009 146.516,87.5675 155.5,88.5 Z M 89.5,91.5 C 90.8333,91.5 91.5,92.1667 91.5,93.5C 90.5,93.1667 89.8333,92.5 89.5,91.5 Z M 116.5,92.5 C 116.027,93.9063 115.027,94.573 113.5,94.5C 113.973,93.0937 114.973,92.427 116.5,92.5 Z M 91.5,93.5 C 92.8333,93.5 93.5,94.1667 93.5,95.5C 92.5,95.1667 91.8333,94.5 91.5,93.5 Z M 93.5,95.5 C 95.8333,95.8333 97.1667,97.1667 97.5,99.5C 95.8333,98.5 94.5,97.1667 93.5,95.5 Z M 112.5,95.5 C 111.5,97.1667 110.167,98.5 108.5,99.5C 108.833,97.1667 110.167,95.8333 112.5,95.5 Z M 98.5,100.5 C 99.8333,100.5 100.5,101.167 100.5,102.5C 99.5,102.167 98.8333,101.5 98.5,100.5 Z"/></g>
<g><path style="opacity:1" fill="#462a0d" d="M 170.5,78.5 C 181.872,77.3507 185.205,81.8507 180.5,92C 170.251,95.751 166.084,92.251 168,81.5C 169.045,80.6266 169.878,79.6266 170.5,78.5 Z"/></g>
<g><path style="opacity:1" fill="#ff4c30" d="M 64.5,134.5 C 64.1755,127.313 64.5088,120.313 65.5,113.5C 67.4611,115.963 69.6278,118.297 72,120.5C 71.6343,127.467 74.801,129.967 81.5,128C 85.6438,124.021 85.3104,120.355 80.5,117C 72.6667,115.833 68.1667,111.333 67,103.5C 64.7717,101.032 61.9383,99.8654 58.5,100C 55.0778,97.2807 52.5778,94.1141 51,90.5C 53.5,88 56,85.5 58.5,83C 60.1667,82.3333 61.8333,82.3333 63.5,83C 76.742,95.7396 89.4087,108.906 101.5,122.5C 100.909,124.266 100.076,125.933 99,127.5C 87.4709,139.363 75.6376,150.863 63.5,162C 61.8333,162.667 60.1667,162.667 58.5,162C 46.3333,149.833 34.1667,137.667 22,125.5C 21.3333,123.5 21.3333,121.5 22,119.5C 30.0143,111.319 38.1809,103.319 46.5,95.5C 51.9497,98.7554 55.1163,103.422 56,109.5C 56.6891,110.357 57.5224,111.023 58.5,111.5C 59.8333,119.167 59.8333,126.833 58.5,134.5C 54.5322,137.914 54.5322,141.414 58.5,145C 65.3333,146.167 68.1667,143.333 67,136.5C 66.2917,135.619 65.4584,134.953 64.5,134.5 Z"/></g>
<g><path style="opacity:1" fill="#482c0e" d="M 199.5,86.5 C 202.167,86.5 204.833,86.5 207.5,86.5C 207.5,90.8333 207.5,95.1667 207.5,99.5C 211.833,99.5 216.167,99.5 220.5,99.5C 220.5,102.5 220.5,105.5 220.5,108.5C 216.167,108.5 211.833,108.5 207.5,108.5C 207.196,117.221 207.529,125.888 208.5,134.5C 210.192,135.969 212.192,136.635 214.5,136.5C 216.858,136.247 219.192,135.914 221.5,135.5C 221.575,138.206 221.908,140.873 222.5,143.5C 217.608,144.972 212.608,145.972 207.5,146.5C 200.886,146.786 196.72,143.786 195,137.5C 194.5,127.839 194.334,118.172 194.5,108.5C 192.167,108.5 189.833,108.5 187.5,108.5C 187.5,105.833 187.5,103.167 187.5,100.5C 195.644,99.6112 199.644,94.9446 199.5,86.5 Z"/></g>
<g><path style="opacity:0.673" fill="#b5b5b5" d="M 155.5,80.5 C 155.833,80.5 156.167,80.5 156.5,80.5C 156.5,83.8333 156.5,87.1667 156.5,90.5C 151.968,90.8182 147.634,90.4849 143.5,89.5C 147.702,89.8168 151.702,89.4834 155.5,88.5C 155.5,85.8333 155.5,83.1667 155.5,80.5 Z"/></g>
<g><path style="opacity:1" fill="#482c0e" d="M 127.5,136.5 C 126.957,136.56 126.624,136.893 126.5,137.5C 129.086,138.48 131.753,138.813 134.5,138.5C 141.838,137.859 148.838,139.025 155.5,142C 162.013,155.634 157.679,163.634 142.5,166C 135.833,166.667 129.167,166.667 122.5,166C 112.648,161.975 110.981,155.809 117.5,147.5C 114.758,145.067 113.925,142.067 115,138.5C 116.793,135.705 118.96,133.205 121.5,131C 112.235,121.968 112.235,112.968 121.5,104C 123.717,102.725 126.051,101.725 128.5,101C 138.824,101.018 149.157,101.184 159.5,101.5C 159.5,104.167 159.5,106.833 159.5,109.5C 157.076,109.192 154.743,109.526 152.5,110.5C 157.118,122.176 153.451,129.676 141.5,133C 137.129,133.172 132.796,133.672 128.5,134.5C 128.137,135.183 127.804,135.85 127.5,136.5 Z"/></g>
<g><path style="opacity:1" fill="#482c0d" d="M 183.5,138.5 C 184.568,139.434 185.901,139.768 187.5,139.5C 187.5,141.5 187.5,143.5 187.5,145.5C 179.833,145.5 172.167,145.5 164.5,145.5C 164.5,143.5 164.5,141.5 164.5,139.5C 166.099,139.768 167.432,139.434 168.5,138.5C 169.494,129.014 169.827,119.348 169.5,109.5C 167.5,109.167 165.5,108.833 163.5,108.5C 163.833,105.833 164.167,103.167 164.5,100.5C 170.5,100.5 176.5,100.5 182.5,100.5C 182.171,113.344 182.505,126.011 183.5,138.5 Z"/></g>
<g><path style="opacity:1" fill="#f7f6f5" d="M 131.5,109.5 C 140.211,108.38 144.044,112.047 143,120.5C 138.209,125.311 133.209,125.644 128,121.5C 127.333,118.5 127.333,115.5 128,112.5C 129.145,111.364 130.312,110.364 131.5,109.5 Z"/></g>
<g><path style="opacity:1" fill="#ffb4aa" d="M 65.5,113.5 C 64.5088,120.313 64.1755,127.313 64.5,134.5C 63.1806,127.323 63.1806,119.99 64.5,112.5C 65.1067,112.624 65.44,112.957 65.5,113.5 Z"/></g>
<g><path style="opacity:1" fill="#938271" d="M 127.5,136.5 C 129.833,137.167 132.167,137.833 134.5,138.5C 131.753,138.813 129.086,138.48 126.5,137.5C 126.624,136.893 126.957,136.56 127.5,136.5 Z"/></g>
<g><path style="opacity:1" fill="#7a664f" d="M 168.5,138.5 C 167.432,139.434 166.099,139.768 164.5,139.5C 164.5,141.5 164.5,143.5 164.5,145.5C 172.167,145.5 179.833,145.5 187.5,145.5C 187.5,143.5 187.5,141.5 187.5,139.5C 185.901,139.768 184.568,139.434 183.5,138.5C 185.167,138.5 186.833,138.5 188.5,138.5C 188.5,141.167 188.5,143.833 188.5,146.5C 180.167,146.5 171.833,146.5 163.5,146.5C 163.5,143.833 163.5,141.167 163.5,138.5C 165.167,138.5 166.833,138.5 168.5,138.5 Z"/></g>
<g><path style="opacity:1" fill="#f3f1ef" d="M 125.5,149.5 C 131.871,149.488 138.204,149.988 144.5,151C 147.044,152.775 147.044,154.608 144.5,156.5C 138.651,158.466 132.651,158.966 126.5,158C 122.986,155.468 122.653,152.635 125.5,149.5 Z"/></g>
<g><path style="opacity:0.004" fill="#000000" d="M 211.5,207.5 C 211.489,210.001 210.822,210.168 209.5,208C 210.094,207.536 210.761,207.369 211.5,207.5 Z"/></g>
<g><path style="opacity:0.004" fill="#000000" d="M 228.5,207.5 C 228.489,210.001 227.822,210.168 226.5,208C 227.094,207.536 227.761,207.369 228.5,207.5 Z"/></g>
<g><path style="opacity:0.004" fill="#000000" d="M 245.5,207.5 C 245.489,210.001 244.822,210.168 243.5,208C 244.094,207.536 244.761,207.369 245.5,207.5 Z"/></g>
<g><path style="opacity:0.004" fill="#000000" d="M 211.5,215.5 C 210.094,215.027 209.427,214.027 209.5,212.5C 211.074,212.063 212.241,211.063 213,209.5C 213.333,209.833 213.667,210.167 214,210.5C 213.787,212.4 212.953,214.067 211.5,215.5 Z"/></g>
<g><path style="opacity:0.004" fill="#000000" d="M 226.5,212.5 C 224.418,212.624 222.918,213.624 222,215.5C 221.5,215 221,214.5 220.5,214C 221.787,212.59 222.954,211.09 224,209.5C 225.417,210.078 226.25,211.078 226.5,212.5 Z"/></g>
<g><path style="opacity:0.004" fill="#000000" d="M 228.5,215.5 C 227.094,215.027 226.427,214.027 226.5,212.5C 228.074,212.063 229.241,211.063 230,209.5C 230.333,209.833 230.667,210.167 231,210.5C 230.787,212.4 229.953,214.067 228.5,215.5 Z"/></g>
<g><path style="opacity:0.004" fill="#000000" d="M 243.5,212.5 C 241.418,212.624 239.918,213.624 239,215.5C 238.5,215 238,214.5 237.5,214C 238.787,212.59 239.954,211.09 241,209.5C 242.417,210.078 243.25,211.078 243.5,212.5 Z"/></g>
<g><path style="opacity:0.004" fill="#000000" d="M 245.5,215.5 C 244.094,215.027 243.427,214.027 243.5,212.5C 245.074,212.063 246.241,211.063 247,209.5C 247.333,209.833 247.667,210.167 248,210.5C 247.787,212.4 246.953,214.067 245.5,215.5 Z"/></g>
<g><path style="opacity:0.005" fill="#000000" d="M 216.5,210.5 C 221.45,210.993 221.45,212.327 216.5,214.5C 215.708,213.3 215.708,211.967 216.5,210.5 Z"/></g>
<g><path style="opacity:0.005" fill="#000000" d="M 233.5,210.5 C 238.45,210.993 238.45,212.327 233.5,214.5C 232.708,213.3 232.708,211.967 233.5,210.5 Z"/></g>
<g><path style="opacity:0.004" fill="#000000" d="M 211.5,215.5 C 215.5,216.833 215.5,218.167 211.5,219.5C 211.5,218.833 211.167,218.5 210.5,218.5C 211.11,217.609 211.443,216.609 211.5,215.5 Z"/></g>
<g><path style="opacity:0.005" fill="#000000" d="M 218.5,215.5 C 219.289,215.783 219.956,216.283 220.5,217C 214.997,221.811 214.33,221.311 218.5,215.5 Z"/></g>
<g><path style="opacity:0.004" fill="#000000" d="M 223.5,215.5 C 224.756,215.461 225.756,215.961 226.5,217C 224.333,217.833 222.833,219.333 222,221.5C 221.308,220.975 220.808,220.308 220.5,219.5C 221.91,218.431 222.91,217.097 223.5,215.5 Z"/></g>
<g><path style="opacity:0.004" fill="#000000" d="M 228.5,215.5 C 229.995,215.415 230.995,216.081 231.5,217.5C 230.174,218.642 229.174,219.976 228.5,221.5C 227.522,221.189 226.855,220.522 226.5,219.5C 227.853,218.476 228.52,217.143 228.5,215.5 Z"/></g>
<g><path style="opacity:0.005" fill="#000000" d="M 235.5,215.5 C 236.289,215.783 236.956,216.283 237.5,217C 231.997,221.811 231.33,221.311 235.5,215.5 Z"/></g>
<g><path style="opacity:0.004" fill="#000000" d="M 240.5,215.5 C 241.756,215.461 242.756,215.961 243.5,217C 241.333,217.833 239.833,219.333 239,221.5C 238.308,220.975 237.808,220.308 237.5,219.5C 238.91,218.431 239.91,217.097 240.5,215.5 Z"/></g>
<g><path style="opacity:0.004" fill="#000000" d="M 245.5,215.5 C 246.995,215.415 247.995,216.081 248.5,217.5C 247.174,218.642 246.174,219.976 245.5,221.5C 244.522,221.189 243.855,220.522 243.5,219.5C 244.853,218.476 245.52,217.143 245.5,215.5 Z"/></g>
<g><path style="opacity:0.004" fill="#000000" d="M 210.5,218.5 C 211.167,218.5 211.5,218.833 211.5,219.5C 211.5,220.167 211.5,220.833 211.5,221.5C 209.618,220.779 209.285,219.779 210.5,218.5 Z"/></g>
<g><path style="opacity:0.004" fill="#000000" d="M 211.5,221.5 C 212.867,220.147 213.867,220.481 214.5,222.5C 213.234,223.724 212.067,225.057 211,226.5C 210.5,226 210,225.5 209.5,225C 210.823,224.184 211.489,223.017 211.5,221.5 Z"/></g>
<g><path style="opacity:0.004" fill="#000000" d="M 223.5,220.5 C 224.643,220.908 225.643,221.575 226.5,222.5C 220.723,227.715 219.723,227.049 223.5,220.5 Z"/></g>
<g><path style="opacity:0.004" fill="#000000" d="M 228.5,221.5 C 229.867,220.147 230.867,220.481 231.5,222.5C 230.234,223.724 229.067,225.057 228,226.5C 227.5,226 227,225.5 226.5,225C 227.823,224.184 228.489,223.017 228.5,221.5 Z"/></g>
<g><path style="opacity:0.004" fill="#000000" d="M 240.5,220.5 C 241.643,220.908 242.643,221.575 243.5,222.5C 237.723,227.715 236.723,227.049 240.5,220.5 Z"/></g>
<g><path style="opacity:0.004" fill="#000000" d="M 245.5,221.5 C 246.867,220.147 247.867,220.481 248.5,222.5C 247.234,223.724 246.067,225.057 245,226.5C 244.5,226 244,225.5 243.5,225C 244.823,224.184 245.489,223.017 245.5,221.5 Z"/></g>
<g><path style="opacity:0.005" fill="#000000" d="M 217.5,221.5 C 218.675,221.281 219.675,221.614 220.5,222.5C 216.14,226.82 215.14,226.486 217.5,221.5 Z"/></g>
<g><path style="opacity:0.005" fill="#000000" d="M 234.5,221.5 C 235.675,221.281 236.675,221.614 237.5,222.5C 233.14,226.82 232.14,226.486 234.5,221.5 Z"/></g>
<g><path style="opacity:0.004" fill="#000000" d="M 211.5,232.5 C 210.094,232.027 209.427,231.027 209.5,229.5C 211.074,229.063 212.241,228.063 213,226.5C 213.333,226.833 213.667,227.167 214,227.5C 213.787,229.4 212.953,231.067 211.5,232.5 Z"/></g>
<g><path style="opacity:0.004" fill="#000000" d="M 226.5,229.5 C 220.265,233.43 219.432,232.43 224,226.5C 225.417,227.078 226.25,228.078 226.5,229.5 Z"/></g>
<g><path style="opacity:0.004" fill="#000000" d="M 228.5,232.5 C 227.094,232.027 226.427,231.027 226.5,229.5C 228.074,229.063 229.241,228.063 230,226.5C 230.333,226.833 230.667,227.167 231,227.5C 230.787,229.4 229.953,231.067 228.5,232.5 Z"/></g>
<g><path style="opacity:0.004" fill="#000000" d="M 243.5,229.5 C 237.265,233.43 236.432,232.43 241,226.5C 242.417,227.078 243.25,228.078 243.5,229.5 Z"/></g>
<g><path style="opacity:0.004" fill="#000000" d="M 245.5,232.5 C 244.094,232.027 243.427,231.027 243.5,229.5C 245.074,229.063 246.241,228.063 247,226.5C 247.333,226.833 247.667,227.167 248,227.5C 247.787,229.4 246.953,231.067 245.5,232.5 Z"/></g>
<g><path style="opacity:0.004" fill="#000000" d="M 216.5,227.5 C 221.45,227.993 221.45,229.327 216.5,231.5C 215.708,230.3 215.708,228.967 216.5,227.5 Z"/></g>
<g><path style="opacity:0.004" fill="#000000" d="M 233.5,227.5 C 238.45,227.993 238.45,229.327 233.5,231.5C 232.708,230.3 232.708,228.967 233.5,227.5 Z"/></g>
<g><path style="opacity:0.004" fill="#000000" d="M 211.5,232.5 C 215.5,233.833 215.5,235.167 211.5,236.5C 211.5,235.833 211.167,235.5 210.5,235.5C 211.11,234.609 211.443,233.609 211.5,232.5 Z"/></g>
<g><path style="opacity:0.005" fill="#000000" d="M 218.5,232.5 C 219.289,232.783 219.956,233.283 220.5,234C 214.997,238.811 214.33,238.311 218.5,232.5 Z"/></g>
<g><path style="opacity:0.004" fill="#000000" d="M 223.5,232.5 C 224.756,232.461 225.756,232.961 226.5,234C 224.333,234.833 222.833,236.333 222,238.5C 221.308,237.975 220.808,237.308 220.5,236.5C 221.91,235.431 222.91,234.097 223.5,232.5 Z"/></g>
<g><path style="opacity:0.004" fill="#000000" d="M 228.5,232.5 C 229.995,232.415 230.995,233.081 231.5,234.5C 230.174,235.642 229.174,236.976 228.5,238.5C 227.522,238.189 226.855,237.522 226.5,236.5C 227.853,235.476 228.52,234.143 228.5,232.5 Z"/></g>
<g><path style="opacity:0.005" fill="#000000" d="M 235.5,232.5 C 236.289,232.783 236.956,233.283 237.5,234C 231.997,238.811 231.33,238.311 235.5,232.5 Z"/></g>
<g><path style="opacity:0.004" fill="#000000" d="M 240.5,232.5 C 241.756,232.461 242.756,232.961 243.5,234C 241.333,234.833 239.833,236.333 239,238.5C 238.308,237.975 237.808,237.308 237.5,236.5C 238.91,235.431 239.91,234.097 240.5,232.5 Z"/></g>
<g><path style="opacity:0.004" fill="#000000" d="M 245.5,232.5 C 246.995,232.415 247.995,233.081 248.5,234.5C 247.174,235.642 246.174,236.976 245.5,238.5C 244.522,238.189 243.855,237.522 243.5,236.5C 244.853,235.476 245.52,234.143 245.5,232.5 Z"/></g>
<g><path style="opacity:0.004" fill="#000000" d="M 210.5,235.5 C 211.167,235.5 211.5,235.833 211.5,236.5C 211.5,237.167 211.5,237.833 211.5,238.5C 209.618,237.779 209.285,236.779 210.5,235.5 Z"/></g>
<g><path style="opacity:0.004" fill="#000000" d="M 211.5,238.5 C 212.867,237.147 213.867,237.481 214.5,239.5C 210.085,245.054 209.085,244.721 211.5,238.5 Z"/></g>
<g><path style="opacity:0.004" fill="#000000" d="M 223.5,237.5 C 224.643,237.908 225.643,238.575 226.5,239.5C 220.723,244.715 219.723,244.049 223.5,237.5 Z"/></g>
<g><path style="opacity:0.004" fill="#000000" d="M 228.5,238.5 C 229.867,237.147 230.867,237.481 231.5,239.5C 227.085,245.054 226.085,244.721 228.5,238.5 Z"/></g>
<g><path style="opacity:0.004" fill="#000000" d="M 240.5,237.5 C 241.643,237.908 242.643,238.575 243.5,239.5C 237.723,244.715 236.723,244.049 240.5,237.5 Z"/></g>
<g><path style="opacity:0.004" fill="#000000" d="M 245.5,238.5 C 246.867,237.147 247.867,237.481 248.5,239.5C 244.085,245.054 243.085,244.721 245.5,238.5 Z"/></g>
<g><path style="opacity:0.005" fill="#000000" d="M 217.5,238.5 C 218.675,238.281 219.675,238.614 220.5,239.5C 216.14,243.82 215.14,243.486 217.5,238.5 Z"/></g>
<g><path style="opacity:0.005" fill="#000000" d="M 234.5,238.5 C 235.675,238.281 236.675,238.614 237.5,239.5C 233.14,243.82 232.14,243.486 234.5,238.5 Z"/></g>
<g><path style="opacity:0.004" fill="#000000" d="M 211.5,249.5 C 211.167,249.5 210.833,249.5 210.5,249.5C 209.89,248.609 209.557,247.609 209.5,246.5C 211.074,246.063 212.241,245.063 213,243.5C 213.333,243.833 213.667,244.167 214,244.5C 213.787,246.4 212.953,248.067 211.5,249.5 Z"/></g>
<g><path style="opacity:0.004" fill="#000000" d="M 226.5,246.5 C 224.596,246.738 223.262,247.738 222.5,249.5C 222.167,249.5 221.833,249.5 221.5,249.5C 221.26,247.408 222.094,245.408 224,243.5C 225.417,244.078 226.25,245.078 226.5,246.5 Z"/></g>
<g><path style="opacity:0.004" fill="#000000" d="M 228.5,249.5 C 228.167,249.5 227.833,249.5 227.5,249.5C 226.89,248.609 226.557,247.609 226.5,246.5C 228.074,246.063 229.241,245.063 230,243.5C 230.333,243.833 230.667,244.167 231,244.5C 230.787,246.4 229.953,248.067 228.5,249.5 Z"/></g>
<g><path style="opacity:0.004" fill="#000000" d="M 243.5,246.5 C 241.596,246.738 240.262,247.738 239.5,249.5C 239.167,249.5 238.833,249.5 238.5,249.5C 238.26,247.408 239.094,245.408 241,243.5C 242.417,244.078 243.25,245.078 243.5,246.5 Z"/></g>
<g><path style="opacity:0.004" fill="#000000" d="M 245.5,249.5 C 245.167,249.5 244.833,249.5 244.5,249.5C 243.89,248.609 243.557,247.609 243.5,246.5C 245.074,246.063 246.241,245.063 247,243.5C 247.333,243.833 247.667,244.167 248,244.5C 247.787,246.4 246.953,248.067 245.5,249.5 Z"/></g>
<g><path style="opacity:0.004" fill="#000000" d="M 216.5,244.5 C 221.45,244.993 221.45,246.327 216.5,248.5C 215.708,247.3 215.708,245.967 216.5,244.5 Z"/></g>
<g><path style="opacity:0.004" fill="#000000" d="M 233.5,244.5 C 238.45,244.993 238.45,246.327 233.5,248.5C 232.708,247.3 232.708,245.967 233.5,244.5 Z"/></g>
</svg>
