<?xml version="1.0" encoding="UTF-8"?>
<!DOCTYPE svg PUBLIC "-//W3C//DTD SVG 1.1//EN" "http://www.w3.org/Graphics/SVG/1.1/DTD/svg11.dtd">
<svg xmlns="http://www.w3.org/2000/svg" version="1.1" width="250px" height="250px" style="shape-rendering:geometricPrecision; text-rendering:geometricPrecision; image-rendering:optimizeQuality; fill-rule:evenodd; clip-rule:evenodd" xmlns:xlink="http://www.w3.org/1999/xlink">
<g><path style="opacity:0.007" fill="#000000" d="M -0.5,-0.5 C 0.833333,-0.5 2.16667,-0.5 3.5,-0.5C 3.67655,1.98055 2.67655,3.81388 0.5,5C 1.09442,5.46434 1.76109,5.63101 2.5,5.5C 4.27554,5.79379 6.27554,5.96046 8.5,6C 9.25244,6.67076 9.58577,7.5041 9.5,8.5C 10.404,7.79105 10.7373,6.79105 10.5,5.5C 11.5,5.5 12.5,5.5 13.5,5.5C 16.1973,7.96921 15.5306,9.46921 11.5,10C 12.3247,11.6883 13.3247,11.8549 14.5,10.5C 14.8333,11.6667 15.1667,12.8333 15.5,14C 15.0368,31.6919 15.0368,49.8585 15.5,68.5C 15.5,72.5 15.5,76.5 15.5,80.5C 15.5,110.167 15.5,139.833 15.5,169.5C 15.5,173.5 15.5,177.5 15.5,181.5C 15.8312,189.86 15.4979,198.193 14.5,206.5C 13.8165,206.863 13.1499,207.196 12.5,207.5C 9.89762,206.031 7.73096,206.698 6,209.5C 3.90449,208.285 4.07116,207.451 6.5,207C 5.83333,206.833 5.16667,206.667 4.5,206.5C 2.82277,207.187 1.15611,207.854 -0.5,208.5C -0.5,208.167 -0.5,207.833 -0.5,207.5C 0.833333,207.167 0.833333,206.833 -0.5,206.5C -0.5,167.167 -0.5,127.833 -0.5,88.5C 0.833333,88.1667 0.833333,87.8333 -0.5,87.5C -0.5,58.1667 -0.5,28.8333 -0.5,-0.5 Z M 5.5,10.5 C 5.16667,11.5 4.5,12.1667 3.5,12.5C 3.63101,11.7611 3.46434,11.0944 3,10.5C 2.10723,11.7112 1.2739,11.7112 0.5,10.5C 1.75978,9.6184 2.92644,8.6184 4,7.5C 4.23209,8.73747 4.73209,9.73747 5.5,10.5 Z M 9.5,8.5 C 9.5,9.16667 9.5,9.83333 9.5,10.5C 8.16667,11.8333 6.83333,11.8333 5.5,10.5C 6.67145,9.65536 8.00478,8.98869 9.5,8.5 Z M 9.5,13.5 C 12.0009,13.5109 12.1676,14.1776 10,15.5C 9.53566,14.9056 9.36899,14.2389 9.5,13.5 Z M 9.5,30.5 C 12.0009,30.5109 12.1676,31.1776 10,32.5C 9.53566,31.9056 9.36899,31.2389 9.5,30.5 Z"/></g>
<g><path style="opacity:0.006" fill="#000000" d="M 4.5,-0.5 C 5.83333,-0.5 7.16667,-0.5 8.5,-0.5C 8.41423,0.495904 8.74756,1.32924 9.5,2C 8.87424,2.75044 8.37424,3.58377 8,4.5C 7.25883,3.35945 6.42549,3.35945 5.5,4.5C 4.54811,2.95467 4.21478,1.28801 4.5,-0.5 Z"/></g>
<g><path style="opacity:0.006" fill="#000000" d="M 10.5,-0.5 C 11.8333,-0.5 13.1667,-0.5 14.5,-0.5C 15.4629,1.642 15.1296,3.642 13.5,5.5C 13.6309,4.62356 13.2975,3.95689 12.5,3.5C 11.549,4.32557 10.549,4.49224 9.5,4C 10.3802,2.64387 10.7135,1.14387 10.5,-0.5 Z"/></g>
<g><path style="opacity:0.937" fill="#ff32af" d="M 15.5,181.5 C 15.5,177.5 15.5,173.5 15.5,169.5C 18.649,161.519 24.3156,156.019 32.5,153C 31.1667,134.333 31.1667,115.667 32.5,97C 24.3156,93.9809 18.649,88.4809 15.5,80.5C 15.5,76.5 15.5,72.5 15.5,68.5C 24.5459,51.4384 37.3792,48.1051 54,58.5C 70.3942,49.72 86.5609,40.5533 102.5,31C 101.233,10.6026 110.9,1.26929 131.5,3C 142.861,7.90207 147.861,16.4021 146.5,28.5C 146.529,30.0293 147.196,31.196 148.5,32C 164.579,40.7878 180.412,49.9545 196,59.5C 203.745,52.0709 212.579,50.5709 222.5,55C 232.221,61.2873 235.721,70.1206 233,81.5C 230.667,89.1667 225.667,94.1667 218,96.5C 217.333,115.5 217.333,134.5 218,153.5C 233.147,160.599 237.481,171.933 231,187.5C 224.541,196.146 216.041,199.313 205.5,197C 201.49,195.657 197.99,193.491 195,190.5C 180.079,199.712 164.913,208.545 149.5,217C 146.183,219.319 145.517,222.319 147.5,226C 142.829,246.336 130.829,252.336 111.5,244C 103.618,237.687 100.951,229.687 103.5,220C 86.996,210.247 70.3293,200.747 53.5,191.5C 36.978,202.196 24.3113,198.863 15.5,181.5 Z M 107.5,40.5 C 108.525,40.8966 108.692,41.5632 108,42.5C 86.414,79.3366 65.0807,116.337 44,153.5C 43.3333,134.5 43.3333,115.5 44,96.5C 56.0645,90.8786 61.5645,81.3786 60.5,68C 76.5582,59.3113 92.2248,50.1447 107.5,40.5 Z M 141.5,41.5 C 157.941,50.5567 174.275,59.8901 190.5,69.5C 188.156,82.5078 193.156,91.5078 205.5,96.5C 206.666,115.491 206.833,134.491 206,153.5C 184.224,116.275 162.724,78.9418 141.5,41.5 Z M 118.5,46.5 C 122.884,46.1744 127.217,46.5078 131.5,47.5C 151.8,82.9628 172.3,118.296 193,153.5C 194.59,155.65 195.257,157.983 195,160.5C 193.247,163.005 191.747,165.671 190.5,168.5C 146.505,169.5 102.505,169.833 58.5,169.5C 57.9044,165.642 56.2378,162.309 53.5,159.5C 75.4312,121.969 97.0978,84.3025 118.5,46.5 Z M 60.5,182.5 C 103.665,181.335 146.998,181.169 190.5,182C 174.082,191.626 157.582,201.126 141,210.5C 131.208,201.87 121.041,201.37 110.5,209C 109.5,209.667 108.5,209.667 107.5,209C 91.7788,200.143 76.1121,191.309 60.5,182.5 Z"/></g>
<g><path style="opacity:0.004" fill="#000000" d="M 2.5,4.5 C 3.83333,5.16667 3.83333,5.16667 2.5,4.5 Z"/></g>
<g><path style="opacity:0.004" fill="#000000" d="M 12.5,207.5 C 12.4891,210.001 11.8224,210.168 10.5,208C 11.0944,207.536 11.7611,207.369 12.5,207.5 Z"/></g>
<g><path style="opacity:0.004" fill="#000000" d="M 10.5,212.5 C 8.4184,212.624 6.9184,213.624 6,215.5C 5.5,215 5,214.5 4.5,214C 5.78749,212.59 6.95416,211.09 8,209.5C 9.41704,210.078 10.2504,211.078 10.5,212.5 Z"/></g>
<g><path style="opacity:0.004" fill="#000000" d="M 12.5,215.5 C 11.0937,215.027 10.427,214.027 10.5,212.5C 12.0744,212.063 13.2411,211.063 14,209.5C 14.3333,209.833 14.6667,210.167 15,210.5C 14.7867,212.4 13.9534,214.067 12.5,215.5 Z"/></g>
<g><path style="opacity:0.005" fill="#000000" d="M -0.5,214.5 C -0.5,213.833 -0.5,213.167 -0.5,212.5C 0.866383,210.649 2.53305,210.316 4.5,211.5C 3.06028,212.952 1.39362,213.952 -0.5,214.5 Z"/></g>
<g><path style="opacity:0.005" fill="#000000" d="M -0.5,220.5 C -0.5,219.833 -0.5,219.167 -0.5,218.5C 0.47449,217.365 1.64116,216.365 3,215.5C 3.5,216 4,216.5 4.5,217C 3.15366,218.669 1.487,219.836 -0.5,220.5 Z"/></g>
<g><path style="opacity:0.004" fill="#000000" d="M 7.5,215.5 C 8.75618,215.461 9.75618,215.961 10.5,217C 8.33333,217.833 6.83333,219.333 6,221.5C 5.30762,220.975 4.80762,220.308 4.5,219.5C 5.90952,218.431 6.90952,217.097 7.5,215.5 Z"/></g>
<g><path style="opacity:0.004" fill="#000000" d="M 12.5,215.5 C 13.9953,215.415 14.9953,216.081 15.5,217.5C 14.1738,218.642 13.1738,219.976 12.5,221.5C 11.5222,221.189 10.8555,220.522 10.5,219.5C 11.8532,218.476 12.5198,217.143 12.5,215.5 Z"/></g>
<g><path style="opacity:0.004" fill="#000000" d="M 7.5,220.5 C 8.64314,220.908 9.64314,221.575 10.5,222.5C 4.7227,227.715 3.7227,227.049 7.5,220.5 Z"/></g>
<g><path style="opacity:0.004" fill="#000000" d="M 12.5,221.5 C 13.8671,220.147 14.8671,220.481 15.5,222.5C 14.2338,223.724 13.0672,225.057 12,226.5C 11.5,226 11,225.5 10.5,225C 11.8228,224.184 12.4894,223.017 12.5,221.5 Z"/></g>
<g><path style="opacity:0.005" fill="#000000" d="M -0.5,225.5 C -0.5,225.167 -0.5,224.833 -0.5,224.5C 0.267389,223.828 0.934056,222.995 1.5,222C 2.63505,221.251 3.63505,221.417 4.5,222.5C 3.06028,223.952 1.39362,224.952 -0.5,225.5 Z"/></g>
<g><path style="opacity:0.004" fill="#000000" d="M 10.5,229.5 C 4.26484,233.43 3.43151,232.43 8,226.5C 9.41704,227.078 10.2504,228.078 10.5,229.5 Z"/></g>
<g><path style="opacity:0.004" fill="#000000" d="M 12.5,232.5 C 11.0937,232.027 10.427,231.027 10.5,229.5C 12.0744,229.063 13.2411,228.063 14,226.5C 14.3333,226.833 14.6667,227.167 15,227.5C 14.7867,229.4 13.9534,231.067 12.5,232.5 Z"/></g>
<g><path style="opacity:0.004" fill="#000000" d="M -0.5,231.5 C -0.5,230.833 -0.5,230.167 -0.5,229.5C 0.866383,227.649 2.53305,227.316 4.5,228.5C 3.06028,229.952 1.39362,230.952 -0.5,231.5 Z"/></g>
<g><path style="opacity:0.005" fill="#000000" d="M -0.5,237.5 C -0.5,236.833 -0.5,236.167 -0.5,235.5C 0.47449,234.365 1.64116,233.365 3,232.5C 3.5,233 4,233.5 4.5,234C 3.15366,235.669 1.487,236.836 -0.5,237.5 Z"/></g>
<g><path style="opacity:0.004" fill="#000000" d="M 7.5,232.5 C 8.75618,232.461 9.75618,232.961 10.5,234C 8.33333,234.833 6.83333,236.333 6,238.5C 5.30762,237.975 4.80762,237.308 4.5,236.5C 5.90952,235.431 6.90952,234.097 7.5,232.5 Z"/></g>
<g><path style="opacity:0.004" fill="#000000" d="M 12.5,232.5 C 13.9953,232.415 14.9953,233.081 15.5,234.5C 14.1738,235.642 13.1738,236.976 12.5,238.5C 11.5222,238.189 10.8555,237.522 10.5,236.5C 11.8532,235.476 12.5198,234.143 12.5,232.5 Z"/></g>
<g><path style="opacity:0.004" fill="#000000" d="M 7.5,237.5 C 8.64314,237.908 9.64314,238.575 10.5,239.5C 4.7227,244.715 3.7227,244.049 7.5,237.5 Z"/></g>
<g><path style="opacity:0.004" fill="#000000" d="M 12.5,238.5 C 13.8671,237.147 14.8671,237.481 15.5,239.5C 11.0855,245.054 10.0855,244.721 12.5,238.5 Z"/></g>
<g><path style="opacity:0.005" fill="#000000" d="M -0.5,242.5 C -0.5,242.167 -0.5,241.833 -0.5,241.5C 0.267389,240.828 0.934056,239.995 1.5,239C 2.63505,238.251 3.63505,238.417 4.5,239.5C 3.06028,240.952 1.39362,241.952 -0.5,242.5 Z"/></g>
<g><path style="opacity:0.004" fill="#000000" d="M 10.5,246.5 C 8.59565,246.738 7.26231,247.738 6.5,249.5C 6.16667,249.5 5.83333,249.5 5.5,249.5C 5.26048,247.408 6.09381,245.408 8,243.5C 9.41704,244.078 10.2504,245.078 10.5,246.5 Z"/></g>
<g><path style="opacity:0.004" fill="#000000" d="M 12.5,249.5 C 12.1667,249.5 11.8333,249.5 11.5,249.5C 10.8902,248.609 10.5569,247.609 10.5,246.5C 12.0744,246.063 13.2411,245.063 14,243.5C 14.3333,243.833 14.6667,244.167 15,244.5C 14.7867,246.4 13.9534,248.067 12.5,249.5 Z"/></g>
<g><path style="opacity:0.004" fill="#000000" d="M -0.5,248.5 C -0.5,247.833 -0.5,247.167 -0.5,246.5C 0.866383,244.649 2.53305,244.316 4.5,245.5C 3.06028,246.952 1.39362,247.952 -0.5,248.5 Z"/></g>
</svg>
