<?xml version="1.0" encoding="UTF-8"?>
<!DOCTYPE svg PUBLIC "-//W3C//DTD SVG 1.1//EN" "http://www.w3.org/Graphics/SVG/1.1/DTD/svg11.dtd">
<svg xmlns="http://www.w3.org/2000/svg" version="1.1" width="250px" height="250px" style="shape-rendering:geometricPrecision; text-rendering:geometricPrecision; image-rendering:optimizeQuality; fill-rule:evenodd; clip-rule:evenodd" xmlns:xlink="http://www.w3.org/1999/xlink">
<g><path style="opacity:0.998" fill="#6861a9" d="M 40.5,-0.5 C 96.5,-0.5 152.5,-0.5 208.5,-0.5C 216.481,2.64896 221.981,8.31563 225,16.5C 225.667,88.8333 225.667,161.167 225,233.5C 221.954,241.044 216.787,246.377 209.5,249.5C 152.833,249.5 96.1667,249.5 39.5,249.5C 32.1289,245.957 26.9623,240.291 24,232.5C 23.3333,160.5 23.3333,88.5 24,16.5C 27.0191,8.31563 32.5191,2.64896 40.5,-0.5 Z"/></g>
<g><path style="opacity:1" fill="#d2cfe5" d="M 156.5,34.5 C 166.674,33.1768 177.007,33.1768 187.5,34.5C 187.376,35.1067 187.043,35.44 186.5,35.5C 176.681,34.506 166.681,34.1726 156.5,34.5 Z"/></g>
<g><path style="opacity:1" fill="#fefefe" d="M 176.5,108.5 C 176.5,143.833 176.5,179.167 176.5,214.5C 167.833,214.5 159.167,214.5 150.5,214.5C 150.832,180.329 150.498,146.329 149.5,112.5C 147.791,110.187 145.457,108.687 142.5,108C 137.833,107.333 133.167,107.333 128.5,108C 108.875,111.823 89.8749,117.656 71.5,125.5C 70.5002,94.8406 70.1668,64.1739 70.5,33.5C 79.8333,33.5 89.1667,33.5 98.5,33.5C 98.167,53.178 98.5004,72.8446 99.5,92.5C 120.037,83.8817 141.037,82.3817 162.5,88C 170.524,92.5265 175.19,99.3599 176.5,108.5 Z"/></g>
<g><path style="opacity:1" fill="#fcfcfd" d="M 156.5,34.5 C 166.681,34.1726 176.681,34.506 186.5,35.5C 181.492,47.6867 174.825,58.8534 166.5,69C 156.5,69.6667 146.5,69.6667 136.5,69C 144.192,58.1299 150.859,46.6299 156.5,34.5 Z"/></g>
<g><path style="opacity:1" fill="#c6c3de" d="M 176.5,108.5 C 177.498,143.996 177.832,179.663 177.5,215.5C 168.167,215.5 158.833,215.5 149.5,215.5C 149.5,181.167 149.5,146.833 149.5,112.5C 150.498,146.329 150.832,180.329 150.5,214.5C 159.167,214.5 167.833,214.5 176.5,214.5C 176.5,179.167 176.5,143.833 176.5,108.5 Z"/></g>
<g><path style="opacity:1" fill="#ccc9e2" d="M 70.5,160.5 C 71.1667,178.167 71.8333,195.833 72.5,213.5C 72.44,214.043 72.1067,214.376 71.5,214.5C 70.5005,196.512 70.1671,178.512 70.5,160.5 Z"/></g>
<g><path style="opacity:1" fill="#fbfafc" d="M 70.5,160.5 C 70.8966,159.475 71.5632,159.308 72.5,160C 81.5432,168.708 90.2099,177.708 98.5,187C 90.3406,196.326 81.6739,205.159 72.5,213.5C 71.8333,195.833 71.1667,178.167 70.5,160.5 Z"/></g>
</svg>
