<?xml version="1.0" encoding="UTF-8"?>
<!DOCTYPE svg PUBLIC "-//W3C//DTD SVG 1.1//EN" "http://www.w3.org/Graphics/SVG/1.1/DTD/svg11.dtd">
<svg xmlns="http://www.w3.org/2000/svg" version="1.1" width="250px" height="250px" style="shape-rendering:geometricPrecision; text-rendering:geometricPrecision; image-rendering:optimizeQuality; fill-rule:evenodd; clip-rule:evenodd" xmlns:xlink="http://www.w3.org/1999/xlink">
<g><path style="opacity:0.985" fill="#e44c25" d="M 56.5,-0.5 C 101.833,-0.5 147.167,-0.5 192.5,-0.5C 188.665,45.8485 184.665,92.1818 180.5,138.5C 161.846,143.495 143.179,148.495 124.5,153.5C 105.821,148.495 87.1543,143.495 68.5,138.5C 64.5552,92.1623 60.5552,45.8289 56.5,-0.5 Z"/></g>
<g><path style="opacity:1" fill="#f1652a" d="M 123.5,123.5 C 135.178,120.664 146.845,117.664 158.5,114.5C 160.696,97.2262 162.363,79.8929 163.5,62.5C 143.167,62.5 122.833,62.5 102.5,62.5C 102.5,62.1667 102.5,61.8333 102.5,61.5C 122.836,61.6666 143.169,61.5 163.5,61C 150.504,60.5001 137.504,60.3334 124.5,60.5C 124.5,55.8333 124.5,51.1667 124.5,46.5C 138.344,46.829 152.01,46.4957 165.5,45.5C 165.5,45.1667 165.5,44.8333 165.5,44.5C 165.76,38.828 166.093,33.1613 166.5,27.5C 152.677,26.5042 138.677,26.1709 124.5,26.5C 124.5,21.5 124.5,16.5 124.5,11.5C 142.833,11.5 161.167,11.5 179.5,11.5C 176.275,50.5325 172.775,89.5325 169,128.5C 154.66,133.141 140.16,137.474 125.5,141.5C 124.194,135.946 124.194,130.446 125.5,125C 124.584,124.722 123.918,124.222 123.5,123.5 Z"/></g>
<g><path style="opacity:1" fill="#fdf7f4" d="M 166.5,27.5 C 166.093,33.1613 165.76,38.828 165.5,44.5C 143.833,44.5 122.167,44.5 100.5,44.5C 108.316,43.5076 116.316,43.1743 124.5,43.5C 124.5,38.8333 124.5,34.1667 124.5,29.5C 110.5,29.5 96.5,29.5 82.5,29.5C 110.147,27.5084 138.147,26.8417 166.5,27.5 Z"/></g>
<g><path style="opacity:1" fill="#ebebeb" d="M 82.5,29.5 C 96.5,29.5 110.5,29.5 124.5,29.5C 124.5,34.1667 124.5,38.8333 124.5,43.5C 116.316,43.1743 108.316,43.5076 100.5,44.5C 100.216,46.4147 100.549,48.0813 101.5,49.5C 101.183,53.7016 101.517,57.7016 102.5,61.5C 102.5,61.8333 102.5,62.1667 102.5,62.5C 109.648,63.4916 116.981,63.825 124.5,63.5C 124.5,68.1667 124.5,72.8333 124.5,77.5C 111.989,77.1714 99.6554,77.5048 87.5,78.5C 87.1667,78.5 86.8333,78.5 86.5,78.5C 85.1116,62.1729 83.7783,45.8396 82.5,29.5 Z"/></g>
<g><path style="opacity:1" fill="#f3a68a" d="M 100.5,44.5 C 122.167,44.5 143.833,44.5 165.5,44.5C 165.5,44.8333 165.5,45.1667 165.5,45.5C 144.167,45.5 122.833,45.5 101.5,45.5C 101.5,46.8333 101.5,48.1667 101.5,49.5C 100.549,48.0813 100.216,46.4147 100.5,44.5 Z"/></g>
<g><path style="opacity:1" fill="#eb4303" d="M 165.5,45.5 C 152.01,46.4957 138.344,46.829 124.5,46.5C 117.167,46.5 109.833,46.5 102.5,46.5C 102.737,47.791 102.404,48.791 101.5,49.5C 101.5,48.1667 101.5,46.8333 101.5,45.5C 122.833,45.5 144.167,45.5 165.5,45.5 Z"/></g>
<g><path style="opacity:1" fill="#e44d26" d="M 124.5,46.5 C 124.5,51.1667 124.5,55.8333 124.5,60.5C 117.5,60.5 110.5,60.5 103.5,60.5C 103.66,58.8008 103.494,57.1341 103,55.5C 102.505,57.4727 102.338,59.4727 102.5,61.5C 101.517,57.7016 101.183,53.7016 101.5,49.5C 102.404,48.791 102.737,47.791 102.5,46.5C 109.833,46.5 117.167,46.5 124.5,46.5 Z"/></g>
<g><path style="opacity:1" fill="#eb4607" d="M 124.5,60.5 C 137.504,60.3334 150.504,60.5001 163.5,61C 143.169,61.5 122.836,61.6666 102.5,61.5C 102.338,59.4727 102.505,57.4727 103,55.5C 103.494,57.1341 103.66,58.8008 103.5,60.5C 110.5,60.5 117.5,60.5 124.5,60.5 Z"/></g>
<g><path style="opacity:1" fill="#fefdfc" d="M 102.5,62.5 C 122.833,62.5 143.167,62.5 163.5,62.5C 162.363,79.8929 160.696,97.2262 158.5,114.5C 146.845,117.664 135.178,120.664 123.5,123.5C 124.449,118.26 124.782,112.927 124.5,107.5C 122.436,107.313 120.436,106.813 118.5,106C 119.448,105.517 120.448,105.351 121.5,105.5C 123.167,105.5 124.833,105.5 126.5,105.5C 132.133,104.008 137.799,102.675 143.5,101.5C 143.437,96.7971 143.771,92.1304 144.5,87.5C 145.477,84.7131 145.81,81.7131 145.5,78.5C 126.167,78.5 106.833,78.5 87.5,78.5C 99.6554,77.5048 111.989,77.1714 124.5,77.5C 124.5,72.8333 124.5,68.1667 124.5,63.5C 116.981,63.825 109.648,63.4916 102.5,62.5 Z"/></g>
<g><path style="opacity:1" fill="#eebcad" d="M 86.5,78.5 C 86.8333,78.5 87.1667,78.5 87.5,78.5C 106.833,78.5 126.167,78.5 145.5,78.5C 145.81,81.7131 145.477,84.7131 144.5,87.5C 144.5,87.1667 144.5,86.8333 144.5,86.5C 144.5,84.1667 144.5,81.8333 144.5,79.5C 124.993,79.8303 105.659,79.497 86.5,78.5 Z"/></g>
<g><path style="opacity:1" fill="#f06428" d="M 144.5,86.5 C 144.5,86.8333 144.5,87.1667 144.5,87.5C 143.771,92.1304 143.437,96.7971 143.5,101.5C 137.799,102.675 132.133,104.008 126.5,105.5C 124.578,97.4363 123.912,89.103 124.5,80.5C 130.833,80.5 137.167,80.5 143.5,80.5C 143.205,82.7354 143.539,84.7354 144.5,86.5 Z"/></g>
<g><path style="opacity:1" fill="#ebeaea" d="M 121.5,105.5 C 120.448,105.351 119.448,105.517 118.5,106C 120.436,106.813 122.436,107.313 124.5,107.5C 124.782,112.927 124.449,118.26 123.5,123.5C 112.568,120.35 101.568,117.35 90.5,114.5C 89.0424,105.551 88.0424,96.5507 87.5,87.5C 93.1667,87.5 98.8333,87.5 104.5,87.5C 105.314,92.1191 105.647,96.7858 105.5,101.5C 111.02,102.547 116.354,103.88 121.5,105.5 Z"/></g>
<g><path style="opacity:0.963" fill="#f06528" d="M 45.5,183.5 C 49.1667,183.5 52.8333,183.5 56.5,183.5C 56.5,188.167 56.5,192.833 56.5,197.5C 61.5,197.5 66.5,197.5 71.5,197.5C 71.5,192.833 71.5,188.167 71.5,183.5C 75.1667,183.5 78.8333,183.5 82.5,183.5C 82.5,196.167 82.5,208.833 82.5,221.5C 78.8333,221.5 75.1667,221.5 71.5,221.5C 71.5,216.167 71.5,210.833 71.5,205.5C 66.5,205.5 61.5,205.5 56.5,205.5C 56.5,210.833 56.5,216.167 56.5,221.5C 52.8333,221.5 49.1667,221.5 45.5,221.5C 45.5,208.833 45.5,196.167 45.5,183.5 Z"/></g>
<g><path style="opacity:0.927" fill="#f06528" d="M 86.5,183.5 C 97.8333,183.5 109.167,183.5 120.5,183.5C 120.5,186.167 120.5,188.833 120.5,191.5C 116.833,191.5 113.167,191.5 109.5,191.5C 109.5,201.5 109.5,211.5 109.5,221.5C 105.5,221.5 101.5,221.5 97.5,221.5C 97.5,211.5 97.5,201.5 97.5,191.5C 93.8333,191.5 90.1667,191.5 86.5,191.5C 86.5,188.833 86.5,186.167 86.5,183.5 Z"/></g>
<g><path style="opacity:0.93" fill="#f06528" d="M 124.5,183.5 C 129.875,183.172 135.208,183.505 140.5,184.5C 143,190.833 145.5,197.167 148,203.5C 150.829,197.017 153.663,190.517 156.5,184C 161.823,183.501 167.156,183.334 172.5,183.5C 172.5,196.167 172.5,208.833 172.5,221.5C 168.5,221.5 164.5,221.5 160.5,221.5C 160.666,215.158 160.5,208.825 160,202.5C 157.667,208.5 155.333,214.5 153,220.5C 149.667,221.833 146.333,221.833 143,220.5C 140.667,214.167 138.333,207.833 136,201.5C 135.5,208.158 135.334,214.825 135.5,221.5C 131.833,221.5 128.167,221.5 124.5,221.5C 124.5,208.833 124.5,196.167 124.5,183.5 Z"/></g>
<g><path style="opacity:0.956" fill="#f06528" d="M 180.5,183.5 C 184.167,183.5 187.833,183.5 191.5,183.5C 191.5,193.5 191.5,203.5 191.5,213.5C 197.167,213.5 202.833,213.5 208.5,213.5C 208.5,216.167 208.5,218.833 208.5,221.5C 199.167,221.5 189.833,221.5 180.5,221.5C 180.5,208.833 180.5,196.167 180.5,183.5 Z"/></g>
<g><path style="opacity:0.868" fill="#f06528" d="M -0.5,233.5 C 4.5,233.5 9.5,233.5 14.5,233.5C 14.5,234.833 14.5,236.167 14.5,237.5C 12.8333,237.5 11.1667,237.5 9.5,237.5C 9.5,241.5 9.5,245.5 9.5,249.5C 7.83333,249.5 6.16667,249.5 4.5,249.5C 4.5,245.5 4.5,241.5 4.5,237.5C 2.83333,237.5 1.16667,237.5 -0.5,237.5C -0.5,236.167 -0.5,234.833 -0.5,233.5 Z"/></g>
<g><path style="opacity:0.873" fill="#f06528" d="M 28.5,249.5 C 24.1667,249.5 19.8333,249.5 15.5,249.5C 15.5,244.167 15.5,238.833 15.5,233.5C 19.8333,233.5 24.1667,233.5 28.5,233.5C 28.5,234.833 28.5,236.167 28.5,237.5C 25.8333,237.5 23.1667,237.5 20.5,237.5C 20.5,238.5 20.5,239.5 20.5,240.5C 23.1667,240.5 25.8333,240.5 28.5,240.5C 28.5,241.833 28.5,243.167 28.5,244.5C 17.8333,245.167 17.8333,245.833 28.5,246.5C 28.5,247.5 28.5,248.5 28.5,249.5 Z"/></g>
<g><path style="opacity:0.844" fill="#f06528" d="M 52.5,249.5 C 50.5,249.5 48.5,249.5 46.5,249.5C 46.4488,241.627 45.7821,241.627 44.5,249.5C 42.5,249.5 40.5,249.5 38.5,249.5C 37.2179,241.627 36.5512,241.627 36.5,249.5C 34.8333,249.5 33.1667,249.5 31.5,249.5C 31.5,244.167 31.5,238.833 31.5,233.5C 33.8568,233.337 36.1902,233.503 38.5,234C 40.2868,242.253 42.2868,242.419 44.5,234.5C 47.0865,233.52 49.7531,233.187 52.5,233.5C 52.5,238.833 52.5,244.167 52.5,249.5 Z"/></g>
<g><path style="opacity:0.816" fill="#f06528" d="M 60.5,249.5 C 58.5,249.5 56.5,249.5 54.5,249.5C 54.5,244.167 54.5,238.833 54.5,233.5C 58.5138,233.334 62.5138,233.501 66.5,234C 69.5452,236.448 70.0452,239.281 68,242.5C 65.7724,244.113 63.2724,244.78 60.5,244.5C 60.5,246.167 60.5,247.833 60.5,249.5 Z M 60.5,237.5 C 63.9571,237.667 64.2904,238.667 61.5,240.5C 60.6143,239.675 60.281,238.675 60.5,237.5 Z"/></g>
<g><path style="opacity:0.867" fill="#f06528" d="M 101.5,249.5 C 99.5,249.5 97.5,249.5 95.5,249.5C 94.6879,248.007 93.3545,247.34 91.5,247.5C 89.9704,247.64 88.9704,248.307 88.5,249.5C 82.5,249.5 76.5,249.5 70.5,249.5C 70.5,244.167 70.5,238.833 70.5,233.5C 72.1667,233.5 73.8333,233.5 75.5,233.5C 75.5,237.833 75.5,242.167 75.5,246.5C 78.1194,246.232 80.6194,246.565 83,247.5C 84.7263,243.047 86.7263,238.714 89,234.5C 90.8138,233.24 92.6471,233.24 94.5,234.5C 97.0329,239.445 99.3663,244.445 101.5,249.5 Z"/></g>
<g><path style="opacity:0.862" fill="#f06528" d="M 108.5,249.5 C 106.833,249.5 105.167,249.5 103.5,249.5C 103.5,245.5 103.5,241.5 103.5,237.5C 101.833,237.5 100.167,237.5 98.5,237.5C 98.5,236.167 98.5,234.833 98.5,233.5C 103.5,233.5 108.5,233.5 113.5,233.5C 113.5,234.833 113.5,236.167 113.5,237.5C 111.833,237.5 110.167,237.5 108.5,237.5C 108.5,241.5 108.5,245.5 108.5,249.5 Z"/></g>
<g><path style="opacity:0.837" fill="#f06528" d="M 128.5,249.5 C 123.833,249.5 119.167,249.5 114.5,249.5C 114.5,244.167 114.5,238.833 114.5,233.5C 118.833,233.5 123.167,233.5 127.5,233.5C 127.5,234.833 127.5,236.167 127.5,237.5C 125.167,237.5 122.833,237.5 120.5,237.5C 120.5,238.5 120.5,239.5 120.5,240.5C 122.833,240.5 125.167,240.5 127.5,240.5C 127.5,241.833 127.5,243.167 127.5,244.5C 125.076,244.192 122.743,244.526 120.5,245.5C 123.086,246.48 125.753,246.813 128.5,246.5C 128.5,247.5 128.5,248.5 128.5,249.5 Z"/></g>
<g><path style="opacity:0.873" fill="#f06528" d="M 151.5,249.5 C 147.167,249.5 142.833,249.5 138.5,249.5C 138.5,244.167 138.5,238.833 138.5,233.5C 142.833,233.5 147.167,233.5 151.5,233.5C 151.5,234.833 151.5,236.167 151.5,237.5C 148.833,237.5 146.167,237.5 143.5,237.5C 143.5,238.5 143.5,239.5 143.5,240.5C 146.167,240.5 148.833,240.5 151.5,240.5C 151.5,241.833 151.5,243.167 151.5,244.5C 140.833,245.167 140.833,245.833 151.5,246.5C 151.5,247.5 151.5,248.5 151.5,249.5 Z"/></g>
<g><path style="opacity:0.894" fill="#f06528" d="M 171.5,249.5 C 169.167,249.5 166.833,249.5 164.5,249.5C 163.277,246.726 161.777,244.059 160,241.5C 159.503,244.146 159.336,246.813 159.5,249.5C 157.833,249.5 156.167,249.5 154.5,249.5C 154.5,244.167 154.5,238.833 154.5,233.5C 156.857,233.337 159.19,233.503 161.5,234C 162.874,236.583 164.374,239.083 166,241.5C 166.497,238.854 166.664,236.187 166.5,233.5C 168.167,233.5 169.833,233.5 171.5,233.5C 171.5,238.833 171.5,244.167 171.5,249.5 Z"/></g>
<g><path style="opacity:0.834" fill="#f06528" d="M 190.5,249.5 C 186.167,249.5 181.833,249.5 177.5,249.5C 173.3,245.982 172.467,241.649 175,236.5C 177.306,234.112 180.139,233.112 183.5,233.5C 186.131,233.321 188.465,233.987 190.5,235.5C 188.892,238.591 186.559,239.257 183.5,237.5C 177.007,240.255 177.007,243.255 183.5,246.5C 187.355,244.993 187.021,244.326 182.5,244.5C 182.5,243.167 182.5,241.833 182.5,240.5C 185.5,240.5 188.5,240.5 191.5,240.5C 191.736,243.609 191.403,246.609 190.5,249.5 Z"/></g>
<g><path style="opacity:0.88" fill="#f06528" d="M 198.5,249.5 C 196.833,249.5 195.167,249.5 193.5,249.5C 193.5,244.167 193.5,238.833 193.5,233.5C 195.167,233.5 196.833,233.5 198.5,233.5C 198.5,238.833 198.5,244.167 198.5,249.5 Z"/></g>
<g><path style="opacity:0.894" fill="#f06528" d="M 218.5,249.5 C 216.167,249.5 213.833,249.5 211.5,249.5C 210.277,246.726 208.777,244.059 207,241.5C 206.503,244.146 206.336,246.813 206.5,249.5C 204.833,249.5 203.167,249.5 201.5,249.5C 201.5,244.167 201.5,238.833 201.5,233.5C 203.857,233.337 206.19,233.503 208.5,234C 209.874,236.583 211.374,239.083 213,241.5C 213.497,238.854 213.664,236.187 213.5,233.5C 215.167,233.5 216.833,233.5 218.5,233.5C 218.5,238.833 218.5,244.167 218.5,249.5 Z"/></g>
<g><path style="opacity:0.837" fill="#f06528" d="M 235.5,249.5 C 230.833,249.5 226.167,249.5 221.5,249.5C 221.5,244.167 221.5,238.833 221.5,233.5C 225.833,233.5 230.167,233.5 234.5,233.5C 234.5,234.833 234.5,236.167 234.5,237.5C 232.167,237.5 229.833,237.5 227.5,237.5C 227.5,238.5 227.5,239.5 227.5,240.5C 229.833,240.5 232.167,240.5 234.5,240.5C 234.5,241.833 234.5,243.167 234.5,244.5C 232.076,244.192 229.743,244.526 227.5,245.5C 230.086,246.48 232.753,246.813 235.5,246.5C 235.5,247.5 235.5,248.5 235.5,249.5 Z"/></g>
<g><path style="opacity:0.838" fill="#f06528" d="M 249.5,234.5 C 249.5,235.5 249.5,236.5 249.5,237.5C 247.213,238.355 244.88,238.522 242.5,238C 244.784,239.262 247.118,240.428 249.5,241.5C 249.5,243.833 249.5,246.167 249.5,248.5C 248.833,248.5 248.5,248.833 248.5,249.5C 244.833,249.5 241.167,249.5 237.5,249.5C 236.893,244.639 238.727,243.639 243,246.5C 243.5,246 244,245.5 244.5,245C 242.351,243.836 240.185,242.67 238,241.5C 236.246,235.928 238.246,233.261 244,233.5C 245.924,233.581 247.757,233.914 249.5,234.5 Z"/></g>
</svg>
