<?xml version="1.0" encoding="UTF-8"?>
<!DOCTYPE svg PUBLIC "-//W3C//DTD SVG 1.1//EN" "http://www.w3.org/Graphics/SVG/1.1/DTD/svg11.dtd">
<svg xmlns="http://www.w3.org/2000/svg" version="1.1" width="250px" height="250px" style="shape-rendering:geometricPrecision; text-rendering:geometricPrecision; image-rendering:optimizeQuality; fill-rule:evenodd; clip-rule:evenodd" xmlns:xlink="http://www.w3.org/1999/xlink">
<g><path style="opacity:0.005" fill="#000000" d="M 2.5,-0.5 C 2.83333,-0.5 3.16667,-0.5 3.5,-0.5C 3.95148,2.10138 2.61815,3.76805 -0.5,4.5C -0.5,3.83333 -0.5,3.16667 -0.5,2.5C 0.5,1.5 1.5,0.5 2.5,-0.5 Z"/></g>
<g><path style="opacity:0.004" fill="#000000" d="M 7.5,-0.5 C 8.16667,-0.5 8.83333,-0.5 9.5,-0.5C 9.61071,0.117425 9.94404,0.617425 10.5,1C 8.33333,1.83333 6.83333,3.33333 6,5.5C 5.30762,4.97473 4.80762,4.30806 4.5,3.5C 5.90952,2.43052 6.90952,1.09719 7.5,-0.5 Z"/></g>
<g><path style="opacity:0.004" fill="#000000" d="M 12.5,-0.5 C 13.1667,-0.5 13.8333,-0.5 14.5,-0.5C 14.8039,0.14987 15.1373,0.816537 15.5,1.5C 14.1738,2.64218 13.1738,3.97551 12.5,5.5C 11.5222,5.18897 10.8555,4.5223 10.5,3.5C 11.8532,2.4763 12.5198,1.14297 12.5,-0.5 Z"/></g>
<g><path style="opacity:0.993" fill="#ff4c1e" d="M 105.5,-0.5 C 118.167,-0.5 130.833,-0.5 143.5,-0.5C 189.051,8.54199 221.551,34.2087 241,76.5C 244.325,86.1533 247.158,95.82 249.5,105.5C 249.5,118.167 249.5,130.833 249.5,143.5C 240.458,189.051 214.791,221.551 172.5,241C 162.847,244.325 153.18,247.158 143.5,249.5C 130.833,249.5 118.167,249.5 105.5,249.5C 59.949,240.458 27.449,214.791 8,172.5C 4.67516,162.847 1.84183,153.18 -0.5,143.5C -0.5,130.833 -0.5,118.167 -0.5,105.5C 8.54199,59.949 34.2087,27.449 76.5,8C 86.1533,4.67516 95.82,1.84183 105.5,-0.5 Z"/></g>
<g><path style="opacity:0.004" fill="#000000" d="M 7.5,4.5 C 8.64314,4.90814 9.64314,5.57481 10.5,6.5C 4.7227,11.7154 3.7227,11.0487 7.5,4.5 Z"/></g>
<g><path style="opacity:0.004" fill="#000000" d="M 12.5,5.5 C 13.9498,4.3424 14.9498,4.8424 15.5,7C 10.8759,11.8586 9.87588,11.3586 12.5,5.5 Z"/></g>
<g><path style="opacity:0.005" fill="#000000" d="M -0.5,9.5 C -0.5,9.16667 -0.5,8.83333 -0.5,8.5C 0.267389,7.82803 0.934056,6.9947 1.5,6C 2.63505,5.25061 3.63505,5.41728 4.5,6.5C 3.06028,7.95244 1.39362,8.95244 -0.5,9.5 Z"/></g>
<g><path style="opacity:0.004" fill="#000000" d="M 10.5,13.5 C 4.26484,17.4296 3.43151,16.4296 8,10.5C 9.41704,11.0779 10.2504,12.0779 10.5,13.5 Z"/></g>
<g><path style="opacity:0.004" fill="#000000" d="M 10.5,13.5 C 12.0744,13.0629 13.2411,12.0629 14,10.5C 14.6924,11.0253 15.1924,11.6919 15.5,12.5C 14.2338,13.7236 13.0672,15.0569 12,16.5C 10.9614,15.7562 10.4614,14.7562 10.5,13.5 Z"/></g>
<g><path style="opacity:0.004" fill="#000000" d="M -0.5,15.5 C -0.5,14.8333 -0.5,14.1667 -0.5,13.5C 0.866383,11.6495 2.53305,11.3162 4.5,12.5C 3.06028,13.9524 1.39362,14.9524 -0.5,15.5 Z"/></g>
<g><path style="opacity:1" fill="#ffaa96" d="M 122.5,49.5 C 116.5,49.5 110.5,49.5 104.5,49.5C 104.5,51.5 104.5,53.5 104.5,55.5C 106.5,55.5 108.5,55.5 110.5,55.5C 110.5,59.8333 110.5,64.1667 110.5,68.5C 112.5,68.5 114.5,68.5 116.5,68.5C 116.5,68.8333 116.5,69.1667 116.5,69.5C 114.167,69.5 111.833,69.5 109.5,69.5C 109.5,65.1667 109.5,60.8333 109.5,56.5C 107.5,56.5 105.5,56.5 103.5,56.5C 103.5,53.8333 103.5,51.1667 103.5,48.5C 110.022,48.1765 116.355,48.5098 122.5,49.5 Z"/></g>
<g><path style="opacity:1" fill="#ffa893" d="M 93.5,55.5 C 91.7354,56.4614 89.7354,56.7947 87.5,56.5C 87.5,54.1667 87.5,51.8333 87.5,49.5C 85.5,49.5 83.5,49.5 81.5,49.5C 81.5,55.8333 81.5,62.1667 81.5,68.5C 83.5,68.5 85.5,68.5 87.5,68.5C 85.3926,69.4682 83.0593,69.8016 80.5,69.5C 80.5,62.5 80.5,55.5 80.5,48.5C 83.1667,48.5 85.8333,48.5 88.5,48.5C 88.5,50.8333 88.5,53.1667 88.5,55.5C 90.1667,55.5 91.8333,55.5 93.5,55.5 Z"/></g>
<g><path style="opacity:1" fill="#fffbfa" d="M 93.5,55.5 C 94.4614,53.7354 94.7947,51.7354 94.5,49.5C 96.5,49.5 98.5,49.5 100.5,49.5C 100.5,55.8333 100.5,62.1667 100.5,68.5C 98.5,68.5 96.5,68.5 94.5,68.5C 94.7947,66.2646 94.4614,64.2646 93.5,62.5C 91.5,62.5 89.5,62.5 87.5,62.5C 87.5,64.5 87.5,66.5 87.5,68.5C 85.5,68.5 83.5,68.5 81.5,68.5C 81.5,62.1667 81.5,55.8333 81.5,49.5C 83.5,49.5 85.5,49.5 87.5,49.5C 87.5,51.8333 87.5,54.1667 87.5,56.5C 89.7354,56.7947 91.7354,56.4614 93.5,55.5 Z"/></g>
<g><path style="opacity:1" fill="#ffa590" d="M 100.5,49.5 C 98.5,49.5 96.5,49.5 94.5,49.5C 94.7947,51.7354 94.4614,53.7354 93.5,55.5C 93.5,53.1667 93.5,50.8333 93.5,48.5C 96.0593,48.1984 98.3926,48.5318 100.5,49.5 Z"/></g>
<g><path style="opacity:1" fill="#fffaf9" d="M 122.5,49.5 C 122.5,51.5 122.5,53.5 122.5,55.5C 120.5,55.5 118.5,55.5 116.5,55.5C 116.5,59.8333 116.5,64.1667 116.5,68.5C 114.5,68.5 112.5,68.5 110.5,68.5C 110.5,64.1667 110.5,59.8333 110.5,55.5C 108.5,55.5 106.5,55.5 104.5,55.5C 104.5,53.5 104.5,51.5 104.5,49.5C 110.5,49.5 116.5,49.5 122.5,49.5 Z"/></g>
<g><path style="opacity:1" fill="#fffaf9" d="M 132.5,49.5 C 134.223,51.2528 135.723,53.2528 137,55.5C 138.277,53.2528 139.777,51.2528 141.5,49.5C 143.5,49.5 145.5,49.5 147.5,49.5C 147.5,55.8333 147.5,62.1667 147.5,68.5C 145.833,68.5 144.167,68.5 142.5,68.5C 142.813,65.7531 142.48,63.0865 141.5,60.5C 140.893,60.6236 140.56,60.9569 140.5,61.5C 139.356,63.1002 138.189,64.7669 137,66.5C 135.569,64.6365 134.403,62.6365 133.5,60.5C 133.44,59.9569 133.107,59.6236 132.5,59.5C 131.516,62.4281 131.183,65.4281 131.5,68.5C 129.833,68.5 128.167,68.5 126.5,68.5C 126.5,62.1667 126.5,55.8333 126.5,49.5C 128.5,49.5 130.5,49.5 132.5,49.5 Z"/></g>
<g><path style="opacity:1" fill="#ffc4b7" d="M 141.5,49.5 C 143.607,48.5318 145.941,48.1984 148.5,48.5C 148.5,55.5 148.5,62.5 148.5,69.5C 146.167,69.5 143.833,69.5 141.5,69.5C 141.806,66.6146 141.473,63.9479 140.5,61.5C 140.56,60.9569 140.893,60.6236 141.5,60.5C 142.48,63.0865 142.813,65.7531 142.5,68.5C 144.167,68.5 145.833,68.5 147.5,68.5C 147.5,62.1667 147.5,55.8333 147.5,49.5C 145.5,49.5 143.5,49.5 141.5,49.5 Z"/></g>
<g><path style="opacity:1" fill="#ffac99" d="M 158.5,49.5 C 156.5,49.5 154.5,49.5 152.5,49.5C 152.5,55.8333 152.5,62.1667 152.5,68.5C 152.5,68.8333 152.5,69.1667 152.5,69.5C 151.509,62.6866 151.175,55.6866 151.5,48.5C 154.059,48.1984 156.393,48.5318 158.5,49.5 Z"/></g>
<g><path style="opacity:1" fill="#fffdfd" d="M 158.5,49.5 C 158.5,53.8333 158.5,58.1667 158.5,62.5C 161.287,63.4767 164.287,63.81 167.5,63.5C 167.5,65.1667 167.5,66.8333 167.5,68.5C 162.5,68.5 157.5,68.5 152.5,68.5C 152.5,62.1667 152.5,55.8333 152.5,49.5C 154.5,49.5 156.5,49.5 158.5,49.5 Z"/></g>
<g><path style="opacity:1" fill="#ffc8bb" d="M 132.5,49.5 C 130.5,49.5 128.5,49.5 126.5,49.5C 126.5,55.8333 126.5,62.1667 126.5,68.5C 128.167,68.5 129.833,68.5 131.5,68.5C 131.183,65.4281 131.516,62.4281 132.5,59.5C 133.107,59.6236 133.44,59.9569 133.5,60.5C 132.523,63.2869 132.19,66.2869 132.5,69.5C 130.167,69.5 127.833,69.5 125.5,69.5C 125.5,62.5 125.5,55.5 125.5,48.5C 128.059,48.1984 130.393,48.5318 132.5,49.5 Z"/></g>
<g><path style="opacity:1" fill="#ff7656" d="M 122.5,55.5 C 121.081,56.4511 119.415,56.7845 117.5,56.5C 117.818,61.0323 117.485,65.3656 116.5,69.5C 116.5,69.1667 116.5,68.8333 116.5,68.5C 116.5,64.1667 116.5,59.8333 116.5,55.5C 118.5,55.5 120.5,55.5 122.5,55.5 Z"/></g>
<g><path style="opacity:1" fill="#ff6d49" d="M 158.5,49.5 C 159.483,53.2984 159.817,57.2984 159.5,61.5C 162.713,61.19 165.713,61.5233 168.5,62.5C 165.167,62.5 161.833,62.5 158.5,62.5C 158.5,58.1667 158.5,53.8333 158.5,49.5 Z"/></g>
<g><path style="opacity:1" fill="#ffa994" d="M 100.5,49.5 C 101.491,55.979 101.824,62.6457 101.5,69.5C 98.8333,69.5 96.1667,69.5 93.5,69.5C 93.5,67.1667 93.5,64.8333 93.5,62.5C 94.4614,64.2646 94.7947,66.2646 94.5,68.5C 96.5,68.5 98.5,68.5 100.5,68.5C 100.5,62.1667 100.5,55.8333 100.5,49.5 Z"/></g>
<g><path style="opacity:1" fill="#ffc8bb" d="M 158.5,62.5 C 161.833,62.5 165.167,62.5 168.5,62.5C 168.5,64.8333 168.5,67.1667 168.5,69.5C 163.167,69.5 157.833,69.5 152.5,69.5C 152.5,69.1667 152.5,68.8333 152.5,68.5C 157.5,68.5 162.5,68.5 167.5,68.5C 167.5,66.8333 167.5,65.1667 167.5,63.5C 164.287,63.81 161.287,63.4767 158.5,62.5 Z"/></g>
<g><path style="opacity:1" fill="#ff6741" d="M 177.5,87.5 C 177.5,84.5 177.5,81.5 177.5,78.5C 142.167,78.5 106.833,78.5 71.5,78.5C 71.5,81.5 71.5,84.5 71.5,87.5C 70.5206,84.3752 70.1872,81.0419 70.5,77.5C 106.5,77.5 142.5,77.5 178.5,77.5C 178.813,81.0419 178.479,84.3752 177.5,87.5 Z"/></g>
<g><path style="opacity:1" fill="#fffcfb" d="M 177.5,87.5 C 176.518,90.9619 176.185,94.6286 176.5,98.5C 175.194,103.616 174.527,108.949 174.5,114.5C 173.503,123.473 172.836,132.473 172.5,141.5C 171.116,146.944 170.45,152.611 170.5,158.5C 170.158,168.205 169.324,177.872 168,187.5C 167.617,188.056 167.117,188.389 166.5,188.5C 164.102,188.259 162.102,188.926 160.5,190.5C 148.51,193.498 136.51,196.498 124.5,199.5C 110.248,196.77 96.2483,193.104 82.5,188.5C 81.4939,183.072 80.4939,177.738 79.5,172.5C 78.6864,167.881 78.3531,163.214 78.5,158.5C 78.3038,150.263 77.3038,142.263 75.5,134.5C 75.4038,126.821 75.0705,119.154 74.5,111.5C 74.8439,106.878 74.1773,102.545 72.5,98.5C 72.815,94.6286 72.4816,90.9619 71.5,87.5C 71.5,84.5 71.5,81.5 71.5,78.5C 106.833,78.5 142.167,78.5 177.5,78.5C 177.5,81.5 177.5,84.5 177.5,87.5 Z"/></g>
<g><path style="opacity:1" fill="#ff8366" d="M 157.5,100.5 C 157.5,100.833 157.5,101.167 157.5,101.5C 135.141,100.844 113.141,101.511 91.5,103.5C 91.1667,103.5 90.8333,103.5 90.5,103.5C 90.5,102.5 90.5,101.5 90.5,100.5C 112.833,100.5 135.167,100.5 157.5,100.5 Z"/></g>
<g><path style="opacity:1" fill="#ff4d20" d="M 157.5,101.5 C 157.261,105.842 156.927,110.176 156.5,114.5C 139.5,114.5 122.5,114.5 105.5,114.5C 105.198,117.059 105.532,119.393 106.5,121.5C 106.5,123.5 106.5,125.5 106.5,127.5C 122.325,128.496 138.325,128.83 154.5,128.5C 154.5,130.5 154.5,132.5 154.5,134.5C 153.064,146.115 152.397,157.781 152.5,169.5C 150.585,169.216 148.919,169.549 147.5,170.5C 145.102,170.259 143.102,170.926 141.5,172.5C 139.901,172.232 138.568,172.566 137.5,173.5C 134.848,173.41 132.515,174.076 130.5,175.5C 128.304,175.59 126.137,175.923 124,176.5C 114.876,174.717 106.042,172.384 97.5,169.5C 97.5557,164.269 96.889,159.269 95.5,154.5C 95.5,153.833 95.5,153.167 95.5,152.5C 95.5,151.167 95.5,149.833 95.5,148.5C 99.8333,148.5 104.167,148.5 108.5,148.5C 109.482,151.962 109.815,155.629 109.5,159.5C 112.833,160.167 116.167,160.833 119.5,161.5C 121.713,163.312 124.047,163.645 126.5,162.5C 130.704,161.028 135.037,159.695 139.5,158.5C 140.489,153.025 140.822,147.358 140.5,141.5C 125.342,140.504 110.009,140.17 94.5,140.5C 94.8064,137.615 94.4731,134.948 93.5,132.5C 93.4599,127.807 93.1266,123.141 92.5,118.5C 92.2491,113.493 91.9157,108.493 91.5,103.5C 113.141,101.511 135.141,100.844 157.5,101.5 Z"/></g>
<g><path style="opacity:1" fill="#ffccc0" d="M 72.5,98.5 C 74.1773,102.545 74.8439,106.878 74.5,111.5C 73.4371,107.361 72.7704,103.028 72.5,98.5 Z"/></g>
<g><path style="opacity:1" fill="#ffcabd" d="M 157.5,100.5 C 158.789,105.246 158.456,109.913 156.5,114.5C 156.927,110.176 157.261,105.842 157.5,101.5C 157.5,101.167 157.5,100.833 157.5,100.5 Z"/></g>
<g><path style="opacity:1" fill="#ffa089" d="M 176.5,98.5 C 176.624,104.069 175.957,109.402 174.5,114.5C 174.527,108.949 175.194,103.616 176.5,98.5 Z"/></g>
<g><path style="opacity:1" fill="#ffd8ce" d="M 156.5,114.5 C 140.008,115.497 123.342,115.83 106.5,115.5C 106.5,117.5 106.5,119.5 106.5,121.5C 105.532,119.393 105.198,117.059 105.5,114.5C 122.5,114.5 139.5,114.5 156.5,114.5 Z"/></g>
<g><path style="opacity:1" fill="#ffb6a5" d="M 90.5,103.5 C 90.8333,103.5 91.1667,103.5 91.5,103.5C 91.9157,108.493 92.2491,113.493 92.5,118.5C 91.111,113.731 90.4443,108.731 90.5,103.5 Z"/></g>
<g><path style="opacity:1" fill="#ff9a82" d="M 106.5,127.5 C 122.833,127.5 139.167,127.5 155.5,127.5C 155.802,130.059 155.468,132.393 154.5,134.5C 154.5,132.5 154.5,130.5 154.5,128.5C 138.325,128.83 122.325,128.496 106.5,127.5 Z"/></g>
<g><path style="opacity:1" fill="#ff7755" d="M 93.5,132.5 C 94.4731,134.948 94.8064,137.615 94.5,140.5C 110.009,140.17 125.342,140.504 140.5,141.5C 125.167,141.5 109.833,141.5 94.5,141.5C 93.5233,138.713 93.19,135.713 93.5,132.5 Z"/></g>
<g><path style="opacity:1" fill="#ffc9bd" d="M 94.5,141.5 C 109.833,141.5 125.167,141.5 140.5,141.5C 140.822,147.358 140.489,153.025 139.5,158.5C 139.5,153.167 139.5,147.833 139.5,142.5C 124.324,142.829 109.324,142.496 94.5,141.5 Z"/></g>
<g><path style="opacity:1" fill="#ffb9a9" d="M 108.5,148.5 C 104.167,148.5 99.8333,148.5 95.5,148.5C 95.5,149.833 95.5,151.167 95.5,152.5C 94.5489,151.081 94.2155,149.415 94.5,147.5C 99.3633,147.181 104.03,147.514 108.5,148.5 Z"/></g>
<g><path style="opacity:1" fill="#ff967b" d="M 75.5,134.5 C 77.3038,142.263 78.3038,150.263 78.5,158.5C 76.6962,150.737 75.6962,142.737 75.5,134.5 Z"/></g>
<g><path style="opacity:1" fill="#ffad99" d="M 172.5,141.5 C 172.55,147.389 171.884,153.056 170.5,158.5C 170.45,152.611 171.116,146.944 172.5,141.5 Z"/></g>
<g><path style="opacity:1" fill="#ff987f" d="M 119.5,161.5 C 121.861,161.674 124.194,162.007 126.5,162.5C 124.047,163.645 121.713,163.312 119.5,161.5 Z"/></g>
<g><path style="opacity:1" fill="#ff8d71" d="M 95.5,154.5 C 96.889,159.269 97.5557,164.269 97.5,169.5C 96.111,164.731 95.4443,159.731 95.5,154.5 Z"/></g>
<g><path style="opacity:1" fill="#ffc0b1" d="M 147.5,170.5 C 145.898,172.074 143.898,172.741 141.5,172.5C 143.102,170.926 145.102,170.259 147.5,170.5 Z"/></g>
<g><path style="opacity:1" fill="#ffcbbe" d="M 137.5,173.5 C 135.485,174.924 133.152,175.59 130.5,175.5C 132.515,174.076 134.848,173.41 137.5,173.5 Z"/></g>
<g><path style="opacity:1" fill="#ffcbbe" d="M 79.5,172.5 C 80.4939,177.738 81.4939,183.072 82.5,188.5C 81.2749,187.848 80.6083,186.681 80.5,185C 79.7625,180.863 79.4292,176.697 79.5,172.5 Z"/></g>
<g><path style="opacity:1" fill="#ff7652" d="M 166.5,188.5 C 164.898,190.074 162.898,190.741 160.5,190.5C 162.102,188.926 164.102,188.259 166.5,188.5 Z"/></g>
</svg>
