<?xml version="1.0" encoding="UTF-8"?>
<!DOCTYPE svg PUBLIC "-//W3C//DTD SVG 1.1//EN" "http://www.w3.org/Graphics/SVG/1.1/DTD/svg11.dtd">
<svg xmlns="http://www.w3.org/2000/svg" version="1.1" width="250px" height="250px" style="shape-rendering:geometricPrecision; text-rendering:geometricPrecision; image-rendering:optimizeQuality; fill-rule:evenodd; clip-rule:evenodd" xmlns:xlink="http://www.w3.org/1999/xlink">
<g><path style="opacity:0.998" fill="#ff3067" d="M 15.5,-0.5 C 88.5,-0.5 161.5,-0.5 234.5,-0.5C 240.783,2.78308 245.783,7.44975 249.5,13.5C 249.5,87.8333 249.5,162.167 249.5,236.5C 246.167,241.833 241.833,246.167 236.5,249.5C 162.167,249.5 87.8333,249.5 13.5,249.5C 7.03019,245.7 2.36353,240.367 -0.5,233.5C -0.5,160.833 -0.5,88.1667 -0.5,15.5C 2.52571,7.8076 7.85904,2.47427 15.5,-0.5 Z"/></g>
<g><path style="opacity:1" fill="#fffbfc" d="M 78.5,48.5 C 95.8489,48.3288 101.682,56.3288 96,72.5C 89.7488,79.0107 82.5821,80.1773 74.5,76C 68.8849,71.0317 67.0516,64.865 69,57.5C 71.4301,53.5657 74.5967,50.5657 78.5,48.5 Z"/></g>
<g><path style="opacity:1" fill="#fffcfd" d="M 166.5,90.5 C 190.617,90.3375 201.117,102.338 198,126.5C 195.289,139.346 191.955,152.012 188,164.5C 185.835,172.321 188.668,175.821 196.5,175C 200.606,170.953 203.273,166.12 204.5,160.5C 208.474,160.769 212.14,161.936 215.5,164C 212.698,175.967 206.031,184.967 195.5,191C 185.76,193.975 176.76,192.642 168.5,187C 164.279,181.958 162.279,176.125 162.5,169.5C 164.735,156.561 167.901,143.895 172,131.5C 174.444,114.295 167.277,108.128 150.5,113C 145.825,116.664 142.325,121.164 140,126.5C 134.413,148.017 128.913,169.517 123.5,191C 115.147,191.832 106.813,191.665 98.5,190.5C 100.212,185.22 101.378,179.887 102,174.5C 91.358,190.936 76.858,195.77 58.5,189C 52.3124,183.776 49.6457,177.109 50.5,169C 50.6667,166.167 50.8333,163.333 51,160.5C 55.4617,144.653 59.295,128.653 62.5,112.5C 56.7945,112.829 51.1278,112.495 45.5,111.5C 47.1667,105.5 48.8333,99.5 50.5,93.5C 64.8217,92.3339 79.1551,92.1672 93.5,93C 87.5945,115.454 81.7612,137.954 76,160.5C 75.3333,164.833 75.3333,169.167 76,173.5C 87.8526,176.927 97.186,173.261 104,162.5C 109.824,146.223 114.324,129.556 117.5,112.5C 111.833,112.5 106.167,112.5 100.5,112.5C 101.779,105.884 103.446,99.3841 105.5,93C 118.162,92.5001 130.829,92.3334 143.5,92.5C 142.508,99.6118 141.342,106.612 140,113.5C 146.178,102.678 155.011,95.0109 166.5,90.5 Z"/></g>
</svg>
