<?xml version="1.0" encoding="UTF-8"?>
<!DOCTYPE svg PUBLIC "-//W3C//DTD SVG 1.1//EN" "http://www.w3.org/Graphics/SVG/1.1/DTD/svg11.dtd">
<svg xmlns="http://www.w3.org/2000/svg" version="1.1" width="250px" height="250px" style="shape-rendering:geometricPrecision; text-rendering:geometricPrecision; image-rendering:optimizeQuality; fill-rule:evenodd; clip-rule:evenodd" xmlns:xlink="http://www.w3.org/1999/xlink">
<g><path style="opacity:0.992" fill="#3a2bda" d="M 142.5,-0.5 C 143.5,-0.5 144.5,-0.5 145.5,-0.5C 166.673,19.5045 188.34,39.0045 210.5,58C 212.448,59.439 213.781,61.2723 214.5,63.5C 208,93.5 201.5,123.5 195,153.5C 165.621,163.46 136.121,173.126 106.5,182.5C 82.5376,161.873 58.8709,140.873 35.5,119.5C 42.2714,89.1417 49.1047,58.8083 56,28.5C 84.9513,18.9053 113.785,9.23862 142.5,-0.5 Z M 101.5,49.5 C 117.514,49.1672 133.514,49.5006 149.5,50.5C 157.301,64.1304 165.301,77.6304 173.5,91C 165.301,104.37 157.301,117.87 149.5,131.5C 133.51,132.666 117.51,132.833 101.5,132C 93.1011,118.593 85.1011,104.926 77.5,91C 85.638,77.221 93.638,63.3876 101.5,49.5 Z"/></g>
<g><path style="opacity:0.995" fill="#6464e9" d="M 163.5,154.5 C 138.241,155.49 112.908,155.823 87.5,155.5C 75.5577,133.783 63.2244,112.283 50.5,91C 62.9595,69.9153 75.2929,48.7487 87.5,27.5C 112.493,26.3335 137.493,26.1668 162.5,27C 175.093,48.1859 187.426,69.5192 199.5,91C 187.689,112.302 175.689,133.469 163.5,154.5 Z M 101.5,49.5 C 93.638,63.3876 85.638,77.221 77.5,91C 85.1011,104.926 93.1011,118.593 101.5,132C 117.51,132.833 133.51,132.666 149.5,131.5C 157.301,117.87 165.301,104.37 173.5,91C 165.301,77.6304 157.301,64.1304 149.5,50.5C 133.514,49.5006 117.514,49.1672 101.5,49.5 Z"/></g>
<g><path style="opacity:1" fill="#453ade" d="M 163.5,154.5 C 151.185,155.832 138.518,156.499 125.5,156.5C 112.662,156.5 99.9955,156.167 87.5,155.5C 112.908,155.823 138.241,155.49 163.5,154.5 Z"/></g>
<g><path style="opacity:0.866" fill="#5150ed" d="M 228.5,249.5 C 223.167,249.5 217.833,249.5 212.5,249.5C 207.558,246.624 204.891,242.291 204.5,236.5C 207.5,236.5 210.5,236.5 213.5,236.5C 213.433,241.101 215.767,243.434 220.5,243.5C 222.115,242.846 223.782,242.346 225.5,242C 226.76,240.186 226.76,238.353 225.5,236.5C 221.535,235.234 217.535,234.067 213.5,233C 204.318,228.284 203.318,222.284 210.5,215C 218.894,210.856 226.394,212.023 233,218.5C 234.128,220.345 234.628,222.345 234.5,224.5C 231.5,224.5 228.5,224.5 225.5,224.5C 225.67,223.178 225.337,222.011 224.5,221C 220.387,218.533 217.054,219.199 214.5,223C 214.905,223.945 215.572,224.612 216.5,225C 220.123,226.156 223.789,227.156 227.5,228C 230.102,228.883 232.269,230.383 234,232.5C 236.142,239.736 234.308,245.403 228.5,249.5 Z"/></g>
<g><path style="opacity:0.896" fill="#5150ed" d="M 42.5,249.5 C 33.5,249.5 24.5,249.5 15.5,249.5C 15.5,237.5 15.5,225.5 15.5,213.5C 18.1667,213.5 20.8333,213.5 23.5,213.5C 23.5,223.167 23.5,232.833 23.5,242.5C 29.8333,242.5 36.1667,242.5 42.5,242.5C 42.5,244.833 42.5,247.167 42.5,249.5 Z"/></g>
<g><path style="opacity:0.826" fill="#5150ed" d="M 55.5,249.5 C 52.5,249.5 49.5,249.5 46.5,249.5C 46.5,237.5 46.5,225.5 46.5,213.5C 49.5,213.5 52.5,213.5 55.5,213.5C 55.5,225.5 55.5,237.5 55.5,249.5 Z"/></g>
<g><path style="opacity:0.848" fill="#5150ed" d="M 93.5,249.5 C 90.5,249.5 87.5,249.5 84.5,249.5C 80.0106,242.528 75.5106,235.528 71,228.5C 70.5004,235.492 70.3337,242.492 70.5,249.5C 67.8333,249.5 65.1667,249.5 62.5,249.5C 62.5,237.5 62.5,225.5 62.5,213.5C 65.5719,213.183 68.5719,213.516 71.5,214.5C 75.8645,221.034 80.0312,227.7 84,234.5C 84.4996,227.508 84.6663,220.508 84.5,213.5C 87.5,213.5 90.5,213.5 93.5,213.5C 93.5,225.5 93.5,237.5 93.5,249.5 Z"/></g>
<g><path style="opacity:0.843" fill="#5150ed" d="M 117.5,249.5 C 114.5,249.5 111.5,249.5 108.5,249.5C 108.182,239.917 108.515,230.417 109.5,221C 105.514,220.501 101.514,220.334 97.5,220.5C 97.5,218.167 97.5,215.833 97.5,213.5C 107.833,213.5 118.167,213.5 128.5,213.5C 128.5,215.833 128.5,218.167 128.5,220.5C 124.833,220.5 121.167,220.5 117.5,220.5C 117.5,230.167 117.5,239.833 117.5,249.5 Z"/></g>
<g><path style="opacity:0.842" fill="#5150ed" d="M 162.5,249.5 C 152.5,249.5 142.5,249.5 132.5,249.5C 132.5,237.5 132.5,225.5 132.5,213.5C 142.167,213.5 151.833,213.5 161.5,213.5C 161.5,215.833 161.5,218.167 161.5,220.5C 154.833,220.5 148.167,220.5 141.5,220.5C 141.5,222.833 141.5,225.167 141.5,227.5C 147.833,227.5 154.167,227.5 160.5,227.5C 160.5,229.833 160.5,232.167 160.5,234.5C 154.167,234.5 147.833,234.5 141.5,234.5C 141.5,237.167 141.5,239.833 141.5,242.5C 148.5,242.5 155.5,242.5 162.5,242.5C 162.5,244.833 162.5,247.167 162.5,249.5 Z"/></g>
<g><path style="opacity:0.874" fill="#5150ed" d="M 202.5,249.5 C 199.167,249.5 195.833,249.5 192.5,249.5C 189.77,244.596 186.436,240.096 182.5,236C 180.5,235.333 178.5,235.333 176.5,236C 177.467,240.401 177.8,244.901 177.5,249.5C 174.5,249.5 171.5,249.5 168.5,249.5C 168.5,237.5 168.5,225.5 168.5,213.5C 176.507,213.334 184.507,213.5 192.5,214C 198.257,216.682 200.424,221.182 199,227.5C 197.332,231.165 194.499,233.332 190.5,234C 195.583,238.336 199.583,243.503 202.5,249.5 Z M 176.5,221.5 C 180.311,220.355 184.311,220.188 188.5,221C 191.28,223.77 190.946,226.104 187.5,228C 183.833,228.667 180.167,228.667 176.5,228C 177.811,225.726 177.811,223.56 176.5,221.5 Z"/></g>
</svg>
