<?xml version="1.0" encoding="UTF-8"?>
<!DOCTYPE svg PUBLIC "-//W3C//DTD SVG 1.1//EN" "http://www.w3.org/Graphics/SVG/1.1/DTD/svg11.dtd">
<svg xmlns="http://www.w3.org/2000/svg" version="1.1" width="250px" height="250px" style="shape-rendering:geometricPrecision; text-rendering:geometricPrecision; image-rendering:optimizeQuality; fill-rule:evenodd; clip-rule:evenodd" xmlns:xlink="http://www.w3.org/1999/xlink">
<g><path style="opacity:0.999" fill="#19bbee" d="M 19.5,-0.5 C 89.8333,-0.5 160.167,-0.5 230.5,-0.5C 239.167,3.5 245.5,9.83333 249.5,18.5C 249.5,88.8333 249.5,159.167 249.5,229.5C 246.443,238.392 240.443,244.559 231.5,248C 160.5,248.667 89.5,248.667 18.5,248C 10,244.833 4.16667,239 1,230.5C 0.333333,159.5 0.333333,88.5 1,17.5C 4.44141,8.5567 10.6081,2.5567 19.5,-0.5 Z"/></g>
<g><path style="opacity:1" fill="#161313" d="M 32.5,20.5 C 93.5009,20.3333 154.501,20.5 215.5,21C 220.598,22.4329 224.098,25.5995 226,30.5C 226.667,92.8333 226.667,155.167 226,217.5C 224.594,222.573 221.428,226.073 216.5,228C 155.167,228.667 93.8333,228.667 32.5,228C 28,226.167 24.8333,223 23,218.5C 22.3333,155.833 22.3333,93.1667 23,30.5C 25.0223,25.98 28.189,22.6467 32.5,20.5 Z"/></g>
<g><path style="opacity:1" fill="#b1efff" d="M 101.5,74.5 C 89.6783,75.4951 77.6783,75.8284 65.5,75.5C 65.5,107.5 65.5,139.5 65.5,171.5C 70.8333,171.5 76.1667,171.5 81.5,171.5C 81.3335,160.495 81.5002,149.495 82,138.5C 82.4999,149.828 82.6665,161.162 82.5,172.5C 76.1667,172.5 69.8333,172.5 63.5,172.5C 63.5,139.833 63.5,107.167 63.5,74.5C 76.1667,74.5 88.8333,74.5 101.5,74.5 Z"/></g>
<g><path style="opacity:1" fill="#abe4fc" d="M 101.5,74.5 C 114.782,75.8905 123.615,82.8905 128,95.5C 132.409,111.27 128.242,124.104 115.5,134C 112.007,135.791 108.341,137.124 104.5,138C 97.5079,138.5 90.5079,138.666 83.5,138.5C 83.8281,150.012 83.4948,161.346 82.5,172.5C 82.6665,161.162 82.4999,149.828 82,138.5C 81.5002,149.495 81.3335,160.495 81.5,171.5C 76.1667,171.5 70.8333,171.5 65.5,171.5C 65.5,139.5 65.5,107.5 65.5,75.5C 77.6783,75.8284 89.6783,75.4951 101.5,74.5 Z"/></g>
<g><path style="opacity:1" fill="#161415" d="M 83.5,90.5 C 103.941,87.1061 111.775,95.4394 107,115.5C 105.833,118 104,119.833 101.5,121C 95.5092,121.499 89.5092,121.666 83.5,121.5C 83.5,111.167 83.5,100.833 83.5,90.5 Z"/></g>
<g><path style="opacity:1" fill="#abe5fb" d="M 191.5,114.5 C 191.5,116.5 191.5,118.5 191.5,120.5C 185.5,120.5 179.5,120.5 173.5,120.5C 173.737,119.209 173.404,118.209 172.5,117.5C 170.79,112.817 167.457,111.317 162.5,113C 157.613,116.225 157.28,119.892 161.5,124C 168.379,127.606 175.379,130.939 182.5,134C 193.287,142.161 195.454,152.328 189,164.5C 179.554,173.793 168.388,176.626 155.5,173C 145.624,169.626 139.957,162.793 138.5,152.5C 144.074,150.547 150.074,149.88 156.5,150.5C 157.493,159.072 162.16,161.906 170.5,159C 173.29,156.79 174.123,153.956 173,150.5C 165.203,145.351 157.037,140.851 148.5,137C 139.71,128.343 138.21,118.509 144,107.5C 147.421,103.542 151.588,100.708 156.5,99C 169.397,95.7154 180.23,98.8821 189,108.5C 190.122,110.407 190.955,112.407 191.5,114.5 Z"/></g>
<g><path style="opacity:1" fill="#699aae" d="M 191.5,114.5 C 192.468,116.607 192.802,118.941 192.5,121.5C 185.833,121.5 179.167,121.5 172.5,121.5C 172.5,120.167 172.5,118.833 172.5,117.5C 173.404,118.209 173.737,119.209 173.5,120.5C 179.5,120.5 185.5,120.5 191.5,120.5C 191.5,118.5 191.5,116.5 191.5,114.5 Z"/></g>
<g><path style="opacity:1" fill="#4e7d90" d="M 156.5,150.5 C 150.074,149.88 144.074,150.547 138.5,152.5C 137.596,151.791 137.263,150.791 137.5,149.5C 144.022,149.177 150.355,149.51 156.5,150.5 Z"/></g>
</svg>
