<?xml version="1.0" encoding="UTF-8"?>
<!DOCTYPE svg PUBLIC "-//W3C//DTD SVG 1.1//EN" "http://www.w3.org/Graphics/SVG/1.1/DTD/svg11.dtd">
<svg xmlns="http://www.w3.org/2000/svg" version="1.1" width="250px" height="250px" style="shape-rendering:geometricPrecision; text-rendering:geometricPrecision; image-rendering:optimizeQuality; fill-rule:evenodd; clip-rule:evenodd" xmlns:xlink="http://www.w3.org/1999/xlink">
<g><path style="opacity:0.986" fill="#f0608b" d="M 208.5,-0.5 C 212.167,-0.5 215.833,-0.5 219.5,-0.5C 219.5,82.8333 219.5,166.167 219.5,249.5C 212.167,249.5 204.833,249.5 197.5,249.5C 149.329,246.607 100.996,243.941 52.5,241.5C 49.3458,165.251 45.6791,89.0841 41.5,13C 86.1272,9.07421 130.794,5.57421 175.5,2.5C 174.529,12.817 174.362,23.1504 175,33.5C 178.69,30.3092 182.523,27.3092 186.5,24.5C 189.52,27.189 192.52,29.8556 195.5,32.5C 195.56,33.0431 195.893,33.3764 196.5,33.5C 197.499,22.8541 197.832,12.1874 197.5,1.5C 197.5,1.16667 197.5,0.833333 197.5,0.5C 201.371,0.814971 205.038,0.481638 208.5,-0.5 Z"/></g>
<g><path style="opacity:0.978" fill="#fefdfd" d="M 197.5,0.5 C 197.5,0.833333 197.5,1.16667 197.5,1.5C 196.833,11.8333 196.167,22.1667 195.5,32.5C 192.52,29.8556 189.52,27.189 186.5,24.5C 182.523,27.3092 178.69,30.3092 175,33.5C 174.362,23.1504 174.529,12.817 175.5,2.5C 182.611,0.976559 189.944,0.309892 197.5,0.5 Z"/></g>
<g><path style="opacity:1" fill="#fbccda" d="M 197.5,1.5 C 197.832,12.1874 197.499,22.8541 196.5,33.5C 195.893,33.3764 195.56,33.0431 195.5,32.5C 196.167,22.1667 196.833,11.8333 197.5,1.5 Z"/></g>
<g><path style="opacity:0.913" fill="#b47ee4" d="M 29.5,12.5 C 32.5,12.5 35.5,12.5 38.5,12.5C 42.3248,88.8214 45.9915,165.155 49.5,241.5C 45.5,241.5 41.5,241.5 37.5,241.5C 34.8096,165.168 32.1429,88.8342 29.5,12.5 Z"/></g>
<g><path style="opacity:1" fill="#fefdfe" d="M 85.5,160.5 C 85.5,156.167 85.5,151.833 85.5,147.5C 97.5,147.5 109.5,147.5 121.5,147.5C 121.19,150.713 121.523,153.713 122.5,156.5C 123.22,167.386 128.887,171.553 139.5,169C 141.667,168.167 143.167,166.667 144,164.5C 146.144,155.956 143.644,149.123 136.5,144C 127.001,137.749 117.334,131.749 107.5,126C 84.5788,108.005 80.0788,86.1716 94,60.5C 106.852,46.6595 122.685,41.1595 141.5,44C 163.084,45.9204 176.251,57.4204 181,78.5C 181.499,83.8229 181.666,89.1563 181.5,94.5C 169.841,95.0552 158.174,95.3885 146.5,95.5C 147.952,88.129 145.952,81.9624 140.5,77C 133.172,73.6166 127.672,75.45 124,82.5C 123.177,86.7384 123.844,90.7384 126,94.5C 128.869,97.7041 132.035,100.537 135.5,103C 150.325,109.826 163.492,118.992 175,130.5C 184.811,145.746 186.144,161.746 179,178.5C 172.521,188.501 163.354,194.668 151.5,197C 135.405,200.027 119.738,198.694 104.5,193C 92.1373,185.785 85.804,174.952 85.5,160.5 Z"/></g>
<g><path style="opacity:1" fill="#fac0d1" d="M 122.5,156.5 C 121.523,153.713 121.19,150.713 121.5,147.5C 109.5,147.5 97.5,147.5 85.5,147.5C 85.5,151.833 85.5,156.167 85.5,160.5C 84.5139,156.03 84.1805,151.363 84.5,146.5C 97.1667,146.5 109.833,146.5 122.5,146.5C 122.5,149.833 122.5,153.167 122.5,156.5 Z"/></g>
</svg>
