<?xml version="1.0" encoding="UTF-8"?>
<!DOCTYPE svg PUBLIC "-//W3C//DTD SVG 1.1//EN" "http://www.w3.org/Graphics/SVG/1.1/DTD/svg11.dtd">
<svg xmlns="http://www.w3.org/2000/svg" version="1.1" width="250px" height="250px" style="shape-rendering:geometricPrecision; text-rendering:geometricPrecision; image-rendering:optimizeQuality; fill-rule:evenodd; clip-rule:evenodd" xmlns:xlink="http://www.w3.org/1999/xlink">
<g><path style="opacity:0.998" fill="#007acf" d="M -0.5,-0.5 C 82.8333,-0.5 166.167,-0.5 249.5,-0.5C 249.5,82.8333 249.5,166.167 249.5,249.5C 166.167,249.5 82.8333,249.5 -0.5,249.5C -0.5,166.167 -0.5,82.8333 -0.5,-0.5 Z"/></g>
<g><path style="opacity:1" fill="#fbfdfe" d="M 180.5,113.5 C 198.344,110.494 212.344,116.327 222.5,131C 217.078,135.461 211.245,139.294 205,142.5C 202.14,138.983 198.64,136.15 194.5,134C 183.098,131.744 177.932,136.244 179,147.5C 180.122,149.624 181.622,151.457 183.5,153C 196.101,158.299 208.101,164.633 219.5,172C 231.516,185.878 232.683,200.711 223,216.5C 216.683,222.576 209.183,226.409 200.5,228C 177.929,232.207 160.596,224.707 148.5,205.5C 154.584,201.707 160.751,198.041 167,194.5C 175.818,208.331 187.652,211.831 202.5,205C 207.038,198.372 206.371,192.372 200.5,187C 189.523,182.178 178.857,176.845 168.5,171C 156.004,159.85 152.504,146.35 158,130.5C 163.395,121.925 170.895,116.259 180.5,113.5 Z"/></g>
<g><path style="opacity:1" fill="#fdfefe" d="M 54.5,114.5 C 83.5,114.5 112.5,114.5 141.5,114.5C 141.5,121.167 141.5,127.833 141.5,134.5C 130.654,134.172 119.987,134.506 109.5,135.5C 109.5,166.167 109.5,196.833 109.5,227.5C 101.833,227.5 94.1667,227.5 86.5,227.5C 86.5,197.167 86.5,166.833 86.5,136.5C 86.5,136.167 86.5,135.833 86.5,135.5C 76.0131,134.506 65.3464,134.172 54.5,134.5C 54.5,127.833 54.5,121.167 54.5,114.5 Z"/></g>
<g><path style="opacity:1" fill="#71c5ea" d="M 54.5,114.5 C 54.5,121.167 54.5,127.833 54.5,134.5C 65.3464,134.172 76.0131,134.506 86.5,135.5C 75.5,135.5 64.5,135.5 53.5,135.5C 53.1755,128.313 53.5088,121.313 54.5,114.5 Z"/></g>
<g><path style="opacity:1" fill="#67c2e9" d="M 141.5,114.5 C 142.491,121.313 142.825,128.313 142.5,135.5C 131.833,135.5 121.167,135.5 110.5,135.5C 110.167,135.5 109.833,135.5 109.5,135.5C 119.987,134.506 130.654,134.172 141.5,134.5C 141.5,127.833 141.5,121.167 141.5,114.5 Z"/></g>
<g><path style="opacity:1" fill="#006cca" d="M 53.5,135.5 C 64.5,135.5 75.5,135.5 86.5,135.5C 86.5,135.833 86.5,136.167 86.5,136.5C 85.6676,166.664 85.1676,196.997 85,227.5C 84.5,197.168 84.3334,166.835 84.5,136.5C 73.9865,136.828 63.6532,136.494 53.5,135.5 Z"/></g>
<g><path style="opacity:1" fill="#006ecb" d="M 110.5,135.5 C 121.167,135.5 131.833,135.5 142.5,135.5C 132.347,136.494 122.014,136.828 111.5,136.5C 111.667,166.835 111.5,197.168 111,227.5C 110.5,196.835 110.333,166.168 110.5,135.5 Z"/></g>
</svg>
