<?xml version="1.0" encoding="UTF-8"?>
<!DOCTYPE svg PUBLIC "-//W3C//DTD SVG 1.1//EN" "http://www.w3.org/Graphics/SVG/1.1/DTD/svg11.dtd">
<svg xmlns="http://www.w3.org/2000/svg" version="1.1" width="250px" height="250px" style="shape-rendering:geometricPrecision; text-rendering:geometricPrecision; image-rendering:optimizeQuality; fill-rule:evenodd; clip-rule:evenodd" xmlns:xlink="http://www.w3.org/1999/xlink">
<g><path style="opacity:0.982" fill="#414445" d="M 123.5,23.5 C 120.419,29.3312 117.085,34.9979 113.5,40.5C 107.805,50.5171 102.139,60.5171 96.5,70.5C 95.8333,70.5 95.5,70.8333 95.5,71.5C 84.8582,89.44 74.1915,107.44 63.5,125.5C 73.9373,143.387 84.604,161.054 95.5,178.5C 95.3284,179.492 95.6618,180.158 96.5,180.5C 105.167,195.833 113.833,211.167 122.5,226.5C 100.831,226.667 79.1641,226.5 57.5,226C 55.6411,224.442 54.1411,222.609 53,220.5C 36.1023,188.816 18.269,157.816 -0.5,127.5C -0.5,125.833 -0.5,124.167 -0.5,122.5C 18.487,89.864 37.487,57.1974 56.5,24.5C 78.8234,23.5003 101.157,23.167 123.5,23.5 Z"/></g>
<g><path style="opacity:0.995" fill="#0066b1" d="M 137.5,23.5 C 140.833,23.5 144.167,23.5 147.5,23.5C 148.286,38.7143 148.286,54.0477 147.5,69.5C 144.102,69.8204 140.768,69.487 137.5,68.5C 137.069,67.7065 136.735,66.8732 136.5,66C 136.721,51.7768 137.054,37.6102 137.5,23.5 Z"/></g>
<g><path style="opacity:0.999" fill="#007fc4" d="M 172.5,23.5 C 179.2,23.17 185.866,23.5033 192.5,24.5C 193.127,25.4168 193.461,26.4168 193.5,27.5C 193.19,28.7383 192.69,28.7383 192,27.5C 191.24,30.4903 192.073,32.9903 194.5,35C 194.5,45.3333 194.5,55.6667 194.5,66C 194.223,67.8916 193.223,69.2249 191.5,70C 194.365,70.1829 197.031,70.6829 199.5,71.5C 192.5,71.5 185.5,71.5 178.5,71.5C 180.189,70.6963 181.855,69.6963 183.5,68.5C 183.167,59.1667 182.833,49.8333 182.5,40.5C 183.752,38.9991 184.752,37.3325 185.5,35.5C 185.154,34.3044 184.654,34.3044 184,35.5C 179.96,40.8633 175.96,46.1967 172,51.5C 172.415,42.0851 172.581,32.7518 172.5,23.5 Z"/></g>
<g><path style="opacity:0.999" fill="#0d8acc" d="M 193.5,27.5 C 202.644,41.7738 211.311,56.4405 219.5,71.5C 219.145,72.5223 218.478,73.189 217.5,73.5C 211.926,71.5467 205.926,70.88 199.5,71.5C 197.031,70.6829 194.365,70.1829 191.5,70C 193.223,69.2249 194.223,67.8916 194.5,66C 194.5,55.6667 194.5,45.3333 194.5,35C 192.073,32.9903 191.24,30.4903 192,27.5C 192.69,28.7383 193.19,28.7383 193.5,27.5 Z"/></g>
<g><path style="opacity:1" fill="#095ba9" d="M 123.5,23.5 C 128.167,23.5 132.833,23.5 137.5,23.5C 137.054,37.6102 136.721,51.7768 136.5,66C 136.735,66.8732 137.069,67.7065 137.5,68.5C 140.768,69.487 144.102,69.8204 147.5,69.5C 151.371,69.185 155.038,69.5184 158.5,70.5C 150.167,70.5 141.833,70.5 133.5,70.5C 127.654,69.8334 121.654,69.1668 115.5,68.5C 115.833,59.1667 116.167,49.8333 116.5,40.5C 115.767,39.913 114.767,39.913 113.5,40.5C 117.085,34.9979 120.419,29.3312 123.5,23.5 Z"/></g>
<g><path style="opacity:1" fill="#1c4ea0" d="M 133.5,70.5 C 121.167,70.5 108.833,70.5 96.5,70.5C 102.139,60.5171 107.805,50.5171 113.5,40.5C 114.767,39.913 115.767,39.913 116.5,40.5C 116.167,49.8333 115.833,59.1667 115.5,68.5C 121.654,69.1668 127.654,69.8334 133.5,70.5 Z"/></g>
<g><path style="opacity:1" fill="#0074bc" d="M 147.5,23.5 C 155.833,23.5 164.167,23.5 172.5,23.5C 172.581,32.7518 172.415,42.0851 172,51.5C 175.96,46.1967 179.96,40.8633 184,35.5C 184.654,34.3044 185.154,34.3044 185.5,35.5C 184.752,37.3325 183.752,38.9991 182.5,40.5C 182.833,49.8333 183.167,59.1667 183.5,68.5C 181.855,69.6963 180.189,70.6963 178.5,71.5C 171.646,71.824 164.979,71.4907 158.5,70.5C 155.038,69.5184 151.371,69.185 147.5,69.5C 148.286,54.0477 148.286,38.7143 147.5,23.5 Z"/></g>
<g><path style="opacity:1" fill="#146faa" d="M 95.5,71.5 C 95.5,70.8333 95.8333,70.5 96.5,70.5C 108.833,70.5 121.167,70.5 133.5,70.5C 141.833,70.5 150.167,70.5 158.5,70.5C 164.979,71.4907 171.646,71.824 178.5,71.5C 185.5,71.5 192.5,71.5 199.5,71.5C 205.926,70.88 211.926,71.5467 217.5,73.5C 216.5,75.1667 215.167,76.5 213.5,77.5C 212.833,78.1667 212.167,78.8333 211.5,79.5C 205.167,79.5 198.833,79.5 192.5,79.5C 180.5,79.5 168.5,79.5 156.5,79.5C 156.567,80.9587 156.234,82.2921 155.5,83.5C 154.035,82.5943 153.035,81.261 152.5,79.5C 154.412,77.3428 156.079,75.0094 157.5,72.5C 136.844,71.5003 116.177,71.167 95.5,71.5 Z"/></g>
<g><path style="opacity:1" fill="#0978c0" d="M 192.5,79.5 C 192.953,80.4584 193.619,81.2917 194.5,82C 193.974,87.3679 193.641,92.7012 193.5,98C 194.308,98.3076 194.975,98.8076 195.5,99.5C 190.286,106.092 184.953,112.592 179.5,119C 181.833,119.333 184.167,119.667 186.5,120C 183.518,120.498 180.518,120.665 177.5,120.5C 169.415,108.67 162.081,96.3369 155.5,83.5C 156.234,82.2921 156.567,80.9587 156.5,79.5C 168.5,79.5 180.5,79.5 192.5,79.5 Z"/></g>
<g><path style="opacity:0.998" fill="#0a9bd8" d="M 213.5,77.5 C 216.563,78.2014 219.73,78.868 223,79.5C 230.857,93.2215 238.69,106.888 246.5,120.5C 235.828,120.667 225.161,120.5 214.5,120C 216.167,119.667 217.833,119.333 219.5,119C 218.883,108.248 218.549,97.4149 218.5,86.5C 219.624,85.086 220.624,83.586 221.5,82C 221.167,81.8333 220.833,81.6667 220.5,81.5C 218.157,84.2072 215.823,86.8739 213.5,89.5C 211.456,87.9317 211.122,86.0983 212.5,84C 212.095,83.0546 211.428,82.3879 210.5,82C 211.252,81.3292 211.586,80.4959 211.5,79.5C 212.167,78.8333 212.833,78.1667 213.5,77.5 Z"/></g>
<g><path style="opacity:1" fill="#048bcc" d="M 192.5,79.5 C 198.833,79.5 205.167,79.5 211.5,79.5C 211.586,80.4959 211.252,81.3292 210.5,82C 211.428,82.3879 212.095,83.0546 212.5,84C 211.122,86.0983 211.456,87.9317 213.5,89.5C 215.823,86.8739 218.157,84.2072 220.5,81.5C 220.833,81.6667 221.167,81.8333 221.5,82C 220.624,83.586 219.624,85.086 218.5,86.5C 218.549,97.4149 218.883,108.248 219.5,119C 217.833,119.333 216.167,119.667 214.5,120C 225.161,120.5 235.828,120.667 246.5,120.5C 247.167,120.5 247.5,120.833 247.5,121.5C 227.167,121.5 206.833,121.5 186.5,121.5C 183.287,121.81 180.287,121.477 177.5,120.5C 180.518,120.665 183.518,120.498 186.5,120C 184.167,119.667 181.833,119.333 179.5,119C 184.953,112.592 190.286,106.092 195.5,99.5C 194.975,98.8076 194.308,98.3076 193.5,98C 193.641,92.7012 193.974,87.3679 194.5,82C 193.619,81.2917 192.953,80.4584 192.5,79.5 Z"/></g>
<g><path style="opacity:1" fill="#1a71a4" d="M 186.5,121.5 C 206.833,121.5 227.167,121.5 247.5,121.5C 247.833,122.5 248.5,123.167 249.5,123.5C 249.5,124.5 249.5,125.5 249.5,126.5C 248.728,127.694 247.728,128.694 246.5,129.5C 226.833,129.5 207.167,129.5 187.5,129.5C 187.5,128.833 187.167,128.5 186.5,128.5C 185.524,127.185 184.524,125.852 183.5,124.5C 184.77,123.712 185.77,122.712 186.5,121.5 Z"/></g>
<g><path style="opacity:1" fill="#ccea0c" d="M 187.5,129.5 C 207.167,129.5 226.833,129.5 246.5,129.5C 239.253,143.667 231.253,157.334 222.5,170.5C 209.167,170.5 195.833,170.5 182.5,170.5C 185.077,169.028 187.911,168.028 191,167.5C 192.545,168.821 193.711,168.488 194.5,166.5C 194.362,163.029 194.362,159.529 194.5,156C 193.082,152.999 192.249,149.832 192,146.5C 187.454,141.623 183.287,136.456 179.5,131C 182.254,130.728 184.921,130.228 187.5,129.5 Z"/></g>
<g><path style="opacity:1" fill="#c3e709" d="M 186.5,128.5 C 187.167,128.5 187.5,128.833 187.5,129.5C 184.921,130.228 182.254,130.728 179.5,131C 183.287,136.456 187.454,141.623 192,146.5C 192.249,149.832 193.082,152.999 194.5,156C 194.362,159.529 194.362,163.029 194.5,166.5C 193.711,168.488 192.545,168.821 191,167.5C 187.911,168.028 185.077,169.028 182.5,170.5C 172.652,170.827 162.986,170.494 153.5,169.5C 161.107,156.054 168.94,142.721 177,129.5C 180.057,128.549 183.223,128.216 186.5,128.5 Z"/></g>
<g><path style="opacity:1" fill="#96e352" d="M 153.5,169.5 C 162.986,170.494 172.652,170.827 182.5,170.5C 195.833,170.5 209.167,170.5 222.5,170.5C 219.713,171.477 216.713,171.81 213.5,171.5C 193.66,171.17 173.993,171.503 154.5,172.5C 152.618,171.779 152.285,170.779 153.5,169.5 Z"/></g>
<g><path style="opacity:1" fill="#59db62" d="M 213.5,171.5 C 215.5,173.833 217.5,176.167 219.5,178.5C 199.167,178.5 178.833,178.5 158.5,178.5C 156.774,176.772 155.441,174.772 154.5,172.5C 173.993,171.503 193.66,171.17 213.5,171.5 Z"/></g>
<g><path style="opacity:0.44" fill="#d1e984" d="M 95.5,178.5 C 116.5,178.5 137.5,178.5 158.5,178.5C 158.5,178.833 158.5,179.167 158.5,179.5C 153.5,179.5 148.5,179.5 143.5,179.5C 136.167,179.5 128.833,179.5 121.5,179.5C 112.983,179.174 104.65,179.507 96.5,180.5C 95.6618,180.158 95.3284,179.492 95.5,178.5 Z"/></g>
<g><path style="opacity:0.989" fill="#b6de38" d="M 121.5,179.5 C 126.64,180.488 131.974,180.821 137.5,180.5C 137.52,182.143 136.853,183.476 135.5,184.5C 138.023,186.255 138.023,188.089 135.5,190C 136.022,190.95 136.689,191.784 137.5,192.5C 134.833,194.167 134.833,195.833 137.5,197.5C 134.833,199.167 134.833,200.833 137.5,202.5C 134.977,204.255 134.977,206.089 137.5,208C 136.978,208.95 136.311,209.784 135.5,210.5C 138.167,212.167 138.167,213.833 135.5,215.5C 138.167,217.167 138.167,218.833 135.5,220.5C 138.058,222.12 138.058,223.62 135.5,225C 136.416,225.278 137.082,225.778 137.5,226.5C 132.5,226.5 127.5,226.5 122.5,226.5C 113.833,211.167 105.167,195.833 96.5,180.5C 104.65,179.507 112.983,179.174 121.5,179.5 Z"/></g>
<g><path style="opacity:0.992" fill="#bde12d" d="M 121.5,179.5 C 128.833,179.5 136.167,179.5 143.5,179.5C 146.625,180.479 149.958,180.813 153.5,180.5C 153.5,195.833 153.5,211.167 153.5,226.5C 148.167,226.5 142.833,226.5 137.5,226.5C 137.082,225.778 136.416,225.278 135.5,225C 138.058,223.62 138.058,222.12 135.5,220.5C 138.167,218.833 138.167,217.167 135.5,215.5C 138.167,213.833 138.167,212.167 135.5,210.5C 136.311,209.784 136.978,208.95 137.5,208C 134.977,206.089 134.977,204.255 137.5,202.5C 134.833,200.833 134.833,199.167 137.5,197.5C 134.833,195.833 134.833,194.167 137.5,192.5C 136.689,191.784 136.022,190.95 135.5,190C 138.023,188.089 138.023,186.255 135.5,184.5C 136.853,183.476 137.52,182.143 137.5,180.5C 131.974,180.821 126.64,180.488 121.5,179.5 Z"/></g>
<g><path style="opacity:0.991" fill="#c3e521" d="M 143.5,179.5 C 148.5,179.5 153.5,179.5 158.5,179.5C 170.976,192.583 175.309,208.25 171.5,226.5C 165.5,226.5 159.5,226.5 153.5,226.5C 153.5,211.167 153.5,195.833 153.5,180.5C 149.958,180.813 146.625,180.479 143.5,179.5 Z"/></g>
<g><path style="opacity:1" fill="#c7ea12" d="M 158.5,178.5 C 178.833,178.5 199.167,178.5 219.5,178.5C 210.691,194.112 201.857,209.779 193,225.5C 185.921,226.48 178.755,226.813 171.5,226.5C 175.309,208.25 170.976,192.583 158.5,179.5C 158.5,179.167 158.5,178.833 158.5,178.5 Z"/></g>
</svg>
