<?xml version="1.0" encoding="UTF-8"?>
<!DOCTYPE svg PUBLIC "-//W3C//DTD SVG 1.1//EN" "http://www.w3.org/Graphics/SVG/1.1/DTD/svg11.dtd">
<svg xmlns="http://www.w3.org/2000/svg" version="1.1" width="250px" height="250px" style="shape-rendering:geometricPrecision; text-rendering:geometricPrecision; image-rendering:optimizeQuality; fill-rule:evenodd; clip-rule:evenodd" xmlns:xlink="http://www.w3.org/1999/xlink">
<g><path style="opacity:1" fill="#039bd9" d="M 105.5,-0.5 C 118.167,-0.5 130.833,-0.5 143.5,-0.5C 201.178,12.5109 236.511,47.8442 249.5,105.5C 249.5,118.167 249.5,130.833 249.5,143.5C 236.511,201.156 201.178,236.489 143.5,249.5C 130.833,249.5 118.167,249.5 105.5,249.5C 47.8224,236.489 12.4891,201.156 -0.5,143.5C -0.5,130.833 -0.5,118.167 -0.5,105.5C 12.4891,47.8442 47.8224,12.5109 105.5,-0.5 Z"/></g>
<g><path style="opacity:1" fill="#98d5ef" d="M 151.5,58.5 C 150.957,58.44 150.624,58.1067 150.5,57.5C 152.045,56.5481 153.712,56.2148 155.5,56.5C 155.5,54.5 155.5,52.5 155.5,50.5C 150.5,50.5 145.5,50.5 140.5,50.5C 140.5,52.8333 140.5,55.1667 140.5,57.5C 139.527,55.0521 139.194,52.3854 139.5,49.5C 145.167,49.5 150.833,49.5 156.5,49.5C 156.5,52.1667 156.5,54.8333 156.5,57.5C 154.585,57.2155 152.919,57.5489 151.5,58.5 Z"/></g>
<g><path style="opacity:1" fill="#9ed8f0" d="M 109.5,56.5 C 109.167,56.5 108.833,56.5 108.5,56.5C 108.5,54.5 108.5,52.5 108.5,50.5C 103.5,50.5 98.5,50.5 93.5,50.5C 93.5,56.5 93.5,62.5 93.5,68.5C 93.5,68.8333 93.5,69.1667 93.5,69.5C 92.5093,63.021 92.176,56.3543 92.5,49.5C 98.1667,49.5 103.833,49.5 109.5,49.5C 109.5,51.8333 109.5,54.1667 109.5,56.5 Z"/></g>
<g><path style="opacity:1" fill="#fcfdfe" d="M 108.5,56.5 C 105.5,56.5 102.5,56.5 99.5,56.5C 99.5,58.8333 99.5,61.1667 99.5,63.5C 102.287,64.4767 105.287,64.81 108.5,64.5C 108.5,65.8333 108.5,67.1667 108.5,68.5C 103.5,68.5 98.5,68.5 93.5,68.5C 93.5,62.5 93.5,56.5 93.5,50.5C 98.5,50.5 103.5,50.5 108.5,50.5C 108.5,52.5 108.5,54.5 108.5,56.5 Z"/></g>
<g><path style="opacity:1" fill="#f2f9fd" d="M 116.5,63.5 C 118.604,63.7989 120.604,63.4656 122.5,62.5C 122.043,61.7025 121.376,61.3691 120.5,61.5C 116.922,58.3671 115.589,54.3671 116.5,49.5C 121.833,49.5 127.167,49.5 132.5,49.5C 132.5,51.8333 132.5,54.1667 132.5,56.5C 130.712,56.2148 129.045,56.5481 127.5,57.5C 128.815,59.3159 130.315,60.9825 132,62.5C 132.497,64.8098 132.663,67.1432 132.5,69.5C 127.167,69.5 121.833,69.5 116.5,69.5C 116.5,67.5 116.5,65.5 116.5,63.5 Z"/></g>
<g><path style="opacity:1" fill="#fbfdfe" d="M 151.5,58.5 C 152.5,60.1667 153.833,61.5 155.5,62.5C 155.5,64.5 155.5,66.5 155.5,68.5C 150.5,68.5 145.5,68.5 140.5,68.5C 140.5,66.8333 140.5,65.1667 140.5,63.5C 142.288,63.7852 143.955,63.4519 145.5,62.5C 144.145,60.4788 142.479,58.8121 140.5,57.5C 140.5,55.1667 140.5,52.8333 140.5,50.5C 145.5,50.5 150.5,50.5 155.5,50.5C 155.5,52.5 155.5,54.5 155.5,56.5C 153.712,56.2148 152.045,56.5481 150.5,57.5C 150.624,58.1067 150.957,58.44 151.5,58.5 Z"/></g>
<g><path style="opacity:1" fill="#5ec2e8" d="M 108.5,56.5 C 108.833,56.5 109.167,56.5 109.5,56.5C 106.713,57.4767 103.713,57.81 100.5,57.5C 100.5,59.1667 100.5,60.8333 100.5,62.5C 103.713,62.19 106.713,62.5233 109.5,63.5C 106.167,63.5 102.833,63.5 99.5,63.5C 99.5,61.1667 99.5,58.8333 99.5,56.5C 102.5,56.5 105.5,56.5 108.5,56.5 Z"/></g>
<g><path style="opacity:1" fill="#58bfe6" d="M 120.5,61.5 C 121.376,61.3691 122.043,61.7025 122.5,62.5C 120.604,63.4656 118.604,63.7989 116.5,63.5C 117.833,62.8333 119.167,62.1667 120.5,61.5 Z"/></g>
<g><path style="opacity:1" fill="#def1f9" d="M 99.5,63.5 C 102.833,63.5 106.167,63.5 109.5,63.5C 109.5,65.5 109.5,67.5 109.5,69.5C 104.167,69.5 98.8333,69.5 93.5,69.5C 93.5,69.1667 93.5,68.8333 93.5,68.5C 98.5,68.5 103.5,68.5 108.5,68.5C 108.5,67.1667 108.5,65.8333 108.5,64.5C 105.287,64.81 102.287,64.4767 99.5,63.5 Z"/></g>
<g><path style="opacity:1" fill="#d7eef8" d="M 140.5,63.5 C 140.5,65.1667 140.5,66.8333 140.5,68.5C 145.5,68.5 150.5,68.5 155.5,68.5C 150.36,69.4881 145.026,69.8214 139.5,69.5C 139.205,67.2646 139.539,65.2646 140.5,63.5 Z"/></g>
<g><path style="opacity:1" fill="#57bfe7" d="M 155.5,62.5 C 156.473,64.9479 156.806,67.6146 156.5,70.5C 150.642,70.8222 144.975,70.4889 139.5,69.5C 145.026,69.8214 150.36,69.4881 155.5,68.5C 155.5,66.5 155.5,64.5 155.5,62.5 Z"/></g>
<g><path style="opacity:1" fill="#edf6fb" d="M 176.5,82.5 C 159.513,81.1671 142.18,80.5004 124.5,80.5C 106.82,80.5004 89.4869,81.1671 72.5,82.5C 71.596,81.791 71.2627,80.791 71.5,79.5C 106.833,79.5 142.167,79.5 177.5,79.5C 177.737,80.791 177.404,81.791 176.5,82.5 Z"/></g>
<g><path style="opacity:1" fill="#fcfdfe" d="M 176.5,82.5 C 175.224,97.4793 174.224,112.479 173.5,127.5C 172.111,132.269 171.444,137.269 171.5,142.5C 170.33,157.503 169.33,172.503 168.5,187.5C 160.704,189.365 153.037,191.365 145.5,193.5C 143.102,193.259 141.102,193.926 139.5,195.5C 132.934,197.311 126.267,198.144 119.5,198C 106.915,194.354 94.2482,191.02 81.5,188C 79.7823,172.925 78.449,157.759 77.5,142.5C 77.5557,137.269 76.889,132.269 75.5,127.5C 74.445,112.506 73.445,97.5064 72.5,82.5C 89.4869,81.1671 106.82,80.5004 124.5,80.5C 142.18,80.5004 159.513,81.1671 176.5,82.5 Z"/></g>
<g><path style="opacity:1" fill="#7fccec" d="M 156.5,114.5 C 156.5,110.167 156.5,105.833 156.5,101.5C 134.833,101.5 113.167,101.5 91.5,101.5C 91.5,102.833 91.5,104.167 91.5,105.5C 90.5489,104.081 90.2155,102.415 90.5,100.5C 112.833,100.5 135.167,100.5 157.5,100.5C 157.819,105.363 157.486,110.03 156.5,114.5 Z"/></g>
<g><path style="opacity:1" fill="#0b9cd9" d="M 156.5,114.5 C 147.742,118.176 139.075,121.842 130.5,125.5C 129.041,125.433 127.708,125.766 126.5,126.5C 125.624,126.369 124.957,126.702 124.5,127.5C 134.478,128.499 144.478,128.832 154.5,128.5C 154.5,129.833 154.5,131.167 154.5,132.5C 154.582,139.858 154.248,147.191 153.5,154.5C 151.789,158.881 151.123,163.547 151.5,168.5C 149.833,169.167 148.167,169.833 146.5,170.5C 143.848,170.41 141.515,171.076 139.5,172.5C 137.901,172.232 136.568,172.566 135.5,173.5C 132.848,173.41 130.515,174.076 128.5,175.5C 126.021,176.623 123.688,176.623 121.5,175.5C 119.485,174.076 117.152,173.41 114.5,173.5C 108.513,171.843 102.513,170.177 96.5,168.5C 96.5,164.833 96.5,161.167 96.5,157.5C 96.5,154.5 96.5,151.5 96.5,148.5C 100.931,148.231 105.265,148.564 109.5,149.5C 109.5,152.5 109.5,155.5 109.5,158.5C 114.524,159.673 119.524,161.006 124.5,162.5C 126.851,161.827 129.184,161.16 131.5,160.5C 134.152,160.59 136.485,159.924 138.5,158.5C 140.453,152.926 141.12,146.926 140.5,140.5C 125.167,140.5 109.833,140.5 94.5,140.5C 94.1734,135.786 94.5067,131.12 95.5,126.5C 103.742,122.877 112.075,119.544 120.5,116.5C 121.833,116.5 123.167,116.5 124.5,116.5C 124.5,115.5 124.5,114.5 124.5,113.5C 113.833,113.5 103.167,113.5 92.5,113.5C 91.7347,110.904 91.4013,108.237 91.5,105.5C 91.5,104.167 91.5,102.833 91.5,101.5C 113.167,101.5 134.833,101.5 156.5,101.5C 156.5,105.833 156.5,110.167 156.5,114.5 Z"/></g>
<g><path style="opacity:1" fill="#59c0e7" d="M 92.5,113.5 C 103.167,113.5 113.833,113.5 124.5,113.5C 124.5,114.5 124.5,115.5 124.5,116.5C 123.167,116.5 121.833,116.5 120.5,116.5C 120.918,115.778 121.584,115.278 122.5,115C 112.325,114.83 102.325,114.33 92.5,113.5 Z"/></g>
<g><path style="opacity:1" fill="#e2f3fa" d="M 130.5,125.5 C 138.833,126.167 147.167,126.833 155.5,127.5C 145.652,127.827 135.986,127.494 126.5,126.5C 127.708,125.766 129.041,125.433 130.5,125.5 Z"/></g>
<g><path style="opacity:1" fill="#42bae5" d="M 126.5,126.5 C 135.986,127.494 145.652,127.827 155.5,127.5C 155.784,129.415 155.451,131.081 154.5,132.5C 154.5,131.167 154.5,129.833 154.5,128.5C 144.478,128.832 134.478,128.499 124.5,127.5C 124.957,126.702 125.624,126.369 126.5,126.5 Z"/></g>
<g><path style="opacity:1" fill="#8bd1ee" d="M 94.5,140.5 C 109.833,140.5 125.167,140.5 140.5,140.5C 141.12,146.926 140.453,152.926 138.5,158.5C 139.452,152.925 139.786,147.259 139.5,141.5C 124.324,141.829 109.324,141.496 94.5,140.5 Z"/></g>
<g><path style="opacity:1" fill="#93d3ef" d="M 75.5,127.5 C 76.889,132.269 77.5557,137.269 77.5,142.5C 76.111,137.731 75.4443,132.731 75.5,127.5 Z"/></g>
<g><path style="opacity:1" fill="#93d3ef" d="M 173.5,127.5 C 173.556,132.731 172.889,137.731 171.5,142.5C 171.444,137.269 172.111,132.269 173.5,127.5 Z"/></g>
<g><path style="opacity:1" fill="#8fd2ee" d="M 109.5,149.5 C 105.265,148.564 100.931,148.231 96.5,148.5C 96.5,151.5 96.5,154.5 96.5,157.5C 95.5206,154.375 95.1872,151.042 95.5,147.5C 100.619,146.897 105.285,147.564 109.5,149.5 Z"/></g>
<g><path style="opacity:1" fill="#58bee6" d="M 138.5,158.5 C 136.485,159.924 134.152,160.59 131.5,160.5C 133.515,159.076 135.848,158.41 138.5,158.5 Z"/></g>
<g><path style="opacity:1" fill="#6fc5e9" d="M 153.5,154.5 C 153.638,159.414 152.972,164.081 151.5,168.5C 151.123,163.547 151.789,158.881 153.5,154.5 Z"/></g>
<g><path style="opacity:1" fill="#c8e9f6" d="M 146.5,170.5 C 144.485,171.924 142.152,172.59 139.5,172.5C 141.515,171.076 143.848,170.41 146.5,170.5 Z"/></g>
<g><path style="opacity:1" fill="#79c9eb" d="M 114.5,173.5 C 117.152,173.41 119.485,174.076 121.5,175.5C 118.848,175.59 116.515,174.924 114.5,173.5 Z"/></g>
<g><path style="opacity:1" fill="#c4e6f6" d="M 135.5,173.5 C 133.485,174.924 131.152,175.59 128.5,175.5C 130.515,174.076 132.848,173.41 135.5,173.5 Z"/></g>
<g><path style="opacity:1" fill="#55bbe5" d="M 145.5,193.5 C 143.898,195.074 141.898,195.741 139.5,195.5C 141.102,193.926 143.102,193.259 145.5,193.5 Z"/></g>
</svg>
