<?xml version="1.0" encoding="UTF-8"?>
<!DOCTYPE svg PUBLIC "-//W3C//DTD SVG 1.1//EN" "http://www.w3.org/Graphics/SVG/1.1/DTD/svg11.dtd">
<svg xmlns="http://www.w3.org/2000/svg" version="1.1" width="250px" height="250px" style="shape-rendering:geometricPrecision; text-rendering:geometricPrecision; image-rendering:optimizeQuality; fill-rule:evenodd; clip-rule:evenodd" xmlns:xlink="http://www.w3.org/1999/xlink">
<g><path style="opacity:0.78" fill="#2c4043" d="M 249.5,71.5 C 249.5,72.1667 249.5,72.8333 249.5,73.5C 241.576,86.3021 229.91,92.6355 214.5,92.5C 213.027,96.7789 211.027,100.779 208.5,104.5C 217.814,106.117 225.981,103.784 233,97.5C 233.093,100.007 233.926,102.174 235.5,104C 239.732,105.8 244.066,107.3 248.5,108.5C 234.178,109.333 219.845,109.833 205.5,110C 186.319,139.139 159.319,156.139 124.5,161C 98.4404,166.141 74.4404,161.475 52.5,147C 40.4009,137.303 33.0676,124.803 30.5,109.5C 20.1667,109.5 9.83333,109.5 -0.5,109.5C -0.5,108.833 -0.5,108.167 -0.5,107.5C 5.71926,107.555 10.7193,105.221 14.5,100.5C 13.6744,99.549 13.5078,98.549 14,97.5C 18.3672,101.6 23.5338,103.934 29.5,104.5C 29.1934,98.9066 29.5268,93.4066 30.5,88C 36.8246,87.5005 43.1579,87.3338 49.5,87.5C 49.5,79.8333 49.5,72.1667 49.5,64.5C 56.8333,64.5 64.1667,64.5 71.5,64.5C 71.5,57.1667 71.5,49.8333 71.5,42.5C 86.5,42.5 101.5,42.5 116.5,42.5C 116.5,35.1667 116.5,27.8333 116.5,20.5C 125.833,20.5 135.167,20.5 144.5,20.5C 144.824,35.0785 144.49,49.5785 143.5,64C 151.159,64.4997 158.826,64.6664 166.5,64.5C 166.5,72.1667 166.5,79.8333 166.5,87.5C 178.033,88.6777 189.033,86.8443 199.5,82C 193.463,71.1041 192.963,59.9375 198,48.5C 199.013,46.1539 200.679,44.4872 203,43.5C 211.983,49.1047 217.816,57.1047 220.5,67.5C 230.679,65.3217 240.346,66.6551 249.5,71.5 Z"/></g>
<g><path style="opacity:1" fill="#20b6d7" d="M 120.5,24.5 C 126.833,24.5 133.167,24.5 139.5,24.5C 139.5,30.8333 139.5,37.1667 139.5,43.5C 133.167,43.5 126.833,43.5 120.5,43.5C 120.5,37.1667 120.5,30.8333 120.5,24.5 Z"/></g>
<g><path style="opacity:1" fill="#316470" d="M 124.5,25.5 C 125.812,27.7432 126.478,30.4098 126.5,33.5C 126.167,36.1667 125.833,38.8333 125.5,41.5C 124.505,36.2079 124.172,30.8746 124.5,25.5 Z"/></g>
<g><path style="opacity:1" fill="#28636e" d="M 127.5,25.5 C 128.814,27.9151 129.481,30.7485 129.5,34C 129.167,36.8333 128.833,39.6667 128.5,42.5C 127.505,36.8722 127.171,31.2055 127.5,25.5 Z"/></g>
<g><path style="opacity:1" fill="#1d5e69" d="M 130.5,25.5 C 131.814,27.9151 132.481,30.7485 132.5,34C 132.167,36.8333 131.833,39.6667 131.5,42.5C 130.505,36.8722 130.171,31.2055 130.5,25.5 Z"/></g>
<g><path style="opacity:1" fill="#215157" d="M 133.5,25.5 C 134.812,27.7432 135.478,30.4098 135.5,33.5C 135.167,36.1667 134.833,38.8333 134.5,41.5C 133.505,36.2079 133.172,30.8746 133.5,25.5 Z"/></g>
<g><path style="opacity:1" fill="#205057" d="M 136.5,26.5 C 137.809,28.5706 138.475,31.0706 138.5,34C 138.167,36.5 137.833,39 137.5,41.5C 136.506,36.544 136.173,31.544 136.5,26.5 Z"/></g>
<g><path style="opacity:1" fill="#2a7182" d="M 120.5,47.5 C 126.979,46.5093 133.646,46.176 140.5,46.5C 140.5,53.1667 140.5,59.8333 140.5,66.5C 133.646,66.824 126.979,66.4907 120.5,65.5C 126.833,65.5 133.167,65.5 139.5,65.5C 139.833,59.0698 139.5,53.4032 138.5,48.5C 137.833,48.5 137.167,48.5 136.5,48.5C 136.167,47.1667 135.833,47.1667 135.5,48.5C 134.833,48.5 134.167,48.5 133.5,48.5C 133.167,47.1667 132.833,47.1667 132.5,48.5C 131.833,48.5 131.167,48.5 130.5,48.5C 129.5,53.0679 129.167,58.4012 129.5,64.5C 127.833,64.5 126.167,64.5 124.5,64.5C 124.497,41.8723 123.83,41.8723 122.5,64.5C 121.833,58.6805 121.167,53.0139 120.5,47.5 Z"/></g>
<g><path style="opacity:1" fill="#327d91" d="M 95.5,46.5 C 95.5,53.1667 95.5,59.8333 95.5,66.5C 88.8333,66.5 82.1667,66.5 75.5,66.5C 75.5,59.8333 75.5,53.1667 75.5,46.5C 82.1667,46.5 88.8333,46.5 95.5,46.5 Z"/></g>
<g><path style="opacity:1" fill="#00b2d6" d="M 120.5,47.5 C 121.167,53.0139 121.833,58.6805 122.5,64.5C 123.83,41.8723 124.497,41.8723 124.5,64.5C 126.167,64.5 127.833,64.5 129.5,64.5C 129.167,58.4012 129.5,53.0679 130.5,48.5C 131.167,69.8333 131.833,69.8333 132.5,48.5C 132.833,47.1667 133.167,47.1667 133.5,48.5C 134.167,69.8333 134.833,69.8333 135.5,48.5C 135.833,47.1667 136.167,47.1667 136.5,48.5C 137.167,69.8333 137.833,69.8333 138.5,48.5C 139.5,53.4032 139.833,59.0698 139.5,65.5C 133.167,65.5 126.833,65.5 120.5,65.5C 120.5,59.5 120.5,53.5 120.5,47.5 Z"/></g>
<g><path style="opacity:1" fill="#254c52" d="M 130.5,48.5 C 131.167,48.5 131.833,48.5 132.5,48.5C 131.833,69.8333 131.167,69.8333 130.5,48.5 Z"/></g>
<g><path style="opacity:1" fill="#1d4e54" d="M 133.5,48.5 C 134.167,48.5 134.833,48.5 135.5,48.5C 134.833,69.8333 134.167,69.8333 133.5,48.5 Z"/></g>
<g><path style="opacity:1" fill="#1b4f56" d="M 136.5,48.5 C 137.167,48.5 137.833,48.5 138.5,48.5C 137.833,69.8333 137.167,69.8333 136.5,48.5 Z"/></g>
<g><path style="opacity:1" fill="#2fa1bd" d="M 98.5,46.5 C 104.833,46.5 111.167,46.5 117.5,46.5C 117.5,52.8333 117.5,59.1667 117.5,65.5C 117.5,59.1667 117.5,52.8333 117.5,46.5C 111.167,46.5 104.833,46.5 98.5,46.5 Z"/></g>
<g><path style="opacity:1" fill="#2e4b51" d="M 105.5,48.5 C 106.812,50.7432 107.478,53.4098 107.5,56.5C 107.167,59.1667 106.833,61.8333 106.5,64.5C 105.505,59.2079 105.172,53.8746 105.5,48.5 Z"/></g>
<g><path style="opacity:1" fill="#254e56" d="M 102.5,48.5 C 103.812,50.7432 104.478,53.4098 104.5,56.5C 104.167,59.1667 103.833,61.8333 103.5,64.5C 102.505,59.2079 102.172,53.8746 102.5,48.5 Z"/></g>
<g><path style="opacity:1" fill="#1b535c" d="M 99.5,48.5 C 100.812,50.7432 101.478,53.4098 101.5,56.5C 101.167,59.1667 100.833,61.8333 100.5,64.5C 99.5052,59.2079 99.1718,53.8746 99.5,48.5 Z"/></g>
<g><path style="opacity:1" fill="#00798b" d="M 97.5,46.5 C 97.8333,46.5 98.1667,46.5 98.5,46.5C 98.5,52.8333 98.5,59.1667 98.5,65.5C 104.833,65.5 111.167,65.5 117.5,65.5C 117.5,65.8333 117.5,66.1667 117.5,66.5C 110.833,66.5 104.167,66.5 97.5,66.5C 97.5,59.8333 97.5,53.1667 97.5,46.5 Z"/></g>
<g><path style="opacity:1" fill="#006e7e" d="M 53.5,69.5 C 59.979,68.5093 66.6457,68.176 73.5,68.5C 73.824,75.3543 73.4907,82.021 72.5,88.5C 72.5,82.1667 72.5,75.8333 72.5,69.5C 66.1667,69.5 59.8333,69.5 53.5,69.5 Z"/></g>
<g><path style="opacity:1" fill="#2b8ea7" d="M 53.5,69.5 C 59.8333,69.5 66.1667,69.5 72.5,69.5C 72.5,75.8333 72.5,82.1667 72.5,88.5C 66.1667,88.5 59.8333,88.5 53.5,88.5C 53.5,82.1667 53.5,75.8333 53.5,69.5 Z"/></g>
<g><path style="opacity:1" fill="#274a50" d="M 63.5,70.5 C 64.8117,72.7432 65.4783,75.4098 65.5,78.5C 65.1667,81.1667 64.8333,83.8333 64.5,86.5C 63.5052,81.2079 63.1718,75.8746 63.5,70.5 Z"/></g>
<g><path style="opacity:1" fill="#1d4e54" d="M 66.5,70.5 C 67.8117,72.7432 68.4783,75.4098 68.5,78.5C 68.1667,81.1667 67.8333,83.8333 67.5,86.5C 66.5052,81.2079 66.1718,75.8746 66.5,70.5 Z"/></g>
<g><path style="opacity:1" fill="#185058" d="M 69.5,70.5 C 70.8117,72.7432 71.4783,75.4098 71.5,78.5C 71.1667,81.1667 70.8333,83.8333 70.5,86.5C 69.5052,81.2079 69.1718,75.8746 69.5,70.5 Z"/></g>
<g><path style="opacity:1" fill="#00a0c9" d="M 215.5,66.5 C 216.461,68.2646 216.795,70.2646 216.5,72.5C 223.039,70.6281 229.706,70.1281 236.5,71C 239.112,71.6395 241.446,72.8062 243.5,74.5C 239.323,81.1602 233.323,85.3269 225.5,87C 220.798,87.1717 216.132,87.6717 211.5,88.5C 209.44,93.6203 207.107,98.6203 204.5,103.5C 200.52,104.891 196.853,104.225 193.5,101.5C 192.817,101.863 192.15,102.196 191.5,102.5C 191.389,101.883 191.056,101.383 190.5,101C 199.871,93.2968 208.204,84.6301 215.5,75C 219.449,74.1932 219.449,73.6932 215.5,73.5C 215.5,71.1667 215.5,68.8333 215.5,66.5 Z"/></g>
<g><path style="opacity:1" fill="#327c90" d="M 142.5,68.5 C 149.167,68.5 155.833,68.5 162.5,68.5C 162.5,75.1667 162.5,81.8333 162.5,88.5C 162.5,81.8333 162.5,75.1667 162.5,68.5C 155.833,68.5 149.167,68.5 142.5,68.5 Z"/></g>
<g><path style="opacity:1" fill="#00b2db" d="M 215.5,66.5 C 215.5,68.8333 215.5,71.1667 215.5,73.5C 219.449,73.6932 219.449,74.1932 215.5,75C 208.204,84.6301 199.871,93.2968 190.5,101C 191.056,101.383 191.389,101.883 191.5,102.5C 188.602,103.889 185.602,105.056 182.5,106C 171.245,107.324 160.245,106.324 149.5,103C 147.714,102.215 146.214,101.049 145,99.5C 138.662,104.755 131.329,107.088 123,106.5C 115.127,107.043 108.294,104.71 102.5,99.5C 97.7269,102.869 92.3935,105.036 86.5,106C 79.1667,106.667 71.8333,106.667 64.5,106C 60.6894,105.177 57.1894,103.677 54,101.5C 47.9509,104.946 41.4509,106.279 34.5,105.5C 34.5,101.167 34.5,96.8333 34.5,92.5C 83.0029,92.8322 131.336,92.4988 179.5,91.5C 189.016,90.8839 197.682,87.8839 205.5,82.5C 198.805,75.1302 196.639,66.4635 199,56.5C 199.726,53.3793 201.226,50.7127 203.5,48.5C 209.521,53.1814 213.521,59.1814 215.5,66.5 Z"/></g>
<g><path style="opacity:1" fill="#323737" d="M 95.5,46.5 C 96.1667,46.5 96.8333,46.5 97.5,46.5C 97.5,53.1667 97.5,59.8333 97.5,66.5C 104.167,66.5 110.833,66.5 117.5,66.5C 117.5,67.1667 117.5,67.8333 117.5,68.5C 110.833,68.5 104.167,68.5 97.5,68.5C 97.5,75.1667 97.5,81.8333 97.5,88.5C 104.167,88.5 110.833,88.5 117.5,88.5C 118.328,82.3466 118.828,76.0133 119,69.5C 119.172,76.0133 119.672,82.3466 120.5,88.5C 126.833,88.5 133.167,88.5 139.5,88.5C 140.491,82.021 140.824,75.3543 140.5,68.5C 141.167,68.5 141.833,68.5 142.5,68.5C 142.5,75.1667 142.5,81.8333 142.5,88.5C 149.167,88.5 155.833,88.5 162.5,88.5C 167.927,90.1457 173.594,91.1457 179.5,91.5C 130.833,91.5 82.1667,91.5 33.5,91.5C 40.3954,91.1502 47.0621,90.1502 53.5,88.5C 59.8333,88.5 66.1667,88.5 72.5,88.5C 73.4907,82.021 73.824,75.3543 73.5,68.5C 74.1667,68.5 74.8333,68.5 75.5,68.5C 75.5,67.8333 75.5,67.1667 75.5,66.5C 82.1667,66.5 88.8333,66.5 95.5,66.5C 95.5,59.8333 95.5,53.1667 95.5,46.5 Z"/></g>
<g><path style="opacity:1" fill="#398396" d="M 75.5,68.5 C 82.1667,68.5 88.8333,68.5 95.5,68.5C 95.5,75.1667 95.5,81.8333 95.5,88.5C 88.8333,88.5 82.1667,88.5 75.5,88.5C 75.5,81.8333 75.5,75.1667 75.5,68.5 Z"/></g>
<g><path style="opacity:1" fill="#2f6775" d="M 117.5,68.5 C 117.5,68.8333 117.5,69.1667 117.5,69.5C 111.167,69.5 104.833,69.5 98.5,69.5C 98.1668,75.9302 98.5002,81.5968 99.5,86.5C 100.167,86.5 100.833,86.5 101.5,86.5C 102.568,87.4345 103.901,87.7678 105.5,87.5C 105.171,81.7945 105.505,76.1278 106.5,70.5C 107.123,76.5622 107.789,81.8955 108.5,86.5C 108.833,86.5 109.167,86.5 109.5,86.5C 109.56,87.0431 109.893,87.3764 110.5,87.5C 111.33,81.8624 111.83,76.1958 112,70.5C 113,93.1667 114,93.1667 115,70.5C 114.874,76.5879 115.708,82.2545 117.5,87.5C 117.5,87.8333 117.5,88.1667 117.5,88.5C 110.833,88.5 104.167,88.5 97.5,88.5C 97.5,81.8333 97.5,75.1667 97.5,68.5C 104.167,68.5 110.833,68.5 117.5,68.5 Z"/></g>
<g><path style="opacity:1" fill="#2d9fba" d="M 120.5,69.5 C 126.833,69.5 133.167,69.5 139.5,69.5C 139.5,75.8333 139.5,82.1667 139.5,88.5C 133.167,88.5 126.833,88.5 120.5,88.5C 120.5,82.1667 120.5,75.8333 120.5,69.5 Z"/></g>
<g><path style="opacity:1" fill="#175760" d="M 136.5,70.5 C 137.812,72.7432 138.478,75.4098 138.5,78.5C 138.167,81.1667 137.833,83.8333 137.5,86.5C 136.505,81.2079 136.172,75.8746 136.5,70.5 Z"/></g>
<g><path style="opacity:1" fill="#1e5157" d="M 133.5,70.5 C 134.812,72.7432 135.478,75.4098 135.5,78.5C 135.167,81.1667 134.833,83.8333 134.5,86.5C 133.505,81.2079 133.172,75.8746 133.5,70.5 Z"/></g>
<g><path style="opacity:1" fill="#264e54" d="M 130.5,70.5 C 131.812,72.7432 132.478,75.4098 132.5,78.5C 132.167,81.1667 131.833,83.8333 131.5,86.5C 130.505,81.2079 130.172,75.8746 130.5,70.5 Z"/></g>
<g><path style="opacity:1" fill="#007789" d="M 120.5,69.5 C 126.979,68.5093 133.646,68.176 140.5,68.5C 140.824,75.3543 140.491,82.021 139.5,88.5C 139.5,82.1667 139.5,75.8333 139.5,69.5C 133.167,69.5 126.833,69.5 120.5,69.5 Z"/></g>
<g><path style="opacity:1" fill="#00a7c8" d="M 117.5,69.5 C 117.5,75.5 117.5,81.5 117.5,87.5C 115.708,82.2545 114.874,76.5879 115,70.5C 114,93.1667 113,93.1667 112,70.5C 111.83,76.1958 111.33,81.8624 110.5,87.5C 109.893,87.3764 109.56,87.0431 109.5,86.5C 110.815,81.3197 110.815,75.9864 109.5,70.5C 108.505,75.7921 108.172,81.1254 108.5,86.5C 107.789,81.8955 107.123,76.5622 106.5,70.5C 105.505,76.1278 105.171,81.7945 105.5,87.5C 103.901,87.7678 102.568,87.4345 101.5,86.5C 100.833,65.1667 100.167,65.1667 99.5,86.5C 98.5002,81.5968 98.1668,75.9302 98.5,69.5C 104.833,69.5 111.167,69.5 117.5,69.5 Z"/></g>
<g><path style="opacity:1" fill="#2a5e68" d="M 109.5,86.5 C 109.167,86.5 108.833,86.5 108.5,86.5C 108.172,81.1254 108.505,75.7921 109.5,70.5C 110.815,75.9864 110.815,81.3197 109.5,86.5 Z"/></g>
<g><path style="opacity:1" fill="#19555e" d="M 102.5,70.5 C 103.812,72.7432 104.478,75.4098 104.5,78.5C 104.167,81.1667 103.833,83.8333 103.5,86.5C 102.505,81.2079 102.172,75.8746 102.5,70.5 Z"/></g>
<g><path style="opacity:1" fill="#195057" d="M 101.5,86.5 C 100.833,86.5 100.167,86.5 99.5,86.5C 100.167,65.1667 100.833,65.1667 101.5,86.5 Z"/></g>
<g><path style="opacity:1" fill="#00c7ed" d="M 76.5,69.5 C 82.5,69.5 88.5,69.5 94.5,69.5C 94.6662,75.5092 94.4995,81.5092 94,87.5C 93.5006,81.8431 93.3339,76.1764 93.5,70.5C 88.1667,70.5 82.8333,70.5 77.5,70.5C 77.6661,76.1764 77.4994,81.8431 77,87.5C 76.5005,81.5092 76.3338,75.5092 76.5,69.5 Z"/></g>
<g><path style="opacity:1" fill="#0092b2" d="M 33.5,91.5 C 82.1667,91.5 130.833,91.5 179.5,91.5C 131.336,92.4988 83.0029,92.8322 34.5,92.5C 34.5,96.8333 34.5,101.167 34.5,105.5C 33.5139,101.03 33.1805,96.3633 33.5,91.5 Z"/></g>
<g><path style="opacity:1" fill="#0092b7" d="M 86.5,138.5 C 85.3332,136.959 83.9999,135.625 82.5,134.5C 84.3864,133.935 86.0531,132.935 87.5,131.5C 86.3333,131.167 85.1667,130.833 84,130.5C 79.6071,131.866 75.1071,132.532 70.5,132.5C 65.4801,133.127 60.8134,132.294 56.5,130C 50.8455,124.341 46.8455,117.674 44.5,110C 89.5,109.333 134.5,109.333 179.5,110C 155.78,128.44 128.947,139.273 99,142.5C 95.8333,142.167 92.6667,141.833 89.5,141.5C 88.4688,140.3 87.6355,138.966 87,137.5C 86.6012,137.728 86.4346,138.062 86.5,138.5 Z"/></g>
<g><path style="opacity:1" fill="#0082a7" d="M 107.5,157.5 C 98.2792,153.612 91.2792,147.279 86.5,138.5C 86.4346,138.062 86.6012,137.728 87,137.5C 87.6355,138.966 88.4688,140.3 89.5,141.5C 92.6667,141.833 95.8333,142.167 99,142.5C 128.947,139.273 155.78,128.44 179.5,110C 134.5,109.333 89.5,109.333 44.5,110C 46.8455,117.674 50.8455,124.341 56.5,130C 60.8134,132.294 65.4801,133.127 70.5,132.5C 61.9912,133.821 53.3245,133.821 44.5,132.5C 39.4138,125.244 36.0804,117.244 34.5,108.5C 90.1677,108.333 145.834,108.5 201.5,109C 178.786,141.538 147.453,157.704 107.5,157.5 Z"/></g>
<g><path style="opacity:1" fill="#cae9eb" d="M 91.5,119.5 C 99.821,119.992 101.488,123.492 96.5,130C 90.7141,130.881 88.2141,128.381 89,122.5C 90.045,121.627 90.8783,120.627 91.5,119.5 Z"/></g>
<g><path style="opacity:1" fill="#233b3f" d="M 91.5,121.5 C 93.6382,121.703 95.3049,122.703 96.5,124.5C 97.731,125.651 97.731,126.817 96.5,128C 90.741,129.139 89.0744,126.972 91.5,121.5 Z"/></g>
<g><path style="opacity:1" fill="#b3dad8" d="M 82.5,134.5 C 83.9999,135.625 85.3332,136.959 86.5,138.5C 91.2792,147.279 98.2792,153.612 107.5,157.5C 84.2854,160.372 64.2854,153.539 47.5,137C 59.221,136.771 70.8877,135.937 82.5,134.5 Z"/></g>
<g><path style="opacity:0.886" fill="#018db1" d="M -0.5,213.5 C -0.5,209.167 -0.5,204.833 -0.5,200.5C 7.29437,184.346 19.2944,180.346 35.5,188.5C 36.3295,183.198 36.8295,177.864 37,172.5C 39.6667,169.833 42.3333,169.833 45,172.5C 45.9319,187.222 45.5986,201.888 44,216.5C 37.2039,228.471 27.0372,232.638 13.5,229C 6.83442,225.508 2.16775,220.341 -0.5,213.5 Z M 20.5,192.5 C 34.1077,194.049 38.9411,201.382 35,214.5C 27.0072,223.388 18.6739,223.721 10,215.5C 5.3984,204.041 8.8984,196.374 20.5,192.5 Z"/></g>
<g><path style="opacity:0.897" fill="#018db1" d="M 143.5,170.5 C 145.792,170.244 147.959,170.577 150,171.5C 150.333,179.833 150.667,188.167 151,196.5C 155.131,191.525 159.965,187.525 165.5,184.5C 169.707,185.976 170.54,188.642 168,192.5C 162.985,197.348 158.152,202.348 153.5,207.5C 158.485,212.985 163.652,218.319 169,223.5C 170.261,229.08 168.094,230.913 162.5,229C 158.367,225.869 154.534,222.369 151,218.5C 150.667,221.833 150.333,225.167 150,228.5C 147.667,229.833 145.333,229.833 143,228.5C 142.18,209.093 142.347,189.76 143.5,170.5 Z"/></g>
<g><path style="opacity:0.888" fill="#018db1" d="M 193.5,183.5 C 204.253,183.366 211.92,188.032 216.5,197.5C 216.24,199.187 215.573,200.687 214.5,202C 206.833,208.333 199.167,214.667 191.5,221C 196.916,221.294 202.249,220.961 207.5,220C 210.61,224.637 209.276,227.637 203.5,229C 182.694,232.186 172.527,223.352 173,202.5C 176.208,192.12 183.042,185.787 193.5,183.5 Z M 193.5,192.5 C 198.357,192.508 202.69,194.008 206.5,197C 199.352,203.404 192.019,209.571 184.5,215.5C 178.812,204.53 181.812,196.864 193.5,192.5 Z"/></g>
<g><path style="opacity:0.886" fill="#018db1" d="M 65.5,184.5 C 83.1117,182.444 92.7784,190.111 94.5,207.5C 94.4722,217.693 89.8056,224.86 80.5,229C 56.9485,232.115 46.7818,221.949 50,198.5C 53.4922,191.834 58.6589,187.168 65.5,184.5 Z M 70.5,192.5 C 83.0829,194.238 87.9162,201.238 85,213.5C 79.5534,221.815 72.3867,223.648 63.5,219C 56.9967,213.165 55.8301,206.332 60,198.5C 62.9746,195.311 66.4746,193.311 70.5,192.5 Z"/></g>
<g><path style="opacity:0.889" fill="#018db1" d="M 114.5,184.5 C 119.179,184.334 123.845,184.501 128.5,185C 133.257,186.069 135.091,188.902 134,193.5C 132.915,194.293 131.748,194.96 130.5,195.5C 117.684,189.525 109.684,193.358 106.5,207C 109.5,220.3 117.5,224.467 130.5,219.5C 133.159,219.498 134.493,220.831 134.5,223.5C 134.61,225.374 133.944,226.874 132.5,228C 118.145,233.309 107.311,229.476 100,216.5C 95.4134,201.351 100.247,190.684 114.5,184.5 Z"/></g>
<g><path style="opacity:0.893" fill="#018db1" d="M 249.5,186.5 C 249.5,188.167 249.5,189.833 249.5,191.5C 243.051,192.164 237.551,194.83 233,199.5C 231.956,201.715 231.29,204.048 231,206.5C 230.816,214.079 230.316,221.579 229.5,229C 227.231,229.758 225.064,229.591 223,228.5C 222.333,219.5 222.333,210.5 223,201.5C 227.513,188.172 236.346,183.172 249.5,186.5 Z"/></g>
<g><path style="opacity:0.333" fill="#9ad44e" d="M 121.5,249.5 C 124.167,248.167 126.833,248.167 129.5,249.5C 126.833,249.5 124.167,249.5 121.5,249.5 Z"/></g>
</svg>
