<?xml version="1.0" encoding="UTF-8"?>
<!DOCTYPE svg PUBLIC "-//W3C//DTD SVG 1.1//EN" "http://www.w3.org/Graphics/SVG/1.1/DTD/svg11.dtd">
<svg xmlns="http://www.w3.org/2000/svg" version="1.1" width="250px" height="250px" style="shape-rendering:geometricPrecision; text-rendering:geometricPrecision; image-rendering:optimizeQuality; fill-rule:evenodd; clip-rule:evenodd" xmlns:xlink="http://www.w3.org/1999/xlink">
<g><path style="opacity:1" fill="#0563b4" d="M 123.5,-0.5 C 124.167,-0.5 124.833,-0.5 125.5,-0.5C 126.5,0.833333 127.5,2.16667 128.5,3.5C 127.05,4.6576 126.05,4.1576 125.5,2C 124.552,1.51722 123.552,1.35055 122.5,1.5C 122.833,0.833333 123.167,0.166667 123.5,-0.5 Z"/></g>
<g><path style="opacity:1" fill="#0083fe" d="M 122.5,1.5 C 123.552,1.35055 124.552,1.51722 125.5,2C 126.05,4.1576 127.05,4.6576 128.5,3.5C 137.476,12.1433 146.142,21.1433 154.5,30.5C 154.389,31.1174 154.056,31.6174 153.5,32C 156.521,35.8772 160.188,38.7105 164.5,40.5C 166.167,41.5 167.5,42.8333 168.5,44.5C 170.535,49.8683 174.202,53.535 179.5,55.5C 183.833,59.1667 187.833,63.1667 191.5,67.5C 191.525,70.179 192.858,71.5123 195.5,71.5C 195.525,74.179 196.858,75.5123 199.5,75.5C 202.5,77.8333 205.167,80.5 207.5,83.5C 207.351,84.552 207.517,85.552 208,86.5C 210.069,88.0854 212.236,89.4187 214.5,90.5C 219.139,95.4739 223.805,100.474 228.5,105.5C 230.459,109.981 233.459,113.815 237.5,117C 238.448,117.483 239.448,117.649 240.5,117.5C 241.167,117.5 241.5,117.833 241.5,118.5C 241.427,120.027 242.094,121.027 243.5,121.5C 243.053,125.932 241.719,129.932 239.5,133.5C 239.167,134.5 238.5,135.167 237.5,135.5C 233.833,135.833 231.833,137.833 231.5,141.5C 222.139,151.193 212.806,160.86 203.5,170.5C 201.801,170.527 200.467,171.194 199.5,172.5C 191.472,163.312 183.305,154.979 175,147.5C 169.337,142.334 164.17,136.668 159.5,130.5C 158.473,129.209 157.473,129.209 156.5,130.5C 156.5,129.833 156.5,129.167 156.5,128.5C 159.332,128.058 160.332,126.725 159.5,124.5C 157.529,122.192 155.529,119.858 153.5,117.5C 152.928,115.745 152.094,114.078 151,112.5C 143.194,104.694 135.36,96.8604 127.5,89C 126.552,88.5172 125.552,88.3505 124.5,88.5C 106.531,68.2538 102.031,45.2538 111,19.5C 113.758,14.9251 116.258,10.2585 118.5,5.5C 119.5,3.83333 120.833,2.5 122.5,1.5 Z"/></g>
<g><path style="opacity:0.998" fill="#005fde" d="M 118.5,5.5 C 116.258,10.2585 113.758,14.9251 111,19.5C 102.031,45.2538 106.531,68.2538 124.5,88.5C 123.833,88.5 123.5,88.8333 123.5,89.5C 120.833,92.8333 117.833,95.8333 114.5,98.5C 113.986,96.1321 112.82,94.1321 111,92.5C 110.623,93.9423 109.79,94.9423 108.5,95.5C 107.736,92.213 105.903,89.5463 103,87.5C 101.245,85.7454 99.0787,83.5787 96.5,81C 97.1667,80.6667 97.8333,80.3333 98.5,80C 89.631,71.2983 80.9644,62.465 72.5,53.5C 77.5618,48.4431 82.2285,43.1098 86.5,37.5C 96.8333,26.5 107.5,15.8333 118.5,5.5 Z"/></g>
<g><path style="opacity:1" fill="#0077da" d="M 154.5,30.5 C 158.167,33.5 161.5,36.8333 164.5,40.5C 160.188,38.7105 156.521,35.8772 153.5,32C 154.056,31.6174 154.389,31.1174 154.5,30.5 Z"/></g>
<g><path style="opacity:1" fill="#007be2" d="M 168.5,44.5 C 172.5,47.8333 176.167,51.5 179.5,55.5C 174.202,53.535 170.535,49.8683 168.5,44.5 Z"/></g>
<g><path style="opacity:0.8" fill="#114d9c" d="M 86.5,37.5 C 82.2285,43.1098 77.5618,48.4431 72.5,53.5C 70.8333,54.5 69.5,55.8333 68.5,57.5C 67.609,58.1098 66.609,58.4431 65.5,58.5C 72.1667,51.1667 79.1667,44.1667 86.5,37.5 Z"/></g>
<g><path style="opacity:1" fill="#0070ed" d="M 68.5,57.5 C 67.5868,59.0861 67.5868,60.5861 68.5,62C 67.8333,62.3333 67.1667,62.6667 66.5,63C 68.1346,63.5396 69.4679,63.0396 70.5,61.5C 71.919,65.3429 74.0857,68.6762 77,71.5C 77.3333,71.1667 77.6667,70.8333 78,70.5C 79.2118,73.7625 81.0452,76.5958 83.5,79C 81.784,83.328 83.1173,86.9947 87.5,90C 86.5494,90.7175 86.3828,91.5509 87,92.5C 89.3093,89.3422 91.476,89.1755 93.5,92C 92.4464,93.3876 92.2797,94.8876 93,96.5C 96.1103,95.3266 96.277,95.8266 93.5,98C 95.0009,99.2515 96.6675,100.252 98.5,101C 98.1667,101.333 97.8333,101.667 97.5,102C 99.1346,102.54 100.468,102.04 101.5,100.5C 102.622,101.63 103.956,102.297 105.5,102.5C 104.659,104.379 104.325,106.379 104.5,108.5C 103.833,109.833 102.833,110.833 101.5,111.5C 100.651,108.494 98.8173,107.494 96,108.5C 94.8903,106.603 94.7236,104.77 95.5,103C 94.451,102.508 93.451,102.674 92.5,103.5C 91.8333,101.833 91.1667,100.167 90.5,98.5C 89.914,98.7093 89.414,99.0426 89,99.5C 87.647,98.3147 86.4803,96.9814 85.5,95.5C 84.8076,96.0253 84.3076,96.6919 84,97.5C 82.1489,95.9601 80.9822,94.4601 80.5,93C 81.1667,92.3333 81.8333,91.6667 82.5,91C 80.1667,89.3333 78.1667,87.3333 76.5,85C 74.973,83.6321 73.473,83.1321 72,83.5C 70.1476,81.7703 70.3143,80.6036 72.5,80C 71.2513,78.1759 70.0847,78.3426 69,80.5C 68.3162,79.2161 68.4829,78.0495 69.5,77C 68.5,76.5 67.5,76 66.5,75.5C 66.1667,76.1667 65.8333,76.8333 65.5,77.5C 64.4164,76.3349 63.5831,75.0016 63,73.5C 61.8687,74.6039 61.0354,74.2705 60.5,72.5C 61.7161,71.9041 63.0494,71.7374 64.5,72C 62.7979,70.2816 60.9645,70.115 59,71.5C 58.6886,70.2575 59.1886,69.2575 60.5,68.5C 59.5022,65.9722 58.6689,65.9722 58,68.5C 57.6012,68.2716 57.4346,67.9382 57.5,67.5C 59.4593,63.8739 62.126,60.8739 65.5,58.5C 66.609,58.4431 67.609,58.1098 68.5,57.5 Z"/></g>
<g><path style="opacity:1" fill="#066cc5" d="M 191.5,67.5 C 193.167,68.5 194.5,69.8333 195.5,71.5C 192.858,71.5123 191.525,70.179 191.5,67.5 Z"/></g>
<g><path style="opacity:1" fill="#0067e6" d="M 72.5,53.5 C 80.9644,62.465 89.631,71.2983 98.5,80C 97.8333,80.3333 97.1667,80.6667 96.5,81C 99.0787,83.5787 101.245,85.7454 103,87.5C 105.903,89.5463 107.736,92.213 108.5,95.5C 107.265,97.017 107.265,98.6837 108.5,100.5C 107.643,101.425 106.643,102.092 105.5,102.5C 103.956,102.297 102.622,101.63 101.5,100.5C 100.468,102.04 99.1346,102.54 97.5,102C 97.8333,101.667 98.1667,101.333 98.5,101C 96.6675,100.252 95.0009,99.2515 93.5,98C 96.277,95.8266 96.1103,95.3266 93,96.5C 92.2797,94.8876 92.4464,93.3876 93.5,92C 91.476,89.1755 89.3093,89.3422 87,92.5C 86.3828,91.5509 86.5494,90.7175 87.5,90C 83.1173,86.9947 81.784,83.328 83.5,79C 81.0452,76.5958 79.2118,73.7625 78,70.5C 77.6667,70.8333 77.3333,71.1667 77,71.5C 74.0857,68.6762 71.919,65.3429 70.5,61.5C 69.4679,63.0396 68.1346,63.5396 66.5,63C 67.1667,62.6667 67.8333,62.3333 68.5,62C 67.5868,60.5861 67.5868,59.0861 68.5,57.5C 69.5,55.8333 70.8333,54.5 72.5,53.5 Z"/></g>
<g><path style="opacity:1" fill="#096bc3" d="M 195.5,71.5 C 197.167,72.5 198.5,73.8333 199.5,75.5C 196.858,75.5123 195.525,74.179 195.5,71.5 Z"/></g>
<g><path style="opacity:0.999" fill="#0083fd" d="M 51.5,73.5 C 51.607,75.9032 50.607,77.7365 48.5,79C 50,81.1667 51.1667,81 52,78.5C 53.3681,79.9931 53.5348,81.4931 52.5,83C 54.9965,83.5506 57.3298,85.0506 59.5,87.5C 58.6744,88.451 58.5078,89.451 59,90.5C 59.7412,89.3595 60.5745,89.3595 61.5,90.5C 62.8333,92.5 64.1667,94.5 65.5,96.5C 66.086,96.2907 66.586,95.9574 67,95.5C 67.6667,96.8333 68.3333,98.1667 69,99.5C 69.3333,99.1667 69.6667,98.8333 70,98.5C 71,100.5 72,102.5 73,104.5C 73.3333,103.833 73.6667,103.167 74,102.5C 75.7256,105.778 77.8922,107.945 80.5,109C 78.7295,109.535 78.3961,110.369 79.5,111.5C 80.4255,112.641 81.2588,112.641 82,111.5C 83.1667,113.167 84.3333,114.833 85.5,116.5C 86.324,114.252 87.324,114.086 88.5,116C 85.6345,118.403 85.8012,119.236 89,118.5C 89.6667,119.167 90.3333,119.833 91,120.5C 92.6667,118.833 94.3333,117.167 96,115.5C 96.3988,115.728 96.5654,116.062 96.5,116.5C 94.0381,119.464 91.3714,122.297 88.5,125C 93.3699,129.702 98.0366,134.535 102.5,139.5C 102.525,142.179 103.858,143.512 106.5,143.5C 106.525,146.179 107.858,147.512 110.5,147.5C 115.527,151.86 120.194,156.527 124.5,161.5C 142.895,183.365 146.561,207.699 135.5,234.5C 133.356,237.122 132.023,240.122 131.5,243.5C 129.833,245.5 128.167,247.5 126.5,249.5C 125.167,249.5 123.833,249.5 122.5,249.5C 108.167,234.833 93.8333,220.167 79.5,205.5C 79.8333,202.5 78.5,201.167 75.5,201.5C 53.2757,178.941 30.9423,156.274 8.5,133.5C 7.98791,130.653 6.98791,127.986 5.5,125.5C 6.89308,121.714 8.55975,118.047 10.5,114.5C 13.5,113.5 15.5,111.5 16.5,108.5C 19.5,108.833 20.8333,107.5 20.5,104.5C 28.9549,98.5647 36.7883,91.5647 44,83.5C 44.4828,82.552 44.6495,81.552 44.5,80.5C 46.5,77.8333 48.8333,75.5 51.5,73.5 Z"/></g>
<g><path style="opacity:1" fill="#0076d9" d="M 44.5,80.5 C 44.6495,81.552 44.4828,82.552 44,83.5C 36.7883,91.5647 28.9549,98.5647 20.5,104.5C 28.1667,96.1667 36.1667,88.1667 44.5,80.5 Z"/></g>
<g><path style="opacity:0.776" fill="#056bc4" d="M 207.5,83.5 C 210.167,85.5 212.5,87.8333 214.5,90.5C 212.236,89.4187 210.069,88.0854 208,86.5C 207.517,85.552 207.351,84.552 207.5,83.5 Z"/></g>
<g><path style="opacity:1" fill="#0660d2" d="M 114.5,98.5 C 111.5,102.167 108.167,105.5 104.5,108.5C 104.325,106.379 104.659,104.379 105.5,102.5C 106.643,102.092 107.643,101.425 108.5,100.5C 107.265,98.6837 107.265,97.017 108.5,95.5C 109.79,94.9423 110.623,93.9423 111,92.5C 112.82,94.1321 113.986,96.1321 114.5,98.5 Z"/></g>
<g><path style="opacity:1" fill="#007af7" d="M 101.5,111.5 C 100.167,113.5 98.5,115.167 96.5,116.5C 96.5654,116.062 96.3988,115.728 96,115.5C 94.3333,117.167 92.6667,118.833 91,120.5C 90.3333,119.833 89.6667,119.167 89,118.5C 85.8012,119.236 85.6345,118.403 88.5,116C 87.324,114.086 86.324,114.252 85.5,116.5C 84.3333,114.833 83.1667,113.167 82,111.5C 81.2588,112.641 80.4255,112.641 79.5,111.5C 78.3961,110.369 78.7295,109.535 80.5,109C 77.8922,107.945 75.7256,105.778 74,102.5C 73.6667,103.167 73.3333,103.833 73,104.5C 72,102.5 71,100.5 70,98.5C 69.6667,98.8333 69.3333,99.1667 69,99.5C 68.3333,98.1667 67.6667,96.8333 67,95.5C 66.586,95.9574 66.086,96.2907 65.5,96.5C 64.1667,94.5 62.8333,92.5 61.5,90.5C 60.5745,89.3595 59.7412,89.3595 59,90.5C 58.5078,89.451 58.6744,88.451 59.5,87.5C 57.3298,85.0506 54.9965,83.5506 52.5,83C 53.5348,81.4931 53.3681,79.9931 52,78.5C 51.1667,81 50,81.1667 48.5,79C 50.607,77.7365 51.607,75.9032 51.5,73.5C 53.1182,71.215 55.1182,69.215 57.5,67.5C 57.4346,67.9382 57.6012,68.2716 58,68.5C 58.6689,65.9722 59.5022,65.9722 60.5,68.5C 59.1886,69.2575 58.6886,70.2575 59,71.5C 60.9645,70.115 62.7979,70.2816 64.5,72C 63.0494,71.7374 61.7161,71.9041 60.5,72.5C 61.0354,74.2705 61.8687,74.6039 63,73.5C 63.5831,75.0016 64.4164,76.3349 65.5,77.5C 65.8333,76.8333 66.1667,76.1667 66.5,75.5C 67.5,76 68.5,76.5 69.5,77C 68.4829,78.0495 68.3162,79.2161 69,80.5C 70.0847,78.3426 71.2513,78.1759 72.5,80C 70.3143,80.6036 70.1476,81.7703 72,83.5C 73.473,83.1321 74.973,83.6321 76.5,85C 78.1667,87.3333 80.1667,89.3333 82.5,91C 81.8333,91.6667 81.1667,92.3333 80.5,93C 80.9822,94.4601 82.1489,95.9601 84,97.5C 84.3076,96.6919 84.8076,96.0253 85.5,95.5C 86.4803,96.9814 87.647,98.3147 89,99.5C 89.414,99.0426 89.914,98.7093 90.5,98.5C 91.1667,100.167 91.8333,101.833 92.5,103.5C 93.451,102.674 94.451,102.508 95.5,103C 94.7236,104.77 94.8903,106.603 96,108.5C 98.8173,107.494 100.651,108.494 101.5,111.5 Z"/></g>
<g><path style="opacity:1" fill="#007be5" d="M 123.5,89.5 C 123.5,88.8333 123.833,88.5 124.5,88.5C 125.552,88.3505 126.552,88.5172 127.5,89C 135.36,96.8604 143.194,104.694 151,112.5C 152.094,114.078 152.928,115.745 153.5,117.5C 143.827,107.828 133.827,98.4945 123.5,89.5 Z"/></g>
<g><path style="opacity:1" fill="#0a6ec7" d="M 20.5,104.5 C 20.8333,107.5 19.5,108.833 16.5,108.5C 17.5,106.833 18.8333,105.5 20.5,104.5 Z"/></g>
<g><path style="opacity:1" fill="#0077da" d="M 228.5,105.5 C 232.833,109.167 236.833,113.167 240.5,117.5C 239.448,117.649 238.448,117.483 237.5,117C 233.459,113.815 230.459,109.981 228.5,105.5 Z"/></g>
<g><path style="opacity:0.898" fill="#0d5dad" d="M 16.5,108.5 C 15.5,111.5 13.5,113.5 10.5,114.5C 12.1667,112.167 14.1667,110.167 16.5,108.5 Z"/></g>
<g><path style="opacity:0.392" fill="#075095" d="M 241.5,118.5 C 242.906,118.973 243.573,119.973 243.5,121.5C 242.094,121.027 241.427,120.027 241.5,118.5 Z"/></g>
<g><path style="opacity:0.757" fill="#0a66bb" d="M 10.5,114.5 C 8.55975,118.047 6.89308,121.714 5.5,125.5C 6.98791,127.986 7.98791,130.653 8.5,133.5C 5.44819,131.56 4.11486,128.727 4.5,125C 4.30757,120.215 6.30757,116.715 10.5,114.5 Z"/></g>
<g><path style="opacity:0.78" fill="#0f58a2" d="M 159.5,124.5 C 160.332,126.725 159.332,128.058 156.5,128.5C 157.5,127.167 158.5,125.833 159.5,124.5 Z"/></g>
<g><path style="opacity:1" fill="#026ece" d="M 243.5,121.5 C 245.532,126.514 244.199,130.514 239.5,133.5C 241.719,129.932 243.053,125.932 243.5,121.5 Z"/></g>
<g><path style="opacity:1" fill="#0e6ccc" d="M 156.5,128.5 C 156.5,129.167 156.5,129.833 156.5,130.5C 154.76,133.795 152.094,135.795 148.5,136.5C 150.833,133.5 153.5,130.833 156.5,128.5 Z"/></g>
<g><path style="opacity:1" fill="#0076d9" d="M 237.5,135.5 C 235.833,137.833 233.833,139.833 231.5,141.5C 231.833,137.833 233.833,135.833 237.5,135.5 Z"/></g>
<g><path style="opacity:1" fill="#0072f0" d="M 146.5,138.5 C 148.308,138.491 149.975,138.991 151.5,140C 150.333,142.833 151.167,143.667 154,142.5C 155.545,147.041 158.712,149.874 163.5,151C 161.343,152.085 161.176,153.251 163,154.5C 164.183,153.269 165.349,153.269 166.5,154.5C 165.359,155.425 165.359,156.259 166.5,157C 164.699,157.317 164.366,157.984 165.5,159C 166.993,160.368 168.493,160.535 170,159.5C 170.967,160.678 171.467,162.011 171.5,163.5C 172.167,162.167 172.833,160.833 173.5,159.5C 173.833,159.667 174.167,159.833 174.5,160C 173.483,161.049 173.316,162.216 174,163.5C 176.129,162.137 176.629,162.471 175.5,164.5C 177.297,166.131 178.464,168.131 179,170.5C 179.419,169.328 180.085,168.328 181,167.5C 183.237,170.657 182.737,173.157 179.5,175C 181.387,175.163 182.887,174.329 184,172.5C 187.193,175.602 189.36,179.268 190.5,183.5C 189.167,185.5 187.5,187.167 185.5,188.5C 185.249,186.83 184.582,185.33 183.5,184C 184.451,183.282 184.617,182.449 184,181.5C 183,181.5 182,181.5 181,181.5C 179.257,179.303 177.757,176.97 176.5,174.5C 176.5,175.833 176.5,177.167 176.5,178.5C 175.039,175.542 173.039,173.042 170.5,171C 171.167,170.667 171.833,170.333 172.5,170C 171.051,168.883 169.384,168.216 167.5,168C 167.5,167 167.5,166 167.5,165C 165.613,164.837 164.113,165.671 163,167.5C 162.383,166.551 162.549,165.718 163.5,165C 161.009,164.374 161.009,163.541 163.5,162.5C 162.147,161.476 161.48,160.143 161.5,158.5C 160.448,158.649 159.448,158.483 158.5,158C 155.13,154.03 152.13,150.363 149.5,147C 147.473,145.121 145.14,143.954 142.5,143.5C 143.833,141.833 145.167,140.167 146.5,138.5 Z"/></g>
<g><path style="opacity:1" fill="#0d6ac0" d="M 102.5,139.5 C 104.167,140.5 105.5,141.833 106.5,143.5C 103.858,143.512 102.525,142.179 102.5,139.5 Z"/></g>
<g><path style="opacity:1" fill="#007af7" d="M 199.5,172.5 C 196.956,173.708 195.622,175.708 195.5,178.5C 194.167,180.5 192.5,182.167 190.5,183.5C 189.36,179.268 187.193,175.602 184,172.5C 182.887,174.329 181.387,175.163 179.5,175C 182.737,173.157 183.237,170.657 181,167.5C 180.085,168.328 179.419,169.328 179,170.5C 178.464,168.131 177.297,166.131 175.5,164.5C 176.629,162.471 176.129,162.137 174,163.5C 173.316,162.216 173.483,161.049 174.5,160C 174.167,159.833 173.833,159.667 173.5,159.5C 172.833,160.833 172.167,162.167 171.5,163.5C 171.467,162.011 170.967,160.678 170,159.5C 168.493,160.535 166.993,160.368 165.5,159C 164.366,157.984 164.699,157.317 166.5,157C 165.359,156.259 165.359,155.425 166.5,154.5C 165.349,153.269 164.183,153.269 163,154.5C 161.176,153.251 161.343,152.085 163.5,151C 158.712,149.874 155.545,147.041 154,142.5C 151.167,143.667 150.333,142.833 151.5,140C 149.975,138.991 148.308,138.491 146.5,138.5C 146.833,137.5 147.5,136.833 148.5,136.5C 152.094,135.795 154.76,133.795 156.5,130.5C 157.473,129.209 158.473,129.209 159.5,130.5C 164.17,136.668 169.337,142.334 175,147.5C 183.305,154.979 191.472,163.312 199.5,172.5 Z"/></g>
<g><path style="opacity:1" fill="#0c6ac0" d="M 106.5,143.5 C 108.167,144.5 109.5,145.833 110.5,147.5C 107.858,147.512 106.525,146.179 106.5,143.5 Z"/></g>
<g><path style="opacity:1" fill="#0258c5" d="M 134.5,151.5 C 133.221,155.302 130.888,158.469 127.5,161C 126.552,161.483 125.552,161.649 124.5,161.5C 127.5,157.833 130.833,154.5 134.5,151.5 Z"/></g>
<g><path style="opacity:0.997" fill="#0060df" d="M 141.5,144.5 C 142.423,146.767 143.256,149.1 144,151.5C 146.173,148.723 146.673,148.89 145.5,152C 147.301,152.317 147.634,152.984 146.5,154C 147.849,154.772 148.682,155.939 149,157.5C 150.113,158.711 151.28,158.711 152.5,157.5C 152.533,158.989 153.033,160.322 154,161.5C 154.667,160.833 155.333,160.167 156,159.5C 155.969,161.976 155.803,164.476 155.5,167C 155.611,168.722 156.111,168.888 157,167.5C 157.273,169.101 157.773,170.601 158.5,172C 158.167,172.333 157.833,172.667 157.5,173C 160.656,175.157 163.489,177.657 166,180.5C 166.423,179.044 167.256,178.544 168.5,179C 169.257,180.512 170.257,181.846 171.5,183C 171.167,183.333 170.833,183.667 170.5,184C 174.671,185.608 178.337,188.441 181.5,192.5C 167.473,206.86 153.473,221.193 139.5,235.5C 138.041,235.567 136.708,235.234 135.5,234.5C 146.561,207.699 142.895,183.365 124.5,161.5C 125.552,161.649 126.552,161.483 127.5,161C 130.888,158.469 133.221,155.302 134.5,151.5C 136.5,148.833 138.833,146.5 141.5,144.5 Z"/></g>
<g><path style="opacity:1" fill="#006cea" d="M 142.5,143.5 C 145.14,143.954 147.473,145.121 149.5,147C 152.13,150.363 155.13,154.03 158.5,158C 159.448,158.483 160.448,158.649 161.5,158.5C 161.48,160.143 162.147,161.476 163.5,162.5C 161.009,163.541 161.009,164.374 163.5,165C 162.549,165.718 162.383,166.551 163,167.5C 164.113,165.671 165.613,164.837 167.5,165C 167.5,166 167.5,167 167.5,168C 169.384,168.216 171.051,168.883 172.5,170C 171.833,170.333 171.167,170.667 170.5,171C 173.039,173.042 175.039,175.542 176.5,178.5C 176.5,177.167 176.5,175.833 176.5,174.5C 177.757,176.97 179.257,179.303 181,181.5C 182,181.5 183,181.5 184,181.5C 184.617,182.449 184.451,183.282 183.5,184C 184.582,185.33 185.249,186.83 185.5,188.5C 184.5,190.167 183.167,191.5 181.5,192.5C 178.337,188.441 174.671,185.608 170.5,184C 170.833,183.667 171.167,183.333 171.5,183C 170.257,181.846 169.257,180.512 168.5,179C 167.256,178.544 166.423,179.044 166,180.5C 163.489,177.657 160.656,175.157 157.5,173C 157.833,172.667 158.167,172.333 158.5,172C 157.773,170.601 157.273,169.101 157,167.5C 156.111,168.888 155.611,168.722 155.5,167C 155.803,164.476 155.969,161.976 156,159.5C 155.333,160.167 154.667,160.833 154,161.5C 153.033,160.322 152.533,158.989 152.5,157.5C 151.28,158.711 150.113,158.711 149,157.5C 148.682,155.939 147.849,154.772 146.5,154C 147.634,152.984 147.301,152.317 145.5,152C 146.673,148.89 146.173,148.723 144,151.5C 143.256,149.1 142.423,146.767 141.5,144.5C 141.5,143.833 141.833,143.5 142.5,143.5 Z"/></g>
<g><path style="opacity:0.945" fill="#0469c2" d="M 203.5,170.5 C 201.167,173.5 198.5,176.167 195.5,178.5C 195.622,175.708 196.956,173.708 199.5,172.5C 200.467,171.194 201.801,170.527 203.5,170.5 Z"/></g>
<g><path style="opacity:0.835" fill="#0c6cc4" d="M 75.5,201.5 C 78.5,201.167 79.8333,202.5 79.5,205.5C 77.8333,204.5 76.5,203.167 75.5,201.5 Z"/></g>
<g><path style="opacity:1" fill="#0757c1" d="M 135.5,234.5 C 136.708,235.234 138.041,235.567 139.5,235.5C 137.167,238.5 134.5,241.167 131.5,243.5C 132.023,240.122 133.356,237.122 135.5,234.5 Z"/></g>
</svg>
