<?xml version="1.0" encoding="UTF-8"?>
<!DOCTYPE svg PUBLIC "-//W3C//DTD SVG 1.1//EN" "http://www.w3.org/Graphics/SVG/1.1/DTD/svg11.dtd">
<svg xmlns="http://www.w3.org/2000/svg" version="1.1" width="250px" height="250px" style="shape-rendering:geometricPrecision; text-rendering:geometricPrecision; image-rendering:optimizeQuality; fill-rule:evenodd; clip-rule:evenodd" xmlns:xlink="http://www.w3.org/1999/xlink">
<g><path style="opacity:0.007" fill="#000000" d="M -0.5,-0.5 C 1.83333,-0.5 4.16667,-0.5 6.5,-0.5C 6.83333,0.833333 7.16667,0.833333 7.5,-0.5C 10.5,-0.5 13.5,-0.5 16.5,-0.5C 16.8333,0.833333 17.1667,0.833333 17.5,-0.5C 22.8333,-0.5 28.1667,-0.5 33.5,-0.5C 33.8333,0.833333 34.1667,0.833333 34.5,-0.5C 58.8333,-0.5 83.1667,-0.5 107.5,-0.5C 94.4844,2.05904 81.8178,6.05904 69.5,11.5C 68.8333,11.5 68.5,11.8333 68.5,12.5C 65.8333,13.8333 63.1667,15.1667 60.5,16.5C 43.4586,15.2468 27.1253,15.2468 11.5,16.5C 10.8333,15.1667 10.1667,13.8333 9.5,12.5C 8.83333,13.5 8.16667,14.5 7.5,15.5C 6.57451,14.3595 5.74117,14.3595 5,15.5C 4.85076,12.7215 4.01743,12.2215 2.5,14C 2.83333,14.3333 3.16667,14.6667 3.5,15C 2.20677,15.49 0.873441,15.6567 -0.5,15.5C -0.5,13.8333 -0.5,12.1667 -0.5,10.5C 3.67347,10.496 7.67347,10.6627 11.5,11C 10.9288,9.79492 10.2621,8.62826 9.5,7.5C 7.5,10.1667 5.5,10.1667 3.5,7.5C 2.30441,7.84569 2.30441,8.34569 3.5,9C 2.20677,9.49001 0.873441,9.65668 -0.5,9.5C -0.5,8.16667 -0.5,6.83333 -0.5,5.5C 5.28353,4.82516 11.1169,5.15849 17,6.5C 18.3988,5.77338 19.8988,5.27338 21.5,5C 17.8484,4.50137 14.1817,4.3347 10.5,4.5C 10.719,3.32496 10.3857,2.32496 9.5,1.5C 7.5,4.16667 5.5,4.16667 3.5,1.5C 2.30441,1.84569 2.30441,2.34569 3.5,3C 2.20677,3.49001 0.873441,3.65668 -0.5,3.5C -0.5,2.16667 -0.5,0.833333 -0.5,-0.5 Z M 28.5,5.5 C 31.6399,4.35916 34.9733,4.1925 38.5,5C 35.3154,6.40087 31.9821,6.56753 28.5,5.5 Z"/></g>
<g><path style="opacity:0.991" fill="#0069b0" d="M 107.5,-0.5 C 119.167,-0.5 130.833,-0.5 142.5,-0.5C 159.028,2.56678 174.694,8.23345 189.5,16.5C 222.18,37.4996 242.18,67.1663 249.5,105.5C 249.5,117.833 249.5,130.167 249.5,142.5C 237.35,200.816 202.017,235.983 143.5,248C 85.1381,253.573 41.6381,231.073 13,180.5C -8.45973,131.568 -3.1264,85.901 29,43.5C 38.2202,32.7627 48.7202,23.7627 60.5,16.5C 63.1667,15.1667 65.8333,13.8333 68.5,12.5C 69.1667,12.5 69.5,12.1667 69.5,11.5C 81.8178,6.05904 94.4844,2.05904 107.5,-0.5 Z"/></g>
<g><path style="opacity:0.007" fill="#000000" d="M 142.5,-0.5 C 164.5,-0.5 186.5,-0.5 208.5,-0.5C 209.658,0.949785 209.158,1.94979 207,2.5C 206.517,3.44802 206.351,4.44802 206.5,5.5C 210.3,5.81942 210.466,6.81942 207,8.5C 206.517,9.44802 206.351,10.448 206.5,11.5C 208.179,11.2852 209.179,11.9519 209.5,13.5C 203.292,16.2172 196.626,17.2172 189.5,16.5C 174.694,8.23345 159.028,2.56678 142.5,-0.5 Z"/></g>
<g><path style="opacity:0.004" fill="#000000" d="M 211.5,-0.5 C 212.167,-0.5 212.833,-0.5 213.5,-0.5C 215.002,1.82932 214.336,3.16266 211.5,3.5C 211.5,2.83333 211.167,2.5 210.5,2.5C 211.11,1.60895 211.443,0.608953 211.5,-0.5 Z"/></g>
<g><path style="opacity:0.005" fill="#000000" d="M 218.5,-0.5 C 218.833,-0.5 219.167,-0.5 219.5,-0.5C 219.611,0.117425 219.944,0.617425 220.5,1C 214.997,5.81144 214.33,5.31144 218.5,-0.5 Z"/></g>
<g><path style="opacity:0.004" fill="#000000" d="M 223.5,-0.5 C 224.167,-0.5 224.833,-0.5 225.5,-0.5C 225.611,0.117425 225.944,0.617425 226.5,1C 224.333,1.83333 222.833,3.33333 222,5.5C 221.308,4.97473 220.808,4.30806 220.5,3.5C 221.91,2.43052 222.91,1.09719 223.5,-0.5 Z"/></g>
<g><path style="opacity:0.004" fill="#000000" d="M 228.5,-0.5 C 229.167,-0.5 229.833,-0.5 230.5,-0.5C 230.804,0.14987 231.137,0.816537 231.5,1.5C 230.174,2.64218 229.174,3.97551 228.5,5.5C 227.522,5.18897 226.855,4.5223 226.5,3.5C 227.853,2.4763 228.52,1.14297 228.5,-0.5 Z"/></g>
<g><path style="opacity:0.005" fill="#000000" d="M 235.5,-0.5 C 235.833,-0.5 236.167,-0.5 236.5,-0.5C 236.611,0.117425 236.944,0.617425 237.5,1C 231.997,5.81144 231.33,5.31144 235.5,-0.5 Z"/></g>
<g><path style="opacity:0.004" fill="#000000" d="M 240.5,-0.5 C 241.167,-0.5 241.833,-0.5 242.5,-0.5C 242.611,0.117425 242.944,0.617425 243.5,1C 241.333,1.83333 239.833,3.33333 239,5.5C 238.308,4.97473 237.808,4.30806 237.5,3.5C 238.91,2.43052 239.91,1.09719 240.5,-0.5 Z"/></g>
<g><path style="opacity:0.004" fill="#000000" d="M 245.5,-0.5 C 246.167,-0.5 246.833,-0.5 247.5,-0.5C 247.804,0.14987 248.137,0.816537 248.5,1.5C 247.174,2.64218 246.174,3.97551 245.5,5.5C 244.522,5.18897 243.855,4.5223 243.5,3.5C 244.853,2.4763 245.52,1.14297 245.5,-0.5 Z"/></g>
<g><path style="opacity:0.004" fill="#000000" d="M 210.5,2.5 C 211.167,2.5 211.5,2.83333 211.5,3.5C 211.5,4.16667 211.5,4.83333 211.5,5.5C 209.618,4.77896 209.285,3.77896 210.5,2.5 Z"/></g>
<g><path style="opacity:0.004" fill="#000000" d="M 211.5,5.5 C 212.95,4.3424 213.95,4.8424 214.5,7C 209.876,11.8586 208.876,11.3586 211.5,5.5 Z"/></g>
<g><path style="opacity:0.004" fill="#000000" d="M 223.5,4.5 C 224.643,4.90814 225.643,5.57481 226.5,6.5C 220.723,11.7154 219.723,11.0487 223.5,4.5 Z"/></g>
<g><path style="opacity:0.004" fill="#000000" d="M 228.5,5.5 C 229.95,4.3424 230.95,4.8424 231.5,7C 226.876,11.8586 225.876,11.3586 228.5,5.5 Z"/></g>
<g><path style="opacity:0.004" fill="#000000" d="M 240.5,4.5 C 241.643,4.90814 242.643,5.57481 243.5,6.5C 237.723,11.7154 236.723,11.0487 240.5,4.5 Z"/></g>
<g><path style="opacity:0.004" fill="#000000" d="M 245.5,5.5 C 246.95,4.3424 247.95,4.8424 248.5,7C 243.876,11.8586 242.876,11.3586 245.5,5.5 Z"/></g>
<g><path style="opacity:0.005" fill="#000000" d="M 217.5,5.5 C 218.675,5.28099 219.675,5.61432 220.5,6.5C 216.14,10.8195 215.14,10.4862 217.5,5.5 Z"/></g>
<g><path style="opacity:0.005" fill="#000000" d="M 234.5,5.5 C 235.675,5.28099 236.675,5.61432 237.5,6.5C 233.14,10.8195 232.14,10.4862 234.5,5.5 Z"/></g>
<g><path style="opacity:0.004" fill="#000000" d="M 209.5,13.5 C 211.074,13.0629 212.241,12.0629 213,10.5C 213.692,11.0253 214.192,11.6919 214.5,12.5C 213.234,13.7236 212.067,15.0569 211,16.5C 209.961,15.7562 209.461,14.7562 209.5,13.5 Z"/></g>
<g><path style="opacity:0.004" fill="#000000" d="M 226.5,13.5 C 220.265,17.4296 219.432,16.4296 224,10.5C 225.417,11.0779 226.25,12.0779 226.5,13.5 Z"/></g>
<g><path style="opacity:0.004" fill="#000000" d="M 226.5,13.5 C 228.074,13.0629 229.241,12.0629 230,10.5C 230.692,11.0253 231.192,11.6919 231.5,12.5C 230.234,13.7236 229.067,15.0569 228,16.5C 226.961,15.7562 226.461,14.7562 226.5,13.5 Z"/></g>
<g><path style="opacity:0.004" fill="#000000" d="M 243.5,13.5 C 237.265,17.4296 236.432,16.4296 241,10.5C 242.417,11.0779 243.25,12.0779 243.5,13.5 Z"/></g>
<g><path style="opacity:0.004" fill="#000000" d="M 243.5,13.5 C 245.074,13.0629 246.241,12.0629 247,10.5C 247.692,11.0253 248.192,11.6919 248.5,12.5C 247.234,13.7236 246.067,15.0569 245,16.5C 243.961,15.7562 243.461,14.7562 243.5,13.5 Z"/></g>
<g><path style="opacity:0.004" fill="#000000" d="M 216.5,11.5 C 221.45,11.9934 221.45,13.3267 216.5,15.5C 215.708,14.3002 215.708,12.9669 216.5,11.5 Z"/></g>
<g><path style="opacity:0.004" fill="#000000" d="M 233.5,11.5 C 238.45,11.9934 238.45,13.3267 233.5,15.5C 232.708,14.3002 232.708,12.9669 233.5,11.5 Z"/></g>
<g><path style="opacity:1" fill="#2ccef5" d="M 110.5,44.5 C 111.239,44.369 111.906,44.5357 112.5,45C 104.554,56.9621 101.721,70.1287 104,84.5C 113.654,121.923 137.82,139.09 176.5,136C 188.566,133.883 199.066,128.717 208,120.5C 197.653,137.951 182.153,147.784 161.5,150C 128.614,151.105 106.448,136.271 95,105.5C 91.0311,91.1293 92.0311,77.1293 98,63.5C 101.603,56.7428 105.77,50.4094 110.5,44.5 Z"/></g>
<g><path style="opacity:1" fill="#2fcef5" d="M 143.5,46.5 C 144.043,46.56 144.376,46.8933 144.5,47.5C 137.553,64.8802 141.22,79.7135 155.5,92C 171.097,101.314 186.097,100.481 200.5,89.5C 197.951,95.5419 193.285,100.042 186.5,103C 165.646,110.827 149.479,105.327 138,86.5C 131.946,71.9577 133.779,58.6244 143.5,46.5 Z"/></g>
<g><path style="opacity:1" fill="#2ccef5" d="M 70.5,57.5 C 71.2389,57.369 71.9056,57.5357 72.5,58C 59.2588,80.3865 57.0921,103.886 66,128.5C 83.3089,167.748 113.476,185.914 156.5,183C 174.881,180.725 190.714,173.225 204,160.5C 190.72,182.435 171.22,195.935 145.5,201C 97.816,205.256 65.6493,185.089 49,140.5C 44.6166,121.052 45.9499,102.052 53,83.5C 58.1003,74.2868 63.9336,65.6201 70.5,57.5 Z"/></g>
</svg>
