<?xml version="1.0" encoding="UTF-8"?>
<!DOCTYPE svg PUBLIC "-//W3C//DTD SVG 1.1//EN" "http://www.w3.org/Graphics/SVG/1.1/DTD/svg11.dtd">
<svg xmlns="http://www.w3.org/2000/svg" version="1.1" width="250px" height="250px" style="shape-rendering:geometricPrecision; text-rendering:geometricPrecision; image-rendering:optimizeQuality; fill-rule:evenodd; clip-rule:evenodd" xmlns:xlink="http://www.w3.org/1999/xlink">
<g><path style="opacity:1" fill="#f7db3e" d="M -0.5,-0.5 C 82.1667,-0.5 164.833,-0.5 247.5,-0.5C 247.5,82.8333 247.5,166.167 247.5,249.5C 164.833,249.5 82.1667,249.5 -0.5,249.5C -0.5,166.167 -0.5,82.8333 -0.5,-0.5 Z"/></g>
<g><path style="opacity:1" fill="#f9e160" d="M 247.5,-0.5 C 248.167,-0.5 248.833,-0.5 249.5,-0.5C 249.5,82.8333 249.5,166.167 249.5,249.5C 248.833,249.5 248.167,249.5 247.5,249.5C 247.5,166.167 247.5,82.8333 247.5,-0.5 Z"/></g>
<g><path style="opacity:1" fill="#30312c" d="M 177.5,112.5 C 191.103,110.28 203.436,113.113 214.5,121C 217.026,124.026 219.36,127.193 221.5,130.5C 215.903,134.548 210.07,138.215 204,141.5C 199.046,134.181 192.212,131.348 183.5,133C 177.831,135.815 175.998,140.315 178,146.5C 178.707,148.081 179.54,149.581 180.5,151C 192.323,156.745 203.99,162.745 215.5,169C 229.983,182.047 232.483,197.213 223,214.5C 211.067,226.75 196.567,231.25 179.5,228C 165.377,225.371 154.71,217.871 147.5,205.5C 152.921,201.259 158.755,197.592 165,194.5C 168.154,196.938 170.987,199.771 173.5,203C 181.284,207.79 189.618,208.79 198.5,206C 206.827,200.391 207.493,194.058 200.5,187C 189.658,182.05 178.992,176.717 168.5,171C 156.743,162.078 152.243,150.244 155,135.5C 158.649,124.018 166.149,116.351 177.5,112.5 Z"/></g>
<g><path style="opacity:1" fill="#31332c" d="M 110.5,113.5 C 118.5,113.5 126.5,113.5 134.5,113.5C 134.953,143.87 134.453,174.203 133,204.5C 127.772,221.219 116.272,229.219 98.5,228.5C 82.7052,228.608 71.3719,221.608 64.5,207.5C 70.1663,203.331 76.1663,199.665 82.5,196.5C 85.496,200.329 88.8294,203.829 92.5,207C 97.2574,207.81 101.924,207.476 106.5,206C 107.701,205.097 108.535,203.931 109,202.5C 110.476,172.897 110.976,143.23 110.5,113.5 Z"/></g>
</svg>
