<?xml version="1.0" encoding="UTF-8"?>
<!DOCTYPE svg PUBLIC "-//W3C//DTD SVG 1.1//EN" "http://www.w3.org/Graphics/SVG/1.1/DTD/svg11.dtd">
<svg xmlns="http://www.w3.org/2000/svg" version="1.1" width="250px" height="250px" style="shape-rendering:geometricPrecision; text-rendering:geometricPrecision; image-rendering:optimizeQuality; fill-rule:evenodd; clip-rule:evenodd" xmlns:xlink="http://www.w3.org/1999/xlink">
<g><path style="opacity:0.993" fill="#00d0cb" d="M 107.5,-0.5 C 107.833,-0.5 108.167,-0.5 108.5,-0.5C 108.5,30.8333 108.5,62.1667 108.5,93.5C 97.8281,93.3335 87.1615,93.5002 76.5,94C 89.0068,94.1692 101.34,94.6692 113.5,95.5C 101.167,95.5 88.8333,95.5 76.5,95.5C 76.5,114.167 76.5,132.833 76.5,151.5C 89.1667,151.5 101.833,151.5 114.5,151.5C 102.007,152.331 89.34,152.831 76.5,153C 87.1615,153.5 97.8281,153.667 108.5,153.5C 108.5,185.167 108.5,216.833 108.5,248.5C 83.6568,245.568 61.9901,235.901 43.5,219.5C 43.543,184.37 43.543,149.704 43.5,115.5C 56.4435,135.067 70.1102,154.067 84.5,172.5C 70.1928,150.518 55.8595,128.518 41.5,106.5C 41.81,105.262 42.31,105.262 43,106.5C 43.5,80.8355 43.6666,55.1688 43.5,29.5C 61.805,13.1696 83.1383,3.16962 107.5,-0.5 Z"/></g>
<g><path style="opacity:0.97" fill="#00cbc6" d="M 43.5,29.5 C 43.6666,55.1688 43.5,80.8355 43,106.5C 42.31,105.262 41.81,105.262 41.5,106.5C 38.7324,103.158 36.0657,99.6584 33.5,96C 32.2068,95.51 30.8734,95.3433 29.5,95.5C 29.5,114.167 29.5,132.833 29.5,151.5C 30.5,151.5 31.5,151.5 32.5,151.5C 32.3334,134.497 32.5001,117.497 33,100.5C 36.7199,105.38 40.2199,110.38 43.5,115.5C 43.543,149.704 43.543,184.37 43.5,219.5C 18.9096,198.321 4.24297,171.655 -0.5,139.5C -0.5,129.167 -0.5,118.833 -0.5,108.5C 3.76093,82.9762 14.2609,60.3095 31,40.5C 34.7615,36.23 38.9281,32.5633 43.5,29.5 Z"/></g>
<g><path style="opacity:0.979" fill="#5eddd9" d="M 210.5,33.5 C 231.919,53.6693 244.919,78.336 249.5,107.5C 249.5,118.5 249.5,129.5 249.5,140.5C 244.763,168.807 232.43,193.307 212.5,214C 211.906,214.464 211.239,214.631 210.5,214.5C 210.5,192.5 210.5,170.5 210.5,148.5C 212.099,148.768 213.432,148.434 214.5,147.5C 216.673,143.76 217.006,139.76 215.5,135.5C 214.513,138.768 214.18,142.102 214.5,145.5C 212.435,145.483 210.435,145.15 208.5,144.5C 210.484,107.721 211.151,70.7209 210.5,33.5 Z"/></g>
<g><path style="opacity:1" fill="#071312" d="M 174.5,73.5 C 163.638,90.0456 152.638,106.546 141.5,123C 147.916,132.492 154.582,141.826 161.5,151C 158.114,151.881 155.78,150.714 154.5,147.5C 149.407,140.312 144.073,133.312 138.5,126.5C 132.147,134.193 126.147,142.193 120.5,150.5C 118.926,151.631 117.259,151.798 115.5,151C 122.378,141.411 129.378,131.911 136.5,122.5C 130.167,113.833 123.833,105.167 117.5,96.5C 119.006,95.2528 120.506,95.2528 122,96.5C 127.01,104.519 132.51,112.186 138.5,119.5C 143.497,112.842 148.497,106.175 153.5,99.5C 160.511,90.794 167.511,82.1273 174.5,73.5 Z"/></g>
<g><path style="opacity:1" fill="#040f0e" d="M 41.5,106.5 C 55.8595,128.518 70.1928,150.518 84.5,172.5C 70.1102,154.067 56.4435,135.067 43.5,115.5C 40.2199,110.38 36.7199,105.38 33,100.5C 32.5001,117.497 32.3334,134.497 32.5,151.5C 31.5,151.5 30.5,151.5 29.5,151.5C 29.5,132.833 29.5,114.167 29.5,95.5C 30.8734,95.3433 32.2068,95.51 33.5,96C 36.0657,99.6584 38.7324,103.158 41.5,106.5 Z"/></g>
<g><path style="opacity:1" fill="#000303" d="M 113.5,95.5 C 113.5,96.5 113.5,97.5 113.5,98.5C 102.167,98.5 90.8333,98.5 79.5,98.5C 79.5,106.167 79.5,113.833 79.5,121.5C 90.1667,121.5 100.833,121.5 111.5,121.5C 111.5,122.167 111.5,122.833 111.5,123.5C 100.833,123.5 90.1667,123.5 79.5,123.5C 79.5,131.833 79.5,140.167 79.5,148.5C 91.1667,148.5 102.833,148.5 114.5,148.5C 114.5,149.5 114.5,150.5 114.5,151.5C 101.833,151.5 89.1667,151.5 76.5,151.5C 76.5,132.833 76.5,114.167 76.5,95.5C 88.8333,95.5 101.167,95.5 113.5,95.5 Z"/></g>
<g><path style="opacity:1" fill="#091616" d="M 163.5,95.5 C 177.5,95.5 191.5,95.5 205.5,95.5C 205.5,96.5 205.5,97.5 205.5,98.5C 199.167,98.5 192.833,98.5 186.5,98.5C 186.5,116.167 186.5,133.833 186.5,151.5C 185.167,151.5 183.833,151.5 182.5,151.5C 182.5,134.167 182.5,116.833 182.5,99.5C 176.021,98.5093 169.354,98.176 162.5,98.5C 162.263,97.209 162.596,96.209 163.5,95.5 Z"/></g>
<g><path style="opacity:1" fill="#008e8a" d="M 113.5,98.5 C 102.679,99.4946 91.6794,99.8279 80.5,99.5C 80.5,106.5 80.5,113.5 80.5,120.5C 91.0135,120.172 101.347,120.506 111.5,121.5C 100.833,121.5 90.1667,121.5 79.5,121.5C 79.5,113.833 79.5,106.167 79.5,98.5C 90.8333,98.5 102.167,98.5 113.5,98.5 Z"/></g>
<g><path style="opacity:0.994" fill="#2fd8d3" d="M 152.5,2.5 C 165.945,4.97629 178.278,9.97629 189.5,17.5C 188.502,42.6612 188.169,67.9945 188.5,93.5C 194.176,93.3339 199.843,93.5006 205.5,94C 191.327,94.1689 177.327,94.6689 163.5,95.5C 162.596,96.209 162.263,97.209 162.5,98.5C 169.354,98.176 176.021,98.5093 182.5,99.5C 176.158,99.3338 169.825,99.5005 163.5,100C 169.157,100.499 174.824,100.666 180.5,100.5C 181.082,145.498 181.416,190.498 181.5,235.5C 172.432,240.526 162.765,244.193 152.5,246.5C 152.333,213.832 152.5,181.165 153,148.5C 153.383,147.944 153.883,147.611 154.5,147.5C 155.78,150.714 158.114,151.881 161.5,151C 154.582,141.826 147.916,132.492 141.5,123C 152.638,106.546 163.638,90.0456 174.5,73.5C 167.511,82.1273 160.511,90.794 153.5,99.5C 152.502,67.3376 152.168,35.0043 152.5,2.5 Z"/></g>
<g><path style="opacity:1" fill="#114e4c" d="M 174.5,73.5 C 175.48,70.8839 176.98,68.5506 179,66.5C 178.546,69.386 177.046,71.7194 174.5,73.5 Z"/></g>
<g><path style="opacity:0.996" fill="#48dbd6" d="M 189.5,17.5 C 197.408,21.6228 204.408,26.9562 210.5,33.5C 211.151,70.7209 210.484,107.721 208.5,144.5C 209.687,146.975 211.687,147.975 214.5,147.5C 213.432,148.434 212.099,148.768 210.5,148.5C 210.5,170.5 210.5,192.5 210.5,214.5C 202.279,223.371 192.613,230.371 181.5,235.5C 181.416,190.498 181.082,145.498 180.5,100.5C 174.824,100.666 169.157,100.499 163.5,100C 169.825,99.5005 176.158,99.3338 182.5,99.5C 182.5,116.833 182.5,134.167 182.5,151.5C 183.833,151.5 185.167,151.5 186.5,151.5C 186.5,133.833 186.5,116.167 186.5,98.5C 192.833,98.5 199.167,98.5 205.5,98.5C 205.5,97.5 205.5,96.5 205.5,95.5C 191.5,95.5 177.5,95.5 163.5,95.5C 177.327,94.6689 191.327,94.1689 205.5,94C 199.843,93.5006 194.176,93.3339 188.5,93.5C 188.169,67.9945 188.502,42.6612 189.5,17.5 Z"/></g>
<g><path style="opacity:1" fill="#02d5d0" d="M 108.5,-0.5 C 119.5,-0.5 130.5,-0.5 141.5,-0.5C 145.231,0.22477 148.898,1.22477 152.5,2.5C 152.168,35.0043 152.502,67.3376 153.5,99.5C 148.497,106.175 143.497,112.842 138.5,119.5C 132.51,112.186 127.01,104.519 122,96.5C 120.506,95.2528 119.006,95.2528 117.5,96.5C 123.833,105.167 130.167,113.833 136.5,122.5C 129.378,131.911 122.378,141.411 115.5,151C 117.259,151.798 118.926,151.631 120.5,150.5C 126.147,142.193 132.147,134.193 138.5,126.5C 144.073,133.312 149.407,140.312 154.5,147.5C 153.883,147.611 153.383,147.944 153,148.5C 152.5,181.165 152.333,213.832 152.5,246.5C 148.025,247.392 143.692,248.392 139.5,249.5C 129.5,249.5 119.5,249.5 109.5,249.5C 109.5,248.833 109.167,248.5 108.5,248.5C 108.5,216.833 108.5,185.167 108.5,153.5C 97.8281,153.667 87.1615,153.5 76.5,153C 89.34,152.831 102.007,152.331 114.5,151.5C 114.5,150.5 114.5,149.5 114.5,148.5C 103.346,147.505 92.0123,147.172 80.5,147.5C 80.5,139.833 80.5,132.167 80.5,124.5C 91.0135,124.828 101.347,124.494 111.5,123.5C 111.5,122.833 111.5,122.167 111.5,121.5C 101.347,120.506 91.0135,120.172 80.5,120.5C 80.5,113.5 80.5,106.5 80.5,99.5C 91.6794,99.8279 102.679,99.4946 113.5,98.5C 113.5,97.5 113.5,96.5 113.5,95.5C 101.34,94.6692 89.0068,94.1692 76.5,94C 87.1615,93.5002 97.8281,93.3335 108.5,93.5C 108.5,62.1667 108.5,30.8333 108.5,-0.5 Z"/></g>
<g><path style="opacity:1" fill="#0f1b1a" d="M 214.5,147.5 C 211.687,147.975 209.687,146.975 208.5,144.5C 210.435,145.15 212.435,145.483 214.5,145.5C 214.18,142.102 214.513,138.768 215.5,135.5C 217.006,139.76 216.673,143.76 214.5,147.5 Z"/></g>
<g><path style="opacity:1" fill="#111f1e" d="M 220.5,135.5 C 222.527,135.338 224.527,135.505 226.5,136C 227.711,136.893 227.711,137.726 226.5,138.5C 225.15,137.05 223.484,136.383 221.5,136.5C 221.5,137.833 221.5,139.167 221.5,140.5C 226.663,140.107 228.33,142.273 226.5,147C 223.351,148.035 220.684,147.368 218.5,145C 220.841,145.557 223.174,145.39 225.5,144.5C 223.434,143.094 221.268,141.76 219,140.5C 218.387,138.505 218.887,136.838 220.5,135.5 Z"/></g>
<g><path style="opacity:1" fill="#000000" d="M 204.5,145.5 C 206.337,145.639 206.67,146.306 205.5,147.5C 204.702,147.043 204.369,146.376 204.5,145.5 Z"/></g>
<g><path style="opacity:1" fill="#009f9b" d="M 111.5,123.5 C 101.347,124.494 91.0135,124.828 80.5,124.5C 80.5,132.167 80.5,139.833 80.5,147.5C 92.0123,147.172 103.346,147.505 114.5,148.5C 102.833,148.5 91.1667,148.5 79.5,148.5C 79.5,140.167 79.5,131.833 79.5,123.5C 90.1667,123.5 100.833,123.5 111.5,123.5 Z"/></g>
<g><path style="opacity:1" fill="#024d4b" d="M 84.5,172.5 C 87.0462,174.281 88.5462,176.614 89,179.5C 86.9798,177.449 85.4798,175.116 84.5,172.5 Z"/></g>
</svg>
