<?xml version="1.0" encoding="UTF-8"?>
<!DOCTYPE svg PUBLIC "-//W3C//DTD SVG 1.1//EN" "http://www.w3.org/Graphics/SVG/1.1/DTD/svg11.dtd">
<svg xmlns="http://www.w3.org/2000/svg" version="1.1" width="250px" height="250px" style="shape-rendering:geometricPrecision; text-rendering:geometricPrecision; image-rendering:optimizeQuality; fill-rule:evenodd; clip-rule:evenodd" xmlns:xlink="http://www.w3.org/1999/xlink">
<g><path style="opacity:0.004" fill="#5fd5f5" d="M 69.5,6.5 C 69.5,7.16667 69.5,7.83333 69.5,8.5C 64.1473,9.72622 59.1473,11.7262 54.5,14.5C 54.5,13.8333 54.5,13.1667 54.5,12.5C 58.8943,9.1413 63.8943,7.1413 69.5,6.5 Z"/></g>
<g><path style="opacity:0.004" fill="#5ac8e5" d="M 69.5,6.5 C 73.1667,6.5 76.8333,6.5 80.5,6.5C 80.5,7.16667 80.5,7.83333 80.5,8.5C 76.8333,8.5 73.1667,8.5 69.5,8.5C 69.5,7.83333 69.5,7.16667 69.5,6.5 Z"/></g>
<g><path style="opacity:0.004" fill="#5ac5e3" d="M 167.5,6.5 C 171.167,6.5 174.833,6.5 178.5,6.5C 178.5,7.16667 178.5,7.83333 178.5,8.5C 174.833,8.5 171.167,8.5 167.5,8.5C 167.5,7.83333 167.5,7.16667 167.5,6.5 Z"/></g>
<g><path style="opacity:0.004" fill="#60d5f4" d="M 178.5,6.5 C 187.732,7.77696 195.066,12.1103 200.5,19.5C 199.5,19.5 198.5,19.5 197.5,19.5C 192.585,13.5374 186.251,9.87071 178.5,8.5C 178.5,7.83333 178.5,7.16667 178.5,6.5 Z"/></g>
<g><path style="opacity:0.004" fill="#5fd5f4" d="M 80.5,6.5 C 92.903,8.62495 103.903,13.625 113.5,21.5C 113.5,22.5 113.5,23.5 113.5,24.5C 103.719,16.7769 92.7191,11.4436 80.5,8.5C 80.5,7.83333 80.5,7.16667 80.5,6.5 Z"/></g>
<g><path style="opacity:0.004" fill="#5ac9e7" d="M 54.5,12.5 C 54.5,13.1667 54.5,13.8333 54.5,14.5C 51.4229,17.5693 48.7563,20.9026 46.5,24.5C 45.8333,24.5 45.1667,24.5 44.5,24.5C 46.7328,19.599 50.0661,15.599 54.5,12.5 Z"/></g>
<g><path style="opacity:0.004" fill="#5ac6e2" d="M 197.5,19.5 C 198.5,19.5 199.5,19.5 200.5,19.5C 202.025,21.2163 203.025,23.2163 203.5,25.5C 202.833,25.5 202.167,25.5 201.5,25.5C 200.18,23.5368 198.846,21.5368 197.5,19.5 Z"/></g>
<g><path style="opacity:0.004" fill="#5ed3f2" d="M 167.5,6.5 C 167.5,7.16667 167.5,7.83333 167.5,8.5C 153.606,11.946 141.273,18.2793 130.5,27.5C 130.5,26.5 130.5,25.5 130.5,24.5C 141.053,15.058 153.386,9.05798 167.5,6.5 Z"/></g>
<g><path style="opacity:0.992" fill="#60dafb" d="M 137.5,30.5 C 133.674,35.2085 131.008,40.2085 129.5,45.5C 129.514,47.8404 129.514,50.1737 129.5,52.5C 125.013,53.8054 120.513,53.8054 116,52.5C 114.133,53.3767 112.966,54.8767 112.5,57C 111.255,57.7914 109.922,58.2914 108.5,58.5C 111.04,55.2717 113.707,52.1051 116.5,49C 106.416,38.9138 94.749,31.2472 81.5,26C 71.401,22.77 64.401,25.9367 60.5,35.5C 58.0162,39.1656 55.8496,43.1656 54,47.5C 53,46.1667 52,44.8333 51,43.5C 50.6667,43.8333 50.3333,44.1667 50,44.5C 50.6201,37.6873 52.1201,31.0206 54.5,24.5C 61.6187,15.2928 70.952,12.1261 82.5,15C 98.5108,20.4221 112.344,29.2555 124,41.5C 127.813,36.8397 132.313,33.173 137.5,30.5 Z"/></g>
<g><path style="opacity:0.004" fill="#57c0dd" d="M 113.5,21.5 C 114.5,22.1667 115.5,22.8333 116.5,23.5C 116.5,24.5 116.5,25.5 116.5,26.5C 115.29,26.0679 114.29,25.4013 113.5,24.5C 113.5,23.5 113.5,22.5 113.5,21.5 Z"/></g>
<g><path style="opacity:0.993" fill="#60dafb" d="M 195.5,28.5 C 197.156,34.3638 197.823,40.3638 197.5,46.5C 196.07,46.4208 194.736,46.7542 193.5,47.5C 192.032,44.8464 190.365,42.513 188.5,40.5C 186.645,27.4919 179.312,22.6585 166.5,26C 161.601,27.4491 156.935,29.4491 152.5,32C 146.167,37 139.833,42 133.5,47C 132.483,48.0495 132.316,49.2161 133,50.5C 139.789,58.1094 145.956,66.1094 151.5,74.5C 153.675,76.4165 156.342,77.7499 159.5,78.5C 159.291,79.086 158.957,79.586 158.5,80C 156.687,79.9536 155.021,80.1203 153.5,80.5C 146.615,75.5648 139.615,70.8981 132.5,66.5C 129.899,63.3957 127.066,60.3957 124,57.5C 119.948,62.7168 115.448,67.3834 110.5,71.5C 110.167,71.5 109.833,71.5 109.5,71.5C 108.127,71.3433 106.793,71.51 105.5,72C 101.387,77.3118 96.0536,80.1452 89.5,80.5C 89.5,79.5 89.5,78.5 89.5,77.5C 92.0101,77.9465 94.0101,77.2798 95.5,75.5C 99.4811,69.5247 103.814,63.8581 108.5,58.5C 109.922,58.2914 111.255,57.7914 112.5,57C 112.966,54.8767 114.133,53.3767 116,52.5C 120.513,53.8054 125.013,53.8054 129.5,52.5C 129.514,50.1737 129.514,47.8404 129.5,45.5C 131.008,40.2085 133.674,35.2085 137.5,30.5C 149.341,18.5859 163.675,13.4193 180.5,15C 187.587,17.2566 192.587,21.7566 195.5,28.5 Z M 132.5,66.5 C 133.912,68.9801 135.578,71.3134 137.5,73.5C 128.542,73.1763 119.542,73.5096 110.5,74.5C 110.5,73.5 110.5,72.5 110.5,71.5C 115.448,67.3834 119.948,62.7168 124,57.5C 127.066,60.3957 129.899,63.3957 132.5,66.5 Z"/></g>
<g><path style="opacity:0.005" fill="#5fd7f6" d="M 116.5,23.5 C 118.73,25.5345 121.23,27.2012 124,28.5C 126.571,27.75 128.738,26.4167 130.5,24.5C 130.5,25.5 130.5,26.5 130.5,27.5C 128.211,29.448 125.878,31.448 123.5,33.5C 121.327,30.932 118.994,28.5987 116.5,26.5C 116.5,25.5 116.5,24.5 116.5,23.5 Z"/></g>
<g><path style="opacity:0.004" fill="#5fd5f5" d="M 181.5,36.5 C 180.167,36.5 178.833,36.5 177.5,36.5C 173.035,34.0357 168.368,33.8691 163.5,36C 157.459,39.3483 151.792,43.1817 146.5,47.5C 146.5,46.5 146.5,45.5 146.5,44.5C 154.643,35.9295 164.643,31.4295 176.5,31C 178.345,32.678 180.012,34.5113 181.5,36.5 Z"/></g>
<g><path style="opacity:0.004" fill="#5ed4f4" d="M 101.5,44.5 C 101.5,45.5 101.5,46.5 101.5,47.5C 95.5159,42.3708 88.8492,38.2041 81.5,35C 73.6454,32.7006 68.9787,35.534 67.5,43.5C 66.5,43.5 65.5,43.5 64.5,43.5C 64.9652,39.9385 66.1319,36.6051 68,33.5C 69.722,31.5559 71.8887,30.5559 74.5,30.5C 85.103,32.2998 94.103,36.9665 101.5,44.5 Z"/></g>
<g><path style="opacity:0.005" fill="#56bed8" d="M 177.5,36.5 C 178.833,36.5 180.167,36.5 181.5,36.5C 181.833,37.1667 182.167,37.8333 182.5,38.5C 181.5,38.5 180.5,38.5 179.5,38.5C 178.5,38.1667 177.833,37.5 177.5,36.5 Z"/></g>
<g><path style="opacity:0.97" fill="#60d7f8" d="M 195.5,28.5 C 199.664,35.8433 201.331,43.8433 200.5,52.5C 200.361,62.9969 199.028,73.3303 196.5,83.5C 195.848,82.5514 195.514,81.3847 195.5,80C 197.136,72.9308 197.803,65.7641 197.5,58.5C 194.675,58.1616 192.508,59.1616 191,61.5C 190.413,67.8494 188.913,73.8494 186.5,79.5C 189.268,66.5771 189.935,53.5771 188.5,40.5C 190.365,42.513 192.032,44.8464 193.5,47.5C 194.736,46.7542 196.07,46.4208 197.5,46.5C 197.823,40.3638 197.156,34.3638 195.5,28.5 Z"/></g>
<g><path style="opacity:0.004" fill="#58c7e4" d="M 101.5,44.5 C 102.71,44.9321 103.71,45.5987 104.5,46.5C 104.771,48.3797 104.104,49.713 102.5,50.5C 102.443,49.391 102.11,48.391 101.5,47.5C 101.5,46.5 101.5,45.5 101.5,44.5 Z"/></g>
<g><path style="opacity:0.004" fill="#59c5e1" d="M 146.5,44.5 C 146.5,45.5 146.5,46.5 146.5,47.5C 145.89,48.391 145.557,49.391 145.5,50.5C 143.896,49.713 143.229,48.3797 143.5,46.5C 144.29,45.5987 145.29,44.9321 146.5,44.5 Z"/></g>
<g><path style="opacity:0.004" fill="#5fd6f6" d="M 201.5,25.5 C 202.167,25.5 202.833,25.5 203.5,25.5C 206.659,31.6712 208.493,38.3379 209,45.5C 209.726,50.5523 209.559,55.5523 208.5,60.5C 207.833,60.5 207.167,60.5 206.5,60.5C 207.347,48.4265 205.68,36.7599 201.5,25.5 Z"/></g>
<g><path style="opacity:0.004" fill="#5fd6f6" d="M 179.5,38.5 C 180.5,38.5 181.5,38.5 182.5,38.5C 183.434,46.111 183.767,53.7777 183.5,61.5C 182.5,61.5 181.5,61.5 180.5,61.5C 180.731,53.7911 180.398,46.1244 179.5,38.5 Z"/></g>
<g><path style="opacity:0.004" fill="#5fd8f9" d="M 64.5,43.5 C 65.5,43.5 66.5,43.5 67.5,43.5C 67.5,49.8333 67.5,56.1667 67.5,62.5C 66.5,62.5 65.5,62.5 64.5,62.5C 64.5,56.1667 64.5,49.8333 64.5,43.5 Z"/></g>
<g><path style="opacity:0.006" fill="#5dd3f3" d="M 104.5,46.5 C 105.962,47.4577 107.295,48.6244 108.5,50C 106.297,52.3722 103.963,54.5389 101.5,56.5C 100.5,56.5 99.5,56.5 98.5,56.5C 100.252,54.7541 101.585,52.7541 102.5,50.5C 104.104,49.713 104.771,48.3797 104.5,46.5 Z"/></g>
<g><path style="opacity:0.004" fill="#5bc6e3" d="M 98.5,56.5 C 99.5,56.5 100.5,56.5 101.5,56.5C 100.585,58.7541 99.2516,60.7541 97.5,62.5C 96.5,62.5 95.5,62.5 94.5,62.5C 95.4411,60.2279 96.7745,58.2279 98.5,56.5 Z"/></g>
<g><path style="opacity:0.005" fill="#5dd2f2" d="M 143.5,46.5 C 143.229,48.3797 143.896,49.713 145.5,50.5C 147.485,54.4556 149.985,58.1223 153,61.5C 154.704,63.3734 156.537,65.0401 158.5,66.5C 158.5,67.8333 158.5,69.1667 158.5,70.5C 156.284,69.7974 154.451,68.4641 153,66.5C 149.098,60.5407 144.598,55.0407 139.5,50C 140.705,48.6244 142.038,47.4577 143.5,46.5 Z"/></g>
<g><path style="opacity:0.004" fill="#5dd0ef" d="M 180.5,61.5 C 181.5,61.5 182.5,61.5 183.5,61.5C 183.016,65.232 182.349,68.8987 181.5,72.5C 180.167,71.8333 179.167,70.8333 178.5,69.5C 180.051,67.0872 180.717,64.4206 180.5,61.5 Z"/></g>
<g><path style="opacity:0.004" fill="#5ed4f4" d="M 64.5,62.5 C 65.5,62.5 66.5,62.5 67.5,62.5C 67.1951,66.227 68.6951,68.8937 72,70.5C 76.6924,69.0873 81.5258,68.254 86.5,68C 89.5973,66.7266 92.2639,64.8933 94.5,62.5C 95.5,62.5 96.5,62.5 97.5,62.5C 96.0939,65.4135 94.0939,67.9135 91.5,70C 83.7666,70.7334 76.0999,71.9 68.5,73.5C 67.5581,73.3918 66.7247,73.0585 66,72.5C 65.6614,69.1204 65.1614,65.7871 64.5,62.5 Z"/></g>
<g><path style="opacity:0.004" fill="#5dd1f0" d="M 206.5,60.5 C 207.167,60.5 207.833,60.5 208.5,60.5C 207.806,65.8049 207.472,71.1383 207.5,76.5C 206.167,76.5 204.833,76.5 203.5,76.5C 204.65,71.0706 205.65,65.7372 206.5,60.5 Z"/></g>
<g><path style="opacity:0.985" fill="#60dafb" d="M 109.5,71.5 C 109.5,72.8333 109.5,74.1667 109.5,75.5C 114.438,75.3881 119.271,76.0547 124,77.5C 132.257,74.7104 139.091,76.5437 144.5,83C 129.978,83.2734 115.645,84.1067 101.5,85.5C 93.3965,97.3734 86.0632,109.707 79.5,122.5C 78.4138,122.62 77.7472,123.287 77.5,124.5C 78.5318,130.791 77.3651,131.125 74,125.5C 73.1072,126.711 72.2739,126.711 71.5,125.5C 73.5779,122.634 75.4112,119.634 77,116.5C 76.9545,113.2 76.7878,109.866 76.5,106.5C 79.2624,99.8106 82.9291,93.6439 87.5,88C 85.8659,87.5065 84.1992,87.3398 82.5,87.5C 82.2648,86.9033 81.7648,86.5699 81,86.5C 75.5113,87.4838 70.0113,87.9838 64.5,88C 65.8333,86 65.8333,84 64.5,82C 66.5675,81.3131 68.5675,81.4798 70.5,82.5C 72.2492,80.4686 74.2492,80.1353 76.5,81.5C 79.7772,79.5328 83.1105,77.8661 86.5,76.5C 89.4552,75.8413 92.4552,75.5079 95.5,75.5C 94.0101,77.2798 92.0101,77.9465 89.5,77.5C 89.5,78.5 89.5,79.5 89.5,80.5C 96.0536,80.1452 101.387,77.3118 105.5,72C 106.793,71.51 108.127,71.3433 109.5,71.5 Z"/></g>
<g><path style="opacity:0.987" fill="#60d8f9" d="M 54.5,24.5 C 52.1201,31.0206 50.6201,37.6873 50,44.5C 50.3333,44.1667 50.6667,43.8333 51,43.5C 52,44.8333 53,46.1667 54,47.5C 55.8496,43.1656 58.0162,39.1656 60.5,35.5C 57.6391,50.2373 58.1391,64.9039 62,79.5C 62.414,79.9574 62.914,80.2907 63.5,80.5C 71.0648,78.6096 78.7315,77.2763 86.5,76.5C 83.1105,77.8661 79.7772,79.5328 76.5,81.5C 74.2492,80.1353 72.2492,80.4686 70.5,82.5C 68.5675,81.4798 66.5675,81.3131 64.5,82C 65.8333,84 65.8333,86 64.5,88C 70.0113,87.9838 75.5113,87.4838 81,86.5C 81.7648,86.5699 82.2648,86.9033 82.5,87.5C 76.9092,88.8846 71.2426,89.8846 65.5,90.5C 66.4881,94.4848 67.4881,98.4848 68.5,102.5C 66.4409,99.3894 64.6076,96.0561 63,92.5C 61.1825,90.3546 59.6825,90.3546 58.5,92.5C 55.358,91.3419 52.5247,89.6752 50,87.5C 49.6924,88.3081 49.1924,88.9747 48.5,89.5C 47.5318,88.5109 46.3651,87.8443 45,87.5C 43.0608,88.4337 41.2275,88.4337 39.5,87.5C 43.6397,85.9655 47.6397,84.1322 51.5,82C 45.7201,64.3025 45.5535,46.8025 51,29.5C 51.6972,27.4156 52.8639,25.7489 54.5,24.5 Z"/></g>
<g><path style="opacity:1" fill="#60dbfc" d="M 49.5,59.5 C 51.7224,59.178 53.5557,59.8446 55,61.5C 56.3068,65.2831 57.4735,69.1164 58.5,73C 57.6634,75.7548 57.6634,78.2548 58.5,80.5C 56.6778,80.4626 54.6778,80.796 52.5,81.5C 51.7629,74.1283 50.7629,66.795 49.5,59.5 Z"/></g>
<g><path style="opacity:0.991" fill="#60d9fa" d="M 196.5,83.5 C 198.894,84.0147 201.228,84.6814 203.5,85.5C 201.805,87.2134 200.972,89.2134 201,91.5C 202.805,92.4101 204.638,93.4101 206.5,94.5C 207.086,94.2907 207.586,93.9574 208,93.5C 210.587,94.9541 213.087,96.6208 215.5,98.5C 216.281,97.2713 216.781,95.938 217,94.5C 217.093,97.0075 217.926,99.1741 219.5,101C 222.4,102.775 225.733,103.775 229.5,104C 228.456,107.756 229.79,110.589 233.5,112.5C 234.429,113.689 234.762,115.022 234.5,116.5C 230.35,111.409 225.35,107.243 219.5,104C 211.387,99.9424 203.053,96.4424 194.5,93.5C 192.588,95.9909 191.254,98.6575 190.5,101.5C 190.813,98.7531 190.48,96.0865 189.5,93.5C 185.933,90.1995 183.266,86.1995 181.5,81.5C 179.007,82.7736 176.674,82.4403 174.5,80.5C 171.625,81.3954 168.792,81.0621 166,79.5C 164.099,80.5355 162.265,81.7022 160.5,83C 160.164,84.629 160.83,86.129 162.5,87.5C 161.662,87.8417 161.328,88.5084 161.5,89.5C 158.837,87.0328 156.337,87.3661 154,90.5C 153.333,91.8333 153.333,93.1667 154,94.5C 156.534,96.5685 157.701,99.2352 157.5,102.5C 153.733,97.1515 150.066,91.6515 146.5,86C 131.504,85.5001 116.504,85.3334 101.5,85.5C 115.645,84.1067 129.978,83.2734 144.5,83C 139.091,76.5437 132.257,74.7104 124,77.5C 119.271,76.0547 114.438,75.3881 109.5,75.5C 109.5,74.1667 109.5,72.8333 109.5,71.5C 109.833,71.5 110.167,71.5 110.5,71.5C 110.5,72.5 110.5,73.5 110.5,74.5C 119.542,73.5096 128.542,73.1763 137.5,73.5C 135.578,71.3134 133.912,68.9801 132.5,66.5C 139.615,70.8981 146.615,75.5648 153.5,80.5C 155.021,80.1203 156.687,79.9536 158.5,80C 158.957,79.586 159.291,79.086 159.5,78.5C 156.342,77.7499 153.675,76.4165 151.5,74.5C 162.707,76.0405 173.874,78.0405 185,80.5C 185.765,80.4301 186.265,80.0967 186.5,79.5C 188.913,73.8494 190.413,67.8494 191,61.5C 192.508,59.1616 194.675,58.1616 197.5,58.5C 197.803,65.7641 197.136,72.9308 195.5,80C 195.514,81.3847 195.848,82.5514 196.5,83.5 Z"/></g>
<g><path style="opacity:0.004" fill="#5fd6f6" d="M 158.5,66.5 C 164.943,68.5149 171.609,69.5149 178.5,69.5C 179.167,70.8333 180.167,71.8333 181.5,72.5C 181.083,73.1239 180.416,73.4573 179.5,73.5C 172.57,71.9559 165.57,70.9559 158.5,70.5C 158.5,69.1667 158.5,67.8333 158.5,66.5 Z"/></g>
<g><path style="opacity:0.999" fill="#60dafb" d="M 190.5,101.5 C 188.001,109.493 185.001,117.327 181.5,125C 182.938,128.485 184.272,131.985 185.5,135.5C 187.46,141.888 189.127,148.388 190.5,155C 190.333,155.833 190.167,156.667 190,157.5C 187.103,158.523 184.936,160.357 183.5,163C 184.5,163.333 185.5,163.667 186.5,164C 185.939,165.566 186.606,166.899 188.5,168C 190.5,168.333 192.5,168.667 194.5,169C 193.833,169.333 193.167,169.667 192.5,170C 196.686,176.23 198.186,183.063 197,190.5C 194.428,195.227 192.428,195.227 191,190.5C 190.372,183.066 189.205,175.732 187.5,168.5C 182.177,168.323 177.511,169.656 173.5,172.5C 172.833,172.5 172.167,172.5 171.5,172.5C 169.799,171.266 167.799,170.599 165.5,170.5C 162.994,171.643 160.328,172.31 157.5,172.5C 156.167,172.167 154.833,171.833 153.5,171.5C 156.958,169.714 160.625,168.381 164.5,167.5C 163.429,165.675 164.096,164.508 166.5,164C 172.281,163.918 177.781,162.751 183,160.5C 183.74,159.251 183.573,158.251 182.5,157.5C 180.097,151.122 177.597,144.789 175,138.5C 171.408,145.357 167.574,152.024 163.5,158.5C 161.956,158.703 160.622,159.37 159.5,160.5C 158.833,160.167 158.167,159.833 157.5,159.5C 155.733,161.89 153.4,163.557 150.5,164.5C 149.566,162.905 149.566,161.239 150.5,159.5C 156.936,148.135 163.269,136.635 169.5,125C 165.27,117.609 161.27,110.109 157.5,102.5C 157.701,99.2352 156.534,96.5685 154,94.5C 153.333,93.1667 153.333,91.8333 154,90.5C 156.337,87.3661 158.837,87.0328 161.5,89.5C 166.577,96.2782 170.91,103.612 174.5,111.5C 178.325,105.037 180.992,98.0372 182.5,90.5C 175.833,89.5 169.167,88.5 162.5,87.5C 160.83,86.129 160.164,84.629 160.5,83C 162.265,81.7022 164.099,80.5355 166,79.5C 168.792,81.0621 171.625,81.3954 174.5,80.5C 176.674,82.4403 179.007,82.7736 181.5,81.5C 183.266,86.1995 185.933,90.1995 189.5,93.5C 190.48,96.0865 190.813,98.7531 190.5,101.5 Z M 162.5,87.5 C 169.167,88.5 175.833,89.5 182.5,90.5C 180.992,98.0372 178.325,105.037 174.5,111.5C 170.91,103.612 166.577,96.2782 161.5,89.5C 161.328,88.5084 161.662,87.8417 162.5,87.5 Z M 182.5,157.5 C 182.38,158.586 181.713,159.253 180.5,159.5C 174.461,160.708 168.461,162.041 162.5,163.5C 161.348,161.603 161.681,159.936 163.5,158.5C 167.574,152.024 171.408,145.357 175,138.5C 177.597,144.789 180.097,151.122 182.5,157.5 Z"/></g>
<g><path style="opacity:0.004" fill="#5fd5f6" d="M 44.5,24.5 C 45.1667,24.5 45.8333,24.5 46.5,24.5C 42.9788,33.475 41.3122,42.8083 41.5,52.5C 41.8644,61.6035 42.6978,70.6035 44,79.5C 26.4601,84.3395 11.6268,93.3395 -0.5,106.5C -0.5,104.833 -0.5,103.167 -0.5,101.5C 10.4937,91.3745 23.1604,83.8745 37.5,79C 38.3333,78.1667 39.1667,77.3333 40,76.5C 38.9642,65.5456 38.6308,54.5456 39,43.5C 39.7753,36.8226 41.6087,30.4892 44.5,24.5 Z"/></g>
<g><path style="opacity:0.999" fill="#60dafb" d="M 39.5,87.5 C 41.2275,88.4337 43.0608,88.4337 45,87.5C 46.3651,87.8443 47.5318,88.5109 48.5,89.5C 49.1924,88.9747 49.6924,88.3081 50,87.5C 52.5247,89.6752 55.358,91.3419 58.5,92.5C 59.6825,90.3546 61.1825,90.3546 63,92.5C 64.6076,96.0561 66.4409,99.3894 68.5,102.5C 70.0831,105.387 71.5831,108.387 73,111.5C 74.1889,109.767 75.3556,108.1 76.5,106.5C 76.7878,109.866 76.9545,113.2 77,116.5C 75.4112,119.634 73.5779,122.634 71.5,125.5C 72.2739,126.711 73.1072,126.711 74,125.5C 77.3651,131.125 78.5318,130.791 77.5,124.5C 77.7472,123.287 78.4138,122.62 79.5,122.5C 79.3379,124.527 79.5045,126.527 80,128.5C 85.5595,139.039 91.3929,149.372 97.5,159.5C 98.4339,161.239 98.4339,162.905 97.5,164.5C 94.8685,163.036 92.3685,161.369 90,159.5C 88.2341,158.767 86.4008,158.433 84.5,158.5C 80.4119,151.992 76.5786,145.325 73,138.5C 69.9314,145.302 67.4314,152.302 65.5,159.5C 69.5,160.167 73.5,160.833 77.5,161.5C 78.9997,163.179 80.833,164.512 83,165.5C 83.4828,166.448 83.6495,167.448 83.5,168.5C 87.3839,168.024 90.7173,169.024 93.5,171.5C 90.6944,172.168 88.0277,172.834 85.5,173.5C 77.8159,172.996 70.3159,171.662 63,169.5C 62.6174,170.056 62.1174,170.389 61.5,170.5C 58.0071,176.894 56.0071,183.894 55.5,191.5C 52.6764,192.245 50.6764,191.079 49.5,188C 50.7542,181.03 52.4208,174.197 54.5,167.5C 55.9667,167.723 57.4667,168.056 59,168.5C 60.6924,166.641 62.1924,164.641 63.5,162.5C 62.4604,160.139 60.6271,158.805 58,158.5C 54.9512,160.863 51.6178,162.863 48,164.5C 38.496,161.503 29.3293,157.836 20.5,153.5C 9.97023,148.093 2.97023,139.76 -0.5,128.5C -0.5,126.167 -0.5,123.833 -0.5,121.5C 3.0468,110.286 10.0468,101.786 20.5,96C 26.6186,92.6058 32.9519,89.7725 39.5,87.5 Z M 12.5,133.5 C 10.9558,127.371 11.2892,121.371 13.5,115.5C 25.3755,104.313 39.2088,97.3129 55,94.5C 58.0443,104.966 61.8776,115.133 66.5,125C 62.0389,135.576 57.7056,146.076 53.5,156.5C 37.62,152.585 23.9533,144.918 12.5,133.5 Z M 51.5,110.5 C 53.3087,115.284 54.9753,120.117 56.5,125C 54.7847,131.925 52.118,138.425 48.5,144.5C 38.9181,142.543 30.5847,138.209 23.5,131.5C 20.8574,128.766 19.8574,125.433 20.5,121.5C 27.347,114.575 35.347,109.408 44.5,106C 48.2214,105.206 50.5547,106.706 51.5,110.5 Z M 84.5,158.5 C 85.2899,159.794 86.2899,160.961 87.5,162C 87,162.5 86.5,163 86,163.5C 83.2219,162.675 80.3886,162.008 77.5,161.5C 73.5,160.833 69.5,160.167 65.5,159.5C 67.4314,152.302 69.9314,145.302 73,138.5C 76.5786,145.325 80.4119,151.992 84.5,158.5 Z"/></g>
<g><path style="opacity:0.005" fill="#5ed3f3" d="M 158.5,116.5 C 156.241,117.344 155.241,119.011 155.5,121.5C 155.192,123.924 155.526,126.257 156.5,128.5C 157.425,127.643 158.092,126.643 158.5,125.5C 159.833,125.5 161.167,125.5 162.5,125.5C 161.416,128.004 160.083,130.337 158.5,132.5C 157.167,132.5 155.833,132.5 154.5,132.5C 154.833,135.5 153.5,136.833 150.5,136.5C 155.696,116.663 148.696,103.663 129.5,97.5C 129.5,96.1667 129.5,94.8333 129.5,93.5C 128.5,93.5 127.5,93.5 126.5,93.5C 126.5,94.5 126.5,95.5 126.5,96.5C 111.047,96.6444 101.047,103.978 96.5,118.5C 94.7085,118.366 93.0418,118.699 91.5,119.5C 90.791,118.596 89.791,118.263 88.5,118.5C 93.007,108.139 99.007,98.8057 106.5,90.5C 118.167,91.8333 129.833,91.8333 141.5,90.5C 143.858,92.0243 145.691,94.0243 147,96.5C 151.098,103.031 154.931,109.698 158.5,116.5 Z M 107.5,94.5 C 111.208,95.5509 111.041,96.8842 107,98.5C 106.5,98.1667 106,97.8333 105.5,97.5C 106.193,96.4822 106.859,95.4822 107.5,94.5 Z M 137.5,94.5 C 139.645,94.7377 141.312,95.7377 142.5,97.5C 139.688,98.7195 138.021,97.7195 137.5,94.5 Z"/></g>
<g><path style="opacity:0.004" fill="#5ed3f4" d="M 203.5,76.5 C 204.833,76.5 206.167,76.5 207.5,76.5C 216.901,81.035 226.234,85.8683 235.5,91C 240.983,94.3193 245.649,98.486 249.5,103.5C 249.5,105.167 249.5,106.833 249.5,108.5C 237.915,94.0172 222.915,84.5172 204.5,80C 203.663,78.9887 203.33,77.8221 203.5,76.5 Z"/></g>
<g><path style="opacity:0.004" fill="#5ac7e5" d="M 129.5,97.5 C 128.391,97.4431 127.391,97.1098 126.5,96.5C 126.5,95.5 126.5,94.5 126.5,93.5C 127.5,93.5 128.5,93.5 129.5,93.5C 129.5,94.8333 129.5,96.1667 129.5,97.5 Z"/></g>
<g><path style="opacity:0.005" fill="#5fd4f5" d="M 54.5,110.5 C 53.5,110.5 52.5,110.5 51.5,110.5C 50.5547,106.706 48.2214,105.206 44.5,106C 35.347,109.408 27.347,114.575 20.5,121.5C 19.5,121.5 18.5,121.5 17.5,121.5C 20.3488,116.556 24.3488,112.722 29.5,110C 35.2643,106.784 41.2643,104.117 47.5,102C 48.9437,101.219 50.277,101.386 51.5,102.5C 52.1992,105.31 53.1992,107.977 54.5,110.5 Z"/></g>
<g><path style="opacity:0.998" fill="#60dafb" d="M 203.5,85.5 C 218.961,89.8097 232.127,97.8097 243,109.5C 248.771,117.665 249.771,126.331 246,135.5C 237.541,148.658 225.707,157.325 210.5,161.5C 210.565,161.062 210.399,160.728 210,160.5C 207.505,162.004 204.839,163.004 202,163.5C 200.342,163.325 199.009,162.658 198,161.5C 195.21,162.782 193.043,161.948 191.5,159C 193.196,157.734 195.029,157.9 197,159.5C 198.054,157.246 199.554,156.913 201.5,158.5C 204.413,157.73 207.247,156.73 210,155.5C 210.945,155.905 211.612,156.572 212,157.5C 212.552,154.803 214.052,152.803 216.5,151.5C 217.192,152.025 217.692,152.692 218,153.5C 219.789,149.877 221.955,146.543 224.5,143.5C 229.902,139.592 234.069,134.592 237,128.5C 237.968,124.104 237.135,120.104 234.5,116.5C 234.762,115.022 234.429,113.689 233.5,112.5C 229.79,110.589 228.456,107.756 229.5,104C 225.733,103.775 222.4,102.775 219.5,101C 217.926,99.1741 217.093,97.0075 217,94.5C 216.781,95.938 216.281,97.2713 215.5,98.5C 213.087,96.6208 210.587,94.9541 208,93.5C 207.586,93.9574 207.086,94.2907 206.5,94.5C 204.638,93.4101 202.805,92.4101 201,91.5C 200.972,89.2134 201.805,87.2134 203.5,85.5 Z"/></g>
<g><path style="opacity:0.991" fill="#60d9fa" d="M 121.5,102.5 C 139.113,103.611 147.28,112.944 146,130.5C 139.857,145.821 129.024,150.654 113.5,145C 100.6,136.168 98.0996,125.001 106,111.5C 110.141,106.483 115.308,103.483 121.5,102.5 Z"/></g>
<g><path style="opacity:0.005" fill="#5ac7e4" d="M 196.5,103.5 C 198.027,103.427 199.027,104.094 199.5,105.5C 199.167,106.5 198.5,107.167 197.5,107.5C 196.5,107.5 195.5,107.5 194.5,107.5C 194.989,106.005 195.655,104.671 196.5,103.5 Z"/></g>
<g><path style="opacity:0.416" fill="#5ed2f3" d="M 13.5,115.5 C 11.2892,121.371 10.9558,127.371 12.5,133.5C 9.25717,128.93 8.75717,123.93 11,118.5C 11.3768,117.058 12.2101,116.058 13.5,115.5 Z"/></g>
<g><path style="opacity:0.006" fill="#5fd4f5" d="M 230.5,128.5 C 229.5,128.5 228.5,128.5 227.5,128.5C 227.663,126.143 227.497,123.81 227,121.5C 219.664,112.993 210.498,107.66 199.5,105.5C 199.027,104.094 198.027,103.427 196.5,103.5C 196.62,102.414 197.287,101.747 198.5,101.5C 211.562,104.77 222.395,111.437 231,121.5C 231.796,124.039 231.629,126.372 230.5,128.5 Z"/></g>
<g><path style="opacity:0.005" fill="#59c7e6" d="M 158.5,116.5 C 160.128,119.419 161.462,122.419 162.5,125.5C 161.167,125.5 159.833,125.5 158.5,125.5C 158.262,123.596 157.262,122.262 155.5,121.5C 155.241,119.011 156.241,117.344 158.5,116.5 Z"/></g>
<g><path style="opacity:0.005" fill="#5ccceb" d="M 17.5,121.5 C 18.5,121.5 19.5,121.5 20.5,121.5C 19.8574,125.433 20.8574,128.766 23.5,131.5C 22.8333,132.167 22.1667,132.833 21.5,133.5C 16.8012,130.514 15.4678,126.514 17.5,121.5 Z"/></g>
<g><path style="opacity:0.006" fill="#5bcae9" d="M 88.5,118.5 C 89.791,118.263 90.791,118.596 91.5,119.5C 91.5,120.167 91.5,120.833 91.5,121.5C 90.3263,122.514 89.6596,123.847 89.5,125.5C 88.1667,125.5 86.8333,125.5 85.5,125.5C 85.6878,122.794 86.6878,120.461 88.5,118.5 Z"/></g>
<g><path style="opacity:0.004" fill="#5fd6f6" d="M 96.5,118.5 C 95.1759,124.58 95.5093,130.58 97.5,136.5C 96.5,136.5 95.5,136.5 94.5,136.5C 93.656,134.241 91.9893,133.241 89.5,133.5C 87.6418,131.117 86.3084,128.45 85.5,125.5C 86.8333,125.5 88.1667,125.5 89.5,125.5C 89.9081,126.643 90.5748,127.643 91.5,128.5C 92.7969,126.027 92.7969,123.693 91.5,121.5C 91.5,120.833 91.5,120.167 91.5,119.5C 93.0418,118.699 94.7085,118.366 96.5,118.5 Z"/></g>
<g><path style="opacity:0.005" fill="#5bc7e5" d="M 227.5,128.5 C 228.5,128.5 229.5,128.5 230.5,128.5C 230.262,130.404 229.262,131.738 227.5,132.5C 226.167,132.5 225.5,131.833 225.5,130.5C 225.833,129.5 226.5,128.833 227.5,128.5 Z"/></g>
<g><path style="opacity:0.004" fill="#5ed1f0" d="M 51.5,110.5 C 52.5,110.5 53.5,110.5 54.5,110.5C 56.0731,115.483 58.0731,120.317 60.5,125C 56.9771,132.865 53.6438,140.698 50.5,148.5C 50.7709,146.62 50.1042,145.287 48.5,144.5C 52.118,138.425 54.7847,131.925 56.5,125C 54.9753,120.117 53.3087,115.284 51.5,110.5 Z"/></g>
<g><path style="opacity:0.004" fill="#5bc6e4" d="M 94.5,136.5 C 95.5,136.5 96.5,136.5 97.5,136.5C 99.0828,138.663 100.416,140.996 101.5,143.5C 100.833,143.5 100.167,143.5 99.5,143.5C 98.0787,140.991 96.4121,138.657 94.5,136.5 Z"/></g>
<g><path style="opacity:0.004" fill="#5fd6f6" d="M 225.5,130.5 C 225.5,131.833 226.167,132.5 227.5,132.5C 224.116,136.369 220.116,139.536 215.5,142C 210.474,144.181 205.474,146.348 200.5,148.5C 200.5,147.167 200.5,145.833 200.5,144.5C 210.169,142.167 218.503,137.5 225.5,130.5 Z"/></g>
<g><path style="opacity:0.004" fill="#5fd6f6" d="M 23.5,131.5 C 30.5847,138.209 38.9181,142.543 48.5,144.5C 50.1042,145.287 50.7709,146.62 50.5,148.5C 39.5616,146.527 29.8949,141.527 21.5,133.5C 22.1667,132.833 22.8333,132.167 23.5,131.5 Z"/></g>
<g><path style="opacity:0.005" fill="#5ed2f2" d="M 89.5,133.5 C 91.9893,133.241 93.656,134.241 94.5,136.5C 96.4121,138.657 98.0787,140.991 99.5,143.5C 101.115,146.45 103.115,149.116 105.5,151.5C 104.884,152.202 104.884,153.202 105.5,154.5C 105.167,155.5 104.5,156.167 103.5,156.5C 98.0944,149.369 93.4278,141.702 89.5,133.5 Z"/></g>
<g><path style="opacity:0.004" fill="#5ac9e6" d="M 158.5,132.5 C 158.008,134.819 157.008,136.819 155.5,138.5C 154.127,138.343 152.793,138.51 151.5,139C 150.589,141.415 148.922,142.915 146.5,143.5C 147.584,140.996 148.917,138.663 150.5,136.5C 153.5,136.833 154.833,135.5 154.5,132.5C 155.833,132.5 157.167,132.5 158.5,132.5 Z"/></g>
<g><path style="opacity:0.004" fill="#5ed4f4" d="M 155.5,138.5 C 152.321,144.87 148.654,150.87 144.5,156.5C 143.094,156.027 142.427,155.027 142.5,153.5C 142.631,152.624 142.298,151.957 141.5,151.5C 140.378,152.63 139.044,153.297 137.5,153.5C 137.5,152.5 137.5,151.5 137.5,150.5C 140.28,147.936 143.28,145.603 146.5,143.5C 148.922,142.915 150.589,141.415 151.5,139C 152.793,138.51 154.127,138.343 155.5,138.5 Z"/></g>
<g><path style="opacity:0.004" fill="#5ed2f2" d="M 194.5,107.5 C 195.5,107.5 196.5,107.5 197.5,107.5C 195.398,113.305 193.398,119.138 191.5,125C 192.281,129.732 193.781,134.232 196,138.5C 196.792,141.106 198.292,143.106 200.5,144.5C 200.5,145.833 200.5,147.167 200.5,148.5C 199.504,148.414 198.671,148.748 198,149.5C 194.678,141.346 191.178,133.179 187.5,125C 190.329,119.342 192.662,113.509 194.5,107.5 Z"/></g>
<g><path style="opacity:0.004" fill="#5ed1f1" d="M -0.5,143.5 C 4.20403,149.205 9.53736,154.205 15.5,158.5C 15.5,159.167 15.5,159.833 15.5,160.5C 9.45114,157.473 4.11781,153.473 -0.5,148.5C -0.5,146.833 -0.5,145.167 -0.5,143.5 Z"/></g>
<g><path style="opacity:0.004" fill="#5fd8f9" d="M 137.5,150.5 C 137.5,151.5 137.5,152.5 137.5,153.5C 137.47,154.497 137.97,155.164 139,155.5C 140.303,155.022 141.469,154.355 142.5,153.5C 142.427,155.027 143.094,156.027 144.5,156.5C 144.423,157.75 143.756,158.583 142.5,159C 138.179,159.499 133.846,159.666 129.5,159.5C 129.389,158.883 129.056,158.383 128.5,158C 129.582,156.67 130.249,155.17 130.5,153.5C 132.509,151.935 134.843,150.935 137.5,150.5 Z"/></g>
<g><path style="opacity:0.004" fill="#5dcfef" d="M 249.5,141.5 C 249.5,143.167 249.5,144.833 249.5,146.5C 245.047,152.617 239.381,157.284 232.5,160.5C 232.5,159.833 232.5,159.167 232.5,158.5C 239.167,153.833 244.833,148.167 249.5,141.5 Z"/></g>
<g><path style="opacity:0.005" fill="#60d8f9" d="M 99.5,143.5 C 100.167,143.5 100.833,143.5 101.5,143.5C 104.833,145.833 108.167,148.167 111.5,150.5C 111.5,152.167 111.5,153.833 111.5,155.5C 115.44,154.766 116.773,156.099 115.5,159.5C 112.15,159.665 108.817,159.498 105.5,159C 104.244,158.583 103.577,157.75 103.5,156.5C 104.5,156.167 105.167,155.5 105.5,154.5C 111.91,155.164 111.91,154.164 105.5,151.5C 103.115,149.116 101.115,146.45 99.5,143.5 Z"/></g>
<g><path style="opacity:0.004" fill="#5ed4f4" d="M 111.5,150.5 C 117.498,153.172 123.831,154.172 130.5,153.5C 130.249,155.17 129.582,156.67 128.5,158C 129.056,158.383 129.389,158.883 129.5,159.5C 124.833,159.5 120.167,159.5 115.5,159.5C 116.773,156.099 115.44,154.766 111.5,155.5C 111.5,153.833 111.5,152.167 111.5,150.5 Z"/></g>
<g><path style="opacity:0.967" fill="#60d9fa" d="M 182.5,157.5 C 183.573,158.251 183.74,159.251 183,160.5C 177.781,162.751 172.281,163.918 166.5,164C 164.096,164.508 163.429,165.675 164.5,167.5C 160.625,168.381 156.958,169.714 153.5,171.5C 154.833,171.833 156.167,172.167 157.5,172.5C 160.328,172.31 162.994,171.643 165.5,170.5C 167.799,170.599 169.799,171.266 171.5,172.5C 165.528,173.368 159.528,174.201 153.5,175C 152.309,175.698 151.309,176.531 150.5,177.5C 150.297,175.61 150.963,174.11 152.5,173C 152.167,172.833 151.833,172.667 151.5,172.5C 147.947,175.444 143.947,177.61 139.5,179C 136.626,181.054 133.959,183.221 131.5,185.5C 133.243,182.25 135.577,179.416 138.5,177C 138,176.5 137.5,176 137,175.5C 128.226,176.154 119.392,176.82 110.5,177.5C 111.193,178.518 111.859,179.518 112.5,180.5C 106.977,179.579 102.143,177.246 98,173.5C 97.51,174.793 97.3433,176.127 97.5,177.5C 93.9623,175.042 89.9623,173.709 85.5,173.5C 88.0277,172.834 90.6944,172.168 93.5,171.5C 90.7173,169.024 87.3839,168.024 83.5,168.5C 83.6495,167.448 83.4828,166.448 83,165.5C 80.833,164.512 78.9997,163.179 77.5,161.5C 80.3886,162.008 83.2219,162.675 86,163.5C 86.5,163 87,162.5 87.5,162C 86.2899,160.961 85.2899,159.794 84.5,158.5C 86.4008,158.433 88.2341,158.767 90,159.5C 92.3685,161.369 94.8685,163.036 97.5,164.5C 98.4339,162.905 98.4339,161.239 97.5,159.5C 98.9335,160.833 100.267,162.333 101.5,164C 116.5,166 131.5,166 146.5,164C 147.733,162.333 149.067,160.833 150.5,159.5C 149.566,161.239 149.566,162.905 150.5,164.5C 153.4,163.557 155.733,161.89 157.5,159.5C 158.167,159.833 158.833,160.167 159.5,160.5C 160.622,159.37 161.956,158.703 163.5,158.5C 161.681,159.936 161.348,161.603 162.5,163.5C 168.461,162.041 174.461,160.708 180.5,159.5C 181.713,159.253 182.38,158.586 182.5,157.5 Z"/></g>
<g><path style="opacity:0.005" fill="#5fd4f4" d="M 15.5,158.5 C 24.376,163.462 33.7093,167.462 43.5,170.5C 43.8333,171.333 44.1667,172.167 44.5,173C 41.2751,186.726 40.7751,200.559 43,214.5C 45.3029,226.788 52.1362,235.455 63.5,240.5C 63.1924,241.308 62.6924,241.975 62,242.5C 53.727,239.227 47.727,233.56 44,225.5C 41.5735,219.368 39.9068,213.034 39,206.5C 38.6308,195.454 38.9642,184.454 40,173.5C 31.6926,169.265 23.5259,164.932 15.5,160.5C 15.5,159.833 15.5,159.167 15.5,158.5 Z"/></g>
<g><path style="opacity:0.966" fill="#60d8f9" d="M 20.5,153.5 C 29.3293,157.836 38.496,161.503 48,164.5C 51.6178,162.863 54.9512,160.863 58,158.5C 60.6271,158.805 62.4604,160.139 63.5,162.5C 62.1924,164.641 60.6924,166.641 59,168.5C 57.4667,168.056 55.9667,167.723 54.5,167.5C 52.4208,174.197 50.7542,181.03 49.5,188C 50.6764,191.079 52.6764,192.245 55.5,191.5C 56.0071,183.894 58.0071,176.894 61.5,170.5C 58.854,183.375 58.0207,196.375 59,209.5C 62.5658,224.2 71.3991,228.7 85.5,223C 88.7365,221.214 92.0698,219.714 95.5,218.5C 93.7863,220.515 91.7863,222.181 89.5,223.5C 90.154,225.115 90.654,226.782 91,228.5C 92.6667,225.833 94.3333,225.833 96,228.5C 98.6395,226.68 101.473,225.346 104.5,224.5C 99.5701,228.733 93.9034,231.733 87.5,233.5C 90.0629,230.747 90.0629,228.08 87.5,225.5C 85.1944,228.23 82.8611,228.564 80.5,226.5C 78.5237,228.397 76.6904,230.397 75,232.5C 73.4293,230.077 71.2626,228.744 68.5,228.5C 68.6463,226.058 67.813,225.391 66,226.5C 64.0394,223.537 61.706,220.871 59,218.5C 58.6942,214.967 57.8609,211.633 56.5,208.5C 58.3314,205.728 57.6648,204.061 54.5,203.5C 52.5679,204.145 51.4012,205.479 51,207.5C 50.6667,207.167 50.3333,206.833 50,206.5C 49.8333,207.667 49.6667,208.833 49.5,210C 50.8182,215.792 52.8182,221.292 55.5,226.5C 52.0626,223.299 49.8959,219.299 49,214.5C 46.1737,198.387 47.007,182.387 51.5,166.5C 40.2837,164.052 29.9504,159.719 20.5,153.5 Z"/></g>
<g><path style="opacity:0.004" fill="#5dd0f0" d="M 183.5,189.5 C 182.5,189.5 181.5,189.5 180.5,189.5C 181.585,184.83 179.918,181.83 175.5,180.5C 175.5,179.5 175.5,178.5 175.5,177.5C 178.025,176.108 180.192,176.442 182,178.5C 182.548,182.17 183.048,185.837 183.5,189.5 Z"/></g>
<g><path style="opacity:0.004" fill="#5fd5f5" d="M 94.5,184.5 C 93.5084,184.328 92.8417,184.662 92.5,185.5C 86.4523,182.284 79.9523,180.617 73,180.5C 71.1878,180.493 69.6878,181.16 68.5,182.5C 67.0545,192.195 67.2211,201.861 69,211.5C 71.3511,215.511 74.8511,217.011 79.5,216C 87.4122,213.231 94.4122,209.064 100.5,203.5C 100.5,204.5 100.5,205.5 100.5,206.5C 92.4429,215.244 82.4429,219.41 70.5,219C 68.6217,217.457 67.1217,215.624 66,213.5C 64.0522,201.847 64.0522,190.181 66,178.5C 66.6891,177.643 67.5224,176.977 68.5,176.5C 75.6999,178.422 83.0333,179.589 90.5,180C 92.751,180.748 94.0844,182.248 94.5,184.5 Z"/></g>
<g><path style="opacity:0.006" fill="#5ed3f3" d="M 175.5,177.5 C 175.5,178.5 175.5,179.5 175.5,180.5C 164.039,179.564 155.372,183.897 149.5,193.5C 148.5,193.5 147.5,193.5 146.5,193.5C 149.613,189.451 152.613,185.284 155.5,181C 162.139,179.768 168.806,178.602 175.5,177.5 Z"/></g>
<g><path style="opacity:0.977" fill="#60d8f9" d="M 185.5,135.5 C 188.306,142.587 191.306,149.587 194.5,156.5C 205.023,153.235 215.023,148.902 224.5,143.5C 221.955,146.543 219.789,149.877 218,153.5C 217.692,152.692 217.192,152.025 216.5,151.5C 214.052,152.803 212.552,154.803 212,157.5C 211.612,156.572 210.945,155.905 210,155.5C 207.247,156.73 204.413,157.73 201.5,158.5C 199.554,156.913 198.054,157.246 197,159.5C 195.029,157.9 193.196,157.734 191.5,159C 193.043,161.948 195.21,162.782 198,161.5C 199.009,162.658 200.342,163.325 202,163.5C 204.839,163.004 207.505,162.004 210,160.5C 210.399,160.728 210.565,161.062 210.5,161.5C 206.257,164.07 201.59,165.737 196.5,166.5C 200.615,182.316 201.449,198.316 199,214.5C 198.478,217.281 197.311,219.615 195.5,221.5C 195.776,216.786 196.442,212.119 197.5,207.5C 197.672,204.669 196.339,203.002 193.5,202.5C 190.613,207.079 188.779,212.079 188,217.5C 187.292,218.381 186.458,219.047 185.5,219.5C 188.433,212.664 189.767,205.497 189.5,198C 189.277,188.713 188.11,179.547 186,170.5C 185.586,170.043 185.086,169.709 184.5,169.5C 180.937,170.959 177.27,171.959 173.5,172.5C 177.511,169.656 182.177,168.323 187.5,168.5C 189.205,175.732 190.372,183.066 191,190.5C 192.428,195.227 194.428,195.227 197,190.5C 198.186,183.063 196.686,176.23 192.5,170C 193.167,169.667 193.833,169.333 194.5,169C 192.5,168.667 190.5,168.333 188.5,168C 186.606,166.899 185.939,165.566 186.5,164C 185.5,163.667 184.5,163.333 183.5,163C 184.936,160.357 187.103,158.523 190,157.5C 190.167,156.667 190.333,155.833 190.5,155C 189.127,148.388 187.46,141.888 185.5,135.5 Z"/></g>
<g><path style="opacity:0.004" fill="#5bcbea" d="M 94.5,184.5 C 97.1846,187.19 99.5179,190.19 101.5,193.5C 100.5,193.5 99.5,193.5 98.5,193.5C 96.1468,191.14 94.1468,188.473 92.5,185.5C 92.8417,184.662 93.5084,184.328 94.5,184.5 Z"/></g>
<g><path style="opacity:0.004" fill="#5fd7f7" d="M 180.5,189.5 C 181.5,189.5 182.5,189.5 183.5,189.5C 183.5,195.167 183.5,200.833 183.5,206.5C 182.5,206.5 181.5,206.5 180.5,206.5C 180.5,200.833 180.5,195.167 180.5,189.5 Z"/></g>
<g><path style="opacity:0.005" fill="#58c0dd" d="M 146.5,193.5 C 147.5,193.5 148.5,193.5 149.5,193.5C 147.748,195.246 146.415,197.246 145.5,199.5C 143.784,199.629 142.117,199.962 140.5,200.5C 141.438,197.843 143.438,195.51 146.5,193.5 Z"/></g>
<g><path style="opacity:0.005" fill="#58c2e0" d="M 98.5,193.5 C 99.5,193.5 100.5,193.5 101.5,193.5C 104.562,195.51 106.562,197.843 107.5,200.5C 104.205,199.176 102.872,200.509 103.5,204.5C 102.71,205.401 101.71,206.068 100.5,206.5C 100.5,205.5 100.5,204.5 100.5,203.5C 101.582,202.406 102.248,201.073 102.5,199.5C 101.568,197.235 100.235,195.235 98.5,193.5 Z"/></g>
<g><path style="opacity:0.007" fill="#5fd7f7" d="M 107.5,200.5 C 106.5,202.167 105.167,203.5 103.5,204.5C 102.872,200.509 104.205,199.176 107.5,200.5 Z"/></g>
<g><path style="opacity:0.995" fill="#60dafb" d="M 150.5,177.5 C 145.397,185.35 139.564,192.683 133,199.5C 132.333,200.5 132.333,201.5 133,202.5C 143.024,212.858 154.858,220.358 168.5,225C 175.317,226.586 180.983,224.753 185.5,219.5C 186.458,219.047 187.292,218.381 188,217.5C 188.779,212.079 190.613,207.079 193.5,202.5C 196.339,203.002 197.672,204.669 197.5,207.5C 196.442,212.119 195.776,216.786 195.5,221.5C 190.383,233.065 181.383,237.898 168.5,236C 160.002,233.835 152.002,230.501 144.5,226C 137.656,220.486 130.822,214.986 124,209.5C 117.635,214.701 111.135,219.701 104.5,224.5C 101.473,225.346 98.6395,226.68 96,228.5C 94.3333,225.833 92.6667,225.833 91,228.5C 90.654,226.782 90.154,225.115 89.5,223.5C 91.7863,222.181 93.7863,220.515 95.5,218.5C 102.799,213.162 109.799,207.328 116.5,201C 109.195,193.871 102.862,186.038 97.5,177.5C 97.3433,176.127 97.51,174.793 98,173.5C 102.143,177.246 106.977,179.579 112.5,180.5C 116.17,184.67 120.003,188.67 124,192.5C 126.349,189.984 128.849,187.651 131.5,185.5C 133.959,183.221 136.626,181.054 139.5,179C 143.947,177.61 147.947,175.444 151.5,172.5C 151.833,172.667 152.167,172.833 152.5,173C 150.963,174.11 150.297,175.61 150.5,177.5 Z M 131.5,185.5 C 128.849,187.651 126.349,189.984 124,192.5C 120.003,188.67 116.17,184.67 112.5,180.5C 111.859,179.518 111.193,178.518 110.5,177.5C 119.392,176.82 128.226,176.154 137,175.5C 137.5,176 138,176.5 138.5,177C 135.577,179.416 133.243,182.25 131.5,185.5 Z"/></g>
<g><path style="opacity:0.997" fill="#60dafb" d="M 87.5,233.5 C 77.4566,238.097 67.7899,237.263 58.5,231C 56.8588,229.871 55.8588,228.371 55.5,226.5C 52.8182,221.292 50.8182,215.792 49.5,210C 49.6667,208.833 49.8333,207.667 50,206.5C 50.3333,206.833 50.6667,207.167 51,207.5C 51.4012,205.479 52.5679,204.145 54.5,203.5C 57.6648,204.061 58.3314,205.728 56.5,208.5C 57.8609,211.633 58.6942,214.967 59,218.5C 61.706,220.871 64.0394,223.537 66,226.5C 67.813,225.391 68.6463,226.058 68.5,228.5C 71.2626,228.744 73.4293,230.077 75,232.5C 76.6904,230.397 78.5237,228.397 80.5,226.5C 82.8611,228.564 85.1944,228.23 87.5,225.5C 90.0629,228.08 90.0629,230.747 87.5,233.5 Z"/></g>
<g><path style="opacity:0.004" fill="#5fd5f5" d="M 145.5,199.5 C 151.97,208.265 160.637,213.932 171.5,216.5C 173.597,216.023 175.597,215.357 177.5,214.5C 178.5,214.5 179.5,214.5 180.5,214.5C 180.141,216.371 179.141,217.871 177.5,219C 168.646,219.716 160.646,217.383 153.5,212C 148.718,208.619 144.385,204.786 140.5,200.5C 142.117,199.962 143.784,199.629 145.5,199.5 Z"/></g>
<g><path style="opacity:0.004" fill="#5ccdec" d="M 180.5,206.5 C 181.5,206.5 182.5,206.5 183.5,206.5C 183.397,209.636 182.397,212.302 180.5,214.5C 179.5,214.5 178.5,214.5 177.5,214.5C 179.06,212.046 180.06,209.38 180.5,206.5 Z"/></g>
<g><path style="opacity:0.004" fill="#5fd4f4" d="M 232.5,158.5 C 232.5,159.167 232.5,159.833 232.5,160.5C 224.474,164.932 216.307,169.265 208,173.5C 207.726,181.533 208.226,189.533 209.5,197.5C 209.706,210.623 206.206,222.623 199,233.5C 197.12,236.192 194.62,237.359 191.5,237C 202.379,226.376 207.379,213.376 206.5,198C 206.29,189.564 205.29,181.23 203.5,173C 203.833,172.167 204.167,171.333 204.5,170.5C 214.117,167.021 223.451,163.021 232.5,158.5 Z"/></g>
<g><path style="opacity:0.006" fill="#5bccea" d="M 126.5,219.5 C 126.5,220.5 126.5,221.5 126.5,222.5C 124.249,221.135 122.249,221.469 120.5,223.5C 120.5,222.5 120.5,221.5 120.5,220.5C 122.334,216.187 124.334,215.854 126.5,219.5 Z"/></g>
<g><path style="opacity:0.004" fill="#5ed4f3" d="M 120.5,220.5 C 120.5,221.5 120.5,222.5 120.5,223.5C 118.469,225.522 116.135,227.189 113.5,228.5C 113.5,227.5 113.5,226.5 113.5,225.5C 115.555,223.445 117.888,221.779 120.5,220.5 Z"/></g>
<g><path style="opacity:0.004" fill="#5fd4f4" d="M 126.5,219.5 C 133.4,225.225 140.733,230.392 148.5,235C 154.398,237.233 160.064,239.733 165.5,242.5C 163.163,243.512 160.83,243.345 158.5,242C 146.363,237.653 135.697,231.153 126.5,222.5C 126.5,221.5 126.5,220.5 126.5,219.5 Z"/></g>
<g><path style="opacity:0.004" fill="#5ac6e2" d="M 113.5,225.5 C 113.5,226.5 113.5,227.5 113.5,228.5C 113.167,229.5 112.5,230.167 111.5,230.5C 111.5,229.5 111.5,228.5 111.5,227.5C 111.833,226.5 112.5,225.833 113.5,225.5 Z"/></g>
<g><path style="opacity:0.004" fill="#5ed3f3" d="M 111.5,227.5 C 111.5,228.5 111.5,229.5 111.5,230.5C 106.651,234.929 100.984,237.096 94.5,237C 100.485,234.342 106.152,231.176 111.5,227.5 Z"/></g>
</svg>
