<?xml version="1.0" encoding="UTF-8"?>
<!DOCTYPE svg PUBLIC "-//W3C//DTD SVG 1.1//EN" "http://www.w3.org/Graphics/SVG/1.1/DTD/svg11.dtd">
<svg xmlns="http://www.w3.org/2000/svg" version="1.1" width="250px" height="250px" style="shape-rendering:geometricPrecision; text-rendering:geometricPrecision; image-rendering:optimizeQuality; fill-rule:evenodd; clip-rule:evenodd" xmlns:xlink="http://www.w3.org/1999/xlink">
<g><path style="opacity:1" fill="#f55601" d="M 54.5,-0.5 C 71.1667,-0.5 87.8333,-0.5 104.5,-0.5C 112.172,27.5261 119.505,55.5261 126.5,83.5C 126.108,85.1789 125.608,86.8455 125,88.5C 121.077,80.4926 117.91,72.1593 115.5,63.5C 115.59,60.8478 114.924,58.5145 113.5,56.5C 112.378,55.8442 111.045,55.5108 109.5,55.5C 107.667,55.5854 106.334,56.2521 105.5,57.5C 106.057,62.1646 107.39,66.4979 109.5,70.5C 112.192,77.9069 115.192,85.2402 118.5,92.5C 117.357,92.0919 116.357,91.4252 115.5,90.5C 114.281,87.3334 112.781,84.3334 111,81.5C 111.195,83.1261 111.195,84.7928 111,86.5C 106.632,90.533 102.632,94.8663 99,99.5C 99.1138,104.606 98.2805,109.273 96.5,113.5C 92.6136,115.275 88.2803,116.108 83.5,116C 73.9188,126.747 63.9188,136.913 53.5,146.5C 52.2058,145.71 51.0391,144.71 50,143.5C 49.3333,97.1667 49.3333,50.8333 50,4.5C 51.7073,2.96252 53.2073,1.29585 54.5,-0.5 Z"/></g>
<g><path style="opacity:1" fill="#fe5d00" d="M 104.5,-0.5 C 133.167,-0.5 161.833,-0.5 190.5,-0.5C 181.826,10.3553 172.492,20.8553 162.5,31C 165.992,30.9296 168.992,31.7629 171.5,33.5C 165.167,33.5 158.833,33.5 152.5,33.5C 152.5,60.1667 152.5,86.8333 152.5,113.5C 150.675,90.8551 149.841,67.8551 150,44.5C 147.128,47.0366 144.628,49.8699 142.5,53C 143.252,53.6708 143.586,54.5041 143.5,55.5C 137.948,54.007 134.948,56.007 134.5,61.5C 133.076,63.5145 132.41,65.8478 132.5,68.5C 130.481,73.5709 128.481,78.5709 126.5,83.5C 119.505,55.5261 112.172,27.5261 104.5,-0.5 Z"/></g>
<g><path style="opacity:0.998" fill="#ff6501" d="M 190.5,-0.5 C 191.833,-0.5 193.167,-0.5 194.5,-0.5C 195.793,1.29585 197.293,2.96252 199,4.5C 199.667,50.8333 199.667,97.1667 199,143.5C 197.5,145 196,146.5 194.5,148C 177.503,148.5 160.503,148.667 143.5,148.5C 140.005,132.516 136.172,116.516 132,100.5C 131.29,99.0267 130.124,98.3601 128.5,98.5C 131.875,88.6846 135.708,79.0179 140,69.5C 141.481,64.8937 142.648,60.227 143.5,55.5C 143.586,54.5041 143.252,53.6708 142.5,53C 144.628,49.8699 147.128,47.0366 150,44.5C 149.841,67.8551 150.675,90.8551 152.5,113.5C 152.833,113.5 153.167,113.5 153.5,113.5C 159.5,113.5 165.5,113.5 171.5,113.5C 171.5,111.5 171.5,109.5 171.5,107.5C 167.833,107.5 164.167,107.5 160.5,107.5C 160.5,85.1667 160.5,62.8333 160.5,40.5C 164.167,40.5 167.833,40.5 171.5,40.5C 171.5,38.5 171.5,36.5 171.5,34.5C 171.5,34.1667 171.5,33.8333 171.5,33.5C 168.992,31.7629 165.992,30.9296 162.5,31C 172.492,20.8553 181.826,10.3553 190.5,-0.5 Z"/></g>
<g><path style="opacity:1" fill="#fefdfc" d="M 95.5,34.5 C 95.5,60.5 95.5,86.5 95.5,112.5C 89.8333,112.5 84.1667,112.5 78.5,112.5C 78.5,111.167 78.5,109.833 78.5,108.5C 82.3714,108.815 86.0381,108.482 89.5,107.5C 89.5,84.8333 89.5,62.1667 89.5,39.5C 85.8333,39.5 82.1667,39.5 78.5,39.5C 78.5,37.8333 78.5,36.1667 78.5,34.5C 84.1667,34.5 89.8333,34.5 95.5,34.5 Z"/></g>
<g><path style="opacity:1" fill="#fff6f0" d="M 170.5,34.5 C 170.5,36.1667 170.5,37.8333 170.5,39.5C 166.958,39.1872 163.625,39.5206 160.5,40.5C 160.5,62.8333 160.5,85.1667 160.5,107.5C 163.625,108.479 166.958,108.813 170.5,108.5C 170.5,109.833 170.5,111.167 170.5,112.5C 164.833,112.5 159.167,112.5 153.5,112.5C 153.5,86.5 153.5,60.5 153.5,34.5C 159.167,34.5 164.833,34.5 170.5,34.5 Z"/></g>
<g><path style="opacity:1" fill="#ffc3a6" d="M 170.5,34.5 C 170.833,34.5 171.167,34.5 171.5,34.5C 171.5,36.5 171.5,38.5 171.5,40.5C 167.833,40.5 164.167,40.5 160.5,40.5C 163.625,39.5206 166.958,39.1872 170.5,39.5C 170.5,37.8333 170.5,36.1667 170.5,34.5 Z"/></g>
<g><path style="opacity:1" fill="#f99d78" d="M 96.5,34.5 C 96.1667,34.5 95.8333,34.5 95.5,34.5C 89.8333,34.5 84.1667,34.5 78.5,34.5C 78.5,36.1667 78.5,37.8333 78.5,39.5C 82.1667,39.5 85.8333,39.5 89.5,39.5C 89.5,62.1667 89.5,84.8333 89.5,107.5C 89.1667,107.5 88.8333,107.5 88.5,107.5C 88.5,85.1667 88.5,62.8333 88.5,40.5C 84.8333,40.5 81.1667,40.5 77.5,40.5C 77.5,38.1667 77.5,35.8333 77.5,33.5C 84.0221,33.1765 90.3554,33.5098 96.5,34.5 Z"/></g>
<g><path style="opacity:1" fill="#ffb386" d="M 171.5,33.5 C 171.5,33.8333 171.5,34.1667 171.5,34.5C 171.167,34.5 170.833,34.5 170.5,34.5C 164.833,34.5 159.167,34.5 153.5,34.5C 153.5,60.5 153.5,86.5 153.5,112.5C 153.5,112.833 153.5,113.167 153.5,113.5C 153.167,113.5 152.833,113.5 152.5,113.5C 152.5,86.8333 152.5,60.1667 152.5,33.5C 158.833,33.5 165.167,33.5 171.5,33.5 Z"/></g>
<g><path style="opacity:1" fill="#fff4ef" d="M 113.5,56.5 C 113.41,59.1522 114.076,61.4855 115.5,63.5C 117.91,72.1593 121.077,80.4926 125,88.5C 125.608,86.8455 126.108,85.1789 126.5,83.5C 128.481,78.5709 130.481,73.5709 132.5,68.5C 133.924,66.4855 134.59,64.1522 134.5,61.5C 134.948,56.007 137.948,54.007 143.5,55.5C 142.648,60.227 141.481,64.8937 140,69.5C 135.708,79.0179 131.875,88.6846 128.5,98.5C 125.833,98.5 123.167,98.5 120.5,98.5C 120.396,96.2972 119.73,94.2972 118.5,92.5C 115.192,85.2402 112.192,77.9069 109.5,70.5C 108.943,65.8354 107.61,61.5021 105.5,57.5C 106.334,56.2521 107.667,55.5854 109.5,55.5C 111.045,55.5108 112.378,55.8442 113.5,56.5 Z"/></g>
<g><path style="opacity:1" fill="#fdbba1" d="M 113.5,56.5 C 114.924,58.5145 115.59,60.8478 115.5,63.5C 114.076,61.4855 113.41,59.1522 113.5,56.5 Z"/></g>
<g><path style="opacity:1" fill="#fb8f67" d="M 105.5,57.5 C 107.61,61.5021 108.943,65.8354 109.5,70.5C 107.39,66.4979 106.057,62.1646 105.5,57.5 Z"/></g>
<g><path style="opacity:1" fill="#ffbd9c" d="M 134.5,61.5 C 134.59,64.1522 133.924,66.4855 132.5,68.5C 132.41,65.8478 133.076,63.5145 134.5,61.5 Z"/></g>
<g><path style="opacity:0.999" fill="#fd5c01" d="M 118.5,92.5 C 119.73,94.2972 120.396,96.2972 120.5,98.5C 123.167,98.5 125.833,98.5 128.5,98.5C 130.124,98.3601 131.29,99.0267 132,100.5C 136.172,116.516 140.005,132.516 143.5,148.5C 113.831,148.667 84.1648,148.5 54.5,148C 53.944,147.617 53.6107,147.117 53.5,146.5C 63.9188,136.913 73.9188,126.747 83.5,116C 88.2803,116.108 92.6136,115.275 96.5,113.5C 98.2805,109.273 99.1138,104.606 99,99.5C 102.632,94.8663 106.632,90.533 111,86.5C 111.195,84.7928 111.195,83.1261 111,81.5C 112.781,84.3334 114.281,87.3334 115.5,90.5C 116.357,91.4252 117.357,92.0919 118.5,92.5 Z"/></g>
<g><path style="opacity:1" fill="#fdcfbb" d="M 95.5,34.5 C 95.8333,34.5 96.1667,34.5 96.5,34.5C 96.5,60.8333 96.5,87.1667 96.5,113.5C 90.1667,113.5 83.8333,113.5 77.5,113.5C 77.5,111.5 77.5,109.5 77.5,107.5C 81.1667,107.5 84.8333,107.5 88.5,107.5C 88.8333,107.5 89.1667,107.5 89.5,107.5C 86.0381,108.482 82.3714,108.815 78.5,108.5C 78.5,109.833 78.5,111.167 78.5,112.5C 84.1667,112.5 89.8333,112.5 95.5,112.5C 95.5,86.5 95.5,60.5 95.5,34.5 Z"/></g>
<g><path style="opacity:1" fill="#ffddcc" d="M 160.5,107.5 C 164.167,107.5 167.833,107.5 171.5,107.5C 171.5,109.5 171.5,111.5 171.5,113.5C 165.5,113.5 159.5,113.5 153.5,113.5C 153.5,113.167 153.5,112.833 153.5,112.5C 159.167,112.5 164.833,112.5 170.5,112.5C 170.5,111.167 170.5,109.833 170.5,108.5C 166.958,108.813 163.625,108.479 160.5,107.5 Z"/></g>
<g><path style="opacity:0.907" fill="#f45700" d="M 49.5,176.5 C 55.7624,175.872 61.7624,176.705 67.5,179C 69.9021,181.703 71.2354,184.87 71.5,188.5C 68.1016,188.82 64.7683,188.487 61.5,187.5C 58.4671,182.805 55.1337,182.472 51.5,186.5C 57.7,189.273 63.8667,192.273 70,195.5C 75.2069,208.757 70.7069,215.424 56.5,215.5C 47.48,216.331 42.1467,212.331 40.5,203.5C 41.0253,202.808 41.6919,202.308 42.5,202C 45.146,201.503 47.8127,201.336 50.5,201.5C 51.7382,207.284 55.0715,209.117 60.5,207C 63.3264,204.478 62.9931,202.478 59.5,201C 53.0408,199.859 47.5408,197.026 43,192.5C 40.7242,185.126 42.8909,179.793 49.5,176.5 Z"/></g>
<g><path style="opacity:0.918" fill="#f45700" d="M 76.5,177.5 C 86.5,177.5 96.5,177.5 106.5,177.5C 106.5,179.833 106.5,182.167 106.5,184.5C 103.167,184.5 99.8333,184.5 96.5,184.5C 96.5,194.5 96.5,204.5 96.5,214.5C 93.1667,214.5 89.8333,214.5 86.5,214.5C 86.5,204.5 86.5,194.5 86.5,184.5C 83.1667,184.5 79.8333,184.5 76.5,184.5C 76.5,182.167 76.5,179.833 76.5,177.5 Z"/></g>
<g><path style="opacity:0.922" fill="#f45700" d="M 117.5,177.5 C 121.833,177.5 126.167,177.5 130.5,177.5C 134.79,189.746 138.79,202.079 142.5,214.5C 139.102,214.82 135.768,214.487 132.5,213.5C 131.423,211.271 130.756,208.937 130.5,206.5C 126.167,206.5 121.833,206.5 117.5,206.5C 117.244,208.937 116.577,211.271 115.5,213.5C 112.232,214.487 108.898,214.82 105.5,214.5C 109.5,202.167 113.5,189.833 117.5,177.5 Z M 123.5,188.5 C 125.002,191.654 126.336,194.987 127.5,198.5C 125.257,199.474 122.924,199.808 120.5,199.5C 121.297,195.777 122.297,192.11 123.5,188.5 Z"/></g>
<g><path style="opacity:0.918" fill="#f45700" d="M 141.5,177.5 C 151.5,177.5 161.5,177.5 171.5,177.5C 171.5,179.833 171.5,182.167 171.5,184.5C 168.167,184.5 164.833,184.5 161.5,184.5C 161.5,194.5 161.5,204.5 161.5,214.5C 158.167,214.5 154.833,214.5 151.5,214.5C 151.5,204.5 151.5,194.5 151.5,184.5C 148.167,184.5 144.833,184.5 141.5,184.5C 141.5,182.167 141.5,179.833 141.5,177.5 Z"/></g>
<g><path style="opacity:0.936" fill="#f45700" d="M 176.5,177.5 C 186.167,177.5 195.833,177.5 205.5,177.5C 205.5,179.833 205.5,182.167 205.5,184.5C 199.167,184.5 192.833,184.5 186.5,184.5C 186.5,186.833 186.5,189.167 186.5,191.5C 192.5,191.5 198.5,191.5 204.5,191.5C 204.5,193.833 204.5,196.167 204.5,198.5C 198.5,198.5 192.5,198.5 186.5,198.5C 186.5,201.5 186.5,204.5 186.5,207.5C 193.167,207.5 199.833,207.5 206.5,207.5C 206.5,209.833 206.5,212.167 206.5,214.5C 196.5,214.5 186.5,214.5 176.5,214.5C 176.5,202.167 176.5,189.833 176.5,177.5 Z"/></g>
<g><path style="opacity:0.891" fill="#f45700" d="M 25.5,249.5 C 23.5,249.5 21.5,249.5 19.5,249.5C 19.0821,240.309 18.0821,240.309 16.5,249.5C 14.5,249.5 12.5,249.5 10.5,249.5C 8.25307,237.774 7.25307,237.774 7.5,249.5C 5.5,249.5 3.5,249.5 1.5,249.5C 1.5,241.833 1.5,234.167 1.5,226.5C 4.5,226.5 7.5,226.5 10.5,226.5C 11.6547,240.467 13.6547,240.8 16.5,227.5C 19.4281,226.516 22.4281,226.183 25.5,226.5C 25.5,234.167 25.5,241.833 25.5,249.5 Z"/></g>
<g><path style="opacity:0.87" fill="#f45700" d="M 51.5,249.5 C 49.1667,249.5 46.8333,249.5 44.5,249.5C 44.1993,246.641 42.5327,245.307 39.5,245.5C 36.042,244.774 34.3753,246.107 34.5,249.5C 32.1667,249.5 29.8333,249.5 27.5,249.5C 29.9627,242.114 32.6293,234.78 35.5,227.5C 38.1667,226.167 40.8333,226.167 43.5,227.5C 46.3707,234.78 49.0373,242.114 51.5,249.5 Z M 38.5,234.5 C 40.0428,235.736 41.0428,237.402 41.5,239.5C 40.3112,240.429 38.9778,240.762 37.5,240.5C 37.8333,238.5 38.1667,236.5 38.5,234.5 Z"/></g>
<g><path style="opacity:0.893" fill="#f45700" d="M 74.5,249.5 C 72.1667,249.5 69.8333,249.5 67.5,249.5C 65.3448,245.861 63.1782,242.194 61,238.5C 60.5014,242.152 60.3347,245.818 60.5,249.5C 58.5,249.5 56.5,249.5 54.5,249.5C 54.5,241.833 54.5,234.167 54.5,226.5C 56.924,226.192 59.2573,226.526 61.5,227.5C 63.9209,231.34 66.0875,235.34 68,239.5C 68.499,235.179 68.6657,230.846 68.5,226.5C 70.5,226.5 72.5,226.5 74.5,226.5C 74.5,234.167 74.5,241.833 74.5,249.5 Z"/></g>
<g><path style="opacity:0.87" fill="#f45700" d="M 101.5,249.5 C 99.1667,249.5 96.8333,249.5 94.5,249.5C 94.1993,246.641 92.5327,245.307 89.5,245.5C 86.042,244.774 84.3753,246.107 84.5,249.5C 82.1667,249.5 79.8333,249.5 77.5,249.5C 79.9627,242.114 82.6293,234.78 85.5,227.5C 88.1667,226.167 90.8333,226.167 93.5,227.5C 96.3707,234.78 99.0373,242.114 101.5,249.5 Z M 88.5,234.5 C 90.0428,235.736 91.0428,237.402 91.5,239.5C 90.3112,240.429 88.9778,240.762 87.5,240.5C 87.8333,238.5 88.1667,236.5 88.5,234.5 Z"/></g>
<g><path style="opacity:0.866" fill="#f45700" d="M 122.5,249.5 C 118.167,249.5 113.833,249.5 109.5,249.5C 103.48,244.794 101.98,238.794 105,231.5C 109.491,226.741 114.991,225.241 121.5,227C 124.789,228.41 126.456,230.91 126.5,234.5C 124.94,234.519 123.44,234.852 122,235.5C 120.404,234.503 118.904,233.337 117.5,232C 114.648,231.087 112.481,231.92 111,234.5C 109.106,239.985 110.773,243.651 116,245.5C 122.083,243.262 121.916,242.262 115.5,242.5C 115.5,240.833 115.5,239.167 115.5,237.5C 119.167,237.5 122.833,237.5 126.5,237.5C 126.82,240.898 126.487,244.232 125.5,247.5C 124.261,247.942 123.261,248.609 122.5,249.5 Z"/></g>
<g><path style="opacity:0.886" fill="#f45700" d="M 149.5,249.5 C 143.167,249.5 136.833,249.5 130.5,249.5C 130.5,241.833 130.5,234.167 130.5,226.5C 136.833,226.5 143.167,226.5 149.5,226.5C 149.5,228.167 149.5,229.833 149.5,231.5C 145.167,231.5 140.833,231.5 136.5,231.5C 136.5,232.833 136.5,234.167 136.5,235.5C 140.5,235.5 144.5,235.5 148.5,235.5C 148.5,237.167 148.5,238.833 148.5,240.5C 144.5,240.5 140.5,240.5 136.5,240.5C 136.5,242.167 136.5,243.833 136.5,245.5C 140.833,245.5 145.167,245.5 149.5,245.5C 149.5,246.833 149.5,248.167 149.5,249.5 Z"/></g>
<g><path style="opacity:0.891" fill="#f45700" d="M 177.5,249.5 C 175.5,249.5 173.5,249.5 171.5,249.5C 171.082,240.309 170.082,240.309 168.5,249.5C 166.5,249.5 164.5,249.5 162.5,249.5C 160.253,237.774 159.253,237.774 159.5,249.5C 157.5,249.5 155.5,249.5 153.5,249.5C 153.5,241.833 153.5,234.167 153.5,226.5C 156.5,226.5 159.5,226.5 162.5,226.5C 163.655,240.467 165.655,240.8 168.5,227.5C 171.428,226.516 174.428,226.183 177.5,226.5C 177.5,234.167 177.5,241.833 177.5,249.5 Z"/></g>
<g><path style="opacity:0.886" fill="#f45700" d="M 201.5,249.5 C 195.167,249.5 188.833,249.5 182.5,249.5C 182.5,241.833 182.5,234.167 182.5,226.5C 188.833,226.5 195.167,226.5 201.5,226.5C 201.5,228.167 201.5,229.833 201.5,231.5C 197.167,231.5 192.833,231.5 188.5,231.5C 188.5,232.833 188.5,234.167 188.5,235.5C 192.5,235.5 196.5,235.5 200.5,235.5C 200.5,237.167 200.5,238.833 200.5,240.5C 196.5,240.5 192.5,240.5 188.5,240.5C 188.5,242.167 188.5,243.833 188.5,245.5C 192.833,245.5 197.167,245.5 201.5,245.5C 201.5,246.833 201.5,248.167 201.5,249.5 Z"/></g>
<g><path style="opacity:0.893" fill="#f45700" d="M 225.5,249.5 C 223.167,249.5 220.833,249.5 218.5,249.5C 216.345,245.861 214.178,242.194 212,238.5C 211.501,242.152 211.335,245.818 211.5,249.5C 209.5,249.5 207.5,249.5 205.5,249.5C 205.5,241.833 205.5,234.167 205.5,226.5C 207.924,226.192 210.257,226.526 212.5,227.5C 214.921,231.34 217.088,235.34 219,239.5C 219.499,235.179 219.666,230.846 219.5,226.5C 221.5,226.5 223.5,226.5 225.5,226.5C 225.5,234.167 225.5,241.833 225.5,249.5 Z"/></g>
<g><path style="opacity:0.898" fill="#f45700" d="M 240.5,249.5 C 238.5,249.5 236.5,249.5 234.5,249.5C 234.5,243.5 234.5,237.5 234.5,231.5C 232.167,231.5 229.833,231.5 227.5,231.5C 227.5,229.833 227.5,228.167 227.5,226.5C 234.167,226.5 240.833,226.5 247.5,226.5C 247.5,228.167 247.5,229.833 247.5,231.5C 245.167,231.5 242.833,231.5 240.5,231.5C 240.5,237.5 240.5,243.5 240.5,249.5 Z"/></g>
</svg>
