<?xml version="1.0" encoding="iso-8859-1"?>
<!-- Uploaded to: SVG Repo, www.svgrepo.com, Generator: SVG Repo Mixer Tools -->
<svg version="1.1" id="Layer_1" xmlns="http://www.w3.org/2000/svg" xmlns:xlink="http://www.w3.org/1999/xlink" 
	 viewBox="0 0 502 502" xml:space="preserve">
<g>
	<g>
		<rect x="5" y="5" style="fill:#15ACE5;" width="492" height="492"/>
		<path d="M497,502H5c-2.761,0-5-2.239-5-5V5c0-2.761,2.239-5,5-5h492c2.762,0,5,2.239,5,5v492C502,499.761,499.762,502,497,502z
			 M10,492h482V10H10V492z"/>
	</g>
	<path style="fill:#FFFFFF;" d="M414.961,282.713c1.914-9.82,2.926-19.963,2.926-30.342c0-87.252-70.731-157.983-157.983-157.983
		c-10.38,0-20.527,1.012-30.348,2.92c-13.5-7.902-29.203-12.446-45.977-12.446c-50.362,0-91.189,40.827-91.189,91.189
		c0,16.769,4.549,32.472,12.45,45.977c-1.908,9.821-2.92,19.963-2.92,30.343c0,87.252,70.731,157.983,157.984,157.983
		c10.379,0,20.521-1.012,30.342-2.926c13.5,7.903,29.204,12.452,45.977,12.452c50.364,0,91.191-40.827,91.191-91.189
		C427.413,311.917,422.862,296.218,414.961,282.713L414.961,282.713z M262.902,360.866c-56.14,0-84.205-21.053-92.845-47.5
		c-8.634-26.452,10.259-34.005,16.194-34.549c5.942-0.537,18.535,0.901,22.135,11.877c3.737,11.407,16.194,34.005,43.183,36.704
		s44.801-9.715,50.199-22.671c5.398-12.952-4.317-30.764-45.882-36.706c-41.565-5.935-84.748-24.291-84.748-65.854
		c0-41.56,47.5-58.297,92.845-58.297c45.34,0,68.328,25.609,73.409,35.63c6.299,12.414,4.139,33.099-10.796,36.704
		c-15.65,3.78-23.747-4.861-35.086-25.909c-11.717-21.771-53.435-16.194-67.474-3.78c-14.032,12.414-10.252,30.226,48.044,41.565
		c58.296,11.333,79.888,32.387,79.888,65.312C351.968,326.318,319.043,360.866,262.902,360.866L262.902,360.866z"/>
	<path d="M336.222,424.88c-16.415,0-32.574-4.212-46.859-12.197c-9.69,1.772-19.591,2.67-29.458,2.67
		c-89.87,0-162.985-73.114-162.985-162.983c0-9.856,0.896-19.757,2.666-29.459c-7.985-14.289-12.196-30.449-12.196-46.861
		c0-53.039,43.15-96.189,96.189-96.189c16.422,0,32.583,4.21,46.861,12.192c9.701-1.769,19.603-2.666,29.464-2.666
		c89.869,0,162.982,73.114,162.982,162.983c0,9.868-0.898,19.769-2.671,29.459c7.985,14.291,12.197,30.451,12.197,46.86
		C432.413,381.729,389.262,424.88,336.222,424.88z M290.245,402.429c0.882,0,1.755,0.233,2.525,0.685
		c13.152,7.698,28.177,11.767,43.451,11.767c47.526,0,86.191-38.665,86.191-86.19c0-15.268-4.069-30.294-11.768-43.453
		c-0.614-1.05-0.825-2.288-0.592-3.481c1.88-9.646,2.833-19.533,2.833-29.385c0-84.355-68.628-152.983-152.982-152.983
		c-9.846,0-19.736,0.952-29.395,2.828c-1.195,0.232-2.431,0.021-3.479-0.593c-13.145-7.694-28.17-11.761-43.451-11.761
		c-47.525,0-86.189,38.665-86.189,86.189c0,15.271,4.069,30.296,11.766,43.452c0.614,1.049,0.825,2.286,0.593,3.479
		c-1.877,9.66-2.829,19.548-2.829,29.389c0,84.355,68.629,152.983,152.985,152.983c9.852,0,19.738-0.953,29.385-2.833
		C289.605,402.459,289.926,402.429,290.245,402.429z M262.902,365.866c-70.436,0-91.381-31.92-97.598-50.947
		c-3.857-11.82-3.231-21.736,1.86-29.474c5.484-8.334,14.584-11.237,18.63-11.607c8.056-0.726,22.873,1.674,27.342,15.297
		c1.663,5.077,11.352,30.53,38.929,33.288c24.35,2.433,40.439-8.463,45.087-19.619c1.531-3.675,1.251-7.533-0.81-11.159
		c-2.956-5.199-12.234-14.538-41.165-18.674c-16.954-2.421-41.126-7.915-60.002-20.34c-19.268-12.683-29.038-29.662-29.038-50.464
		c0-20.936,11.086-37.929,32.061-49.143c17.072-9.127,40.435-14.154,65.785-14.154c47.923,0,72.458,27.697,77.868,38.37
		c4.789,9.437,5.17,21.932,0.945,31.09c-3.092,6.705-8.288,11.108-15.026,12.735c-20.755,5.011-30.694-9.894-40.662-28.397
		c-3.966-7.367-12.161-10.227-18.338-11.328c-15.598-2.782-34.01,2.368-41.422,8.922c-2.832,2.505-5.985,6.315-4.917,10.231
		c1.111,4.076,8.266,14.445,50.604,22.68c58.047,11.285,83.933,32.941,83.933,70.22
		C356.968,329.018,321.783,365.866,262.902,365.866z M188.351,283.736c-0.93,0-1.538,0.051-1.649,0.061
		c-1.785,0.164-7.684,1.828-11.183,7.146c-3.336,5.069-3.574,12.092-0.708,20.873c9.281,28.406,40.566,44.051,88.092,44.051
		c52.621,0,84.065-31.764,84.065-62.474c0-32.004-22.682-50.069-75.842-60.404c-35.178-6.843-54.807-16.892-58.343-29.867
		c-1.887-6.924,0.933-14.152,7.94-20.352c10.639-9.407,32.515-14.361,49.803-11.276c11.972,2.135,20.75,7.817,25.386,16.432
		c11.433,21.217,17.771,26.253,29.511,23.417c3.713-0.896,6.503-3.319,8.294-7.203c2.917-6.324,2.587-15.735-0.784-22.378
		c-4.639-9.15-26.065-32.893-68.949-32.893c-40.523,0-87.845,13.958-87.845,53.297c0,17.227,8.255,31.395,24.536,42.112
		c13.718,9.03,33.055,15.528,55.919,18.793c31.494,4.502,43.727,15.335,48.442,23.631c3.596,6.323,4.073,13.408,1.348,19.948
		c-6.221,14.935-25.733,28.682-55.312,25.723c-33.746-3.375-45.436-34.015-47.437-40.123
		C201.113,284.564,192.11,283.736,188.351,283.736z"/>
	<g>
		<path d="M50,102c-2.761,0-5-2.239-5-5V54c0-2.761,2.239-5,5-5s5,2.239,5,5v43C55,99.761,52.761,102,50,102z"/>
	</g>
	<g>
		<path d="M50,452c-2.761,0-5-2.239-5-5V147c0-2.761,2.239-5,5-5s5,2.239,5,5v300C55,449.761,52.761,452,50,452z"/>
	</g>
</g>
</svg>